<?xml version='1.0' encoding='utf-8'?>
<svg xmlns="http://www.w3.org/2000/svg" enable-background="new 0 0 4780.1362 5000" version="1.1" viewBox="0 0 4780.1 5e3"> <path d="m4750.6 4202.1c-23.17-48.066-46.479-101.49-76.854-145.26-60.085-86.587-145.27-105.81-242.21-143.94-167.22-71.038-104-41.336-276.8-131.8-209.19-117.16-149.23-76.936-239.58-167.88l-90.43-84.991c-48.602-41.838-103.36-74.072-152.35-114.82-255.73-227.71-203.83-183.34-268.24-233.35-3.3618-2.4194-14.994-8.7214-16.958-11.716-1.9243-2.9412 0.9421 4.3042-22.779-90.618 54.091-3.7881 109.21-5.1714 161.36-21.395 65.422-20.353 139.09-70.102 151.13-137.57 12.102-67.772-33.202-155.14-23.046-209.29 5.9597-31.788 28.223-71.598 48.909-96.335 12.466-14.904 27.936-29.839 36.657-47.411 19.67-39.632 5.2759-70.76-8.0522-108.59 11.92-21.098 29.75-37.827 41.962-58.697 30.317-51.821 4.002-69.787-7.1399-111.63-4.7996-18.019-4.4177-36.082-4.1104-54.576 0.2678-16.174-0.2478-51.453 8.9153-64.994 13.906-20.538 36.31-19.937 68.028-29.681 21.742-6.6741 42.344-16.035 63.447-24.41 28.218-11.201 58.057-20.686 79.963-42.756 19.288-19.432 23.77-47.679 15.693-73.681-11.133-35.84-59.117-82.561-94.585-139.22-39.791-63.561-61.528-136.14-94.129-203.29-30.27-62.364-44.46-67.456-48.413-80.732-2.5732-8.6621 0.8875-24.564 1.7007-33.538l2.3308-54.239c8.9695 2.5734 18.122 5.8906 27.384 2.9949 12.128-3.7931 29.616-10.214 36.032-22.07-27.345 7.1047-28.72 6.3184-42.324-7.4226-39.857-40.256-7.812-94.789 8.0425-149.41 0.9521-3.2971 3.9814-21.826 5.3896-23.23 3.2725-3.2528 20.741-6.1733 25.808-7.9434 41.884-14.653 70.859-51.053 70.557-107.53-13.912 25.327-17.203 57.57-78.094 81.203-2.7468-18.023-6.1138-32.894-15.331-49.013-19.967-34.932-57.655-61.275-75.381-97.992 45.716 21.375 107.87 53.332 159.72 47.045-38.275-12.033-29.128-2.2609-79.904-31.267 57.338-0.3817 105.07-5.8011 147.48-49.246 38.7-39.653 43.646-95.013 41.749-150.3-13.516 35.085-30.444 72.704-66.644 89.919-56.315 26.78-123.59-0.5805-142.46-45.2-6.7634-15.986-2.5586-35.824 4.72-50.858 12.108-25.02 41.075-44.813 61.013-64.24 108.17-105.38 134.33-272.49-76.74-379.54-9.0486-4.5868-86.423-36.268-86.746-36.624-4.4753-4.8993-18.771-70.268-47.516-111.54-30.563-43.891-78.718-76.281-129.58-91.974-12.713-3.9218-32.051-5.6172-43.048-12.518-12.648-7.9329-24.33-20.976-35.794-30.7-71.685-60.806-168.99-78.306-243.88-58.062-19.305 5.2196-89.955 31.304-106.79 29.45-5.9727-0.6578-5.2188-1.0629-71.37-31.323-429.36-175.9-625.75-155.54-934.63-31.92-60.035 24.028-118.25 51.516-180.17 70.671-86.701 26.82-175.82 40.247-262.98 64.377-138.1 38.231-301.47 135.12-401.95 245.76-222.44 244.97-256.93 591.82-311.45 677.92-27.132 42.86-73.958 68.668-125.13 58.344-27.752-5.5979-64.091-24.454-79.413-48.894-10.09-16.09-6.5449-45.418-1.9238-62.668 12.554-46.826 54.695-98.071 96.816-121.58 13.105-7.3086 27.474-12.366 41.511-17.548-25.309-0.3372-35.147-1.5137-57.735 5.0426-59.663 18.237-119.07 83.186-147.1 136.97-80.892 155.26-16.928 317.42 83.037 367.3 21.762 10.859 45.289 19.174 68.767 25.471-33.264 32.536-44.701 60.783-49.96 100.13-4.9631 41.779 9.8522 89.027 35.998 121.69 32.562 40.673 76.834 58.365 126.59 67.577-36.865 33.37-79.502 58.503-131.02 55.082-30.613-2.0331-59.996-13.779-79.65-37.847-22.164-27.147-37.688-65.589-39.181-100.55-26.483 77.39-30.067 160.65 7.0159 235.74 34.014 68.881 90.103 130.41 164.27 155.58 53.317 18.088 109.02 13.829 162.89 1.4231-13.268 39.325-28.664 71.504-68.321 90.718-31.282 15.158-68.817 16.963-101.7 5.8906-49.642-16.711-61.987-65.754-68.157-117.33-9.024 62.956-13.308 113.24 27.365 167.34 41.164 54.75 112.02 95.815 179.92 104.98 50.034 6.7534 91.154-9.5349 135.41-30.161 51.827 80.548 86.602 94.639 143.47 104.03-16.149 27.048-40.202 47.114-71.509 54.378-58.194 13.498-87.045-10.652-110.19-63.398h-1.5669c-7.922 69.37 93.915 133.8 164 141.66 63.219 7.1025 114.76-11.89 161.87-52.385 53.774 36.297 107.53 34.778 168.85 7.77-3.58 9.1233-6.6591 20.19-12.282 28.198-85.476 35.427-175.88 45.102-263.75 256.79-58.669 141.35-91.299 315.75-122.35 375.9-83.592 29.552-153.23 90.157-191.21 170.51-10.363 21.921-18.103 46.524-24.127 69.987-53.696 34.935-142.81 117.62-287.31 208.75-244.82 154.39-619.87 287.21-652.75 433.45-11.097 49.35 40.667 115.93 66.185 153.8 16.758 24.871 37.633 57.333 59.85 77.127-2.5638-17.903-50.323-106.99-75.128-198.28 40.694 66.129 94.209 205.17 195.27 322.87 10.168 11.84 20.104 26.141 32.246 35.933-46.968-100.97-79.813-166.97-119.74-293.52-8.1124-25.719-18.712-54.978-20.657-81.917 31.96 73.735 59.808 149.74 99.457 219.85 43.117 76.25 132.61 183.87 175.88 223.34-14.925-40.484-44.843-79.348-64.919-117.93-52.205-100.34-95.828-219.1-111.23-331.52 10.569 21.92 119.42 392.56 299.85 518.27-71.424-148.42-120.27-242.58-176.33-420.23-9.0442-28.668-21.441-55.072-23.256-84.311 1.5124 3.1416-5.111-12.614 79.975 191.9 86.75 191.49 216.01 334.73 272.53 375.56-52.823-115.26-110.45-121.75-224.77-500.09-9.7086-32.115-24.832-72.059-25.471-105.64 33.677 90.847 65.366 183.45 105.62 271.69 70.46 154.46 191.71 328.53 264.78 368.49-77.056-128.57-179.51-281.43-252.33-569.07-8.6375-34.114-18.787-68.772-22.263-103.85 31.154 70.156 101.48 336.83 277 558.59 28.971 36.598 63.511 77.38 104.03 101.78-135.36-252.62-164.96-271.27-253.81-542.05-14.077-42.889-33.449-93.261-37.108-138.34 49.782 134.4 133.72 402.02 338.69 651.65 50.433 57.531 67.246 78.597 82.715 87.088l3.6294 1.1953c-29.626-73.164-205.75-285.13-329.22-745.57-2.2807-10.586-5.5236-21.792-4.6558-32.661 8.3002 15.911 11.93 39.086 17.627 56.411 58.474 163.37 126.88 370.39 286.36 572.87 47.585 60.403 104.28 121.48 171.28 160.46-38.725-69.665-95.413-128.61-138.98-195.23-119.57-182.86-198.68-374.51-247.63-589.73-2.8759-13.908-6.8474-26.963-6.5797-41.248 12.666 36.178 73.053 319.17 303.22 660.91 18.787 27.896 36.662 58.643 57.72 84.783-16.338-47.516-44.149-91.699-66.119-136.83-72.347-158.57-129.17-277.51-163.19-386.87-5.588-17.954-14.374-39.86-15.158-58.573 20.145 46.619 50.02 166.64 214.06 437.05 28.512 46.997 123.96 201.53 166.53 236.37 408.09 94.245 258.29 62.671 655.61 139.76 116.56 19.862 110.92 19.433 120.44 19.079-22.197-17.998-144.24-30.799-454.4-245.21-20.126-13.913-47-29.308-63.159-47.392 26.277 1.064 231.72 135.08 657.73 244.39-16.442-12.887-40.673-19.115-59.832-27.554-196.37-88.772-27.126-10.705-471.58-227.39-33.581-15.597-51.027-20.194-54.571-37.674 5.4976-16.962 28.435-23.644 55.434-39.319 110.33-64.041 226.26-172.69 302.3-280.09l40.029-60.814c7.4126-12.381 14.533-30.132 24.246-40.222 5.6079-5.8306 9.2671-4.4375 16.65-4.4473 4.2 3.1582 6.436 4.041 8.7515 8.9297 7.3384 15.46 1.8247 35.254-4.1301 50.288-65.254 164.77-234.5 318.73-336.27 362.54 95.84-10.526 182.41-33.766 265.54-83.88 21.792-13.134 42.032-29.462 62.242-44.883-18.479 30.029-95.099 103.66-204.95 147.64-20.398 8.1714-42.334 13.11-63.377 19.486 185.09 13.41 187.14-9.4326 277.09-19.109-67.83 34.708-139.06 49.593-214.32 56.54 217.71 44.15 295.78 33.885 356.57 30.345-71.152 30.171-157.7 32.988-233.98 26.547 120.95 58.637 241.3 80.638 788.69 273.27l-1242.9-1970.6c-42.141-83.24-107.78-203.49-75.327-298.76 12.222-35.889 41.665-71.623 75.862-88.243 12.614 18.305-37.751 37.649-47.461 106.25-13.66 96.43 44.749 186.52 92.428 266.03 95.254 158.86 213.1 295.71 327.69 440.26 286.46 386.02 140.15 180.87 664.39 935.3 356.28 487.78 252.92 345.72 466.56 640.91-11.692-118.94-4.1768-94.254-79.591-210.98-91.373-141.41-201.57-270-288.63-414.03-28.842-47.705-45.661-101.05-68.594-151.67-20.354-44.933-45.433-87.301-68.926-130.57-14.647-26.983-28.53-59.336-48.096-83.146 1.7063 9.594-4.9961-7.1477 78.837 164.22 20.359 44.322 36.498 91.501 53.674 137.17l-40.073-57.06c-9.416-13.14-20.503-26.478-28.04-40.728-10.328-19.526-16.913-42.35-25.719-62.758-70.171-143.25-81.684-169.82-103.25-195.53 6.0098 22.605 21.742 46.4 31.827 68.033 21.857 46.901 43.049 94.139 59.808 143.14l-376.76-534.74c136.79 115.92 293.24 209.8 465.05 263.12 100.23 31.112 121.77 27.179 168.09 22.536 12.272 72.277 40.435 156.69 103.47 200.81 17.315 12.118 34.059 10.739 53.956 6.9062 51.408-9.9014 99.226-32.65 141.83-62.732 26.671 38.194 54.626 76.195 78.832 115.99 110.22 181.21 250.74 500.16 320.39 806.32 82.576-44.915 198.01-81.973 245.49-88.566-21.718-212.17-124.76-823.56-268.06-962.73 14.032 0.7832 29.616 0.446 43.351 3.0542 76.704 104.62 130.84 198.76 190.66 408.1 58.568 204.95 80.942 375.89 103.96 530.4l210-59.599c-13.65-267.89-97.084-533.23-191.44-782.59-94.12-248.75-168.86-393.64-364.46-617.71-12.743-14.494-25.683-23.134-12.069-39.528 33.715 20.735 253.41 286.12 282.06 328.2 108.05 158.68 282.26 531.24 339.61 771.97 35.336 148.31 44.562 272.71 52.474 371.55 2.3833 29.271 0.4548 22.418 8.8706 28.724 8.96 0.332 13.229-1.1504 19.947-7.2046 18.004-16.22 13.592-33.497 10.769-107.91 10.428 16.522 15.857 51.155 18.867 70.865l2.9004 0.6294c0.6001-5.5083 1.6265-10.239-0.2134-15.588h2.7769c2.6577 10.838 4.9878 20.15 11.027 29.75l2.1621-1.2393-14.295-55.925c18.756 29.26 13.284 28.36 20.433 37.628 5.9697-14.141-8.6079-28.649-8.4639-43.425 12.296 10.561 22.228 37.083 28.456 52.196-3.5239-39.818-57.841-150.04-62.891-185.8 39.336 60.978 76.393 167.62 100.61 190.56-2.8755-12.475-19.188-49.266-15.569-57.65 5.5776 4.7603 6.9512 8.6572 9.9165 15.014 1.8145 3.9072 1.1304 2.519 4.9585 5.9751l3.8179-3.2031c-1.6431-15.113-37.516-59.295-41.888-91.194 51.264 73.476 44.999 65.159 48.755 68.311 0.8042-6.1021 0.3828-5.5845-3.7388-18.856l7.9287 8.2456 3.1929-4.9336c-2.5513-11.973-3.1274-11.282-51.497-101.78-8.2017-15.191-11.543-18.471-14.821-32.928 18.148 15.49 40.615 68.801 67.126 95.964l2.8765-0.9175c-0.4814-4.8892-1.4634-7.2939 0.5596-11.875 3.4404 9.7114 2.7354 9.7354 6.1982 13.626l2.4297-1.7505c-0.7686-37.673-37.877-79.774-53.912-113.71 22.342 23.815 39.235 57.76 63.878 77.95l3.5547-1.4229c1.7158-14.116-2.3691-20.478-10.293-31.619-4.0356-5.6821 0.3867-5.876-1.25-10.527-3.3999-9.6772-43.18-32.16-78.004-80.875-8.5649-11.972-13.159-17.859-15.643-29.23 16.119 10.779 29.869 36.196 43.177 51.031l59.698 62.698c6.4014-1.0361 8.4541-0.7285 13.61-4.8638-6.7236-15.569-17.354-30.171-26.462-44.491l39.617 13.06c-14.798-33.295-14.467-23.606-17.27-34.267 12.352 0.48 16.652-0.3931 28.933 0.3472l1.2393-2.1572c-41.63-21.475-75.104-64.374-98.77-103.9 27.92 22.644 44.426 62.495 78.936 77.906 6.6685 2.9746 14.215 5.5625 21.073 1.6108 7.0903-4.0854 8.1763-8.4634 9.6587-15.951-11.429-15.575-37.082-17.663-56.381-35.809 17.19 5.6128 50.5 18.212 67.795 12.168l1.6411-4.8687c-20.051-24.744-55.292-27.819-98.67-70.081 39.884 16.373 66.665 46.683 114.03 39.091l1.106-3.6147c-11.365-11.736-34.248-17.592-49.187-24.206-52.752-23.354-111.33-60.481-143.27-109.89 28.231 15.342 91.972 80.484 159.7 100.85 9.5049 2.8613 22.62 6.5645 32.487 4.0659 5.9004-1.4927 7.5864-3.7388 11.578-7.9878-8.3545-18.215-61.259-40.358-67.82-49.464 13.104 4.1846 25.153 12.703 38.015 17.909 12.693 5.1323 28.347 6.3716 41.858 8.9746-39.141-51.135-93.351-81.857-145.91-117.27-84.332-56.817-209.99-155.28-258.71-245.03l494.14 305.69-211.28 520.6c21.895-23.904 38.719-58.062 56.019-85.754 37.733-60.398 76.413-121.23 107.16-185.58 88.831-193.69 93.714-206.86 115.37-241.33l9.6484 202.04c18.296-36.094 23.617-77.993 25.601-118.52 1.4478-29.537 2.8799-61.022-0.417-90.411-5.5767-49.742-53.239-185.38-70.091-225.93-12.901-31.04-28.267-61.593-39.17-93.36 13.863 14.394 24.95 41.416 34.391 59.525 77.047 147.78 95.717 231.59 129.9 392.09 11.255-23.354 14.007-46.252 16.164-71.668 12.001-141.41-83.1-310.69-94.753-356.91 14.312 14.428 21.978 33.149 74.013 143.13 32.877 71.025 54.965 121.25 56.143 229.58 44.719-67.662 15.45-169.11 2.7812-242.81 4.5669 5.9712 3.6885 4.769 16.978 32.194 13.918 24.469 43.068 62.079 70.681 69.794 7.9282-2.3945 10.373-4.373 15.827-10.606 4.175-18.814-14.658-48.555-28.967-78.252zm-3141.8-64.974c-22.16-197.74-114.03-375.34-117.51-395.47 13.612 13.236 116.18 240.49 147.94 374.73 5.6672 23.958 28.763 198.03 32.576 202.13 36.882-53.852 63.723-107.62 34.347-264.39-23.043-123.01-83.784-230.91-85.799-247.88 12.083 10.809 21.96 37.198 29.467 52.266 101.76 204.32 84.46 270.2 127.26 395.21 28.178-18.45 28.227-33.678 29.944-71.539 2.8114-62.346-6.9467-117.53-24.49-176.84 11.062 15.936 20.607 31.475 28.025 49.454 10.764 26.105 42.884 146.13 58.711 155.44 8.6324-2.5483 16.164-10.085 21.276-17.304 19.665-27.787 7.9683-77.568 2.8015-108.81 20.116 32.076 28.486 56.59 34.54 93.866 14.94-9.644 27.613-22.902 40.549-35.02l7.4375 0.8232c36.894 44.522-99.564 114.19-150.16 144.9-426.22 242.69-427.17 244.62-451.04 241.09-38.218-5.6509-75.243-81.962-94.432-118.37-107.38-224.28-208.29-448.84-256.3-708.25-16.59-89.642-27.112-187.62-14.166-278.42 8.7911-61.667 36.508-115.18 75.238-163.34 9.6786-12.039 19.407-25.952 31.818-35.19-8.7169 35.928-68.038 93.725-41.521 353.89 29.527 289.62 143.44 569.88 271.19 829.06-75.713-442.62-147.81-410.61-198.6-850.45-5.3997-46.752-14.548-96.122-13.522-143.09l1.1949-1.1702c34.715 215.13 56.998 373.75 89.374 481.66 32.051 106.84 78.232 208.76 114.18 314.35 75.938 240.89 57.579 194.51 68.941 221.9 41.498-319.68-136.59-489.37-121.5-713.9 11.861 72.878 16.738 124.15 73.716 266.32 59.09 147.46 76.043 162.73 103.5 305.75 4.3262 22.54 10.972 104.01 20.597 112.28 52.033-91.453 19.022-302.15-9.6292-405.68l-102.34-300.11 1.4825-2.2561c117.23 284.26 136.19 293.99 188.13 564.56 6.9965 36.463 17.409 73.909 20.067 110.88 16.571-41.3 42.428-92.673 26.701-233.09zm1761.1-647.11c-31.421 27.38-60.254 56.659-94.58 80.573l-6.53 2.6479-14.999-11.325c-3.51-0.0645-5.8904 0.0642-9.2024-1.2397 27.315-32.046 48.745-62.599 87.39-81.718 12.039-0.4966 31.924 0.5795 37.921 11.062zm-195.37 45.031c11.662-17.176 27.435-27.777 39.766-43.559 32.584-41.693 53.768-45.73 88.268-118.49-43.934 57.035-122.58 116.83-153.81 130.12 61.449-51.279 124.48-115.97 156.13-190.52 27.245-82.394 4.2339-166.96 2.3352-193.81-0.5352-7.5764 3.5503-12.217 8.1367-17.627l3.3521 0.377c10.283 15.43 14.686 35.715 19.332 53.515 16.085 61.657 22.62 127.66 9.5398 190.7-12.559 60.581-29.629 76.252-52.692 102.95-28.669 33.211-62.604 67.498-99.424 91.436 8.6375-16.189 25.263-27.023 33.355-43.757-20.061 9.3959-37.336 24.672-54.284 38.665zm-49.643-249.64c-123.05 155.15-127.21 162.21-141.2 171.05 4.7451-14.037 24.048-33.067 33.28-45.141 69.422-94.928 95.934-128.26 109.03-160.17-89.499 109.06-52.21 66.072-165.4 189.3-21.254 23.569-43.495 59.728-59.961 62.648l-1.1702-3.1584c17.766-11.592 31.887-35.695 45.795-52.038 17.937-21.075 124.5-140.66 144.83-182.03-15.723 11.988-22.628 20.55-126.99 136.04-10.665 12.128-23.275 30.504-36.236 39.587 11.761-35.884 112.65-131.89 314.7-373.54 9.4309-1.8843 21.415 1.2888 30.945 2.6379-58.475 95.584-60.756 134.83-159.83 278.87-13.839 20.121-29.666 45.785-49.494 59.966-2.7573 6.1333-4.2793 8.3347-10.066 11.816 2.9204-5.7366 4.3335-8.6575 10.066-11.816 11.083-21.877 23.889-34.335 36.478-53.302 12.436-18.738 22.932-38.958 34.138-58.478 16.119-28.084 32.571-55.345 41.412-86.717l-50.322 74.474zm-143.68 173.62c-1.5518 2.6479-2.6477 5.3999-5.1465 7.2441 1.0859-3.7036 2.4495-4.611 5.1465-7.2441zm-215.39-66.734c33.821 10.046 63.179 35.477 98.14 45.716-47.481-41.382-113.92-61.26-158.23-106.18l158.32 74.4c-29.399-36.391-103.93-54.252-155.02-93.375 36.905 7.5518 107.23 50.106 162.8 60.373-16.565-13.213-97.394-55.41-116.63-64.186-18.351-8.373-34.284-11.704-51.477-23.552 21.163 0.5898 117.66 47.486 172.76 58.711-29.787-23.52-73.314-38.978-185.12-84.495-24.524-8.7366-52.192-15.673-74.455-29.348l1.1057-1.7751 118.79 38.635c47.298 16.1 94.074 37.872 143.72 44.957-10.125-9.2026-24.866-12.872-37.188-18.762-112.01-53.511-327.73-109.81-404.53-161.31 28.307 2.0056 50.599 33.151 384.92 134.78 16.522 5.0229 32.661 14.473 49.985 15.539-56.403-36.855-423.59-149.64-537.08-208.28l1.2297-2.1768 96.484 31.545c-26.684-19.347-163.16-66.381-268.7-137.59-13.258-8.9446-27.444-16.606-39.225-27.538 10.549 3.4026-4.7954-3.6235 161.71 83.235 314.76 138.19 455.05 204.39 590.19 235.86v-3.7285c-17.31-6.8225-35.938-10.928-53.679-16.724-119.13-42.99-148.31-51.88-163.23-65.445-5.8657-0.6499-5.6624-1.4631-9.9363-5.0825 3.9319 1.4431 7.2639 1.76 9.9363 5.0825 16.848 4.1399 32.755 13.238 49.013 19.456 133.41 47.318 146.17 53.702 179.91 57.21-56.903-32.332-145.63-59.202-285.71-106.87-9.4507-3.1287-19.422-3.8423-28.763-7.3877-379.94-162.57-463.92-207.17-795.47-429.13-66.98-49.474-140.21-106.29-161.02-182.62-1.6758-6.1482-2.7023-11.791-3.0443-18.138 13.372-13.963 28.188-23.15 45.602-31.381 3.2582 36.706 2.1183 61.86 73.264 121.25 74.271 61.994 162.57 107.16 246.62 154.43 239.5 134.67 484.17 255.55 744.02 345.99 74.792 26.031 148.02 51.706 225.64 68.38-35.38 115.07-70.704 220.63-88.328 327.82-48.746-45.71-44.664-39.811-47.674-44.02 10.586 2.4695 19.903 8.6824 31.57 10.953-27.187-18.673-62.584-37.351-81.218-65.217zm-1167.7-1014.5c8.9995-7.4275 20.632-9.8374 30.965-15.078 36.944-18.738 65.951-48.612 85.174-85.05l1.8247 1.9385c-7.6206 43.73-46.406 87.301-117.96 98.19zm287.15 120.66c-12.466-19.982-26.676-42.443-32.105-65.505 25.602 40.541 64.786 133.22 243.91 276.89 12.322 9.887 28.392 25.396 43.435 29.958-10.93-16.642-166.59-143.86-252.44-304.68-9.069-16.987-20.691-35.75-24.965-54.562 31.503 40.44 70.573 154.47 214.43 264.96 15.995 12.282 35.378 27.662 55.37 32.298-11.94-15.694-83.4-57.416-186.86-211.14-12.54-18.633-68.257-106.49-64.359-126.65 10.145 18.158 17.225 37.678 27.757 55.722 54.745 93.792 130.58 185.91 226.79 238.75-25.596-30.225-129.78-107.56-208.85-260.72-6.3665-12.326-14.136-23.934-17.086-37.619 16.422 17.289 27.568 45.964 41.234 66.188 83.009 122.93 163.59 173.06 181.55 176.34-21.461-25.977-41.984-22.889-141.4-162.14-12.232-17.136-27.524-35.705-34.227-55.697 20.721 16.478 31.609 37.047 48.19 57.403 32.323 39.676 88.214 100.35 137.72 116.24-74.805-59.606-115-135.82-147.47-167.75 5.1023 1.6958 13.631 3.3865 18.093 6.0291 10.298 6.0842 46.328 65.419 125.59 110.66-5.0378-9.3264-13.269-14.865-20.557-22.297-50.649-56.45-63.459-68.897-67.409-82.998 12.688 4.4478 27.539 22.585 38.323 31.505 20.304 16.799 43.073 30.266 64.944 44.868-20.77-30.612-52.544-58.538-77.514-86.344 25.531 13.026 51.646 45.587 80.747 46.876l0.6743-2.489c-17.721-14.89-34.495-31.277-46.718-51.096 22.471 13.397 41.972 29.13 65.549 40.881-24.705-35.742-33.29-34.035-36.786-45.691 17.539 6.2292 29.641 28.258 50.188 47.526-8.7161-19.154-19.98-27.685-30.39-50.768 12.743 10.07 31.833 24.767 36.454 40.396 2.7966 9.4407 14.761 20.751 20.617 28.907l64.915 92.364c-67.808-59.926-60.099-54.774-64.954-57.378 1.9189 14.617 15.341 29.348 23.85 41.084 66.494 91.688 87.447 99.978 115.39 138.42-20.374-13.467-38.14-32.878-55.38-50.143-98.354-98.497-58.869-66.695-73.631-77.201 16.174 75.355 259.84 295.24 358.54 359.1 61.918 40.056 204.31 110.08 270.07 135.64 118.85 46.22 211.32 56.742 259.81 71.598-28.684-0.8181-56.525-6.3171-84.678-11.469-106.37-19.461-201.92-59.138-298.03-107.08-158.56-79.082-271.73-154.44-430.51-322.47-16.575-17.543-32.011-38.19-50.55-53.55 8.1394 36.147 32.362 61.007 56.45 89.066 86.354 100.57 192.5 187.34 305.97 255.59 128.4 77.236 339.19 162.73 503.8 169.52l-2.4541 2.6477c-179.91 2.8403-507.54-112.19-776.48-372.87l-57.819-58.533c-7.1501-7.457-16.447-20.18-24.708-25.788 11.719 57.297 164.66 199.42 273.29 270.74 95.31 62.577 272.06 146.68 431.31 185.78 41.596 10.214 83.836 16.477 126.16 22.808-14.759 12.133-229.79-36.944-341.31-85.774-38.61-16.908-74.95-37.787-112.56-56.649-101.11-50.709-170.41-80.16-356.99-257.78 9.0837 48.77 169.23 174.41 213.58 204.81 163.7 112.22 155.08 87.446 207.54 119.77-24.132-1.6909-62.078-23.998-83.315-35.214-124.17-65.598-246.46-144.95-342.91-248.13 27.411 65.94 156.33 158.63 217.69 195.2 22.858 13.622 44.763 20.093 67.374 36.082-14.339-0.5803-37.663-15.108-51.056-21.693-40.926-20.111-84.123-39.275-121.17-66.025-40.753-29.434-79.204-67.858-120.14-95.383 16.041 36.838 91.752 81.335 96.564 91.382-19.223-2.9055-44.987-18.827-63.02-27.206-267.87-124.52-241.63-125.6-297.87-185.66-56.059-59.866-112.71-117.51-155.45-188.15-11.161-18.455-23.894-38.998-28.808-60.105 9.9092 12.247 11.514 20.128 18.544 32.75 37.312 66.94 67.498 98.15 122.87 155.2 47.253 48.681 92.562 93.281 149.37 131.15 10.115 6.7437 22.02 16.477 33.414 20.22-7.4445-10.474-163.77-134.41-255.15-280.91zm292.48-154.71c35.988 16.74 47.213 57.874 59.668 91.818l-40.48-48.815c2.2261-4.0115 1.8938-2.7073 2.7964-6.436 0.8424-3.4759-18.782-31.168-21.985-36.568zm828.16 677.7c31.347 9.8025 70.617 17.17 99.221 33.141-14.806 0.4866-36.249-7.8789-52.048-11.915-74.811-19.119-154.65-41.238-223.77-76.205-15.807-7.9927-33.255-15.852-46.087-28.302 13.903 2.1768 30.553 13.338 43.38 19.248 33.168 15.292 61.889 24.264 179.3 64.032zm-64.389-43.42c12.604 0.5059 48.537 10.839 57.02 19.833-15.291-1.2693-45.016-10.596-57.02-19.833zm-143.88-137.28-80.458-32.547c12.926-3.3093 12.892-1.1218 27.866 1.78 42.245 8.2112 84.118 33.003 122.02 52.89 12.039 6.3171 28.55 11.742 37.47 22.184-36.394-4.6609-73.686-29.71-106.9-44.307zm19.769 23.076c-13.759 0.2922-31.912-6.1335-45.319-9.7185-56.465-15.108-116.1-33.925-166.75-63.596 12.082-0.0143 185.52 55.186 212.07 73.314zm73.487 242.5c-146.7-36.784-189.76-68.571-282.03-119.32-16.928-9.3118-43.633-17.454-56.57-31.287 15.901 2.1865 38.948 17.602 53.669 25.03 110.62 54.437 177.14 92.647 301.22 120.95 28.307 6.4609 58.399 9.8325 86.2 17.384l1.8293 4.259c-37.038-0.7128-65.736-7.3385-104.32-17.012zm85.318 159.3c-1.8892 11.072-6.9666 19.318-14.979 27.083 1.8097-9.4309 7.725-20.746 14.979-27.083zm3.1633-18.609c3.709-9.7827 5.613-13.04 14.944-17.354 4.6858-0.6597 2.2214-0.5952 7.3931 0-24.972 31.257-20.946 26.073-23.81 30.166l-1.512-0.4165 2.9847-12.396zm13.343-32.229 2.4595-9.9167c7.0508-1.8445 13.363-0.9023 20.557-0.4312l1.3733 2.9104-7.4126 4.1008c-6.3467 2.2559-10.259 4.9036-16.977 3.3367zm13.328-37.574-4.3284-4.5715 2.0479-1.1553c9.5642-3.9172 30.886-1.676 40.638 1.5718-10.388 5.707-26.612 3.9267-38.358 4.155zm-20.835-44.238c13.859-4.0562 68.598 8.2903 85.214 10.987-69.576 7.4131-74.23 3.2281-85.214-10.987zm-1149.5-601.07c48.802 74.436 175.62 184.48 180.82 193.34-39.223-6.7434-196.28-182.89-203.12-228.06 10.729 13.254 14.105 22.229 22.303 34.728zm-22.015 20.404 43.698 53.238c24.206 27.132 54.908 50.64 76.616 79.626l-1.4974-0.4565c-9.9514-4.7598-20.126-14.652-28.496-21.698-33.305-28.024-58.806-58.558-83.831-93.95-9.3761-13.263-21.013-26.84-26.586-42.2 8.4538 7.4772 13.224 16.68 20.096 25.441zm27.256 70.924c-8.5878-4.3882-18.827-15.564-22.541-24.519l-0.803-0.283c-6.2971-4.3433-8.6127-7.7002-11.592-14.592-2.5538-1.77-3.6298-4.552-5.1865-7.1946 2.0725 2.3503 4.2543 4.1553 5.1865 7.1946 5.1814 3.8181 11.007 8.0771 12.396 14.875 8.0078 4.8641 19.224 15.852 22.541 24.519zm1906.2-1360c-3.6394 6.5598-7.9385 10.893-15.416 13.437l-4.1499 0.8578c4.7104-6.4506 11.89-12.014 19.565-14.295zm-6.7483 20.275 8.0127-1.6016 1.3188 4.0807c-18.411 18.195-51.002 21.425-74.44 22.794 2.0776-4.9733 6.9714-3.9319 12.034-4.9733 18.971-3.8972 35.651-12.143 53.074-20.299zm-111.07 84.837-9.8376 1.5374v-3.3123l14.409-5.4048c6.292-0.4213 9.8918-1.9286 15.316 1.6759l-19.888 5.5038zm68.093-10.462c5.6973-0.714 2.7617-0.6742 8.8159 0-20.82 12.912-50.352 19.397-73.537 27.271l-6.6538 0.5852c8.4985-13.07 56.872-23.79 71.375-27.856zm-77.29 49.583c13.72-10.844 34.43-15.723 51.497-18.182 12.951-0.2777 24.574-1.0908 37.009 3.2427-22.253 2.8759-42.428 5.6722-63.819 12.624l-21.609 10.7-3.1831-1.8989 0.1042-6.4856zm4.3186-55.712c-3.5208-0.8081-2.0083 0.0941-4.4229-2.9008 20.448-11.835 41.401-3.1914 106.09-20.721l5.4146 0.2726c-14.264 19.358-72.04 19.299-107.08 23.349zm22.312-20.235-5.0276-1.0165 0.0691-2.3455c22.342-5.5485 45.349-5.0972 67.488-10.04 10.328-2.3055 20.398-7.7053 29.894-12.297l6.0588 0.4659c-14.192 20.927-62.943 20.94-98.482 25.233zm184.81-281.14c56.084 1.9388 97.614-14.592 138.26-52.058l-1.3684 6.6144c-23.108 39.232-65.789 64.734-122.12 64.022-38.07-0.4858-102.61-10.566-129.23-39.548-8.7168-9.4954-10.686-18.51-12.708-31.01-17.901-110.78 89.204-216.62-56.079-377.85 13.834 4.2243 33.315 27.152 43.018 38.303 89.794 103.16 24.217 229.66 19.278 307.72-4.3262 68.145 17.944 80.255 120.95 83.806zm-143.66-55.141c1.3142 7.3235 4.2542 14.191 0.9966 21.003-9.262-10.363-14.161-24.092-18.162-37.257-25.408-83.567 20.388-165.38-14.84-259.11-34.44-91.59-117.05-147.32-202.54-185.57 159.59 25.739 288.46 144.99 253.13 322.53-10.397 52.259-26.114 70.016-18.584 138.4zm-75.833-244.75 2.0576 0.704c9.2583 21.774 9.2764 85.243-7.0654 145.57l-2.4941 5.5137c-5.784-30.311 16.256-56.881 7.5019-151.78zm-28.535-35.948 1.6162 1.3091c4.2397 4.636 5.2957 14.766 6.5847 21.003 8.2507 39.934 3.1733 79.006-2.0278 119l-2.355 0.3718c-3.0098-11.511 3.0371-39.828 2.8064-75.193-0.1538-22.779-5.9602-44.377-6.6245-66.491zm-40.028-0.0543c-1.0662-18.916-6.7781-37.748-12.436-55.727l3.4214 0.972c19.6 30.36 17.171 66.426 13.03 100.67l-2.0527 4.5568c-5.3053-10.294-1.2397-37.609-1.9635-50.476zm283.6 40.509c-4.4426-53.099-13.968-89.681-55.905-125.25-16.214-13.749-45.636-35.016-66.035-38.928 46.123 53.208 80.3 100.81 74.638 175.13-2.5933 34.004-16.328 67.037-28.927 98.398-3.3198-10.441 19.252-53.311 11.156-121.02-9.2573-71.336-74.132-146.48-129.57-188.63-92.368-70.218-195.4-70.099-207.22-75.952 41.147-4.2881 128.54 6.2502 151.75 11.488 34.715 7.8346 119.45 46.483 194.93 108.33 51.545 42.233 67.24 97.174 55.181 156.44zm-64.557-248.26c58.691 34.639 101.04 81.654 117.85 148.08l-22.496-40.931c-18.746-22.487-17.495-24.088-60.343-51.814-68.376-44.248-140.62-59.48-218.24-79.298-105.69-26.999-126.86-38.29-230.43-39.582 111-37.806 311.02 2.9787 413.65 63.546zm-464.72-93.08c-21.583 6.7355-49.157 21.216-71.291 22.596l-2.1123-3.0974c8.751-11.325 18.524-16.28 35.214-25.191 72.374-38.636 152.78-46.977 235.42-36.009-101.22 11.682-89.651 9.4793-197.23 41.701zm311.25-46.283c-17.096-10.611-34.361-21.767-52.821-29.874-53.832-23.636-113.85-28.881-171.65-21.476-94.318 8.2246-168.65 66.133-197.49 74.789 4.3982-7.5954 8.9399-15.038 14.627-21.748 49.618-58.549 105.69-81.32 180.71-87.355 90.711-2.9243 160.88 16.909 226.63 85.664zm-432.4-21.839c6.5103-16.987 19.471-48.72 34.049-59.401 30.211-22.139 63.258-39.445 100.06-46.919 27.201-2.2137 53.391-2.2228 80.528 1.0178-98.402 14.328-139.37 49.528-214.64 105.3zm182.74-129.56c-27.295 11.584-52.661 3.2599-141.57 57.46-1.6709-0.601-8.6572-3.7893-9.9167-3.5665-9.738 1.7254-20.062 16.242-29.75 20.498-0.6597-7.3989 4.636-8.171 5.9053-15.874l-3.4263-0.0244c1.0728-5.671 0.29-3.7448 3.3865-11.132-3.0146-4.0193-3.8574-6.1634-4.4177-11.156 24.651-29.983 71.216-38.732 109.99-42.446 23.235-2.0933 47.079 1.6092 69.798 6.2406zm-76.859-30.248c-39.781 16.719-15.074-3.4325-106.21 59.086-4.6555-12.508-8.895-31.21-16.769-41.79-3.1238-4.1919-1.6763-1.5391-3.7139-6.6898 80.621-13.787 83.38-16.454 126.69-10.606zm-58.201 271.71c274.48 177.63 270.72 364.63 310.3 445.24 50.128 102.14 188.43 212.3 179.6 286.63-13.258 22.491-41.134 35.988-63.075 49.033-0.5652-9.4357 0.0049-20.676-2.8611-29.626-3.2776 21.291-5.9104 41.194-17.404 59.926l-4.512 2.4792c-1.1306-38.749 4.9287-72.248-3.679-111.23-13.57 104.7-35.233 135.31-30.191 191.25 1.5022 16.69 7.0208 32.517 12.044 48.393 5.8562 18.489 9.1562 34.937 20.993 46.341 1.3687-8.9746 2.6877-11.632 10.016-17.22 18.599-14.186 46.291-21.37 69.451-17.131 9.3613 1.7155 48.056 29.145 52.772 37.713l1.0759 2.8013-4.2991 4.1404c-26.785-5.9353-52.97-12.793-80.573-12.351-9.3479 6.6074-14.497 5.8685-28.49 8.2753l1.2195-3.6887c5.7715-2.8958 10.78-5.7914 17.354-6.2576-19.537-6.8184-23.048 5.4629-38.527 3.7188 5.1777 34.929 47.403 58.77 110.87 160.98 68.239 109.91 79.277 203.31 173.13 323.08 21.232 27.093 64.999 63.621 46.539 97.109-9.6687 17.523-32.799 25.263-49.975 33.578-32.517 15.743-61.255 29.988-96.777 38.467-86.61 20.665-107.27 7.6543-135.43 4.4426-28.51-3.2576-56.798-3.6443-85.452-3.9915 25.441-8.3152 49.38-5.7466 75.614-4.5569 13.377 0.6104 26.582 0.2532 39.884 2.063 45.503 6.1731 97.729-1.9338 140.91-16.675 23.203-7.9167 29.64-9.6946 36.141-20.864-2.1482-24.27-28.11-23.986-50.828-26.537-55.459-6.2426-106.78-7.3187-162.17 1.0906-39.295 5.965-100.75 10.358-129.27 40.321-0.114 8.9397 2.9155 12.763 8.0823 19.833l-1.9436 2.479c-34.31-4.2712-61.458-30.358-76.185-60.372-7.6982-15.48-5.6792-40.588-0.0791-52.826 19.05-41.61 72.684-58.786 111.27-77.91 33.864 14.85 61.572 15.596 95.18 24.727 32.973 8.9548 67.87 23.537 101.34 29.061-36.667-27.459-77.9-42.106-122.52-50.937-25.575-5.0675-52.712 2.6477-76.869-7.4425-20.3-8.4786-53.124 2.593-72.639 10.794-56.003 23.534-94.112 84.146-156.13 168.71-46.154 62.928-153.32 195.25-171.39 279.24l269.1-351.37c0.9307 53.084 6.4343 61.25 23.854 101.96-2.167 7.1252-1.6514 7.9929 2.1023 14.563 7.2891 12.758 31.411 27.439 45.29 30.95 23.671 5.9897 46.211-6.4805 69.63-6.0442 22.097 0.4175 21.935 14.464 78.48 15.708l1.8643 3.8132c-12.316 9.7874-40.539 3.1682-55.895 2.0872 16.912 6.5798 31.812 11.533 50.024 13.298-8.6177 43.787-15.827 113.35 11.161 152.71 7.8789 11.488 19.417 20.869 30.851 28.639-17.334-73.894-12.515-139.32 5.6128-212.49 2.8694 132.24 22.65 146.04 43.767 193.73 5.3281 12.05-19.076 38.82-28.218 48.264-40.976 42.356-45.222-7.4712-120.9 2.4595-41.937 6.1987-54.004 39.195-113.82 20.081 105.67-40.851 110.75-44.093 127.22-45.076 33.585-1.9949 56.099 28.938 91.814 20.165 11.642-3.2871 21.053-15.187 28.391-24.296l-37.138 13.71c-34.924-16.46-59.188-41.153-127.13-17.225-58.821 20.721-112.28 58.895-176.35 61.478-8.6523 0.3521-22.466 0.7339-30.32-3.1238-1.7849-0.8728-3.0691-2.1023-4.6162-3.3616-1.3188-5.8462-1.8198-7.4624 1.458-12.996 17.423-29.433 56.485-42.091 82.972-60.908-55.003 10.879-105.33 23.736-138.29 73.364-32.629 49.114-35.986 95.693-99.846 126.54-7.7053 3.7236-29.601 10.968-33.246 18.896-1.408 3.0693-1.3779 6.6096-2.0723 9.9167 2.8757 7.5862 6.6641 15.009 14.245 18.946 6.8423 3.5503 16.903 3.8181 24.162 1.2449 33.396-11.846 71.891-122.26 127.07-127.99l5.1616 2.4346 1.0361 6.7878c17.141 9.6538 48.106 15.173 67.855 14.23l-43.881-16.739c18.157-0.3818 36.93-0.0247 54.968-2.0627 41.501-4.6855 79.874-15.738 122.36-9.5447 53.915 7.854 91.959 49.931 124.94 40.797-3.1782-6.0044-5.3848-6.5251-11.389-9.9414l1.2397-2.8264c13.72-3.0742 30.761-9.6936 43.381-1.2346 17.101 11.468 18.161 52.374 2.95 68.544-16.71 17.751-47.878 19.913-70.651 19.446 14.215-2.677 31.465-4.3523 40.544-16.967 4.3191-5.9946 3.5752-8.9746 2.97-15.877l-3.4456-1.4775c-18.822 28.037-51.485 16.64-84.832 10.06 10.993 9.9866 20.274 20.305 35.616 22.432-80.776 3.7437-154.33-18.37-224.78-56.56 33.032 44.67 89.85 83.334 145.03 91.596l15.292 2.1912c-38.348 2.4148-75.902-0.5156-114.15 4.9138l89.964 10.923c-28.892 5.6721-68.678-3.7683-94.818 9.6587l1.2395 1.8447c25.909-3.2964 56.538-2.9426 84.872 1.522-36.994 5.1467-75.262 7.2344-109.42 23.914 35.17-3.3223 66.55-7.4771 102.22-5.9749l-119.88 19.834 1.3088 3.689 9.9167 1.5271c-21.172 4.4871-41.01 11.384-60.903 19.828 38.809-4.2246 84.212-18.158 122.88-12.331-12.297 4.1101-25.58 3.6191-38.393 5.186-75.557 12.655-100.05 14.711-127.3 28.714 15.222-2.6775 38.685-9.0837 53.411-6.5598 11.791 2.0181 27.37-1.2993 39.428-2.3748 73.522-3.3059 70.547-3.8506 72.848-2.4744-14.439 6.2336-126.59 7.9932-200.49 46.534 60.924-12.01 11.994-10.056 170.04-24.147 41.908-3.7336 85.144-7.0159 127.13-2.3604v2.3406c-303.33 9.6169-294.02 53.445-362.67 79.487-66.526 25.243-156.73-0.3967-207.32-48.517-6.3069-6.0046-11.885-12.877-18.817-18.162-4.9121 19.262 31.11 55.507 37.733 76.894-9.8027-2.6677-33.26-12.222-41.452-7.4524-2.1521 1.2544-3.0195 2.3054-4.6855 3.9717 20.825 25.228 48.244 43.38 75.342 61.111 88.715 58.052 188.65 102.79 295.14 112.92 68.068 6.4756 166.52-1.686 220.73-47.699 17.756-15.068 31.104-34.793 44.943-53.347-27.817 105.81-266.27 197.95-582.71-13.834-22.198-14.86-44.456-38.953-67.671-50.491-18.604-9.2471-54.155-17.265-74.955-18.163l-1.7402 3.2976c-8.3501-2.2512-12.456-2.7471-20.919-1.0166 22.162 7.4407 41.772 20.624 62.376 32.71 68.739 40.31 135.73 104.33 247.61 136.98 21.187 6.1829 41.997 12.48 64.141 13.685-158.33-50.817-170.89-67.472-263.45-134.1-20.032-13.452-46.772-23.413-64.642-38.323 21.61 2.1479 25.534 7.3325 143.44 81.921 26.765 17.191 53.946 30.132 82.506 43.743 96.787 46.122 199.19 76.324 307.68 61.716 43.42-5.8459 95.805-17.894 130.22-46.806 16.818-14.126 40.316-39.498 40.827-62.49l-1.6758-15.713c-39.349 45.735-103.85 77.397-156.08 83.27-116.92 13.135-247.41-28.991-348.35-85.417-11.925-6.6689-33.811-14.275-42.83-24.286l-2.5884-3.7188c8.5039-1.8345 18.872 10.11 27.058 12.366 4.2197 1.1653 12.688-0.01 17.245-0.0549 17.409-0.1531 35.438-0.6245 52.246-5.5232 47.689-13.898 79.061-54.755 122.13-75.967 29.497-14.523 63.234-21.043 95.388-26.661 154.27-19.57 178.58-24.358 198.88-17.433 22.213 19.684 27.871 49.251 36.597 76.522 19.536 61.034 28.211 78.56-6.0837 123.32-71.534 93.385-225.54 91.409-341.95 70.726-216.8-38.515-261.56-113.01-343.31-160.9-20.909-12.247-44.218-22.679-64.25-35.893-13.095-8.6375-36.572-6.8379-52.136-7.2991 61.334 20.175 148.69 74.13 164.21 88.789-23.735-1.6016-44.298-18.822-64.225-29.988-36.766-20.607-79.735-47.704-120.09-59.208-24.851-7.0854-50.803-6.4954-76.125-10.368-22.194-3.3965-44.868-10.745-66.496-16.774-40.267-11.221-91.888-22.997-122.87-52.638 75.292 22.367 144.1 37.118 223.1 36.736-24.032-12.11-29.156 5.531-184.14-39.83-57.857-16.934-58.005-15.171-110.97-60.244 58.047 25.178 113.6 43.063 177.35 44.57 11.275 0.2627 25.481 2.0974 36.409-0.6841-4.6165-4.7998-49.92-7.8093-59.961-9.4802-151.26-25.216-190.08-73.988-217.99-105.74 66.838 40.703 160.33 70.964 238.91 58.667-45.414-5.7349-65.588-5.8774-145.66-34.227-59.371-21.023-114.93-47.818-150.64-102.05 115.38 74.864 178.25 80.272 257.46 65.063-72.848-6.1531-138.95-14.359-204.85-48.596-36.439-18.931-72.749-45.314-85.675-86.151 13.442 6.3616 26.24 20.245 39.429 28.446 68.276 42.434 148.58 51.304 226.09 32.884-19.326-4.2036-93.443 2.5664-165.55-22.977-40.282-14.27-85.789-37.435-112.71-71.722-9.2371-11.766-15.862-25.932-22.273-39.374 80.392 80.951 198.55 101.34 280.43 70.002-37.068 3.3318-75.486 3.6492-112.35-2.2214-63.457-10.11-144.35-39.508-177.63-99.226-20.648-37.056-31.05-123.88-92.007-208.25l-2.5979 1.1899c-3.4712 27.231 20.785 57.755 22.317 87.023 2.7673 52.748-48.334 120.8-127.5 124.53-78.882 3.7039-125.61-47.466-178.4-97.386-163.42-146.6-107.39-93.27-219.71-231.58-24.469-30.132-53.838-61.369-72.263-95.656-9.7924-18.223-20.909-56.11-5.6969-68.881 6.8225-5.7317 14.845-3.8872 22.967-3.4657 11.176 6.7632 15.267 27.082 20.934 38.705 15.5 31.803 36.335 61.21 56.51 90.177 44.005 63.154 96.186 138.96 175.65 159.24 25.357 6.4756 49.906 1.6763 75.431 4.2 24.95 2.4595 46.564 13.244 69.962 21.172l3.3269-2.0476c-2.6378-7.363-13.209-13.338-19.789-17.478-81.094-51.008-119.19-27.919-174.96-59.589-79.131-44.93-126.42-183.47-102.45-218.89 6.1383-9.0687 59.912-15.059 73.438-17.994-11.247 34.479-12.294 59.422-11.047 90.192 34.064-38.511 65.574-66.774 109.31-94.238-46.315 50.429-98.028 140.83-57.303 194.69 32.532 43.018 91.491 20.572 134.44 33.424 28.724 8.5977 50.491 27.915 81.971 30.781 37.028 3.3652 55.985-16.024 55.622-49.137-0.4663-41.818-26.725-63.492-64.919-73.076-38.792-9.7422-55.958-13.822-55.533-59.173 5.3895-9.9017 17.31-15.014 26.542-21.048 21.335-13.941 33.323-25.211 57.819-34.698-49.142-1.8892-80.677-0.2876-118.61-35.799l88.164-15.048c10.983 19.397 25.521 36.558 39.498 53.823 12.54 15.485 23.701 32.536 37.416 46.995 29.039 30.613 101.47 87.137 125.85 118.48 11.673 15.016 23.141 83.572 63.928 123.22 45.694 44.421 110.89 43.035 155.61-4.6609 47.059-50.198 55.27-113.53 52.568-179.2l-2.5684 0.3916c-0.7043 14.245-1.4182 29.552-4.9932 43.386-11.221 43.4-38.601 92.408-79.051 114.43-37.42 20.374-70.314 15.609-109.03 3.4314 8.0818-1.7502 20.874 1.5767 29.448 1.9883 74.247 3.5493 147.92-52.552 152.46-171.82-3.6543 11.414-7.041 23.284-12.748 33.865-25.857 47.967-65.95 95.259-120.5 110.42-29.06 8.0693-47.733 2.8132-67.032-9.3364 31.322 1.3538 50.992 5.0527 81.237-8.2207 36.469-15.996 72.615-49.489 86.131-87.505 20.211-56.854 3.7666-79.99 5.7119-105.41 1.5322-20.007 9.272-38.739 9.8572-59.574 1.2891-45.75-10.576-102.38-34.922-141.65-9.1726-14.8-20.844-27.975-29.616-43.073-13.442-23.141-23.934-48.944-35.14-73.244 50.282 16.258 117.86 21.737 168.72 4.1649 36.364-12.57 63.263-44.977 80.002-78.332l-1.542-3.3668c-36.236 10.994-54.35-7.6439-82.541-36.592 15.292 35.311 10.113 29.781 44.977 50.897-18.986 7.4324-36.89 13.695-57.556 12.887-24.692-0.967-44.263-10.05-60.769-28.753-21.257-24.087-31.6-65.881-28.481-97.6 7.4424-75.619 99.201-121.78 155.68-159.64 24.276-16.278 47.079-33.538 69.451-52.38-3.3567 13.566-12.232 26.68-19.09 38.839-35.809 63.521-83.806 112.21-131.19 166.52 7.0405-21.494 14.9-46.335 16.219-68.98-21.167 20.051-33.236 56.574-33.965 85.204-0.2478 9.5746 2.385 17.781 5.7864 26.606l3.5354 0.6644c21.187-18.148 39.012-41.253 57.04-62.47 120.74-142.11 99.275-157.31 123.22-217.37 10.049-25.217 36.308-55.742 42.166-127.35 3.5254-43.113-15.505-96.261-43.485-128.91-27.558-32.16-64.746-52.296-104.98-64.801-15.391-4.7797-29.983-13.268-44.352-20.522-37.574-18.981-80.652-40.118-101.09-78.942-24.245-46.065-0.4253-144.21 53.396-172.43l25.015-10.482c75.059 25.099 171.33 18.296 242.05-16.933 85.97-42.818 183.4-167.31 352.39-145.05 46.416 6.309 91.769 32.982 130.48 58.035zm464.9 1036.8-6.4211 7.4375c-3.5005 3.0396-3.7683 4.0162-8.5186 4.8345-1.8345-7.5767-1.6162-7.6411 1.6814-14.751 4.2144-1.4279 7.2441-1.3735 11.652-1.4429l1.6064 3.9221zm-27.712 644.47c-82.684 1.2869-57.38-5.8652-85.561-8.4736-8.6672-0.8081-21.47 3.2625-28.382-1.3289l22.888-3.1287c13.179-2.7817 30.057 2.9104 43.391 4.2097l65.837 3.6938-0.7439 2.6377-17.429 2.39zm8.4541 14.989c-6.3416 3.0046-13.427 1.9136-20.374 1.9385-9.7676 0.0349-20.954 0.9275-30.493-1.2495-11.746-2.6824-23.443-8.3594-35.517-9.2671-33.864-2.5496-71.761 15.231-100.47-18.693 11.429 1.0811 21.727 12.312 35.779 13.854 25.367 2.7866 51.502-4.0908 76.145-0.0249 71.122 10.136 69.034 8.8237 74.93 13.442zm9.5943-28.218-101.01-11.146 1.2249-2.7568c26.138 3.4629 70.308-4.261 102.89-0.9915 17.359 1.7454 35.68 6.748 52.99 9.7676-18.881 3.3323-36.925 4.7004-56.089 5.1272zm87.008-43.177c28.243-2.5586 56.55-12.966 84.674-14.136-10.988 7.0903-25.208 9.2571-37.867 12.108-39.146 8.8013-72.927 9.1533-112.65 8.1021-15.599-0.4116-32.348 0.4958-47.803-1.21 31.649-15.212 79.1-1.7406 113.64-4.8641zm-16.957-7.284c7.6538-7.134 36.908-9.2981 47.089-6.8523-12.5 4.7947-34.044 8.826-47.089 6.8523zm-734.14 757.97 4.0063-1.4624c6.3069 3.6394 10.408 7.4272 15.311 12.782l-3.803 2.9204c28.476 15.885 42.759 32.854 68.242 47.154 93.846 52.652 202.35 87.876 310.52 85.972 91.192-1.6023 113.34-22.941 131.59-24.648-4.7749 5.8159-11.791 7.6655-18.634 10.437-126.77 51.289-317.39 3.9468-432.01-64.756-36.136-21.658-69.804-50.411-103.42-75.838 13.085-3.1982 23.924 10.859 35.462 16.174l-7.2639-8.7369zm-1476.1-1066.5c-15.311 5.5634-30.067 14.136-44.471 21.728 51.884-51.765 126.32-66.282 296.08-114.73-81.996 0.0645-159.97 2.0626-236.86 34.411-64.871 27.295-77.135 50.675-102.67 82.353l0.1934-2.132c1.7056-8.5284 9.6193-18.539 14.805-25.69 37.525-51.74 97.823-84.222 156.08-107.31 24.955-9.8917 54.239-14.731 77.167-28.649-87.914 7.2267-165.28 18.276-227.78 93.594l9.1134-19.779c8.92-14.766 24.906-28.907 38.61-39.235 70.007-52.755 170.07-64.864 195.89-71.891-71.768-5.5143-128.69 14.925-142.5 17.79 71.74-59.134 333.33-86.682 479.47-210.96 33.255-28.282 61.513-63.377 85.903-99.44 18.921-27.98 30.26-58.399 47.094-87.133-32.881 215.98-211.8 320.33-423.18 375.5 11.974 3.2524 23.612 6.6342 35.908 8.4489-2.9553 3.4908-4.299 3.436-8.4639 4.9833 8.9768 10.794 58.493 4.5745 71.122 3.0989 53.044-6.1927 95.959-20.488 142.9-46.152-94.217 100.65-151.63 106.4-205.27 124.47 146.35-6.783 265.03-93.276 360.36-198.9 19.402-21.494 33.305-45.022 49.102-69.035-36.29 115.6-113.64 200.05-220.43 256.5-170.12 89.934-341.45 59.367-448.18 98.155zm7.2045 456.05-1.2695 3.0098c-33.27 18.152-70.646 18.956-107.58 14.781-5.1517-0.709-7.834-0.9072-12.371-3.6245 6.3416-5.4243 51.234-2.499 62.901-3.689 17.671-1.8049 34.981-5.1318 52.072-9.9465l6.2477-0.5306zm-177.52-531.03c-15.463 42.308-10.738 59.78-15.986 71.439-2.5587-52.935 1.6758-89.22 23.815-137.83-28.78 34.409-45.083 58.425-36.786 169.12-16.982-54.889-8.0522-107.56 9.7827-160.64-22.347 23.889-29.259 50.362-36.915 81.445l-0.0049-12.024c0.4066-33.112 15.187-68.852 38.804-92.017 45.294-44.427 147.16-81.312 193.8-78.386-21.539 10.15-43.842 17.483-64.701 29.244-47.461 26.75-93.082 78.411-111.81 129.65zm82.036 325.25c-3.6693 23.21-15.584 44.417-34.257 58.974-21.841 17.027-44.684 17.821-70.84 14.384l-4.9136-2.5139-0.0447-1.9536c68.516 0.7175 86.512-22.292 108.24-70.83l1.8199 1.9388zm-168.25-147.99c19.846 32.718 33.23 37.435 37.078 45.483-15.986-3.4857-38.095-19.734-49.965-30.93-53.676-50.644-46.876-157.65-6.9913-196.65-4.4722 19.664-10.413 31.052-13.001 46.594-7.5563 45.423 9.4111 96.797 32.879 135.5zm617.14-1411.9c-31.946 29.505-218.35 119.4-169.83 428.34-28.824-55.939-50.031-176.04-23.205-260.13 25.119-78.749 79.869-133.83 152.77-171.28 31.406-16.134 66.362-30.397 101-37.751-29.824 17.168-107.47 54.318-117.41 70.134 18.619-9.178 36.627-24.103 56.684-29.309zm-24.093 368.46c-11.488 55.873 0.8978 175.79-57.988 291.75-10.101 19.889-18.12 34.216-31.679 48.611 8.6324-31.014 20.364-59.48 25.074-91.58-15.767 29.448-24.092 60.04-42.126 89.131-3.803 6.1284-7.72 14.662-13.006 19.352 1.5917-10.908 9.9613-24.217 14.89-34.277 27.762-56.654 19.724-74.982 12.733-103.3-35.706-141.68-24.387-112.15-34.58-151-4.0555-15.464-10.12-24.41-12.693-42.741 5.8855 7.3482 10.904 23.384 15.004 32.224 45.884 98.933 27.106 102.34 40.524 154.55 5.3502-43.043-3.8129-92.235-6.1979-135.68-6.0425-110.27 37.083-287.83 114.07-383.43 11.424-14.191 25.962-31.074 41.903-39.964l-15.996 20.785c-41.263 53.431-55.657 145.8-47.243 211.58 8.2655-40.172 19.065-79.11 37.207-116.11 25.734-52.494 98.006-143.48 154.99-163.11-19.382 24.17-123.06 66.682-130.18 254.86 9.1283-17.34 13.348-38.358 20.155-56.818 50.587-137.1 173.05-224.65 226.71-230.48-5.5466 3.8532-10.359 6.8596-18.534 10.906-91.057 45.071-186.71 186.26-160.65 327.5 1.7356 9.4061 2.7371 22.471 6.3418 31.193l1.2396 1.9634c-0.7637-92.765 7.4918-173.55 76.12-242.97 59.847-60.536 123.89-85.179 206.18-99.365-22.396 13.631-50.401 19.829-74.112 32.15-77.067 40.053-143.12 118.01-164.1 203.13-36.506 148.11 64.51 261.62 73.195 382.78 0.6497 9.1233 2.6875 21.296 0.2925 30.057-6.3367-36.235-17.662-68.658-31.793-102.58-2.2112-5.3104-5.3499-16.362-9.2273-20.012 3.9023 26.388 12.738 51.324 16.829 77.524 12.495 79.993-4.4526 167.2-53.317 232.53-6.6738 8.9253-17.042 24.816-26.909 30.008 2.603-9.0588 9.986-17.77 14.915-25.858 42.049-69.01 54.36-151.78 41.129-214.65-5.1516-24.484-15.158-47.238-24.722-70.25-3.4827 52.802-18.572 119.36-45.795 164.13 1.6644-22.798 13.161-44.897 20.661-104.27 10.234-81.039-12.916-152.41-27.424-230.58l3.5005 110.93c-10.358-39.394-21.712-94.025-48.348-125.77 7.2985 25.6 23.765 53.793 25.61 80.047-14.156-26.532-28.877-56.698-52.995-75.718 51.552 101.91 58.87 237.67 23.136 346.01-31.698 96.097-106.64 165.53-195.57 209.66-11.31 5.6129-28.664 15.628-41.114 15.862 8.66-8.3525 23.919-10.924 61.508-37.644 137.32-97.614 207.13-244.68 164.95-409.89-3.818-14.949-7.0807-30.846-14.399-44.526 3.1237 36.87 7.2489 73.165 5.7614 110.22-3.0989 76.934-33.89 163.31-82.16 223.51-55.142 68.772-149.23 127.43-237.89 136.66 78.133-30.846 141.11-70.691 194.04-137.67 88.774-112.35 77.652-255.45 62.078-389.34zm432.86-158.83c-5.28 83.44 12.898 106.23 40.281 135.55-23.186-57.126-21.53-112.46-1.6411-158.44 4.4624-10.308 10.274-23.22 18.782-30.752-17.949 51.518-26.438 100.83-1.2395 152.52 54.552 111.92 198.9 96.923 250.24 251.77 8.0225 24.192 13.576 60.283 7.4077 85.343-0.3005-50.298-15.927-93.429-57.998-133.98-16.764-16.154-47.57-43.509-71.608-45.518 26.512 18.673 50.808 44.739 66.417 73.269 30.37 55.518 22.129 105.81 4.8743 163.24 1.9436-37.738 4.6111-74.082-8.5881-110.34-29.75-81.763-104.71-117.62-176.86-154.59-17.988-9.2175-33.172-20.069-52.062-28.481 17.294 23.462 75.734 57.032 118.32 105 20.314 22.883 33.776 51.557 42.488 80.702 44.599 149.21-103.52 254.48-109.21 374.23-2.5095 52.751 10.867 81.112 33.296 105.65-54.951-31.993-62.846-108.6-43.787-166.32 30.623-92.731 118.33-168.23 92.176-274.49-13.318-54.125-53.054-99.841-99.682-128.3 148.06 160.17 54.783 272.05 3.3818 383.65-10.448 22.685-14.186 45.899-22.615 68.96-13.662-120.98 91.075-203.34 79.076-310.19-11.394-101.47-119.23-130.06-187.41-184.07-58.617-46.44-98.14-118.42-107.63-192.77l-2.137-32.398c0.2329-32.998 10.507-88.536 34.902-112.63-1.5024 12.921-9.1877 27.072-12.118 40.301-10.17 45.964-8.1763 108.02 10.011 151.98-0.6694-37.173-6.5005-75.466-1.6116-112.53 10.282-77.862 80.531-162.02 127.14-173.78-47.104 37.46-88.61 88.883-95.691 150.66-6.0393 52.752 4.8889 116.71 39.077 159.03 8.1069 10.031 17.81 18.589 27.39 27.176-3.1038-6.9715-6.158-12.029-10.809-18.083-25.758-33.538-34.892-88.387-29.13-129.36 8.4092-59.802 47.298-110.72 95.016-146.04 10.19-7.5461 24.013-18.291 36.364-21.092-20.16 19.05-91.565 72.403-93.157 171.65-1.0166 63.194 29.586 112.75 71.559 157.01-26.755-61.939-37.455-107.65-13.214-173.54zm-30.801 1404.7c39.71 5.4412 105.06-21.633 145.73-85.546 1.9292-3.0294 1.1306-1.9385 4.4775-4.3286-6.7283 29.869-40.202 62.316-65.698 78.362-31.954 20.107-70.048 29.128-103.81 11.856l-2.6179-3.575 21.921 3.2329zm-36.934-39.196-3.7583-3.5751 4.9531-0.0348c37.113 9.2985 79.099-2.0586 110.63-22.432 6.9885-4.5182 12.002-6.9951 18.296-9.7629 1.7703-2.5535 4.5518-3.6442 7.1899-5.2061-2.3455 2.0825-4.1404 4.2888-7.1899 5.2061-12.237 19.159-46.445 33.419-67.869 38.353-19.224 4.4228-43.425 2.2212-62.247-2.5485zm177.78-163.79c-20.139 81.99-103.4 148.04-195.17 125.46l-6.2229-2.767 1.2644-1.6312c104.05 10.212 166.42-49.529 202.72-148.02 2.995 8.072-0.57 18.747-2.5883 26.958zm-121.92 73.755c-29.626 20.572-59.029 25.778-94.332 20.642l0.4661-2.9104c57.878-2.7322 95.795-28.466 134.16-70.26 35.827-39.031 43.324-62.679 51.309-69.258-4.4361 24.812-41.196 86.772-91.605 121.79zm62.297-125.39c-40.032 64.504-110.46 113-185.14 101.17l-5.9548-3.4363c59.042-3.2911 74.123 8.4552 132.62-49.742 42.9-42.681 68.068-87.569 83.989-145.52-0.1089 35.928-6.3863 66.705-25.516 97.525zm-229.27 21.227c95.026-52.33 129.35-167.98 158.17-265.01-6.4209 73.79-25.679 144.41-72.144 203.39-32.76 41.58-77.613 74.206-131.14 80.821-1.2646-1.299-0.4858-0.3669-1.8594-3.1188 16.71-1.9337 32.328-8.0126 46.975-16.075zm-90.207-20.934c11.812-8.6215 25.669-9.8307 38.992-16.12 84.139-39.69 117.44-134.18 138.73-156.59-6.0627 28.818-49.413 110.48-102.89 145.97-17.211 11.419-53.882 31.054-74.841 26.741zm278.58-564.66c-12.446 41.551-29.046 81.703-35.373 124.82-0.6594 9.4705 0.1436 22.913-4.7451 31.114-15.589-145.61 74.104-232.6-82.913-454.25-11.868-16.755-23.831-25.853-32.358-45.85 12.331 5.2211 24.216 16.635 34.688 24.96 32.774 26.051 64.453 52.578 89.785 86.285 52.677 70.096 55.355 151.33 30.915 232.92zm-111.28 581.61-3.5254-0.1289c50.277-56.208 88.481-124.19 106.89-197.7 5.2063-20.79 7.0955-42.909 10.036-64.136 11.14 91.577-35.727 215.14-113.4 261.97zm20.036 28.773c71.722-38.04 100.48-116.82 122.78-189.92 5.4702 23.425-16.653 140.22-95.572 193.27-41.758 28.072-85.896 32.562-134.22 19.937 38.74-1.4727 72.139-4.7897 107.02-23.289zm-194.48-512.53c34.986-22.377 56.788-51.249 85.655-80.018-7.8357 21.473-73.014 136.86-178.98 186.81-165.64 78.089-371.07-27.551-621.44 58.067 11.34-12.014 31.684-20.978 46.692-27.955 206.69-96.073 450.17 2.5075 668.07-136.9zm-736.14 135.97-4.6855 0.9224 2.0924-5.0771c25.578-44.935 147.09-78.448 174.1-86.865 6.2279-0.7634 3.0791-0.7488 9.4507 0-50.06 34.492-84.818 31.405-180.95 91.02zm563.14 256.79c137.75-29.958 262.93-111.43 335-234.73 14.711-25.168 25.347-52.147 35.973-79.209-1.2917 140.08-150.83 325.29-449.07 351.96-74.692 6.6738-148.14 4.8739-222.25 18.683l-0.6199-0.1736c11.308-14.813 159.35-30.801 300.97-56.525zm28.496 271.92c31.044 0.8031 51.081 8.1761 79.641 16.853 33.458 10.159 50.74 9.4274 58.404 45.18-10.76 2.5286-26.289-13.799-35.036-19.824-29.76-20.518-69.942-27.534-103.01-42.21zm582.29-1537.9c23.136 3.4264 46.564 8.3451 69.912 9.6492 100.23 5.6126 190.45-19.06 273.7-74.609 115.41-77.014 152.78-72.451 214.16-66.547-55.051 8.9468-98.927 9.3117-176.82 73.753-68.477 56.641-124.82 119.45-307.48 83.453l-73.473-25.699zm-453.73-297.91c74.489-26.073 29.804-8.6349 186.35-74.222 52.707-19.309 158.56-44.206 213.86-37.802-41.913 8.5593-90.009 18.954-127.56 40.194 27.147-3.5913 53.476-13.194 80.955-16.822 19.581-2.5851 19.378-2.3187 198.85-7.7167 21.46-0.0426 44.635-1.6218 65.628 3.2528-39.091 2.3452-78.778 4.2406-117.3 11.68-56.659 10.945-144.46 47.942-171.45 65.564 163.35-34.661 131.03-30.344 269.16-42.897 26.513-2.4091 56.5-6.9167 82.879-3.7792-63.61 12.954-118.25 28.368-177.48 54.982-16.328 7.334-33.722 13.908-48.974 23.227l5.0671 0.5543c58.514-18.837 115.14-27.491 175.91-35.865 137.05-18.886 219.8-26.528 341.56 30.796-16.997-1.4751-35.918-9.3979-52.613-13.611-91.204-23.011-217.09-7.6873-297.98 40.717l29.72-8.4167c87.703-24.048 180.99-19.537 268.22 2.9056 33.91 8.7268 69.848 19.933 100.28 37.483-70.36-18.36-134.95-43.623-280.03 29.81 52.375-9.3928 102.36-21.249 156.19-17.351 54.225 3.9269 112.46 19.848 155.1 54.909 12.277 10.098 22.957 23.912 33.335 35.947-23.284-15.321-46.816-30.805-72.877-41.045-128.51-50.497-226.71 44.925-337.4 93.476-48.874 21.437-106.92 33.896-160.03 36.916 11.373-9.5044 136.5-20.609 212.51-137.44-15.559 10.237-29.388 22.678-45.438 32.264-68.559 40.942-153.65 66.298-233.68 64.639 86.961-18.796 162.19-47.921 268.3-149.3-100.18 51.493-199.55 112.16-315.51 114.32 50.218-15.741 98.013-22.364 225.66-107.62 16.481-11.008 36.156-21.342 50.451-34.946-79.032 6.5819-240.27 117.16-406.32 88.449 90.237-5.2274 162.56-32.63 229.81-93.694-121.51 45.047-241.58 67.437-370.64 46.023 71.889-3.4911 125.51-3.987 193.01-47.627 15.133-9.7827 31.822-20.89 44.03-34.275-77.277 33.629-95.211 40.921-184.51 49.328 44.07-19.715 79.859-43.906 112.61-79.409-26.284 14.145-97.025 67.61-238.25 62.672-4.3435-0.1523-2.4446 0.6452-5.6079-2.7462 64.627-3.465 119.89-23.603 170.29-64.179-40.524 15.479-103.53 40.886-147.33 31.95 6.9814-4.4345 11.216-7.0253 14.831-14.874l-3.1089-3.3827c-20.91 8.0238-43.673 12.23-65.48 17.27-16.764 3.8736-33.746 9.1304-51.041 8.9284 7.7844-4.3823 17.518-6.4295 26.031-9.2244zm-1372.3 1063.5c-5.0675-34.128-0.248-89.676 20.934-118.46-1.9229 28.272-21.478 86.325 11.018 176.12 6.5847 18.197 19.323 35.497 24.132 53.699-13.604-7.9283-48.125-57.694-56.084-111.36zm76.219 46.504c-19.853-26.81-36.786-68.053-31.47-102.03 0.7287-4.656 1.4229-6.3121 3.8228-10.512 8.6075 9.7632 13.159 24.41 20.612 35.457 22.382 33.186 64.662 52.305 103.86 54.899 84.528 5.6008 179.48-45.768 241.03-105.57 1.5469 4.8442 0.3173 4.9633-2.033 9.4703-28.03 53.674-70.493 104.28-129.9 122.78-39.126 12.183-83.677 6.2426-123.17-1.3092 57.263 29.297 125.09 29.037 188.77-9.7332l33.161-23.973c-46.393 61.975-66.334 79.758-148.84 94.387 55.439 9.48 80.674-7.6512 95.909-8.6224-61.357 45.243-185.45 34.296-251.75-55.241zm149.44 378.01-5.4837-8.6324c-32.854-67.864-56.055-131.86 9.842-171.54 5.2015-1.3488 2.9454-1.7107 6.8426 0-45.13 94.362-9.9732 165.25-11.201 180.17zm-0.7733-251.66c-30.937 4.9615-73.984-5.2604-109.6-35.12l2.5286-1.5569c92.434 47.214 159.05 1.7848 171.06 0.3173-12.688 17.399-43.262 33.037-63.992 36.359zm-141.96 524.11c2.0726 2.3206 4.269 4.1602 5.2855 7.1401-2.5485-1.7902-3.684-4.5122-5.2855-7.1401zm-6.1533-33.092c-43.951-36.94-57.274-92.468-62.148-147.04 6.8375 14.543 11.652 29.74 19.933 43.569 41.088 68.631 138.9 92.938 214.16 75.966 76.171-17.163 125.2-63.532 145.53-58.444 0.6495 5.1812 1.433 6.4259-0.7091 11.468-14.473 34.049-76.453 60.427-108.52 72.635-62.48 23.785-128.2 17.939-185.15-16.71-15.961-9.7134-30.861-24.316-47.635-31.832 12.624 21.519 26.795 35.323 47.094 49.345 80.68 49.947 150.09 33.057 236.9-10.467 31.222-15.659 56.748-29.046 82.09-53.5l4.0708 1.2396 0.947 2.866c2.6974 14.131-9.7728 30.132-18.033 40.599-63.679 80.689-232.14 101.34-328.53 20.309zm272.85 375.7c-42.091 9.9265-81.431 2.7322-118.66-19.258 9.8273-2.6133 36.057 9.3811 47.312 11.821 23.983 5.2012 48.79 4.6111 73.21 4.6855l-1.8594 2.7518zm-11.612-52.449c-52.275 31.293-130.31 19.495-157.74-14.89l42.607 12.887c82.743 16.87 141.67-43.15 167.55-59.976-5.8854 24.866-31.109 49.231-52.41 61.979zm115.45-334.96c-17.023 86.403-153.25 159.37-272.48 117.31-26.453-9.3314-75.768-33.89-88.159-60.001 31.702 23.425 97.844 79.876 192.85 58.077 71.127-16.318 130.1-62.643 168.07-124.04l-0.2824 8.6522zm130.37-593.88c19.189-12.877 40.44-22.838 60.755-33.826-64.612 12.118-117.32 38.342-166.58 81.862-147.96 130.72-125.52 285.19-128.02 324.08-16.04-80.241-12.802-156.41 18.703-232.89 22.635-54.948 62.426-112.67 110.06-148.7 112.89-85.361 355.28-102.24 437.81-269.27 27.077-54.814 27.529-112.61 26.304-172.41-1.5964-77.905-8.9646-149.93-33.959-224.27 9.2664 161.06-10.769 292.73-107.7 411.65-14.53 17.832-23.822 30.666-41.283 41.714 15.504-29.017 33.37-47.228 47.962-73.19 42.309-75.248 67.18-174.9 68.38-261.2 0.7784-55.875-3.317-107.76 14.007-161.97-66.508 117.59-68.65 333.04-164.41 471.61-8.4241 12.188-18.058 28.327-30.057 37.064 4.4229-15.763 17.731-32.73 24.688-48.175 44.158-98.039 50.673-239.43 61.082-317.4 11.341-84.992 11.514-80.611 28.902-152.85-68.981 134.87-82.775 320.99-124.69 389.47 7.4231-34.469 46.165-105.95 21.42-216.27-10.006 53.163-18.614 106.52-34.703 158.32-40.901 131.65-129.76 241.58-199.73 289.27-2.4247 1.6462-4.7056 3.2825-7.3979 4.428 12.421-18.376 33.488-32.7 47.119-51.086 59.594-80.404 103.85-183.71 108.26-284.28-7.611 13.815-21.268 86.385-54.735 159.46-6.1885 13.51-10.705 26.787-19.144 37.267 3.9913-19.481 12.361-39.186 18.227-58.26 38.102-140.05 41.561-139.33 64.166-358.48-36.174 71.652-48.181 158.76-131.02 327.8-12.914 26.355-22.179 50.223-40.554 71.593 5.1218-18.985 18.073-39.662 25.972-57.982l29.001-77.395c77.401-248.75 59.574-196.45 87.272-265.5 6.6888-14.588 15.029-29.353 18.668-45.007-11.974 11.781-21.242 31.932-30.796 46.162-82.707 123.18-114.39 245.22-200.72 446-6.9119 16.06-12.386 32.914-21.425 47.942 89.428-325.04 151.06-578.05 441.25-761.75 23.245-14.718 48.78-33.92 74.216-43.775-21.471 21.097-40.167 30.294-59.48 48.731-72.729 69.434-128.06 163.36-131.12 265.92-0.5452 18.178-0.8379 37.346 2.152 55.271 16.511-80.29 39.582-148.2 93.42-212.07 13.844-16.422 29.666-34.103 47.099-46.787-49.529 67.755-64.205 96.846-81.579 196.41 72.235-163.39 157.02-282.32 327.97-347.87l56.629-17.31c-10.773 7.4461-127.61 66.768-202.79 197.13-7.3541 12.748-20.659 30.125-22.248 43.262 20.042-25.337 39.905-50.154 64.007-71.846 130.04-117.04 316.58-149.32 351.2-144.75-21.966 7.0324-44.957 9.9431-66.908 17.221-135.85 45.042-252.58 134.96-295.58 272.01 103.37-157.05 247.82-212.04 432.47-226.28 24.504-1.8903 50.62-3.9594 75.049-0.3228-50.362 9.0847-97.337 23.638-146.24 38.156-145.28 43.131-240.22 73.724-282.62 247.77-32.35 132.79-15.009 192.96-15.544 266.51-0.7041 96.598-32.532 192.56-100.95 262.62-68.298 69.941-119.4 81.183-133.59 89.572 56.912-5.2709 116.52-25.535 165.52-54.844 14.93-8.925 33.632-26.041 49.727-30.563-29.056 39.56-89.362 80.985-103.15 97.823 124.96-57.37 148.33-129.16 178.06-153.34-114.13 207.51-249.29 202.13-363.39 276.74-74.033 48.422-96.066 90.518-125.17 184.52-0.1736-73.492 34.282-142.68 85.373-193.98 25.912-26.016 53.718-42.161 85.685-59.435-104.27 26.023-187.62 127.05-223.8 229.49-18.16 57.476-15.885 54.182-18.584 58.062 6.0146-78.02 38.626-156.13 87.693-216.99 12.212-15.153 33.806-30.965 42.716-47.104-24.98 7.7006-58.618 45.359-75.639 64.553-56.218 63.388-78.718 139.54-74.043 222.98l-2.2015-1.5569c-28.386-127.1 61.111-259.42 163.33-342.92-78.319 31.991-177.59 128.63-217.41 237.96-29.249 80.305-15.644 161.4 19.645 236.68-99.084-128.46-70.06-345.62 117-471.16zm-81.292 869.45c2.7759 14.051 7.1317 23.641 11.925 43.896l-2.6132-2.0876c-19.184-19.288-31.342-57.879-33.652-84.336-7.1082-81.623 23.443-113.3 46.519-140.28l13.318-12.163c0.3422 0.8184 0.9868 1.567 1.0264 2.4543 0.4038 9.2019-53.56 106.29-36.523 192.52zm29.79-31.371c5.9302 30.117 21.554 54.418 29.259 83.052-9.7827-6.1584-18.787-33.107-23.175-44.005-9.0687-22.521-11.95-43.579-13.254-67.547 6.421 4.7546 5.6079 20.572 7.1698 28.5zm-69.645 142.44c31.908 24.572 46.756 50.814 92.904 73.026 4.5765 2.2017 15.163 5.469 18.395 8.9004-30.462 0.9104-92.856-35.031-111.3-81.927zm114.06-251.99c-7.9581-31.773 6.5548-58.642 22.898-84.857-4.9137 48.934 0.6693 98.755 27.935 140.98 52.674 81.576 225.65 113.23 259.59-83.067 2.0923 14.632 1.7454 29.512 1.8545 44.263-7.5839 52.819-39.809 98.545-92.716 113.28-96.365 26.836-198.34-45.895-219.56-130.6zm-40.252 495.05c-10.646-1.061-23.572-7.095-33.935-10.437 35.152-5.7166 76.449 1.8098 138.52-43.827-6.3763 15.202-35.278 33.717-50.436 39.79-16.868 6.7532-38.646 7.2541-54.15 14.473 39.05 2.7686 60.669-1.6714 106.47-17.572l0.7538 3.1289c-24.372 18.793-87.57 31.829-107.22 14.443zm325.08-59.639c-22.843 2.2412-53.852 0.9373-71.881-14.726 20.322 0.6567 25.561 12.218 85.402 8.811l1.3536 3.3416-14.875 2.5735zm59.49-97.416c-47.243 6.5547-96.796 4.4177-141.99-11.96-37.455-13.576-67.488-38.134-95.235-66.085-8.4292-8.4934-17.82-16.685-22.982-27.623 11.856 3.208 30.99 23.255 42.181 30.707 51.264 34.133 109.54 59.778 170.69 69.268 15.956 2.4744 33.042 2.0283 49.196 2.6428l-1.8592 3.0496zm-110.85-77.023c-34.108-10.859-80.35-38.09-97.089-70.864 17.029 9.4656 21.382 17.228 34.743 25.972 132.21 86.525 222.22-2.4526 239.87-6.2476-6.4163 13.953-36.836 32.393-50.312 39.562-42.022 22.367-81.679 26.076-127.22 11.578zm972.45 1408.3c-214.77-96.674-346.13-197.52-480.01-328.38-29.809-29.136-62.425-58.429-87.301-91.893l168.09 125.29c107.72 62.834 94.843 61.508 116.31 56.604-15.946-31.545-38.497-54.537-62.396-80.216-92.629-99.483-91.961-84.895-114.42-111.9 22.188 10.199 43.043 29.115 62.723 43.613 79.73 58.722 157.03 118.81 224.65 191.5 8.335 8.9551 22.303 21.351 27.216 32.314l-128.74-67.404c25.059 33.791 67.15 60.358 100.7 85.596 87.187 65.584 174.68 129.62 269.77 183.31-12.494-1.3889-2.0203 1.8618-96.588-38.442zm-469.62-438.21c2.6327 1.5667 5.4045 2.6675 7.1746 5.2209-3.0396-0.9318-4.8345-3.1337-7.1746-5.2209zm493.89 108 252.02 300.09-2.4297 3.6294c-12.148-2.9849-28.624-25.342-37.485-35.412-180.38-212.78-42.229-88.555-452.77-395.44 14.483 24.162 41.179 45.255 59.872 66.848 167.26 193.17 256.02 240.08 291.58 268.74 39.28 31.654 74.965 75.58 106.28 115.04-6.8779-1.4285 13.81 10.254-298.4-172.11-209.78-120.57-180.55-91.154-382.83-296.12-271.13-252.05-262.31-240.93-301.33-283.35-32.193-35.007-100.58-117.64-113.72-154.81 52.013 61.756 100.52 124.36 157.78 181.81 107.04 107.37 230.48 188.63 353.06 276.19 75.03 53.604 147.59 110.33 226.12 158.87-117.95-151.48-222.25-241.27-545.48-538.2l0.1985-2.3501c245.96 165.12 86.996 64.033 673.99 424.25 443.26 299.9 360.01 245.27 445.76 296.48 12.951 7.0806 45.329 18.976 53.451 30.137l-4.5818 6.1978c-10.254 2.5537-40.034-13.536-50.173-17.751-178.42-74.244-275.32-138.58-430.91-232.75zm400.84 589.23c6.4858 17.178 32.383 73.581 43.787 82.63 20.522-1.9583 39.835-6.2229 59.356-12.862 9.4207-3.2031 20.686-9.3613 30.35-10.512-27.687 22.109-69.367 34.535-103.03 44.134-20.894-36.959-46.301-77.513-57.685-118.59-8.3982-30.324-6.0593-80.656-11.781-89.592-12.954-20.247-49.847-33.849-54.829-45.523-1.1206-2.6228-0.4709-10.432-0.6099-13.635 4.9385-2.5933 2.4395-2.4045 6.9268-1.2993 66.794 16.492 138.54 14.399 205.73 28.327-108.83 9.1646-111.27 8.0808-156.74 18.182 168.3 31.114 195.67 11.974 252.11 17.087-77.097 20.612-153.11 47.357-213.58 101.65zm103.36-169.92-198.78-11.245c-5.1318-15.48-1.0264-43.262-0.8279-60.184 18.985-27.236 47.451-51.69 75.312-69.431 85.229 13.898 171.18 20.651 246.12 68.088-50.967-6.5503-100.63-3.1587-151.76-2.8015-40.341 0.2776-81.52-2.033-121.59 3.1187 88.588 46.638 127.92 50.247 199.38 65.728 27.504 4.6907 58.171 5.5137 84.118 15.966-41.615 4.2891-89.934-5.5483-131.97-9.2373zm99.132-215.73c25.342-1.7058 46.519-6.3616 70.418-15.064 9.0742-1.769 9.519-0.3174 23.745 10.834 29.22 22.927 49.162 48.71 65.529 81.837 29.472 59.648 26.056 120.2 4.9883 181.74-0.5852-24.385-1.3884-47.669-7.6406-71.37l-11.97 70.607-0.3572-46.098c-0.6643-5.6826-0.6348-8.2905-3.8628-13.16-4.0259 21.747-7.7246 46.097-18.46 65.594 2.1459-74.626 11.77-148.05-122.39-264.92zm505.65 1251.1c-56.838-176.21-30.221-100.33-119.62-337.66-105.14-245.83-308.63-453.67-314.6-474.48-0.5454-1.9038 0.8679-7.9382 1.1155-10.204 9.6589-0.4612 19.824 6.7136 28.268 11.166 35.779 18.852 70.408 43.207 100.96 69.734 154.17 133.85 239.54 481.31 296.24 676.45 12.079 48.126 31.332 102.06 34.535 151.36-9.4458-9.8179-22.179-70.662-26.909-86.369zm-99.533-673.78c90.393 294.66 93.322 299.34 92.646 320.82-16.563-36.911-46.905-157.84-98.522-229.59 15.692 70.923 62.347 167.12 61.662 199.93-41.046-79.248-25.005-96.282-156.67-277.04-83.713-114.94-82.227-103.64-147.61-165.15 59.411 26.413 108.75 70.721 159.35 110.85-47.054-89.866-103.42-131.12-110.04-144.82 31.357 18.495 55.608 45.007 80.687 70.944 37.862 39.155 41.011 42.324 66.353 74.896-15.753-56.624-44.715-113.22-86.042-155.64l32.106-7.9978c60.968 74.16 69.943 102.05 106.09 202.79zm42.22-528.63c20.999-1.3784 39.12 1.3333 43.683 23.057 5.6184 26.757-6.7498 46.453 6.7983 114.83-34.431 16.491-62.807 19.372-100.45 20.314 26.919-9.3567 35.013-10.216 40.748-22.342-13.903-15.381-79.799 14.047-97.967 18.698-16.67 4.2639-30.28 6.7383-47.55 5.0623l0.9568-2.4495c46.018-8.647 91.074-34.208 130.29-58.85 13.279-8.1863 35.66-20.721 42.914-34.768 2.7371-5.3054 1.9338-6.5894 0.3372-11.96-11.027-0.7734-21.073 5.2261-30.99 9.4854-121.26 58.612-123.95 72.234-214.39 53.545 34.832-9.6489 67.418-18.272 99.107-36.335 56.898-32.43 87.009-68.822 126.51-78.292zm-81.882-102.3c18.693 5.1467 34.802 38.536 43.425 55.151-48.051 25.907-93.757 60.268-145.82 77.286-11.974 3.9172-23.691 8.6621-36.439 8.4243 76.975-34.965 58.541-24.446 125.99-72.516l-149.09 43.866c54.492-35.694 110.05-92.816 144.19-112 5.6822-0.8032 12.113-1.7649 17.751-0.2131zm860.84 1070.2c-27.504-9.2871-44.958-25.967-66.213-44.873 16.878 0.3271 52.062 33.266 66.213 44.873zm-327.91-577.78c53.074-16.328 163.18 45.408 212.97 70.661l-96.35-116.68c-242.35-333.59-178.57-248.83-292.23-390.55-19.213-23.225-42.988-47.213-58.196-73.14l3.8821 1.656c18.817 11.558 38.606 36.394 54.576 52.415 130.46 130.82 250.2 273.34 363.87 418.86 86.65 110.92 111.28 130.75 137.43 204.23-333.62-168.64-314.54-158.67-325.95-167.45zm399.01 146.62-66.427-149.67c45.553 55.398 100.78 172.24 128.36 239.52-55.457-30.309-31.833-16.709-61.935-89.85zm141.85 111.16c7.0757 17.15 17.082 34.802 20.78 52.95-47.578-21.805-53.441-77.617-72.347-128.67l-61.904-161.06c45.349 72.476 80.91 157.85 113.47 236.78z"/> <path d="m2478.9 648.42-2.2263 0.4954c103.48 66.358 177.76 160.15 218.52 276.1-6.2806-152.47-190.79-278.74-216.3-276.6z"/> <path d="m2490.7 696.93c-14.87-9.808-29.274-18.986-47.218-21.757 19.556 15.37 40.797 28.714 59.782 44.794 32.92 27.875 88.553 93.437 98.23 106.15 6.7903 8.9105 8.1604 20.775 19.417 23.919 1.8804-49.376-88.721-125.75-130.21-153.1z"/> <path d="m2429.4 703.72c23.81 21.564 50.238 40.375 72.585 63.442l39.488 44.719c8.0867 9.8771 15.425 22.501 27.097 28.178l3.0396-0.248c-24.995-58.24-85.407-109.59-142.21-136.09z"/> <path d="m2460.6 771.64c6.1287 8.7119 23.954 21.658 34.322 24.063l2.177 0.2627c-8.7466-9.5149-23.736-21.717-36.498-24.326z"/> <path d="m2624.9 831.78c3.1931 14.399 16.224 26.478 24.335 38.645 2.9355 4.403 1.3589 2.8462 4.6709 5.3353-4.1951-16.115-15.024-34.53-29.006-43.98z"/> <path d="m1591.2 1089.3c38.24-64.072 53.997-163.19 27.945-255.69-0.9604 104.8-0.1901 219.11-105.43 323.03-31.109 30.722-62.728 47.243-99.003 70.15 70.568-13.201 139.76-75.95 176.49-137.48z"/> <path d="m2684.7 1371.6 1.5417 0.2678 8.6377-9.9464c38.938-52.578 76.517-104.05 91.977-168.76 18.578-77.745-10.416-187.52-70.686-234.04 125.91 199.98-3.2945 324.88-31.47 412.48z"/> <path d="m3458.1 1034.6c-41.014-44.065-87.843-55.935-113.69-51.026l1.3337 3.5799c44.705 5.2547 71.512 23.339 112.36 47.446z"/> <path d="m3425.1 1023.9c2.3452 0.2927 3.8477-0.1835 6.0093-0.6544-12.946-9.9466-40.405-21.053-56.698-19.833 9.059 8.8357 37.807 18.861 50.689 20.488z"/> <path d="m2923 1331.3c-68.347 46.519-91.384 101.37-114.11 149.65-5.5581 11.806-12.668 22.293-9.9812 35.695l6.2625 3.6888c8.0969 0.4512 16.253 0.9373 23.864-2.365 19.06-8.2756 38.105-22.213 56.793-32.061 61.81-32.571 128.31-62.5 184.46-104.41-33.672 11.31-64.87 23.329-96.504 39.736-70.985 38.993-90.554 48.769-114.63 66.377-11.033 8.072-22.982 19.769-37.222 20.577-7.9534 0.4462-12.976 4.6855-21.296 3.902l0.3716-2.8806c7.9841-3.9791 10.31-3.8647 17.801-4.1056 11.776-9.2771 25.758-15.787 38.348-23.968 94.761-61.571 133.63-78.3 234.31-128.4 32.551-18.182 63.626-47.744 99.216-59.723l-1.2393 3.4261c-22.481 11.821-43.619 27.648-62.624 44.447 43.093-15.708 81.317-48.84 124.63-61.166 9.3262-2.6528 17.84-5.7914 26.829-9.4111-12.967 12.445-116.64 56.118-163.58 99.087 60.695-24.217 114.18-63.184 174.74-87.857 9.0938-3.7037 21.252-10.249 30.851-11.25-34.406 20.258 5.3423-6.1547-178.39 98.403-33.487 19.307-19.175 18.433-92.993 58.741-115.52 57.481-104.95 49.692-117.25 58.493 29.031-2.7766 51.2-13.744 76.968-26.74 136.51-68.824-9.2603 0.767 232.33-130.38 17.463-9.8423 40.44-26.695 59.718-31.545-11.751 10.155-5.885 5.5576-147.61 87.609-67.545 38.709-62.653 53.969-212.91 120.53-43.906 19.452-84.564 41.908-133.74 43.113 3.5107 5.3352 9.7678 7.8293 16.115 9.0389 3.6689 0.6993 7.5811-0.704 11.156-1.3239 67.672-11.796 75.889-31.24 95.051-33.126-22.421 16.278-44.178 25.307-70.478 33.508-14.001 4.3687-17.708 6.2557-29.874 4.2788 7.4275 8.464 42.641 14.3 54.457 15.346 32.278 2.8562 83.203-27.315 103.83-25.868-74.778 40.569-103.51 32.709-125.99 38.839 18.539 3.9156 107.25-3.4604 142.59-27.251 24.985-16.829 44.59-45.691 65.708-67.136 40.792-41.422 117.78-95.205 179.57-84.41 32.596 5.692 51.73 31.376 72.897 54.254-17.503-6.1731-34.337-12.411-53.089-13.303-81.209-3.873-203.97 101.21-246.58 120.87-20.552 9.4852-42.627 8.2753-64.493 12.044-38.978 6.7178-69.426 20.804-147.87 17.652-55.988-2.2443-53.836-11.773-66.134-14.474 7.3831 18.768 36.221 37.411 54.249 45.354 59.059 26.032 113.28 2.2322 136.59-32.071l77.697 5.2957c12.54 1.0015 22.486-7.8096 33.776-8.0675 6.5542-0.1469 65.274 48.751 195.95 17.771 32.761-7.7698 56.83-16.739 74.727-45.329-4.2883-12.866-6.3423-21.017-5.3005-36.404l1.5818-2.4792c16.202 16.048 12.087 14.881 31.842 25.154l0.5354 5.1565c-48.698 50.506-65.356 95.481-227.22 97.778 54.504 14.557 78.871 7.3313 104.46 11.746-33.072 20.086-80.657 23.21-118.1 18.44-17.666-2.251-35.442-7.358-53.178-8.1019 50.22 45.238 203.06 35.898 255.35-17.24 15.857-16.115 28.223-39.726 38.546-59.599 4.3635-8.4095 10.075-17.84 11.29-27.31 2.0085-15.634-9.3164-33.142-15.182-47.209-4.5171-10.849-7.9136-22.288-11.454-33.493 12.257 3.1437 39.969 15.401 49.955 10.184l1.6562-6.4954-9.3911-13.556c5.3994-0.1042 2.8113 0.3572 7.7844-1.319-8.7827-14.716-17.621-26.609-24.8-42.341-6.7107-3.3906-7.782-5.2999-11.481-11.656 7.8381 3.8801 8.4702 3.9556 12.162 11.417 6.7668 6.9886 17.356 19.079 25.06 23.014 7.2449 3.7108 56.632-6.7408 77.3 3.4264 28.134 14.325 61.57 38.859 75.798 64.483-16.07-10.467-27.519-28.689-43.356-40.311-8.8999-6.535-18.797-15.172-29.517-18.143-27.985-7.1813-43.572-5.3646-76.289-3.441 37.023 51.415 37.453 44.484 52.181 97.54 44.445 21.239 42.487 18.929 65.584 39.493-10.814-30.885-42.77-42.766-61.929-66.238 13.357 2.7023 30.375 14.949 42.666 21.717-11.602-17.857-30.522-30.929-45.245-48.984-3.1536-1.0066-5.127-3.1085-7.6606-5.1862-3.0889-0.8579-4.988-2.9602-7.4375-4.9584 2.7122 1.4579 5.5981 2.4344 7.4375 4.9584 3.5107 1.5916 5.2261 2.0873 7.6606 5.1862 17.453 4.765 40.029 23.636 56.664 24.564-13.188-19.224-44.251-35.201-64.548-46.633l59.619 21.578c-23.363-31.629-57.085-20.81-87.906-32.958 6.803-1.2594 11.598 0.9073 18.301 1.0312l35.542 0.0746c26.869 13.6 44.669 29.452 66.055 49.826 11.578 11.027 24.786 20.28 35.714 32.031 47.134 50.669 78.426 112.13 118.64 167.55-40.506-126.4-96.424-165.84-145.45-244.9-5.0032-8.0624-31.079-58.583-35.938-61.885-11.478-7.7994-106.38 18.148-132.54 6.4657 112.52-12.745 108.97-13.414 123.39-11.964 4.1106 0.4165 4.438-0.3521 8.0078-2.1616l-1.8992-8.2112c-1.8442-2.0132-3.0244-4.9683-5.5383-6.0344-4.3071-1.8264-40.876 3.1161-64.325-3.0045l68.019-12.341 1.7505-4.651-2.9653-3.6938c-32.016 1.0758-64.87 10.308-96.489 15.088-19.223 2.9056-40.222 2.0576-59.698 2.3949 2.5732-2.405 131.43-25.213 146.27-28.525 11.067-2.4645 12.346-3.3271 17.835-12.535l-1.7202-3.9071c-22.208 9.5695-48.215 11.246-71.931 15.673-20.15 3.7587-37.366 9.4358-58.226 9.9962l-0.1685-3.1686 123.38-29.715c16.059-5.3081 19.916-17.355 27.608-32.804 30.108-52.39 42.21-127.22 11.701-181.6-8.8401-15.763-21.797-31.257-32.263-46.246-6.2725-8.9845-15.386-15.634-23.666-22.684-31.232-26.587-57.532-34.832-97.753-41.566 25.238 14.925 56.084 18.202 80.414 33.732v1.9934c-21.063-7.4327-37.599-11.152-60.09-11.697 35.299 12.277 83.955 30.608 108.12 60.586 18.49 22.937 26.928 54.864 24.172 83.781-4.7996 50.337-19.536 88.501-59.337 121.27 4.0908-12.044 19.625-23.369 26.746-34.867 8.8752-14.335 12.133-34.059 16.045-50.372-10.026 14.329-8.8672 30.062-24.256 44.397 10.026-28.545 19.199-49.95 19.437-81.113 0.3323-43.142-12.222-77.588-42.533-108.52-0.3123 5.1964 8.3301 18.356 10.596 23.84 3.426 8.3053 5.3352 17.191 7.0505 25.987 7.6904 39.473 5.127 76.805-17.874 110.84-25.188-13.616-51.14-23.84-77.186-35.482-46.941-20.979-82.269-45.458-136.82-36.057-54.81 9.4414-110.28 58.219-164.26 86.136-51.488 26.631-112.49 43.594-160.28 76.13zm-10.402 232.15c-11.459 5.9452-18.976 6.9814-31.813 6.3815l-7.4126-3.6049 2.4541-1.6609c11.633 0.4462 21.004 0.2825 32.254-3.2975l5.0078-0.1388-0.4908 2.3206zm-7.021 47.833c-49.589 15.614-80.206 22.862-141.54-10.745 46.366 12.381 99.087 9.0389 146.5 4.9535l1.6064 1.6411-6.5646 4.1502zm169.39-29.908c32.249-22.407 67.547-39.508 104.06-53.664 9.1318 31.736 17.984 50.336 41.585 70.751-77.028 10.769-111.63-1.0015-145.65-17.086zm219.21-16.581c-11.686 26.959-57.285 30.804-75.718 20.542-15.415-8.5778-24.698-32.725-29.155-48.859-0.9075-4.3883-0.8628-5.7023-0.104-9.9167l12.634-3.3517 4.2742 2.5188c1.9685 11.488 4.7549 22.838 9.634 33.479 3.6892 8.0574 9.0637 12.47 17.632 14.984 17.462 5.1196 46.839 1.0201 56.232-13.214 5.1519-7.8291 2.8459-28.634 3.7588-38.134 1.0955-11.364 4.606-23.388 6.9067-34.634 0.947 22.818 3.114 55.335-6.094 76.586zm195.23-101.45c-11.021 0.6305-19.81-3.4573-24.772-9.0985 10.333 0.4178 17.355 0.6398 24.772 9.0985zm-74.296-17.795c28.505-2.4392 61.485-14.919 70.582-0.2578-26.245 7.1598-55.365 6.1185-82.442 6.788-9.7861 1.105-22.191 2.7626-29.745-3.3568 11.424-4.9734 28.927-2.0876 41.606-3.1734zm6.49-39.414c12.351 2.5437 37.326 2.6775 46.648 10.105l-2.3899 2.608-56.456-5.7122c-42.767 10.192-37.589 8.9305-69.441-2.0776 72.831 0.3751 67.334-7.8691 81.639-4.9233zm83.498-112.61 2.4792 2.7865c-5.925 13.447-26.864 20.265-39.567 25.932 9.0388-12.262 24.34-20.597 37.088-28.719zm-85.105 40.906c-5.0471 6.2863-28.619 17.004-44.61 16.556 7.4475-7.4376 34.148-16.263 44.61-16.556zm83.994-16.115 2.0034 2.851c-26.398 19.06-63.487 20.205-94.124 30.732-14.667 5.0426-27.935 12.931-42.696 17.761l-2.3154-2.5586c68.928-36.833 98.893-34.632 137.13-48.785zm-141.03 51.259c-8.7588 9.869-26.425 12.012-39.652 11.959 9.9367-5.7764 28.049-12.837 39.652-11.959zm-486.19 85.938c-15.663 10.254-31.327 21.668-48.235 29.686l-4.9531-0.4711c14.627-21.866 68.598-53.039 95.304-58.667-12.52 11.31-27.985 20.2-42.116 29.453zm264.13-150.74c-5.4097 21.727-155.89 67.398-181.71 80.047-40.643 19.908-75.253 43.286-110.64 71.142l-3.7485 1.5374-1.8247-1.5919c36.26-70.441 188.69-101.12 292.15-149.99l5.7762-1.1454zm-177.73 43.698c-54.463 26.133-80.964 52.797-88.492 55.285 3.9897-11.005 9.3403-14.009 23.944-25.644 37.911-30.211 77.826-46.782 121.45-66.724 23.984-10.963 51.795-25.932 77.623-31.352-32.784 33.32-93.023 48.518-134.53 68.435z"/> <path d="m3354.7 1443.3c1e-3 5e-4 0.0017 1e-3 0.0029 0.0015l0.8977 0.1935c-0.0808-0.1637-0.1411-0.2765-0.219-0.4336-0.5149-0.5316-1.0596-1.1038-1.5266-1.5697 0.2735 0.622 0.5667 1.1982 0.845 1.8083z"/> <path d="m2703.6 1251.4c35.417-66.724 45.889-126.07 23.795-199.12l-4.3633-6.6493h-2.7766c-4.7947 29.849 1.6562 62.356-1.9683 92.969-6.1018 51.589-53.319 152.97-82.254 206.45-6.6189 12.231-10.966 15.825-19.144 31.441 22.075-12.078 72.178-97.709 86.712-125.09z"/> <path d="m2728.2 1385.2 4.5962-2.4792c47.139-57.774 100.64-137.91 93.266-216.25l-4.7998-29.373-3.0842 0.1832c6.0404 116.77-79.377 215.35-89.979 247.92z"/> <path d="m2785.9 1534 8.1614 6.4653c9.3125 3.7776 1.7937 1.8572 21.227-0.3718 40.653-4.6708 78.218-39.185 115.85-54.854 3.917-1.6312 6.074-3.6543 8.7068-6.9069l-5.3997-1.3538c-34.45 13.883-65.405 33.647-99.132 48.022-22.358 9.5303-43.432 3.6741-47.451 5.6127-1.175 0.5704-1.3088 2.2564-1.9634 3.3869z"/> <path d="m3519.4 1656.5c-20.438-36.612-42.746-57.7-81.029-75.074 7.7795 12.292 15.272 24.167 24.99 35.05l4.9585 0.2776c18.276 11.404 34.55 25.987 51.081 39.746z"/> <path d="m3482.3 1635.4c-4.7004-4.4327-11.583-13.03-17.636-14.637 9.7974 31.178 43.137 52.251 70.15 68.455-16.466-19.59-33.944-36.32-52.513-53.818z"/> <path d="m3161.8 1820.8 81.46-30.29c-37.297 41.769-76.041 57.432-130.02 69.005-36.966 6.4303-64.698 0.6506-73.631 4.1301 55.112 17.597 110.97 23.557 164.05-4.4575 65.837-34.74 105.7-117.94 121.89-190.94-35.919 42.116-35.519 72.312-163.75 152.55z"/> <path d="m2542.4 1696.4-4.0708 1.4972c-30.33 17.131-45.409 65.083-56.272 95.433 13.715-19.69 25.119-40.609 37.559-61.082 7.3533-12.108 16.546-23.126 22.784-35.849z"/> <path d="m2458.1 1745.9c7.626-5.8655 16.581-35.373 19.704-44.764l-2.4893 1.7157c-9.5197 9.5348-16.323 29.988-17.215 43.048z"/> <path d="m2589.8 1725.1c-44.989 31.505-72.234 77.44-79.551 127.19 8.3652-6.5848 9.6724-11.237 49.102-84.059 8.965-14.989 20.106-29.071 30.449-43.128z"/> <path d="m2598 1820.1c11.216-21.584 27.469-40.083 38.472-61.572l-3.3767 1.3883c-9.168 5.4144-19.04 17.26-26.002 25.362-35.199 40.961-50.436 91.094-58.037 143.64 17.022-35.869 30.608-73.527 48.943-108.82z"/> <path d="m2651.9 1862.5c10.487-14.122 24.187-28.754 31.619-44.625-14.858 4.9578-89.801 66.709-132.68 209.82-4.8689 16.253-11.116 33.568-12.792 50.486 8.7168-10.576 14.33-34.257 20.612-47.436 47.866-92.6 64.372-129.37 93.236-168.24z"/> <path d="m2720.1 1883.7-3.5945-0.1934c-72.521 48.686-122.19 120.49-138.92 207.01-2.0332 10.507-4.0759 22.422-2.3108 33.052l1.7354-2.0627c23.805-54.07 42.23-108.71 76.225-157.94 19.813-28.689 43.965-53.694 66.868-79.869z"/> <path d="m2822.4 1909.6c-11.055 0.2025-24.376 9.2048-36.211 15.564-45.185 24.286-84.232 51.175-113.68 94.129-36.964 53.917-57.254 125.26-45.046 190.33l4.4968 24.752c1.4036 2.6082 0.3721 1.0413 3.729 4.2097-5.7037-223.42 168.3-310 186.71-328.98z"/> <path d="m3124.6 1938.1c-88.214 25.932-191.1 54.7-264.94 110.98-28.012 21.349-72.046 72.49-85.63 97.208-35.534 64.673-46.66 152.95-22.575 232.38 6.3665-83.24 9.8818-182.24 52.325-256.55 6.5449-11.454 15.093-25.738 25.233-34.242 67.69-56.799 163.3-59.282 304.75-150.05l-9.1628 0.2777z"/> <path d="m2717.2 2152.1c14.314-48.572 49.142-99.484 83.905-135.72 10.105-10.531 29.413-23.79 35.735-36.176-19.952 12.946-41.298 25.55-59.416 40.976-41.942 35.71-78.58 88.268-90.044 142.79-10.472 49.796-3.9666 97.426 8.8953 145.98l3.5205 8.5979c7.4311-8.7724-6.2168-86.295 17.404-166.45z"/> <path d="m2853 2171.3c-50.818 93.177-34.649 207.1-5.3799 304.22 1.3088 5.707 2.3206 10.73 5.0376 15.961 5.3054-13.873-3.1387-47.074-4.2595-63.025-18.63-265.13 51.873-286.2 95.24-338.1-37.152 8.2555-73.419 49.376-90.638 80.95z"/> <path d="m2455.3 2207.1c-9.3711 0.7339-19.848 5.0427-29.234 6.9368-87.079 17.607-91.75-4.5164-126.62-11.9 13.799 15.326 48.031 25.972 68.177 27.33 26.015 1.7509 67.958-2.8375 87.678-22.367z"/> <path d="m2474.2 2264 6.1831-4.8242c-12.988-5.2434-38.771 18.699-113.3 7.6953-62.038-9.1614-93.884-38.392-107.37-36.206 71.138 53.197 133.49 73.172 214.49 33.335z"/> <path d="m2917.1 2551c-36.571-204.87-19.87-266.01-15.262-309.1-12.692 15.696-21.337 67.59-24.196 90.41-14.315 114.14 12.237 212.24 52.965 317.9 1.7104 4.1055 4.1599 10.492 7.7544 13.036-0.4512-13.665-4.7004-27.558-7.5166-40.906l-13.744-71.345z"/> <path d="m2412.4 2338.2c-71.195-3.2942-110.54-32.618-132.58-39.498 7.2244 9.2671 17.086 14.439 27.092 20.21 25.937 14.974 47.639 24.47 77.474 28.585 25.168 3.4709 80.017 3.7883 101.03-11.538-11.444-0.8201-15.866 4.8777-73.011 2.2412z"/> <path d="m2468.5 2395.7c-139.07 3.3191-204.25-70.475-216.17-74.628 4.051 9.4409 11.87 15.306 19.442 21.965 20.924 18.4 43.574 34.431 69.536 44.893 56.668 22.842 118.08 22.978 167.59 6.2773-9.1477-3.9618-29.715 1.2347-40.395 1.4925z"/> <path d="m3130.5 2663c-9.3667-16.097-9.4766-26.317-16.63-54.279-3.342 29.348-7.0803 50.887 12.168 75.758 23.237 30.006 60.284 22.543 82.795 20.324-29.081-6.9565-61.999-13.72-78.332-41.804z"/> <path d="m2993.1 4622.2c-113.16-227.61-214.93-452.2-365.53-628.75-14.814-17.364-50.903-61.844-72.426-70.661 13.03 15.886 27.707 30.221 40.252 46.514 140.28 182.21 239.1 395.21 333.33 603.81 138.36 306.34 60.994 152.55 147.24 299.04 6.3765 10.839 11.082 22.818 18.093 33.236-13.254-115.79-51.861-179.14-100.97-283.19z"/> <path d="m2569.7 4118.6 134.76 304.74c-13.591-93.806-59.43-189.14-110.13-268.63-7.2767-11.406-14.906-28.879-24.628-36.111z"/> <path d="m2735.3 4408.6c-1.1941-57.112-75.052-206.56-91.213-222.66 9.2324 37.183 32.527 75.436 47.168 111.12l29.884 76.854c3.9665 10.586 7.2292 26.086 14.161 34.693z"/> <path d="m2881.9 4178.6c110.28 288.79 72.176 184.22 167.96 458.34 25.64 74.518 69.274 215.36 114.84 272.85-34.664-152.91-89.547-297.42-147.99-442.52-39.275-97.52-80.216-198.63-134.82-288.66z"/> <path d="m2971.4 4220.2c4.0906 21.212 14.543 41.799 21.816 62.222l41.402 122.16c172.06 552.54 94.948 311.91 180.15 525.57-28.336-234.13-215.94-682.74-243.37-709.95z"/> <path d="m3136.6 4485.6c-35.215-84.681-39.534-96.772-46.073-103.98 4.418 21.881 13.586 43.331 20.498 64.587 131.91 411.56 136.11 446.3 167.4 496.27-17.985-102.12-14.134-127.55-141.83-456.88z"/> <path d="m3290.2 4685.6c-26.646-72.05-28.858-79.026-33.504-85.595 2.5537 27.325 13.715 56.862 20.538 83.781 44.054 168.75 59.311 244.67 92.78 295.67-9.8344-65.207-10.505-90.021-79.814-293.86z"/> </svg>