<?xml version='1.0' encoding='utf-8'?>
<svg xmlns="http://www.w3.org/2000/svg" enable-background="new 0 0 4787.4619 5000" version="1.1" viewBox="0 0 4787.5 5e3"> <path d="m4632.6 4175.4c-136.26-145.49-390.17-212.01-585.41-336.13-11.287-7.1819-17.192-27.399-25.418-38.986-24.379-34.337-63.722-74.027-101.44-93.028-34.934-17.601-57.038-5.4246-82.579 3.4797-51.927-31.008-71.456-73.602-108.44-118.63-20.165-24.55-42.879-44.188-60.474-71.24-46.776-71.926-57.433-142.47-173.14-148.04-59.27-143.9-63.529-358.79-85.992-401.24-25.242-47.693-82.03-81.834-130.26-101.83l-124.46-46.416c-3.366-54.027 3.5159-109.39 8.9763-163.13 34.156 7.3936 59.771 8.4692 90.411-10.977 23.805-15.113 50.444-39.725 56.716-68.137-1.4993-8.0557-2.9214-11.277-8.0969-17.626l-2.6267 0.822c-10.431 28.476-50.035 61.393-76.519 72.041l-27.393 9.1675c41.731-28.738 74.378-54.446 98.09-100.51 12.347 9.1892 17.353 12.04 34.007 14.358 23.722 3.2939 44.306-0.6875 67.822-1.1636 75.408-1.5295 129.28-84.883 126.91-152.89-0.801-22.864-8.5002-43.267 7.7612-62.418 35.426-41.715 115.94-23.07 184.32-79.957 123.99-103.14 100.22-248.31 107.98-261.8 2.8027-4.8707 31.334-17.818 38.314-22.786 77.361-55.082 118.69-141.94 114.45-236.22-5.9939-133.15-71.468-210.13-90.153-295.47-40.441-184.68 49.24-366.89-124.24-549.78-13.464-14.193-35.34-29.803-44.746-46.524-27.977-49.728-121.32-316.07-344.38-518.72-33.242-30.198-71.188-56.373-108.66-80.936-178.28-116.83-333.14-160.07-526.83-203.7-298.4-67.209-449.67-54.937-630.06-9.6826-255.7 64.149-483.2 195.78-661.03 390.94-48.252 52.956-87.465 113.64-137.13 165.5-71.106 74.247-283.57 214.08-306.03 458.57-9.5449 103.96 16.602 214.2-11.36 315.69-11.587 42.057-34.312 73.111-56.86 109.49-79.274 127.87-81.592 211.83 10.227 332.41 31.101 40.847 128.85 130.93 125.18 182.04-0.8016 11.189-9.5293 26.664-16.737 34.612-29.296 32.305-78.494 47.336-119.03 59.032 60.976 1.3184 136.1-2.4458 182.6-47.972 19.048-18.655 21.52-31.52 23.061-57.31 63.827 82.06 63.868 111.12 59.688 164.22 12.833-25.806 12.373-45.165 8.4434-72.899 86.79 126.75 81.283 93.46 113.71 133.84 8.5312 10.626 11.303 30.279 16.918 43.101 18.386 41.99 79.156 79.921 119.28 98.452 57.9 194.41 117.92 392.49 249.05 552.06 22.678 27.59 46.442 55.821 74.44 78.101-84.694 56.096-103.22 91.283-132 119.79-0.5923 0.5862-87.592 73.186-131.89 137.69-31.571 45.986-51.731 102.44-62.837 156.83-7.4766 36.633 2.1613 86.358-18.066 118.66-24.419 38.99-139.02 89.911-186.52 114.86-220.2 123.52-220.46 119.55-242.69 142.04-23.535 23.82-29.116 60.544-32.269 64.259-1.4379 1.6973 6.6302-2.7898-110.87 50.397-376.72 174.87-373.41 117.86-529.48 176.14-64.997 24.277-102.95 49.543-166.18 125.08-78.344 93.617-145.56 221.49-168.63 281.32 19.107 35.455 42.455 65.609 72.564 92.516-16.786-45.066-24.829-77.015-11.755-124.81 17.962 30.351 32.168 99.697 107.05 169.42-19.572-60.107-34.692-119.99-36.732-183.43-0.5584-17.388-0.727-43.226 5.8293-59.564 33.05 117.1 79.76 223.89 173.14 306.43-51.193-107.24-100.54-236.83-103.21-356.82-0.2835-12.694-1.6232-30.677 1.849-42.735l0.8583-1.7476c35.935 129.95 85.372 263.33 165.09 373.39-34.666-109.91-92.138-334.85-76.048-448.39l9.7879-40.18c43.082 212.63 71.822 312.22 228.79 551.25 30.992 47.191 64.15 102.21 106.8 139.67-28.278-59-49.13-123.51-62.904-187.42l0.884-0.7808c15.331 16.421 24.519 46.426 35.604 66.596 27.093 49.321 55.345 94.285 92.201 136.95-5.2-63.728-88.87-222.34-85.034-297.53 26.232 100.66 98.111 198.42 168.48 274.5-48.799-116.47-117.66-236.05-120.93-365.33 40.628 89.556 95.886 224.93 228.99 337.43-39.865-72.863-80.821-158.38-99.14-239.36 93.255 148.68 206.29 299.31 366.54 380.98-68.752-81.844-135.8-175.28-163.75-280.08 78.612 116.81 125.65 156.1 228.62 226.56-39.942-58.152-46.151-42.69-147.91-196.92-9.8082-14.86-24.079-32.533-29.208-49.467 37.592 30.003 70.068 96.383 269.35 233.38-35.413-46.23-72.698-90.732-104.71-139.5-142.3-216.74-250.45-494.36-216.4-757.01 6.794-52.409 18.702-123.66 53.711-165.32l1.7786-1.3132c-6.3131 28.014-13.055 57.041-16.003 85.64-13.821 134.19 11.23 272.4 50.123 400.39 58.821 193.58 154.08 359.02 305.77 489.32 9.0795 7.7974 20.165 19.803 30.878 24.86-9.4695-27.444-111.92-157.3-176.26-353.74 25.372 32.865 20.699 71.058 153.67 196.25 177.41 167.03 364.36 279.84 596.03 341.61-175.7-250.36-117.1-160.71-259.31-393.17-122.63-196.5-76.242-117.58-202.3-341.83-97.55-177.2-215.6-398.45-147.22-586.29 8.3192-22.839 21.334-44.948 32.584-66.472 1.0187 30.284-3.0662 60.929-4.1622 91.203-3.2976 90.288 25.594 176.18 49.632 254.17 97.454 316.14 220.41 487.97 331.93 660.02 111.44 197.01 96.627 174.36 108.58 187.91-0.7601-8.9912-5.5221-18.453-8.7693-26.819-27.291-70.376-31.523-62.241-41.23-149.21-23.159-207.21-18.614-416.39-29.534-624.29 74.296 59.724 60.159 42.352 55.909 59.549-26.44 106.72 6.8057 381.57 23.107 490.04 16.561 110.18 34.824 215.72 84.166 316.78 0.4241-39.968-10.47-85.536-16.432-125.34-87.439-624.57-48.274-510.17-70.857-680.5l75.5 49.508c-0.5391 4.5859 0.0986 1.9609-2.6058 11.276-35.041 125.38 15.824 588.58 116.55 770.69l-96.218-771.03c75.528 46.289 63.445 35.222 62.45 56.095-5.4756 198.85 21.684 302.09 74.341 566.83 11.634 48.658 19.215 90.523 39.596 134.53l-137.47 116.03c127.9-8.8574 255.56-39.948 376.73-81.255 113.67-38.763 204.17-71.979 423.46-211.35-9.4775 12.688-23.645 24.074-35.289 34.886-58.437 54.254-125.06 97.474-193.88 137.19 24.11-2.6836 49.596-10.827 72.853-17.693 229.76-67.806 463.79-266.66 494.37-275.33-47.331 66.702-327.52 283.09-338.16 304.69 28.691-6.8354 59.714-28.029 85.618-42.714 159.63-90.494 125.5-70.633 339.74-233.91-44.658 60.976-105.43 112.78-162.32 162-55.495 48.018-111.39 95.525-172.17 136.78 43.169-11.412 85.06-22.125 127-37.688 107.44-42.217 106.55-43.252 122.55-46.054-23.012 17.379-48.773 28.664-75.236 41.458-122.73 59.362-187.69 72.733-229.71 94.724 193.63-17.389 326.29-55.248 515.15-214.88 196.31-165.94 388.26-438.06 481.79-622.29 46.704-92.012 72.438-152.48 64.797-236.29-6.8179-74.715-31.522-129.19-32.807-134.06 38.67 34.653 72.837 67.868 75.552 123.63 3.5522 73.044-24.074 145.54-51.622 211.82-123.92 298.13-293.28 499.79-529.04 724.14-6.8608 6.2256-16.654 13.765-21.478 21.603 27.96-10.623 44.723-23.035 214.76-134.52 34.24-24.012 69.751-53.252 107.43-71.431-94.465 94.882-55.279 57.973-173.73 162.24-17.114 14.565-49.409 35.77-60.656 54.286 13.164-0.0366 31.949-12.161 43.691-18.118 80.226-40.692 159.82-91.555 231.17-146.48 26.406-20.325 48.789-45.139 76.374-64.016-15.631 23.796-19.13 26.336-192.89 209.09 122.23-59.177 241.38-152.44 334.39-250.89 50.433-53.38 98.747-113.99 155.33-160.96l-196.51 331.84c70.857-51.948 132.73-119.96 196.17-180.42l214.61-197.41c-49.969 77.035-117.69 155.05-256.39 320.24 33.98-14.669 116.34-80.222 273.34-203.01 81.862-60.74 77.002-53.384 209.87-179.97-78.902 143.06-227.21 230.82-333.79 350.66 30.335-10.688 62.476-36.845 89.15-55.242 266.18-183.51 208.23-171.94 256.21-199.8-8.3848 17.37-15.185 23.698-25.47 38.624-67.642 98.17-196.21 225.69-207.58 235.79 157.13-62.48 262.98-177.96 279.88-186.37-9.3843 29.839-120.55 156.39-148.25 177.38 128.06-40.916 273.51-130.97 319.8-174.25-31.003-115.23-71.912-232.35-154.87-320.91zm-1284.6-1655.8c-3.8005-5.574-5.0261-6.7219-3.9092-13.48 21.473 6.1992 43.841 32.253 57.01 49.963-17.988-6.4531-42.212-20.512-53.101-36.483zm47.646-21.235-8.9705-12.632c6.0806-15.816 33.882-41.447 47.718-52l2.5491 1.2927c-0.2275 20.915-23.06 51.266-34.544 68.51l-6.7532-5.1704zm13.743 31.731-0.1394-6.9543c9.6584-8.7434 20.242-16.556 29.002-26.209 10.305-11.355 20.874-29.121 32.579-38.159-6.0952 21.655-43.065 74.056-61.441 71.322zm356.69-422.11c-19.796 165.64-230.13 183.04-292.37 125.72l18.722 7.4817c50.692 19.162 118.95 8.9192 167.24-12.952 64.626-29.27 84-89.735 107.03-151.25l1.2976 11.608-1.9231 19.389zm-346.16-309.66c-134.25-119.52-173.39-256.39-209.12-432.24-9.8757-48.624-22.854-100.4-25.899-150.01 16.718 14.549 43.14 314.06 200.98 515.52 143.43 183.06 307.51 156.58 394.47 42.15 12.187-16.034 21.954-34.844 32.13-52.238l2.146 1.2823-2.3374 8.9087c-81.752 182.07-253.62 190.17-392.38 66.633zm12.466 163.19c13.198 22.048 19.285 38.134 17.317 61.58l-29.065-63.762c5.8946-1.5976 6.3704-0.1705 11.748 2.1821zm-20.946 7.9935c-4.2036-2.4662-6.7629-6.4216-9.8237-10.165 7.001 2.5333 6.4111 3.3969 9.8237 10.165zm-26.825 81.601 4.5349 1.5769c6.9128 9.0588 12.052 15.548 14.296 26.861l-3.5989-0.615c-6.0185-9.1054-11.09-17.709-15.232-27.823zm0.8635 23.267-0.3208 10.341-5.2271-2.5854 1.1062-10.341 4.4417 2.5854zm-2.1455-54.896c9.6638 5.7703 27.083 32.197 30.49 43.065l-2.5129-1.3704c-12.787-9.1828-26.856-26.25-27.978-41.695zm18.231 0.0985c-6.179-6.9287-12.906-11.97-20.532-17.125-8.7571-5.9124-17.134-37.438-24.912-52.17l5.7959 1.6544c10.083 10.858 13.211 27.859 17.585 41.783 18.054 13.002 44.287 32.385 47.191 54.802-6.6079-1.1687-19.483-22.616-25.129-28.944zm-46.105-2.0787-2.7354-1.2926c-9.7673-32.802-26.23-59.249-41.669-89.191 8.0195 0.3721 12.952 4.6481 18.567 10.403 20.734 21.261 25.651 51.778 25.838 80.081zm324.4-553.17c7.6165 16.344 18.723 37.248 20.765 55.102-8.3914-7.1974-15.077-22.383-21.25-31.912-46.773-72.149-23.97-30.501-64.357-113.77-7.8491-16.168-17.59-32.926-22.777-50.113 39.374 37.383 65.009 92.154 87.62 140.7zm-67.036-213.06c14.245 6.7684 32.983 30.237 44.063 42.352 57.124 62.454 96.312 135.56 113.68 218.42 3.7588 17.952 8.1851 35.47 7.3062 53.939-9.1311-19.193-14.783-41.612-22.404-61.664-57.644-151.58-130.58-226.07-142.65-253.05zm40.128 368.83c16.928 0.2275 33.639-2.8126 50.413-4.6172-31.44 24.077-190.33 27.095-284.03-99.564-52.801-71.374-70.05-170.65-74.688-257.2l1.1064-7.7455c9.0693 35.785 15.641 71.55 26.825 106.88 43.338 136.9 148.27 260.44 280.37 262.25zm-208.17 3.5107c76.694 66.638 167.08 88.592 266.57 82.16-103.34 32.491-212.83 0.8912-281.6-60.769-15.604-13.992-28.986-31.158-42.522-47.135l28.712 53.5c60.925 91.956 148.19 132.2 226.67 129.16 23.567-0.9102 45.955-5.9357 69.016-10.264-154.27 67.379-369.97-46.335-425.78-388.23-5.9409-36.4-11.287-74.786-10.502-111.68 8.3818 10.703 15.305 71.425 19.084 88.136 21.768 96.296 74.756 199.44 150.35 265.12zm298.17 269.2-0.9771 5.7549c-14.25 18.981-30.072 27.326-52.827 32.352l-5.2427-0.4962c3.6931-4.7037 22.52-8.0928 55.242-37.026l3.8057-0.5844zm-151.98 270.85c23.872-23.893 48.329-45.108 68.354-72.563l22.559-41.369c-6.1628 53.106-16.861 87.532-60.211 122.06-10.625 8.459-23.526 16.721-36.886 19.937 18.428-16.308 38.19-33.851 51.69-54.533l-45.506 26.473zm112.35-188.81c17.559 2.4249 33.701 3.7642 51.416 2.6422-17.869 10.119-47.672 12.13-68.008 11.432-35.015-1.2047-80.371-20.062-104.8-45.847 16.349 1.0084 33.769 16.075 49.358 22.011 13.345 5.088 27.807 6.9647 41.861 9.1104-25.972-11.241-54.322-18.469-73.515-40.614 1.8252-1.2098 13.247 3.2678 15.982 4.178 30.84 10.256 67.91 34.393 154.97 11.422-17.026 16.967-41.152 19.727-67.263 25.666zm203.79-325.26c0.6304-18.195-1.3445-36.411-1.0549-54.637 2.3215 2.9678 3.4744 4.493 4.6738 8.1433 17.921 76.42 23.8 158.61-19.787 228.18-17.156 27.383-74.3 98.018-104.56 107.42 38.441-45.734 114.05-96.028 120.73-289.1zm-147.49-353.88c49.053 68.788 85.65 159.2 82.315 244.78l-2.2231-2.0009c-19.31-143.39-98.18-215.69-156.68-315.99-11.07-18.986-26.452-40.32-31.261-61.798l2.5752 2.337c12.512 14.834 22.869 32.533 35.449 47.786 23.288 28.236 48.541 55.045 69.823 84.879zm-62.553-219.26c-4.4568-4.5137-4.8755-17.709-5.9719-23.681-49.891-220.23-91.228-289.98-147.58-402.39 78.366 85.791 163.17 255.36 153.55 426.07zm-66.896-96.973-98.69-260.22c38.295 45.01 89.202 154.15 98.69 260.22zm-776.75-480.96c-76.11-83.676-99.089-92.029-146.12-122.37 22.248 3.8688 124.17 57.12 193.1 113.23-22.286-37.472-89.534-101.38-128.74-128.29-18.78-12.898-42.509-24.379-58.438-38.176 27.032 5.0483 60.909 27.584 85.154 40.715 35.139 19.022 70.934 35.92 104.48 57.806-37.32-53.006-120.08-117.79-152.79-135.6-25.125-13.678-52.305-21.951-75.485-40.257 68.217 17.395 136.87 44.868 198.94 76.273-49.249-47.022-101.57-77.091-161.39-108.41 48.908 12.305 108.99 38.066 124.86 39.585-20.474-25.836-48.742-30.908-70.965-49.711 52.718 10.792 95.582 40.418 146.21 56.799-37.947-25.578-74.068-58.411-114.99-79.228-18.826-9.5751-41.09-15.216-61.374-21.063 101.69 6.1996 203.58 58.287 289.03 110.97 15.568 9.5995 36.426 20.297 49.72 32.8l2.8179 3.4571c-38.888-14.202-91.249-58.958-161.96-68.135 4.0134 2.6702 106.95 52.147 217.44 147.66l141.53 125.65c17.259 16.494 34.477 43.349 53.711 56.281-4.3899-14.54-18.04-27.238-21.463-41.436-8.2915-34.46-48.97-64.462-66.291-95.241 14.278 10.3 18.312 15.927 102.77 112.75 32.431 36.369 37.707 34.512 76.219 86.141-29.167-92.459-76.575-187.4-134.44-265.32 34.312 29.964 63.313 68.096 88.721 105.75 92.999 137.8 106.03 221.21 142.87 395.12-32.952-62.01-54.699-122.67-100.46-177.58 39.126 156.79 104.69 308.28 127.8 469.02 0.9822 6.8197 5.4392 25.103 3.3245 30.873-23.518-74.47-36.93-123.62-82.154-220.97-5.6562-12.182-12.993-32.905-22.73-42.145-0.4631 28.001 3.1562 43.006 49.234 302.38 5.6982 26.158 19.54 58.598 20.206 84.791-27.462-54.174-42.613-111.42-60.5-169.4-1.2515 25.646-2.9214 51.529-1.4836 77.191 7.6699 137.09 59.728 254.85 64.843 273.56l-3.5986-3.1541c-12.166-13.94-21.752-42.233-28.546-59.57-145-369.86 33.715-662.83-304.79-964.01 36.69 53.158 78.07 103.14 107.08 161.2 28.597 57.228 52.397 154.35 50.087 212.11-17.91-73.876-30.815-155.6-96.519-254.4-67.932-102.15-205.28-221.97-319.39-245.11 15.553 17.524 35.036 31.862 53.205 46.588 79.67 68.935 90.851 77.294 97.646 90.106-12.839-5.3257-27.973-20.165-39.405-28.556-19.548-14.347-91.311-60.322-115.23-64.001 46.818 55.005 62.358 50.837 148.48 163.37 6.613 8.6451 18.159 20.031 21.882 29.818l-107.12-74.745 77.041 93.359c-18.588-10.532-37.621-27.466-56.989-35.031 74.082 82.635 102.65 111.13 161.21 235.16 6.1895 13.107 18.924 35.646 18.588 50.128l-48.334-74.466c-87.558-122.25-162.65-156.76-196.18-178.98 100.81 110.93 234.35 242.01 243.17 393.23-16.189-36.348-27.936-73.938-45.723-109.83-48.98-98.835-134.71-196.27-235.18-245.19 10.584 12.42 22.864 23.112 33.644 35.351 80.324 100.61 116.54 141 131.82 185.92-62.612-92.146-122.64-158.87-224.48-200.63 57.166 59.058 113.27 121.17 155.18 192.39 7.5024 12.751 18.448 29.368 20.92 43.986-7.3435-5.8074-27.514-40.341-55.195-68.463-59.683-60.604-149.62-113.83-228.55-144.42l97.102 95.045c26.415 24.34 53.334 42.32 75.386 71.183-39.724-21.149-13.324-20.928-155.15-102.66-16.117-9.2861-32.083-20.325-49.228-27.45 74.461 72.966 154.85 146.53 215.16 231.8 9.5603 13.521 23.981 31.938 28.288 47.858-17.032-14.989-31.778-35.258-47.114-52.15-76.781-84.575-113.85-105.62-208.74-174.33-146.78-106.9-97.096-73.455-219.54-149.32-11.442-7.2699-23.691-12.89-33.97-21.799 31.2 7.5969 125.72 59.331 192.88 83.499-23.169-23.64-45.852-48.707-72.894-68.008-33.407-23.846-72.434-39.865-108.06-60.128 24.902 5.9271 19.69 4.8936 258.45 109.07-18.96-18.639-40.082-35.438-60.547-52.388-54.725-45.325-107.12-82.345-173.67-108.76 12.306 0.4965 25.646 4.9122 37.74 7.6012 64.146 14.255 129.15 45.485 187.08 76.13 17.337 9.1675 35.17 23.815 53.768 29.498-39.203-53.81-108.43-99.781-169.92-124.53-18.816-7.57-38.355-12.001-57.357-18.883 26.55 0.2271 56.845 10.181 81.658 19.229 100.3 36.57 174.86 92.768 229.95 133.23-19.514-30.29-43.013-52.057-70.045-75.62-86.533-75.402-134.84-91.124-181.71-111.17l1.1995-1.8818c156 51.119 200.85 106.86 241.32 129.51-7.1321-16.893-74.607-92.185-185.13-151.88-27.005-14.581-61.762-26.318-85.872-44.498 15.961 0.5844 31.142 5.6724 46.483 9.7726 156.52 41.828 252.1 143.27 281.83 157.83-3.4543-11.158-17.404-24.746-25.284-33.407zm261.44 786.56 1.9597 1.5823c14.415 14.71 20.289 70.603 20.072 90.851l-3.5728 1.1995c-3.9399-2.0317-7.1404-4.5189-10.682-7.1664l-6.0701-41.736c3.2158-2.1766 4.7825-3.1437 6.9438-6.4631l-7.8591-6.9438c-4.7053-9.969-4.271-19.788-4.4724-30.542l3.6812-0.7809zm-5.4702-14.545c-6.8203-7.0372-6.1531-11.365-7.6782-20.868l2.4302 0.9513c6.2197 7.0681 7.4971 10.45 9.105 19.731l-3.857 0.1862zm7.6262 153.19c7.1978 12.285 8.0869 29.756 10.507 43.712-14.269-14.53-26.021-25.114-18.914-44.555 3.4485-0.5428 5.0879-5e-3 8.407 0.8429zm6.8559-39.622c6.2412-0.3103 9.9744 0.6047 15.031 4.0896 0.9463 11.603 1.7424 22.063-0.4136 33.639l-5.8271 1.4634c-8.5417-8.0917-7.8694-28.009-8.7903-39.192zm9.1573 43.949c4.5085 0.3464 5.0205 1.7736 8.4019 4.576l3.2632 39.374-6.2048-1.3496c-5.486-11.52-8.0663-30.103-5.4603-42.6zm-66.234-359.22c-54.297 6.201-162.24-29.328-213.21-54.673-102.51-50.978-171.97-137.64-186.77-181.6 10.088 6.5407 19.814 19.198 28.805 27.559l59.906 52.393c169.97 140.96 258.38 138.62 311.26 156.33zm-152.62-216.01c-2.8904-0.9203-4.7258-3.3195-6.9128-5.3616 2.2387 0.615 5.1238 3.8157 6.9128 5.3616zm-328.58-753.91-2.9419 4.2167c-35.47 7.3826-27.184 7.3814-56.147-9.0071 18.655-0.0626 41.587-1.8644 59.089 4.7904zm-243.37 190.56c16.875-4.0081 45.882-13.966 54.616-28.664-5.501-6.1001-26.411-5.0213-35.552-7.6399l69.083-25.35-1.2305-2.1417c-11.943-7.4473-18.65-11.562-32.481-12.696 15.217-5.8195 37.533-8.0967 47.274-21.975l-2.5024-3.8779c-10.594-1.2704-19.446-3.5222-29.405-7.3376 16.778-10.334 46.116-2.8145 61.167-18.515-4.4312-7.6155-8.2988-3.9689-13.676-10.341 11.835-8.0258 38.691-9.3809 53.334-11.488l1.551-4.024c-5.3684-5.283-6.9441-6.8307-11.866-10.341l36.194-10.341 7.6782-0.5669 1.2048 1.8468c-5.2634 2.21-5.636 1.6907-9.1624 6.6463l19.627 2.1565c-1.1013 2.3195-30.222 7.5441-37.471 11.788l-0.4707 3.9816 9.4309 4.5459-1.2043 3.1845c-24.228 2.3474-25.629 1.6872-32.316 11.067-4.3535-0.9814-7.5696-1.1174-12.011-0.7003l6.0752 6.7977-1.8198 2.833-10.341-0.5441-1.9131 2.5471 4.938 7.7558c-1.8821 7.7447-8.2676 3.4671-15.155 8.1131l0.8945 6.6955c-7.8745 0.1276-10.776 1.8453-17.218 5.8608l-0.4033 3.8906c4.9431 0.7421 6.3494 0.9152 10.589 3.8779-6.2874 6.533-11.954 2.7059-17.342 10.341l4.886 6.4632c-2.7041 7.4615-18.164 11.321-25.449 17.218l2.0271 4.097 8.9036 0.9925 0.6616 3.545c-15.542 4.5099-26.23 14.869-38.262 25.175l22.936 5.2827c-8.1282 4.2686-18.702 6.1133-27.456 9.7016-5.1653 2.1184-14.617 7.7992-19.829 8.3635-8.7126 0.9422-22.89-3.0119-31.975-4.2072l3.4383-4.0175zm14.731 22.674c14.488-1.8146 28.179 8.9632 40.48 15.842-12.74 2.0782-25.335 3.816-37.486 8.3889-13.559 5.3443-30.243-5.2196-44.363-8.2894l41.369-15.941zm-720.7 76.457c116.11-88.025 152.55-102.78 247.28-152.72-126.74 22.108-198.79 71.358-219.56 78.925 8.7227-11.897 26.742-20.538 38.799-29.066 42.496-30.068 84.016-59.163 129.28-85.136 122.44-70.255 274.3-115.85 416.44-115.53 20.248 0.0445 44.115-1.7495 63.644 3.5248-83.587 4.7693-162.92 25.032-242.76 49.068-18.981 5.7131-42.295 10.546-59.362 20.441 8.8104 4.5903 222.7-18.066 243-4.5814-134.38 14.657-119.96 8.3918-242.2 53.764-24.656 9.1523-43.647 13.876-65.149 27.542 56.479-1.6807 46.665-19.899 247.73-18.63-52.564 11.938-105.55 18.922-157.57 33.753-56.136 16.005-109.51 41.353-163.26 63.854 64.05-10.897 246.92-51.62 330.26-36.512-152.59 20.928-310.32 61.138-450.98 124.83l-71.342 34.637c-15.191 8.3195-29.358 18.231-44.896 25.92 35.332-45.289 144.8-103.25 207.07-154.08-200.02 72.528-197.63 95.688-253.67 120.25 10.754-15.724 31.969-28.66 47.248-40.237zm-166.07 602.19c56.756-103.58 174.46-223.86 193.02-231.11-38.779 56.012 46.324-44.866-193.02 231.11zm193.41-218.11c-2.549 2.089-4.5135 4.2916-7.7451 5.1602 2.6315-2.2232 4.3121-4.5242 7.7451-5.1602zm-149.05 243.58 32.243-51.969c50.477-84.708 66.283-194.95 339.18-267.88 26.628-7.1147 55.061-15.295 82.687-16.804-21.774 11.686-172.41 42.653-266.32 110.17-60.703 43.633-68.682 87.021-98.923 130.07-20.646 29.405-45.707 56.374-68.758 83.938-10.656 12.74-22.73 31.535-36.292 40.346 2.6731-9.4725 10.853-19.503 16.184-27.869zm127.2-277.01c-43.976 31.647-91.814 92.133-175.18 190.08-13.392 16.53-27.926 41.307-43.257 54.885 4.219-19.09 19.591-37.259 30.49-53.303 67.724-99.657 152.89-186.32 246.39-262.04l60.552-45.568c10.217-7.3164 30.599-19.436 37.197-30.134-54.544 19.431-115.48 46.923-163.64 78.98-20.067 13.361-39.958 35.47-61.193 45.594l-0.1758-2.1044c95.539-92.6 207.27-166.73 262.34-192.61 90.595-42.565 208.41-62.18 290.29-56.141-85.845 21.96-152.96 36.121-222.66 78.995 14.99-3.6757 30.424-8.2057 45.739-10.144 18.852-2.3942 38.205-1.2101 57.258-3.3454 39.224-4.3951 82.904-13.236 122.4-9.8086-96.342 24.488-188.92 47.9-276.14 97.382 250.99-52.032 190.18-15.726 327.13-55.117-74.764 52.767-341.62 33.414-537.54 174.4zm-133.5-5.6927c15.414-35.902 97.112-103.86 126.84-128.37 49.88-41.127 102.01-81.783 162.45-106.08 30.614-12.311 75.779-28.314 109.06-27.823-44.751 26.256-117.24 39.97-222.72 113.64-170.07 118.78-153.94 135.76-175.63 148.64zm-16.174-77.052c133.28-156.42 324.99-238.27 527.36-255.04 2.8805-0.9396 2.0221-0.7685 62.837-0.4552-72.656 31.85-155.37 46.535-231.39 68.023-159.61 45.118-293.9 137.77-400.21 264.02-20.165 23.941-34.683 45.526-84.341 115.45 13.546-44.386 84.821-143.95 125.75-191.99zm-131.09 3.3353c8.485-9.4152 19.384-24.431 31.106-29.157-13.036 24.215-19.887 17.805-64.838 87.32-97.441 150.73-142.97 323.3-144.2 450.5l0.5118 72.17c0.2996 10.734 2.8489 24.818-0.1501 34.834l-1.8459-5.8014c-42.071-281.35 2.5929-413.71 179.42-609.86zm-33.743 1154.6c-37.051-12.216-191.5-156.63-184.86-387.69 10.654 3.9452 5.2809 164.37 124.07 317.39 18.981 24.451 41.131 46.39 60.795 70.293zm-150.79-976.34c10.546-17.292 48.937-72.367 63.158-80.831-7.6648 16.939-15.733 24.246-25.372 38.676-74.047 110.81-98.996 290.37-95.308 427.45 0.2173 7.9005 3.2316 44.751-0.8273 48.53-10.007-23.778-14.157-90.616-15.336-116.28-5.243-114.05 13.598-219.07 73.685-317.55zm-163.64 952.99c-49.673-65.366-65.366-157.79-54.104-237.66l0.3256 0.0466c7.2613 8.3451 1.5231 34.024 12.869 92.139 21.84 111.91 67.492 158.48 78.98 189.41-13.568-8.9759-27.988-30.666-38.071-43.934zm12.994-173.02c4.3845 8.0194 4.4724 19.343 6.1115 28.355 18.862 103.42 53.54 147.72 65.402 178.38-33.174-22.195-76.895-113.98-71.513-206.73zm105.95 168.14c-58.468-62.884-80.427-156.34-77.434-239.9l7.1509 44.606c19.007 100.76 64.233 195.06 163.7 236.63 38.676 16.164 76.785 25.328 111.48 50.594-70.852-9.4103-155.07-38.329-204.9-91.937zm35.78 119.03c27.668 10.289 57.45 43.406 69.347 69.595 7.3424 16.174 16.479 41.84 15.558 59.461-9.4912-13.201-20.293-54.8-84.905-129.06zm149.62 56.684c-20.765-22.611-47.222-44.813-64.595-69.818l3.9917 1.2874c28.153 12.539 70.934 63.939 82.971 91.772-7.7711-3.7072-16.344-16.68-22.368-23.242zm120.21 338.27c-17.626-10.3-33.531-22.911-46.798-38.453-26.582-31.142-57.414-94.926-50.506-136.96 1.3651-8.304 4.6277-9.886 11.37-14.219l4.7725-0.667c17.335-0.4792 39.64 24.346 45.557 38.096 9.2708 21.504 13.469 46.442 19.855 69.052 7.2905 25.837 22.337 58.639 22.14 84.828l-6.3906-1.6803zm-23.976-559.53c4.0227 3.8521 7.5491 5.0724 12.849 6.7164 26.199 8.1385 63.101-10.444 86.462-22.021l2.5903 2.0111-3.3505 7.9369c-15.439 8.0919-39.089 19.555-56.478 20.201-20.341 0.7548-43.194 2.2335-59.063-12.053-1.5253-6.7631-1.7009-10.915-0.3979-17.73 12.996 1.9906 4.1407 0.375 44.196 8.3719 23.017-15.408 51.89-28.252 76.256-39.762l1.4064 1.5665c-14.892 24.522-56.157 36.519-84.083 42.595 1.1669-0.8514 2.4373-1.6598 3.6423-2.4958l-24.03 4.6624zm90.867-59.549c-26.364 19.441-73.334 37.455-105.67 36.437l-2.2904-2.3423c-2.9576-4.917-1.7167-8.1073-0.2948-13.076 6.6025 1.8098 19.726 7.425 26.013 7.1199 30.184-1.4768 89.143-49.178 131.3-71.793l3.3348 0.1294c-13.423 16.897-34.989 30.692-52.388 43.525zm301.72 1319.8c44.342 37.016 86.053 83.835 124.18 127.28l-80.324-39.193c29.373 28.73 90.65 59.659 147.41 109.48-45.077-12.688-84.522-43.903-129.31-57.486 14.817 20.803 92.61 56.398 115.78 67.909 20.393 10.129 41.514 23.045 63.277 29.7 53.525 16.37 122.08 5.0466 177.46 0.6724 155.77-12.325 215.58-12.812 350.84-88.432 205.57-114.93 402.76-304.51 470.6-440.61 18.389-36.897 24.34-62.111 74.042-225.2-70.812 109.27-25.693 174.6-236 386.06-136.66 137.41-305.95 251.21-395.37 283.28-56.307 20.186-122.19 25.269-181.61 28.857-78.121 4.7258-153.97 7.6108-230.97-9.0383 13.836-4.8499 40.832 0.0671 56.395 0.0828 52.386 0.0591 148.92-3.4136 190.76-17.518-207.58 6.3174-265.03 13.205-322.9-15.961 35.457 0.687 177.39 24.83 299.46-9.126-89.283 2.1345-297.26 16.51-333.26-16.722 59.809 3.074 203.93 14.183 263.16-4.1931-21.882-2.7507-46.111 1.0754-68.339 0.8066-221.6-8.9409-199.24-6.1228-208.62-8.6401-8.1848-2.1868-17.026-11.328-23.65-16.597 22.683 2.7249 45.609 2.575 68.406 3.7534 39.927 2.0684 80.329 4.4211 120-1.8145-43.52-8.9866-93.069-9.2966-137.47-9.762-16.494-0.1707-40.925 2.5024-56.679-1.2876-4.8912-1.1736-15.858-11.189-20.548-14.493 53.996 0.915 112.3 3.8779 165.75-4.2349-59.171-11.834-169.45-8.1123-178.65-11.246-2.9264-0.998-7.2489-4.9275-9.9584-6.7683l-0.3824-2.7664 137.34-9.0378c-12.246-6.7295-9.8463-4.8406-155.46-5.1033l-45.646-48.081c41.525 5.3926 90.242 6.2095 130.17-7.7146-42.396-7.1677-127.44-2.0864-138.78-5.6978-4.0073-1.2722-15.558-15.057-19.317-18.702 5.2637-3.2056 44.4 2.4612 53.479 2.7766 30.826 1.0754 59.776-3.2625 89.74-10.144l-150.83-3.8938-20.837-24.322c33.722 5.9563 65.376 8.1333 99.486 5.7808 9.2964-0.6411 32.796-0.7549 38.748-7.6111-12.957-5.6616-31.266-3.614-45.48-4.0173-15.765-0.45-31.256-3.1438-47-3.7539-17.115-0.6672-35.801 0.6204-52.481-3.1746-7.4349-7.0684-15.191-13.299-19.121-23.019 14.634-0.0078 59.245 16.542 127.53-3.6711-41.597-10.532-93.395-6.5508-136.82-8.5933-10.139-6.7271-17.89-21.577-24.963-31.623 33.758 10.243 78.602 22.404 113.02 9.0071l-0.8427-2.7092c-18.562-4.4155-37.729-5.6516-56.607-8.2368-24.595-3.3586-36.259-6.3274-61.271-6.5303-6.3596-10.465-13.743-20.765-16.784-32.729 28.316 24.738 77.408 6.6055 113.11-5.8066-39.26 3.1956-80.102 5.4395-118.97-2.2593-7.0785-9.25-13.05-17.26-17.306-28.226 32.413 22.738 75.848 11.367 114.54 0.9563-10.336-2.5229-22.487-1.5818-33.107-1.8403-94.378-2.3098-86.184-4.095-100.56-30.666 46.617 10.708 79.497 10.651 125.71-2.0581-16.163-2.9004-32.352-0.6514-48.67-1.4683-27.145-1.3542-54.554-5.3411-81.575-8.4021l-13.242-27.021c35.909 18.547 93.954 14.716 132.24 5.0156-43.174-1.2512-89.962-5.0569-131.84-15.424-5.5945-4.7361-7.9471-11.08-10.998-17.564l1.9493-2.4248c40.221 14.446 90.272 14.85 130.56 0.574l-136.27-12.792c-4.7725-7.7249-7.3474-14.411-9.7982-23.138l5.1705 1.5925c40.951 19.054 85.665 13.598 127.93 2.4407l-135.79-13.728c-5.9463-8.6555-9.3796-14.917-11.68-25.206l-15.956-37.14c13.126 8.7024 18.301 10.297 27.74 12.435 39.684 9.2241 87.49 7.5439 126.65-2.9368l-154.43-17.14c-6.0908-5.77-8.2573-17.502-10.951-25.46 39.751 14.426 72.325 15.842 114.44 14.53 14.431-0.45 30.527 0.5632 44.332-3.9661l0.4031-3.3662-160.83-19.612c-5.7446-7.4092-7.854-19.725-10.646-28.758 54.472 19.736 107.69 18.831 164.78 22.694l1.4584-2.761-169.47-31.158-8.2314-27.585c18.542 5.5947 38.976 11.287 58.205 13.464 12.678 1.4426 29.999-3.1179 41.529 1.5667l2.8335 1.5872c13.532-10.099 83.507-2.1904 102.83-12.223-41.674 3.0144-90.019 3.542-131.27-3.3608-72.887-11.462-69.144-9.8186-74.946-13.107-3.8469-2.1819-7.4456-19.4-8.9193-24.358 71.793 18.345 137.5 15.61 210.84 13.076l-209.7-25.113c-6.8768-5.8792-6.0754-12.032-7.642-20.76 4.1259-3.6453 12.047 0.1758 17.445 1.4065 41.28 9.4368 141.13 13.082 177.31 10.413-33.428-9.8706-68.644-8.3557-103.09-11.701-31.747-3.0869-63.742-9.7983-95.386-14.338l-8.1125-30.118c47.067 22.678 115.49 26.768 167.26 21.933l0.8687-3.2988c-18.416-12.633-46.847-3.4917-140.52-22.807-33.605-6.918-28.214-0.0312-34.803-31.215 6.8041 0.2017 16.525 8.4021 23.257 11.215 34.995 14.633 112.55 6.3501 132.53 15.703-0.0829-6.3545-4.3848-9.2605-8.3555-14.017-20.382 1.634-135.13-14.638-148.45-25.739-3.9244-3.2676-4.8241-15.02-5.057-19.896 59.663 19.752 83.397 18.674 119.75 14.72 10.951-1.2148 19.498 7.0215 28.184 12.968-37.579-75.904-56.339-138.43-77.832-226.57-1.9908 14.162 4.462 35.227 7.8643 48.944 13.898 56.116 32.942 110.88 55.619 164.02-149.15-28.863-133.38-25.883-137.37-26.421-3.2421-8.9453-5.3206-16.98-6.4115-26.437 31.938 21.013 76.265 17.156 112.91 16.37-58.867-22.083-102.63-16.88-117.1-29.296-2.1356-7.823-5.2533-14.11-3.2937-22.062 26.173 18.759 68.432 14.017 98.178 9.3845-30.542-12.213-70.49-16.582-103-20.93-2.5231-7.3835-3.2679-15.553-4.4777-23.267l2.6008-1.0444 8.2831 5.2532c26.204 14.472 56.664 7.6523 83.473 0.1758-105.33-18.976-93.15-16.921-98.018-17.337l-2.8282-16.778 2.8643-2.9937c33.453 8.5156 56.55 7.5903 89.983 0.0156-37.273-12.276-84.176-10.273-95.153-17.285-1.1219-6.0859-2.6989-11.577-0.7445-17.647 42.098 7.6169 45.209 16.295 91.43-0.843l-54.492-8.6245c-11.913-1.3647-30.216 0.0156-40.697-5.6201-1.3082-6.2927-3.0922-12.244-1.7426-18.666 42.046 6.5729 35.75 12.102 97.862 4.5345-16.411-4.9329-33.019-10.207-49.906-13.18-16.329-2.8748-37.021-1.1322-52.052-7.2695-2.4871-7.3163-4.1365-12.275-3.0093-20.186 10.786-0.424 22.502 4.5914 33.314 6.1942 27.223 4.0487 51.405-0.0878 78.256-4.6792l-61.219-10.579c-13.852-1.8457-44.244-0.605-54.322-8.5571-1.3392-6.6443-4.033-14.157-1.4684-20.682 18.758 1.7063 36.731 8.64 55.552 10.103 15.656 1.2201 33.572-2.756 49.043-5.274-33.821-13.573-72.45-15.253-108.44-16.856-2.2388-8.5988-2.973-17.72-4.1002-26.535 20.615 5.3776 62.119 18.392 81.772 9.312 8.1848-3.7744 17.197-3.4795 26.08-3.8467l-0.0413-3.6039c-8.5881-0.248-15.915-1.908-24.198-4.1106-26.271-6.9956-56.312-6.6285-83.473-8.3246-5.6771-4.7156-6.551-21.99-8.0092-29.704 26.52 7.2593 63.908 22.197 91.322 13.872 10.522-3.1953 20.935-3.8829 31.84-4.881-41.731-13.34-81.829-13.992-124.78-19.56l-3.8417-26.985c24.555 6.5148 49.058 12.435 74.388 15.025 24.538 2.5221 18.859 0.0859 27.621-2.6575l34.389-11.929-138.05-10.791c-11.449-74.935-8.1885-57.744-9.1001-61.286-1.7786-6.8975-4.1261-14.824-1.5203-21.711 9.318 5.8822 8.5885 7.0486 12.72 8.5471 34.914 12.681 84.179 5.9454 115.88-13.707l5.4703 4.2035-0.1448 11.634 3.7229 1.2203c4.6171-4.9741 8.5259-8.9449 14.219-12.75l2.4818 2.4817c-3.8003 7.2803-7.2955 11.644-13.133 17.43-1.236 0.3568-11.013 3.4126-11.324 3.2576-6.0238-3.0093-2.0217-7.642-11.634-7.1561-8.4384 0.4241-18.024 4.6174-26.551 6.0392-59.472 9.9069-76.275 2.656-86.668 1.7219l2.156 5.8529c4.7208 4.0742 8.6091 6.0857 14.824 7.1458 34.295 5.8387 99.726 6.6659 127.26-17.125 0.8646 4.8197 1.3982 2.2159-2.0684 12.564l3.361 4.9535c6.4423-0.5225 6.7784-0.786 11.753-4.9535-0.8945-10.61 2.4456-18.562 6.0186-28.438l2.9108 1.0237c4.1831 6.5254 4.7622 12.585 5.7963 20.062-4.121 9.0537-8.5833 22.668-16.52 28.821-3.9554 3.0712-4.7415 3.614-6.3184 8.2623l16.096 19.11c8.2367-7.3577 14.798-17.523 21.582-26.272-3.004 11.365-6.644 22.461-6.5458 34.307l7.8849 7.223 2.6628-2.0525c0.3827-11.856 3.118-24.42-2.611-34.901l4.8239-5.4601c-0.8168-7.8436-0.3412-15.16 0.2535-22.978l3.9192-2.6472c23.888 16.463 46.535 24.343 73.68 33.8 16.127 5.6152 33.133 12.797 50.092 15.129 77.106 10.588 186.94-45.627 211.83-40.232 7.2386 1.5719 13.774 1.6185 21.168 1.6185 5.3722-3.2576 6.0186-3.1747 8.2211-8.9606l-6.9283-1.7839-0.5016-2.2594c7.3109-3.7332 10.264-8.2677 14.72-14.819 0-8.1694-2.8025-10.868-8.4952-16.613-13.511-13.64-30.485-25.827-45.268-38.195-50.216-42.021-113.49-91.648-182.79-90.236-65.914 1.3392-136.92 31.463-179.19 82.698-10.139 12.285-14.379 29.927-25.041 40.8l-5.0776-0.9567v-7.0836c2.4354-25.76 36.618-65.345 56.08-81.958 46.023-39.291 115.82-64.952 176.44-59.104 73.034 7.0525 120.22 50.325 170.94 98.597 17.461 16.618 37.036 32.745 52.119 51.571 2.6421 3.2938 5.6101 3.4073 9.5396 4.7466l-3.9141 7.4506 2.3113 6.8718 6.4062 0.1345c5.8065-5.6152 10.998-11.489 18.604-14.612l2.0011 3.7279c-9.524 9.0331-18.598 17.559-26.106 28.438l0.8064 3.8882c22.204 3.1666 29.174-28.728 54.322-28.19l1.2926 3.9194c-18.754 18.283-47.352 27.595-60.93 52.502l62.222-27.719 1.634 3.7178c-24.483 20.822-65.356 34.125-94.481 48.944 9.9584-0.0465 31.566 3.1384 39.751 0.7549 16.473-4.8085 41.793-31.887 57.806-29.379l0.1604 7.7557c-36.049 19.007-68.142 35.227-106.99 48.024 14.974-0.0725 36.137 2.0112 50.351-1.4476 17.824-4.3357 42.547-23.14 58.23-28.309 2.1145 5.6824 2.7815 8.1229 1.22 14.038l-83.023 34.229c-7.2539 2.7869-31.716 10.181-35.78 15.46l61.307-2.9574c13.04-0.5947 49.166-31.003 59.595-23.454-6.918 14.503-37.946 24.043-52.44 31.24l-5.1705-3.9708c-27.363 24.395-65.077 24.47-96.606 39.87l95.168-11.256c18.873-1.5511 39.953-23.914 58.313-30.279l3.5107 4.1262c-10.365 21.931-61.938 35.985-162.45 73.214 100-8.7776 131.07-31.194 162.35-45.004l2.3835 4.1055c-10 16.992-156.89 71.057-186.95 76.265l1.4736 3.0145c101.1-2.0996 147.68-42.863 182.26-50.547l3.0403 4.3794c-13.904 16.194-43.288 22.574-62.687 30.077-25.046 9.6792-49.079 21.757-74.786 29.787-19.353 6.0444-44.777 8.7485-61.948 19.198 135.39-10.693 146.36-41.048 197.67-54.746l2.554 3.3248c-1.282 2.0786-2.0681 4.5654-3.8467 6.2408-0.667 0.631-112.48 47.936-123.9 51.653-28.35 9.2397-57.527 16.163-86.451 23.355 45.793-0.7334 120.21-16.052 132.07-20.935 23.776-9.7852 66.853-39.95 76.157-33.169-2.3164 5.703-5.791 8.8674-11.406 11.277-27.316 11.706-53.086 27.476-80.831 37.926-118.99 40.759-97.91 30.907-112.53 37.212 22.554-0.8945 41.39-4.6069 63.24-8.3042 53.919-9.1157 61.566-9.9084 101.46-42.9-15.698 42.619-14.051 28.723-69.301 50.79-15.377 6.1426-30.077 14.121-45.682 19.627-16.499 5.8218-35.894 8.3606-50.836 17.332 95.009-6.0298 123.86-32.722 143.79-45.01-16.887 23.045-33.241 26.742-57.47 39.446-24.26 12.725-47.574 25.015-73.059 35.227 42.145-1.8044 70.728-20.45 108.69-35.015-16.846 14.121-35.832 35.128-54.239 46.106-15.491 9.2446-33.278 14.012-48.851 23.257 31.228-3.5613 51.422-13.306 74.037-31.478-8.5432 21.806-7.6873 11.071-14.162 33.19-19.105 18.443-49.74 23.795-74.14 33.143 49.536-1.5776 60.54-16.814 67.677-14.84 1.3857 0.3826 2.3783 1.613 3.5677 2.4197l-1.8665 19.907c-20.558 17.001-58.112 22.73-83.277 30.951 25.579 3.2366 59.528-12.838 83.096-22.383l4.4 28.955c-26.592 9.8188-56.209 17.347-81.513 29.86 29.327-0.4343 57.31-11.67 83.985-22.833 2.8541 8.5212 6.158 17.094 7.6576 25.966l-97.95 31.525c86.04-12.628 67.194-12.736 103.55-25.661l11.391 14.565-133.15 43.376c14.659 0.5156 18.474-1.626 111.29-28.841 7.673-2.4148 20.687-8.4434 28.479-7.8438 15.868 1.2256 35.159 9.8186 51.747 12.533 22.057 3.6089 44.166-1.0188 66.286 0.0156 37.284 1.7473 65.097 12.404 102.12-2.5544 14.332-5.791 27.202-9.6172 42.657-11.468 28.329-3.397 83.266 1.1428 103.19-21.39 6.8982-7.8003 2.3862-41.389-24.337-60.588l-16.97-9.0896c-7.9934 2.2285-22.264 5.01-28.252 11.039l9.3276 0.9668c-14.131 9.9893-25.832 22.512-39.694 32.6-24.168 17.589-71.852 37.568-80.903 38.722-11.562 1.4685-28.965-1.7166-38.138-9.1829-17.548-14.285-85.691-40.66-103.5-82.341l3.4124-3.3091c45.65 45.589 42.2 48.835 92.351 50.459 34.394 1.1169 86.131-1.675 117.12-18.216-38.339 3.2988-76.715 8.4124-115.26 6.3237-38.936-2.1145-41.559-5.0342-63.696-19.648 16.949 1.2202 35.578 0.9617 52.207 3.9968 33.188 6.0657 20.197 9.438 81.074 3.821l-0.2583-2.7456c-51.731-2.4871-87.641-24.968-131.98-49.378l-2.7197 2.8435 3.5417 10.341c6.3005 12.481 19.064 18.676 32.243 23.128-28.45 9.9036-67.003-18.26-58.985-49.627 1.1942-4.6792 0.4806-5.1084 4.6947-7.6523 0.2948 11.132-0.6722 28.96 7.9521 37.233-8.9183-74.54 36.756-92.533 48.174-175.8 6.4434-46.996 5.6794-223.01 0.8789-283.33-4.6135-58.142-1.7588-64.958-55.138-136.51-4.064-5.4448-9.8499-8.511-12.368-14.834-3.9607-9.9481-13.785-19.302-20.703-27.569-6.5304 7.2855-12.59 13.847-20.501 19.648l-1.0444-5.1445 16.556-17.182c-4.7466-6.8306-5.8894-7.1509-13.66-10.357-2.7043-6.1321-5.9979-8.6295-10.827-13.03-17.063-1.9905-31.194-15.351-47.817-20.341-68.153-20.475-144.43-20.589-213.82-4.6637 46.255 9.9462 88.889-9.2709 118.08-0.8273l6.9391-6.4789c6.2355 0.8534 11.163 1.3496 16.985 3.9452l-11.748 3.3766 0.7601 3.4846c11.327 4.6633 15.762-6.2218 37.269-0.4187l0.0725 3.6609c-23.252 7.6007-35.268 1.6082-58.329-1.2617-12.099-1.5099-24.984-0.7085-37.176-0.429 18.862 8.9139 38.95 12.595 59.446 15.589 1.2356 3.4457 0.7468 1.2378 2.0787 9.8395-17.83-5.1332-27.109-10.471-40.858-13.226-33.434-7.0222-25.506-4.7643-62.046 0.631-166.61 24.569-229.29 96.632-294.72 121.05-8.6556 3.2263-17.415 4.2966-25.853 8.3296l-12.368-3.5884c-2.001-6.2615-1.4996-6.6232 0.7341-12.895 7.9625 0.3673 13.268 1.0497 20.682 3.9351 42.77-9.9121 79.46-50.263 116.06-73.396 15.129-9.5603 34.1-16.618 47.806-27.761-17.564 3.366-57.398 16.628-68.996 29.374-21.319 23.466-59.897 39.206-90.117 49.151-7.9213 2.6062-17.016 6.7271-25.434 5.5223 0.6204-5.4911 1.3805-9.2292 3.8779-14.172 32.316 1.8408 81.886-27.879 109.37-44.409l-86.099 23.262-6.2874-3.7848c-5.2526 5.9966-7.7086 9.467-15.687 14.472l-1.4117-4.1315c-0.7083-6.1631 2.327-16.23 5.9926-20.94l9.6382 7.5178c25.422-19.341 46.411-20.212 72.387-31.369l84.946-40.113-2.1404-0.5897c-25.139 5.3413-50.599 17.321-75.464 24.803-33.632 10.118-69.27 12.445-88.4 29.669l-2.9626-1.5822 1.4064-11.344c24.349-22.306 94.037-38.622 132.62-64.988-6.5977-0.827-16.897 3.1697-23.407 4.8501-33.36 8.6038-65.971 21.592-97.594 35.149l26.721-28.515c47.031-39.441 120.79-46.178 179.36-47.631 12.952-0.3258 28.21-2.2079 40.831-0.2329 18.914 2.9576 39.42 13.857 58.106 19.452 23.686 7.0992 49.497 7.9781 74.032 10.31-47.373 8.1503-60.505-8.0703-112.58 17.146 39.281-9.6276 81.441-4.0642 120.45-12.182 31.261-6.5044 72.744 9.6326 103.39 18.236-14.486-43.136-36.632-87.425-78.054-106.26l-3.8883 1.9496 1.0032 6.5044c-14.788-3.5677-31.819-19.208-44.875-27.43-23.971-15.088-52.641-10.631-79.414-14.57-16.737-2.4612-32.6-8.8468-49.606-9.948-59.228-3.821-148.13 15.439-193.02 56.979-9.5912 8.8831-27.047 32.305-39.162 34.798l-4.8705 0.9615c-7.0049 2.7213-10.551 12.417-14.043 20.041-4.8293-7.3937-4.2037-20.708-4.9429-29.436 12.409-14.338 29.451-25.263 44.808-36.23 109.65-78.285 207.71-99.172 301.39-148.48l-1.2926-1.3445c-25.077 7.218-48.856 18.883-73.359 27.916-100.59 37.079-124.6 40.51-214.7 101.47-22.881 15.477-38.389 25.325-57.026 43.138-4.8827-25.092-6.2908-36.772-5.4498-38.51 0.8893-1.8477-6.7799 4.3123 103.08-60.681 247.25-117.04 234.71-109.84 239.8-116.81-85.505 25.47-170.45 63.075-248.12 106.95-12.047 6.8043-93.245 59.668-97.19 59.456l-2.3217-36.219c8.4772-9.7339 10.686-9.5927 228.46-119.58 42.336-19.883 87.04-37.703 126.34-62.77-14.837 1.6195-159.44 50.44-282.67 123.56-28.96 17.177-49.626 28.456-73.034 49.42l-0.036-39.523 198.98-107.3c149.03-78.728 142.65-74.879 156.86-85.795-41.69 10.589-86.187 33.67-124.99 52.103-56.41 26.805-179.56 84.221-230.41 134.67 1.0963-16.204 0.5481-47.45 11.629-59.745-4.1573-7.9109-1.0237-16.825 1.4271-24.834 13.702-44.721 72.47-87.531 88.54-102.85l82.744-86.777c15.15-16.199 32.802-50.852 51.648-60.19l248.96-119.43-1.1788-2.0319-241.97 102.27c5.3722-10.993 11.479-24.317 20.268-32.946 23.744-23.313 140.22-62.255 209.75-106.1l-0.9772-1.9236c-200.35 87.416-178.57 78.126-184.6 80.055 20.584-59.282 128.13-71.472 157.08-103.31-16.349 2.9008-36.147 15.015-51.571 21.742-25.718 11.226-49.331 18.763-74.812 31.794 40.659-43.384 78.665-52.016 97.03-59.104 76.241-29.777 318.36-118.15 337.29-139.05-30.532 6.8511-63.747 27.026-92.987 39.079l-193.89 74.885c-13.935 5.1396-34.198 17.156-48.562 17.632 27.062-19.648 63.892-29.126 94.988-41.111 228.13-91.358 333.78-122.58 366.01-197.13-32.827 27.45-67.351 49.565-108.66 61.746l-2.5852-1.0756c26.002-12.482 55.273-26.132 77.31-44.947 10.196-8.7023 16.297-20.978 27.874-28.154-2.3733-5.92-0.6208-3.3295-5.2742-7.7558 0.2542-11.566-2.946-13.393 17.218-18.665 2.9885-5.1547 5.8997-9.2448 6.5044-15.295-9.1155-4.2913-22.595-3.1951-32.641-3.6191l44.926-29.348-42.155-7.435c14.752-7.1047 56.917-23.211 64.146-36.871l-51.809 0.0159c8.6865-5.1345 17.456-10.486 26.737-14.468 13.381-5.739 31.364-9.42 40.273-21.674-10.222-9.8864-31.308-8.7076-45.273-9.4883 58.44-28.604 54.94-27.528 57.817-27.672 6.6584-0.3335 33.859 6.5308 41.1 10.671-15.692 5.1133-36.918 9.4931-46.612 23.904 3.1096 6.1831-0.6016 4.314 36.881 14.079-21.752 7.9315-40.01 19.218-60.505 29.586l52.336 10.274c-18.619 5.8888-49.901 10.739-59.477 28.262 5.3826 5.0726 8.6707 5.631 15.879 7.363 14.328 3.4333 22.595 15.134 33.386 24.653-16.226-4.5616-30.814-9.2921-45.34-1.3752-8.2471 4.4983-15.289 11.142-17.905 20.299 3.2935 2.337 4.3018 3.7694 8.407 4.1362 17.239 1.5515 33.852 5.7914 50.092 11.696l2.5852 3.1903-57.874-11.168c4.1675 11.293 8.4951 22.296 14.224 32.911 4.0435 7.4917 17.13 21.173 18.288 28.35l-51.198-33.392c6.3599 25.666 11.308 43.913 30.025 63.727 46.426 49.131 115.96 73.266 166.04 119.84 181.17 168.48 176.41 306.47 505 445.04 32.014 13.5 112.49 40.835 120.36 71.772 1.6248 7.3699 0.7622 3.8478 3.8728 15.667-20.972-9.7275-90.327-41.441-113.67-41.892 12.537 9.7335 18.12 10.507 34.203 17.699 84.437 38.893 71.531 30.922 81.487 37.326l3.4072 34.074c-28.068-15.642-56.093-26.381-87.837-37.362 25.176 18.185 57.166 35.175 86.865 43.877l4.2141 39.549c-13.23-9.7979-51.242-36.264-67.656-36.757 10.361 21.36 64.347 35.196 69.967 50.774 3.4851 9.6584 4.0327 25.785 5.093 36.318-26.22-15.046-51.804-32.605-80.21-43.143 21.53 15.894 47.843 31.783 65.93 51.312 1.0698 8.3142 1.437 14.064-0.8018 22.192-19.185 4.6283-35.642-21.826-58.598-29.25 18.112 18.691 33.557 28.588 55.247 42.564 11.236 7.244 20.31 15.967 32.269 22.724l7.0271 33.784c-8.8469-7.6367-18.795-14.69-24.312-25.175l-5.0774 1.4064-8.0298 0.2637c11.184 19.136 44.596 33.344 40.278 56.912-9.2915-5.548-19.214-17.502-28.52-21.111 7.4399 9.8086 14.607 19.55 23.324 28.293l6.8457 0.5378 0.9102 11.246c11.044 16.913 27.259 45.459 24.431 66.312l-3.6038 5.1705c5.1394 2.3477 2.3887 1.4478 8.2883 2.5853l7.6938 8.1851c0.3672-9.6482-0.3-13.309 4.9893-21.597-7.4482 0.6622-5.4639 0.5173-10.542 0.3052-7.0579-14.374-8.8003-30.816-12.844-46.214-3.9966-15.222-9.7874-29.648-11.695-45.382l2.9211-5.1705c-8.479-13.276-10.741-27.542-12.223-45.5l3.8779-3.6813 4.4619 2.6472c9.6687 48.83 23.273 94.652 41.494 141.08 28.922 73.72 35.71 58.697 61.244 178.36 2.2498 10.548 6.6858 20.604 7.844 31.282-6.8069-3.8562-8.1057-15.559-9.7568-24.322l-3.9192-2.3733c-2.4971 3.4592-3.5571 3.1591-2.5698 7.7401 1.2825 5.9463 4.0122 10.688 6.8923 15.951-0.5322 4.245-0.4033 11.773-1.9336 15.512-6.8325 16.662-68.834 51.118-87.718 70.888 19.406-1.4763 92.849-54.839 98.943-67.744 2.7922-5.915 0.4138-3.2728 5.2329-6.9335 4.917 8.4484 6.468 18.893 8.8569 28.35l-5.0205 7.4819c2.9521 2.1716 5.5325 2.7144 6.1013 6.4788 5.0569 33.344-2.5386 60.247-11.442 92.035-31.032 116.01-26.094 84.318-35.134 117.39 35.854-46.885 52.206-115.98 62.269-122.48 11.659 23.614 26.246 49.554 44.503 68.68-3.8987-11.866-7.5854-24.881-14.596-35.315-9.9277-14.777-23.717-20.382-25.48-39.901l2.2595-1.551 21.132 29.027-22.316-63.809c26.561 32.249 47.218 64.838 59.88 104.84-3.2935 22.057-6.4478 32.295-24.534 45.692-12.373 9.1726-18.283 13.257-21.199 29.28 12.423 28.104 65.266 21.531 93.674 6.3857 11.504-6.1321 19.172-17.094 26.504-27.507l13.888-3.4387c-5.7241-3.0659-6.7891-2.0525-8.9297-8.5364 6.9497-29.763 2.6045-26.753 6.52-37.998-7.2695-16.97-23.407-28.04-35.692-41.364-8.4075-9.1207-13.645-20.904-18.635-32.119 17.156 11.98 26.308 32.714 41.002 47.341 6.3464 6.3118 15.42 10.952 23.388 15.118l-3.4448 41.039 3.6091-1.5769c7.1606-36.608 13.786-72.713-7.7092-103.41 7.5544-0.9978 13.49 0.2896 20.791 1.8771 5.5991 6.5769 5.7908 15.031 7.0369 23.273 8.6616 57.052 4.0493 94.675-8.5676 136.17 33.901-35.226 27.04-43.713 34.167-55.319 3.0039 5.8787 0.822 11.649 5.1655 15.511 4.793-10.796 4.219-13.929 2.9729-25.852l2.7146-0.874 4.4519 7.9419 3.1902-0.6616c-0.4602-7.9575-5.9463-18.697-2.668-25.475l7.6213 11.313h3.707c1.717-11.608-6.375-26.561-8.2625-38.779 5.884 1.882 8.9814 11.794 11.923 17.295l2.7871-2.9214c-0.6465-5.1187-0.5276-13.242-2.2546-17.874-2.3062-6.1683-8.1746-7.642-9.095-15.217 3.1372 2.2123 5.054 3.6447 11.148 6.7424l2.0215-4.8397c-4.1672-5.6771-7.9626-9.6688-13.345-14.209l-0.1394-3.2419 4.5808 2.4458 5.2791 1.3186c0.5793-9.2451-7.3213-13.206-0.9822-19.974 8.8931-0.853 8.8984-1.0188 16.292 3.9398 17.352 30.211 8.0039 84.791-0.6414 117.29-28.95 108.86-81.181 98.561-106.39 122.98-21.719 21.049-38.994 94.115-99.279 110.29-40.355 10.825-72.107-4.5793-84.729-29.064-18.805-36.462 10.088-97.718 14.271-136.41-11.282 12.311-16.685 28.423-22.75 43.712-23.324 58.823-35.766 124.65-94.176 394.23-16.05 114.59-32.24 201.37-26.245 335.71 4.7324 106.35 15.457 103.38 15.626 120.42 0.1809 18.179-39.364 79.77-53.773 95.376-26.716 28.913-58.386 53.675-86.534 81.255-88.924 89.846-151.97 164.54-339.63 259.67-21.944 11.127-56.7 32.062-81.658 33.805-23.402 1.6335-44.136-3.6558-67.439 3.1174-38.947 11.316-113.75 73.401-186.16 97.64-51.056 17.085-148.5 25.125-171.76 21.742-43.51-6.3337-87.801-36.08-129.61-50.836-40.221-14.193-81.617-21.075-122.94-30.967l-97.645-541.56c-59.907 68.579-105.57 177.96-119.58 202.87-13.071 23.242-30.377 42.047-40.723 67.217-11.417 27.775-16.814 69.542 5.9926 89.067 17.968 4.8345 60.764 10.817 76.596 0.7705 11.551-7.332 18.247-26.473 19.643-39.425l1.2823-29.555c-10.584 4.6382-22.756 11.711-33.96 14.033 3.093-3.8701-0.3163-1.1753 17.626-13.495 15.522-10.33 24.441-23.464 35.346-38.376-1.3546 16.256-3.4073 32.993-3.4592 49.296-0.031 10.15 3.6761 20.129-0.2637 29.731-5.6049 13.65-9.1104 22.171-7.5387 37.486 8.4436 10.734 29.891 16.54 42.977 22.854 7.7557 13.702 10.305 32.822 14.596 48.034 17.819 63.215 17.935 23.217 14.043 115.89 93.302-6.3857 177.37 21.99 256.64 70.133 39.586 24.038 79.76 61.612 128.77 63.039 39.854 1.1636 186.72-97.516 228.11-123.34 25.496-15.905 59.368-42.321 89.942-44.622 14.766-1.1113 12.785 0.1538 132.19 22.931 10.046-6.8616 20.082-14.829 26.002-25.724 11.018-20.305 13.366-43.97 33.055-58.876 19.827-15.006 114.28-41.329 176.83-83.773 52.111-35.361 49.508-81.145 111.96-146.94 58.63-61.784 80.858-53.084 99.512-76.591 11.504-14.508 19.167-33.055 28.092-49.296 11.081-20.16 23.753-39.958 32.734-61.168 13.712-32.372 4.1362-44.616-6.8455-74.559-2.5391-6.9285-5.6101-14.343-2.2651-21.049 38.946 16.148 40.963 66.825 56.876 99.238 7.6729 15.631 19.446 29.017 27.352 44.611 9.1772 18.107 14.943 39.373 21.447 58.634l-72.946-68.184c-27.233 18.731-58.368 90.861-61.73 93.198-8.1646 5.6775-24.426 8.7488-34.167 13.247-57.154 26.406-104.72 89.997-122.68 148.82-2.4299 7.9626-3.5623 22.202-7.3574 28.991-9.1194 16.337-107.51 67.389-142.46 81.865-29.896 12.378-76.436 18.552-99.408 41.794-18.242 18.464-8.1436 51.126-10.419 74.735-1.0393 10.744-5.5376 19.094-11.329 27.983-11.194 5.5737-37.455-7.2126-49.823-11.644-67.137-24.031-84.328-26.658-113.69-17.921-47.465 14.11-83.101 42.755-125.36 66.772-49.942 28.371-101.72 47.869-154.55 69.668-28.883 11.918-57.822 27.709-88.742 33.055-19.565-9.7048-36.173-27.14-53.365-40.676-110.52-87.012-171.23-91.389-253.93-99.951-48.729-5.0569-42.512-3.4045-55.573-19.451-23.177-28.446-21.164-23.596-21.882-48.614-1.5222-53.851 13.899-80.724-4.033-100.41-32.218-35.356-137.3-37.227-184.2-39.492-2.7053-110.58 48.318-302.11 209.58-393.49zm-228.56-1226.5c3.7073-0.5325 4.7363 0.026 8.1486 1.303l3.3561 25.842c-2.7614 6.6908-13.966 12.859-20.093 19.39l-5.5222 0.7961-3.0815-3.3813c1.3649-4.1108 2.5903-6.0289 5.8271-8.9452 13.833-12.451 15.791-12.533 11.365-35.004zm7.3319-10.341 3.764-7.7557 3.6193-0.7653 4.6897 3.1022-4.3431 3.9917c-5.3101 2.5337-2.6992 2.2908-7.7299 1.4271zm41.667-20.52c-1.7767-3.8192-3.0635-7.5372-4.021-15.344l-2.2441-8.0856c-1.2461-8.0144 2.3835-11.101 7.2285-16.887l2.002-0.495c2.6261-2.5739 6.1012-4.4728 9.4155-5.7025l0.0612-0.4208 31.835-17.58c2.9005 36.168 7.1974 63.603 37.409 88.214 46.302 37.703 110.46 22.623 139.59-16.091 12.704-16.876 19.095-36.519 25.868-56.214 11.329 11.272 22.104 21.37 35.196 30.558 4.3691 3.0715 2.6885 1.6082 6.1371 6.2668l-5.6151 43.355c-26.305 9.9286-118.57 33.296-143.75 35.956-47.707 5.0297-137.02-7.3893-166.8-45.718l-0.641-11.634 2.8182-2.5852c7.9209 7.0629 16.85 17.714 26.426 21.799-0.3323-10.66-10.015-25.305-0.9223-29.392zm107.61-27.793c2.5607 18.774 23.717 35.754 51.007 29.524 18.559-4.2365 33.049-24.805 42.372-41.354 2.1975 7.8643 0.0052 12.43-1.9337 20.263l-6.6595 10.295c-40.738 55.797-102.74 11.474-103.68-29.302-0.2689-11.52 5.729-16.494 13.252-23.841l5.517 1.4117c-0.3619 10.739-1.3344 22.357 0.124 33.003zm44.725-57.682c3.6709-1.0184 4.8035-1.5254 8.9189-1.6754 6.8768-0.2429 16.851 5.0311 21.473 9.9224 5.274 5.5792 7.0114 8.8468 7.1354 16.313l-7.4041 6.4633c-4.5192 2.6577-6.484 2.8435-11.68 2.3423-9.8811-5.4034-18.961-12.213-21.856-23.753-1.0908-4.3331 1.2927-6.0498 3.4127-9.6122zm152.43 100.83 1.308-10.341 1.5203-0.4806c8.2417 1.5509 11.964 5.9667 17.642 11.618l-2.3989 6.7941c-3.5936 3.361-5.5067 3.9657-10.341 4.7052l-2.0371-9.7103-5.6928-2.5853zm59.435-28.464-3.4076-0.2948-0.8271-2.2645c13.878-10.796 25.61-20.372 41.39-28.438l5.6151 1.4114c-2.12 8.1332-34.358 24.426-42.77 29.586zm43.484-5.1446 6.9596-1.8873 2.5851 4.4725c-5.0774 6.4631-9.2449 6.9697-16.835 9.8033-2.797 0.7495-5.6152 0.8737-8.495 1.1478l-0.0623-3.8986 15.848-9.6377zm-21.52 9.0587c-4.4569 6.0752-7.0731 8.2261-14.493 10.274l-1.0084 0.0566c5.9513-6.9853 6.7476-7.6729 15.501-10.33zm-32.305-32.771-4.6331-0.0673c8.5366-11.778 29.441-19.105 42.409-25.341l5.1862 1.4117c-5.031 10.749-32.12 19.193-42.962 23.996zm-1.3911-27.993-3.8779-0.2224 0.0985-3.2162c9.6842-7.3368 19.064-13.898 29.71-19.829 3.573 0.5637 1.6392-0.0775 5.5326 2.5853-4.6173 9.1313-22.425 15.832-31.463 20.682zm12.518-33.608-8.5416 6.5717-2.5286-3.9138 8.0403-10.414 3.2472 2.0217-0.2173 5.734zm-25.098-3.6244c4.9841-7.0735 9.6532-10.708 16.892-15.388l5.5791-0.3671c-5.2945 8.4588-12.88 12.699-22.471 15.755zm4.0121 25.708-5.553 6.3287-4.7778-1.3905 5.3516-6.3394 4.9792 1.4012zm-9.2499 25.444 5.2791 4.1777-5.2897 1.5203-5.067-4.1055 5.0776-1.5925zm-11.385-40.206-0.3468-5.9202c5.6724-3.1024 7.2389-2.6733 13.806-2.3475l-6.9493 8.6554-6.5094-0.3877zm15.03-44.844c-3.1437 1.9336-5.3772 3.4332-8.9862 4.3535 2.7972-7.4507 3.5674-7.5282 10.331-11.913l-1.3445 7.5592zm-23.216-6.4529-6.0238-2.8851-1.7319-5.6359 7.7557-1.422c6.7581-2.0162 7.7092-7.4763 10.636-13.298 3.0093-0.2429 4.4775 1.2047 7.0935 2.5853l0.693 5.1705-18.422 15.486zm-10.502-16.303c-6.5354-4.4517-6.4371-4.5085-8.7069-12.109 5.3618-0.9359 7.7917 1.4218 12.626 3.6503l1.4114 6.4479-5.331 2.0111zm-2.6781 31.07c6.2274 7.2058 5.7808 6.4454 15.765 12.942l-1.3546 5.9254-4.7931 0.7808c-5.2378-6.0854-14.86-11.323-16.722-18.877l7.1045-0.7706zm16.582 61.379c-18.462-13.991-14.631-31.391-71.7-70.95-7.9263-5.4963-17.156-9.3899-23.479-16.804 22.299 0.2059 89.975 55.421 95.179 87.754zm-66.741-92.924 6.0286 0.3621 3.7592 4.7982c-6.0393-0.4707-5.6516-0.6517-9.7878-5.1603zm37.486 18.459c-9.6119 2.0424-10.972 0.0363-19.508-4.2397l-1.1478-5.1705 10.315-1.1687c6.4685 0 9.6638 0.5483 14.318 4.9897l-3.9765 5.5892zm-7.7557-26.726c-20.488-5.4695-41.106-4.8417-51.679-8.5366l2.5593-2.5593c24.218-6.6615 24.27-4.8721 55.986 5.8684l0.8893 3.2732-7.7557 1.9543zm-39.125 4.3897c-13.013 6.1046-18.112 0.1473-28.066-7.7559 11.897-0.1291 18.086 1.1737 28.066 7.7559zm133.38 699.3c-9.7775 5.751-10.498 6.9341-15.258 12.792 4.726-0.0669 9.4362-1.3547 14.069-2.2749l3.542 3.7122c-2.7094 5.6155-5.2327 10.791-6.9647 16.804l6.9697 5.8013c0.4447 6.2769-7.792 5.7341-11.065 12.823 12.011 3.4023 22.487 11.251 34.069 15.998 10.465 4.2915 27.124 6.2407 35.47 13.206-18.805 3.9348-51.462-14.292-68.039-22.636-8.7507-4.3984-30.841-6.3782-35.604-69.513 1.5615-17.776 4.7671-33.763 12.931-49.802 9.9844-19.622 35.362-68.364 57.129-75.64 4.421 21.432-17.182 44.637-22.461 65.118-9.2265 35.751-3.6508 64.758-4.788 73.612zm18.846-143-3.2316 0.8171c3.392-5.8376 8.1904-12.146 14.757-14.752l3.0403-0.7498c-3.3607 6.7576-7.2543 11.571-14.565 14.684zm9.0124-36.669-4.6071 1.0186-2.942-2.3113c4.2863-6.582 9.7723-9.9377 16.148-14.219 4.4-1.0752 4.2863-1.5925 8.8621 0-4.1105 6.4685-11.437 10.9-17.461 15.512zm-3.1955-25.878c-4.7826 1.5251-4.0743 2.2698-9.0018 0.0256 7.2003-11.366 12.849-18.986 35.992-18.986l0.5479 3.4746c-8.5522 6.9023-17.632 10.998-27.538 15.486zm-624.66-556.22c3.573-7.7921 10.455-13.966 16.256-20.268l3.2832 2.0009c-0.1035 9.5034-0.8274 18.583-5.0411 27.243-6.7892 13.95-4.9431 28.485-7.7145 43.469l-2.8232-2.3008-3.9607-50.144zm375 1688.6c-21.623 18.815-45.434 37.031-70.066 51.705-3.8625 0.6255-1.5924 0.46-6.8252 0 18.64-22.89 42.807-38.789 68.99-51.705 5.3513-0.9514 2.7197-0.9824 7.9006 0zm1341.1 18.097c16.278-2.26 32.708 12.06 37.579 27.14 6.6648 20.63-9.3635 41.85-18.867 59.146 12.461-7.373 23.453-16.468 34.751-25.475l-21.37 26.582-32.31 31.742c1.3181-13.764 1.3027-30.284 5.2273-43.484 4.2969-14.472 14.571-27.145 14.808-42.822 0.2274-14.829-10.181-23.154-19.818-32.828zm-99.879 236.84c-14.002 28.303-54.11 49.859-80.102 66.048-14.529 9.0483-30.088 19.886-45.723 26.7l-1.9546 0.4497c40.612-42.138 88.628-68.222 121.2-161.97 3.8936 10.987-6.7061 34.581-11.608 44.891l-35.097 64.771c59.027-44.402 45.983-37.309 53.287-40.888zm61.607-50.702 2.1406 1.2876c-4.0327 15.749-14.54 31.675-23.795 44.952-30.273 43.412-72.175 80.112-115.91 109.51 38.174-58.871 85.362-73.492 137.56-155.75zm-924.2 459.13c-43.028-6.1453-140.51 2.199-240.69-52.749-28.157-15.44-140.6-106.7-201.45-174.98-50.18-56.307-40.928-44.934-80.722-198.14 24.296 39.255 30.775 84.667 50.676 125.75 21.871 45.144 62.434 79.735 97.231 115.03 94.213 95.588 114.99 119.7 228.69 157.34 96.944 32.093 91.208 9.4202 140.2 12.342 14.643 0.8735 29.813 7.1301 43.83 11.282 84.668 25.099 136.88 6.0425 255.58-22.321 73.24-17.507 148.05-36.209 222.47-47.507l-3.6455 2.8281c-108.08 35.351-56.029 20.026-233.95 68.091-190.71 47.238-191.65 15.402-278.23 3.0349zm81.069 155.94-1.9438 3.1956-38.531 4.9688c-98.719 8.4026-184.51-21.338-206.77-40.268 56.856 2.3742 50.2 37.122 247.25 32.104zm168.68-274.42-2.5696 1.4426-21.561-4.1519-22.388 5.5271-2.9421-2.2129c11.711-6.5562 24.674-9.1829 37.584-12.507-14.809-5.2998-24.922-8.979-39.797-10.207l-0.0051-1.8303 9.064-3.8933c15.486-1.7737 30.123 2.4456 43.924 9.1777v3.676c-5.8948 0.9309-10.398 1.3135-15.512 4.6072 1.7888 5.5531 9.1258 7.6158 14.203 10.372zm-931.97 48.365-2.9215-3.0713c0.7292-9.9482 2.0168-15.44 7.208-24.007l2.3577 2.906c-1.2774 8.9809-2.4043 16.09-6.6442 24.172zm10.212-138.17-2.1252-0.0723 5.2068-91.725c8.8695 28.296 4.2247 63.081-3.0816 91.797zm33.722 334.5c-18.466-36.477-15.484-39.697-11.597-86.57 14.155-134.09 22.074-190.8 24.658-271.43 21.357 37.082 11.529 41.288 8.6864 62.01-8.5523 87.697-3.907 28.059-21.747 295.99zm76.539-200.95c-23.018 214.07-15.665 242.69-5.4344 382.03l-0.5997-0.5532c-15.811-27.155-26.184-61.73-36.959-91.327-6.856-18.842-17.611-42.285-17.962-62.532-0.2583-14.907 8.8727-33.748 12.668-48.428l14.86-67.201c17.876-89.579 14.886-173.1 17.921-186.78l3.6144 1.7473c3.2937 2.3374 19.369 21.065 20.393 24.467 2.9987 10.006-6.8099 37.476-8.5005 48.578zm62.403 476.69c1.422 15.356 6.7271 38.52 3.2628 53.236-22.765-40.956-35.241-61.485-41.008-85.52-21.703-88.045 15.054-356.35 22.44-439.15l22.786 26.411c-7.8851 40.05-9.0433 80.448-10.998 121.1-0.5038 297.4-1.7374 234 3.5159 323.92zm94.92 207.19c-14.845-14.054-26.547-43.885-37.367-63.329-26.156-47.014-24.051 32.454-17.497-550.21 42.058 50.746 39.133 45.193 40.376 48.252 1.6238 3.9968-3.8779 28.748-4.5964 34.498-3.9658 31.731-6.2252 63.908-6.0702 95.887 7.5742 195.76 8.2755 309.85 26.566 429.43l-1.4118 5.4756zm84.435 149.96 0.2017 7.1816c-16.251-24.498-28.883-53.189-42.218-79.414-7.3678-14.487-21.959-37.228-21.484-53.748l-4.1725-558.17c7.3214 7.3779 45.94 42.258 47.848 48.205 1.7788 5.5269-6.7887 33.784-7.8744 41.99-8.5544 64.597-3.0922 127.92 1.0804 237.23 3.1848 120.02 6.727 237.96 26.618 356.72zm193.51-504.87c-209.34-132.27-399.37-364.1-479.52-537.21-55.229-119.25-76.537-215.1 4.9016-355.11l56.395-71.338c-98.109 240.6-69.051 341.83 92.645 565.74 60.211 83.38 123.95 166.18 201.17 234.77 39.556 35.127 153.74 118.83 214.25 143.26 41.595 16.796 59.797 7.4048 101.78-6.2358 148.95-48.367 140.05-61.809 176.36-68.111-17.539 17.75-42.512 29.482-64.12 41.535-68.649 38.293-143.63 78.282-217.22 105.65l-86.637-52.962zm90.743 184.89c1.0212-1.8911 325.4-178.56 560.34-351.32 102.84-75.625 295.65-242.33 423.03-387.53 41.349-47.135 74.176-99.321 113.42-147.77-22.114 10.325-48.133 47.879-64.44 66.426-319.86 350.29-469.13 439.08-1033.5 781.56l-1.1167-54.482c33.513-9.2568 56.807-25.779 186.95-108.54 290.45-207.68 547.25-349.27 719.71-530.75 127.82-134.49 229.48-293.9 294.61-467.75 7.2957-19.482 26.789-61.048 23.8-81.978-6.7893-47.481-70.025-106.14-112.69-123.66-36.901-15.153-58.279-12.919-68.406-21.809-0.0413-6.4373-1.3701-10.496 2.5852-15.816 59.363 1.1501 152.26 43.994 190.75 101.87 25.92 38.965 21.008 78.121 12.062 121.77-11.039 53.872-31.23 106.93-51.984 157.7-140.22 343.01-435.92 607.5-733.13 816.44l-457.64 296.72c-0.6878-8.3502-6.6805-46.711-4.3379-51.059zm8.6037 99.274c-1.7246-14.518-4.4661-9.4917 9.405-17.678 183.8-109.57 66.207-35.109 496.3-317.68 65.188-47.204 220.07-147.51 435.44-401.46 105.23-124.08 226.21-251.23 322.64-563.18l3.4023 1.4583c18.862 38.288 8.0662 92.408-3.449 131.36-24.084 81.488-72.925 154.65-116.62 226.72-270.28 445.78-676.68 733.15-1140.1 983.32-3.5623-13.821-5.3358-28.712-7.0367-42.869zm17.952 134.82c-9.1687-62.184-8.7935-56.326-8.1384-57.75 0.8594-1.8882 68.537-24.671 288.64-160.72 163.57-106.37 355.29-222.17 573.61-446.7 134.46-138.28 224.87-273.56 323.41-415.86 70.908-113.48 77.876-161.24 100.69-196.09l2.6162 3.9604c0.1118 62.132-81.594 252.77-228.73 449.55-193.54 258.85-388.9 410.82-677.26 605.01-191.9 120.01-295.7 187.06-369.19 222.44l-5.6465-3.8417zm6.9338 45.356c215.47-120.36 110.53-56.875 473.63-288.88 299.98-201.36 294.68-224.25 364.94-299.11 206.79-220.38 237.45-271.3 324.69-412.32 64.804-101.14 43.094-64.451 93.069-159.24 14.554-28.649 26.338-49.923 35.232-78.985 32.622 84.01-47.566 226.64-72.636 248.74 7.5801-31.493 33.376-61.757 32.962-95.489-25.729 34.088-21.223 67.027-141.09 224.48-158.98 208.82-180.88 222.04-354.27 384.05-70.903 66.244-135.28 137.34-210.97 198.69-42.321 34.296-88.876 63.716-134.05 94.072-253.96 163.37-162.99 108.38-399.33 243.28l-12.161-59.28zm25.548 146.98-9.9377-55.722c81.306-44.343 162.96-88.359 240.4-139.31 214.28-142.51 197.89-133.65 218.18-143.07-19.467 26.168-50.102 49.89-74.601 71.648-56.731 50.387-114.53 99.936-175.55 145.11-174.73 119.15-172.11 119.19-195.64 130.55l-2.8437-9.2035zm1369.9-1241c-7.2959 53.281-51.814 104.16-131.15 209.58-294.43 373.29-568.78 619.22-817.71 855.01-276.61 225.27-189.42 157.62-388.97 303.8-5.3049 3.7383-2.4453 2.4409-8.5259 4.0073-4.0806-11.056 0.0176-0.2349-14.493-85.236 221.39-114.39 445.49-333.7 617.11-497.44 297.77-284.11 391.79-375.13 599.87-666.27 42.931-60.061 92.557-116.57 114.26-188.58 16.166 18.912 33.144 39.281 29.606 65.123z"/> <path d="m1440.3 1734.2c-0.9396 0.6285-1.8588 1.2656-2.7777 1.9032l6.2435-1.2114-3.4658-0.6918z"/> <path d="m1641.4 1007c-15.362 7.1664-38.024 15.119-50.728 26.385-4.4417 3.9348-3.2988 4.2966-3.7229 9.7723 36.764-5.7902 191.68-84.453 209.84-93.349 16.618-8.1385 39.378-14.69 52.998-27.145-22.252 2.9254-32.566 8.6455-208.39 84.336z"/> <path d="m1475 1153.4c200.55-91.61 295.69-134.27 322.59-155.67-19.948 2.1147-44.105 15.155-63.22 22.688-89.155 35.139-184.25 71.881-259.37 132.99z"/> <path d="m1487 1213.8c283.21-146.6 268.32-137.17 282.39-151.44-47.209 9.1436-340.4 150.37-369.75 199.46 11.878-2.7483 11.227-3.7322 87.356-48.014z"/> <path d="m1695.7 1352.1c-17.662 6.1423-76.818 19.095-85.381 34.88 35.501-3.0868 67.961-18.758 99.972-33.195 12.735-5.739 27.957-11.003 38.634-20.03-10.779-0.0178-39.865 13.704-53.226 18.345z"/> <path d="m2360.4 1485.2c8.6143 11.474-0.9253 28.112 14.219 36.68 8.0911-6.6292 8.8533-11.983 15.579-17.119 1.3701 7.4506 0.9614 12.233 6.396 17.678 3.4382-3.7122 6.582-7.0266 10.713-9.9686-2.2029 5.7496-3.0146 4.5398-0.3723 10.708 9.4331-0.4545 14.351-3.1012 23.267-8.035l3.8779 5.6205c4.1465-2.5647 5.7803-3.2678 10.76-3.2419 26.99 0.1602 57.848-8.3142 85.107-11.815 179.78-21.165 116.24-11.413 275.37-43.764-6.1321-6.5404-26.225-11.835-35.149-15.46 20.998-4.1467 52.926 12.198 74.187 16.763 13.691 2.9421 27.45 3.7329 41.406 4.4158l-34.818-16.98c29.31 1.6814 113.56 39.095 149.2 58.148-24.596-49.115-73.039-82.036-124.25-98.902-93.349-30.749-191.4-17.347-285.8 1.2771-59.006 11.639-115.72 25.305-171.17 49.068l-0.3618-4.6014c-15.801 3.428-28.681 12.714-40.94 22.688l-7.2593 22.895c-2.2029-14.622-3.2576-24.989 1.2148-39.549l-4.126-0.6875c-5.1189 6.6233-15.801 27.166-15.144 34.839 0.4343 5.0876 1.908 9.1776 5.8376 12.384 0.486-7.5802 0.4447-15.682 2.2492-23.04z"/> <path d="m3024.7 1518.6c-7.7412-22.474-32.285-76.22-58.447-72.387 36.764 35.526 44.524 66.653 58.447 72.387z"/> <path d="m1870.5 1455.4c34.77 45.372 28.041 33.735 42.59 80.004l3.0662-0.3464c0.4396-8.5469 0.6979-16.163-0.853-24.601 7.8258 1.6421 15.996 11.476 19.327 18.645 3.8779 6.0961 7.1045 13.34 13.361 17.099l2.0786-3.0043c-7.2183-22.931-23.097-34.906-38.345-52.393-12.796-14.676-23.35-30.855-41.225-35.403z"/> <path d="m2348.9 1521.2c-1.2825-10.874-0.5481-26.959-7.1353-35.547l-2.6372-0.6464c-1.3545 12.921-1.6907 23.009 3.9089 35.04l5.8636 1.153z"/> <path d="m2485.7 1535.9c-28.107 5.5736-62.925 8.1642-85.148 29.363l-2.7507 3.6659c15.222-0.4446 36.861-15.827 51.912-21.814 12.699-5.0568 25.785-6.0029 38.971-8.9449 8.5674-1.9131 16.039-2.3477 24.823-2.1562-13.273 3.4385-36.86 12.322-45.904 22.621 13.345-2.368 24.627-7.5126 37.28-11.84 14.374-4.9172 29.104-7.5541 41.571-16.665 26.194-0.8685 52.005-7.2489 77.522-12.797 16.37-3.5574 32.962-5.9565 49.11-10.455-64.833-0.5482-124.6 16.576-187.39 29.022z"/> <path d="m2426.2 1616.8c69.487-61.307 158.19-70.96 244.33-93.07-5.4551-3.0608-6.3286-1.7422-12.259-0.7341-97.83 19.39-133.54 25.113-169.88 41.85-47.216 21.751-114.63 79.282-131.17 103.39-10.113 17.828-15.168 26.472-17.854 34.286 5.2222-0.5895 4.5085-0.91 8.0298-4.2916 26.272-26.985 50.526-56.483 78.804-81.43z"/> <path d="m2778.9 1572.5c-94.093-27.662-210.87-30.098-298.55 18.097-59.042 32.45-109.31 93.535-128.1 158.34l56.343-65.335c-7.7039 21.583-17.109 33.328-31.38 48.241l1.2151 3.8519c16.758-14.974 30.475-35.852 48.654-48.194l0.6462 1.1531-11.814 32.848c10.067-6.1169 10.367-23.2 18.221-32.316 24.178-28.045 58.256-52.843 90.758-70.386 90.918-49.078 196.4-50.842 289.15-5.5427 28.5 13.919 55.05 33.593 83.804 46.323 12.807 5.672 27.223 9.1829 40.676 13.102-60.294-57.285-104.11-81.012-159.62-100.18z"/> <path d="m2457.4 1562.2c-11.494 3.5728-17.549 5.1652-23.386 16.127 8.6604-1.3286 23.03-10.418 28.422-17.088-2.9889 0.1863-1.7787-0.0516-5.0362 0.9618z"/> <path d="m2426 1584.1-1.6548-0.9203c-12.233 8.1021-35.971 22.114-41.064 36.023l1.1682 2.756c6.6702-4.24 12.29-8.6558 18.118-13.976 8.5364-7.8077 18.009-13.366 23.433-23.883z"/> <path d="m2337.7 1631-2.0112-7.2955-3.7385 1.5099-5.5376-0.3154-3.8779-5.5323c4.7986-8.459 13.857-11.494 12.001-21.272-108.64 68.327-128.21 186.91-97.092 224.2l2.73 2.5646c0.6257-9.4518-4.5344-21.514-1.3184-29.699l7.4817 6.1011 2.3474-3.5157c-8.7224-8.6348-9.8809-10.057-12.533-21.975l2.7043-3.8778 9.4983 11.184 4.1055 0.1138c0.8425-12.761-9.7568-11.561-13.578-20.884-1.2407-3.0299-0.3616-6.5354-0.5479-9.8032 4.2036-1.7683 10.522 11.872 17.037 14.219-0.0723-11.396-7.3782-17.037-11.318-27.548 0.667-5.8168 1.2566-9.4105 4.3381-14.436l3.4177 1.3961c-0.1965 8.1229-0.667 14.798 2.5852 22.466 10.165-18.123-0.7029-34.767 10.01-52.217 5.8169 7.9781 3.8726 14.974 4.7825 24.627 14.452-1.7686 19.695-54.678 24.038-66.276 2.1458-5.7444 7.0527-9.6378 11.504-13.583 2.6577-7.3318 3.6868-9.9893 10.419-14.591 13.247 7.9766 13.148 8.6996 19.948 8.8052l2.6058-4.3692zm-61.482 64.513-5.4187 1.4117-4.9639-5.1705c10.207-2.9033 6.3159-10.735 15.61-23.267l2.7043 3.9604-7.9316 23.066z"/> <path d="m2638.3 1606.1c-112.35 16.647-147.74 47.725-192.9 108.91-9.0898 12.322-33.717 38.908-31.716 54.461 0.7908 6.1429 2.063 7.2855 6.1736 11.499 109.05-30.205 187.62 51.352 320.59 8.03l62.558-24.829 0.2634-3.6399c-2.8384-1.6857-5.5322-3.304-8.5469-4.6637 6.7012-3.1284 13.65-3.7644 20.889-4.7932l5.4187 2.7557c3.6816-5.1599 2.9783-2.306 2.1304-8.5573 14.188-4.0677 12.978 3.2223 33.19-4.9066l4.2969-1.3342c6.416 3.6625 9.7063 3.6422 19.054 4.457l2.9211-2.9987c-7.1611-1.903-14.167-3.8832-21.545-4.7568-2.4768-5.0983-3.9036-8.6298-4.3071-14.307l5.1707-2.6112 18.097 8.3969 3.7434-1.8198 0.7913-11.463c9.519-4.6274 25.232-2.6991 35.95-3.9761-80.124-51.689-142.6-117.87-282.22-103.86zm57.884 33.981c8.1179-2.3214 18.831-0.3462 26.473 3.1334 10.61 4.8241 15.108 12.047 18.749 22.719-3.1287 7.7299-5.5898 8.1746-12.482 12.502 4.5032 5.4188 23.076 6.8718 30.578 8.4227-15.498 6.0801-19.948 6.9296-32 15.243 7.3318 0.6516 11.386-2.2645 18.428 1.3185-6.1116 7.7559-14.389 9.2295-23.598 10.419l-7.7556-7.9679c-2.3215-7.8643 0.124-16.292 1.4373-24.214l-22.543-22.936c-0.89-8.8054-1.3499-10.372 2.7141-18.64zm-87.63 25.853 3.2524-1.3186c7.5542-1.1632 11.499 4.5658 16.54 9.0745-2.1357 9.0743-6.4841 15.961-11.256 23.893 5.3926 12.331 14.388 38.52 40.609 42 24.622 3.2625 40.32-7.668 59.461-20.848 6.7683 1.1532 12.874 1.6494 18.49 5.9567l-5.5632 4.8757-10.341-0.8634c3.0935 8.5266 2.344 6.5507 3.5881 9.6169-26.514 24.829-56.933 26.409-85.024 9.5293-20.129-12.094-29.85-30.94-34.989-53.225-2.9108-12.621-0.9096-18.169 5.2328-28.691zm-142.56 88.106c-8.1692 0.8685-8.5107 0.6566-15.113-4.4468l-0.8428-8.6865c4.6121-1.0444 4.4778-0.4084 8.5986 1.3185 5.3513-2.9523 2.7092-2.125 7.7559-2.9523l6.4167 11.975c-4.1054 2.4664-2.8232 2.3629-6.8151 2.7922zm9.7261-32.931c1.2822-7.2233 3.8003-8.6191 8.7952-13.81l3.7173 2.9058c-1.7786 7.2078-3.9761 9.6844-8.9138 14.881l-3.5987-3.9761zm19.11 30.904c-5.6101-7.4922-7.9365-9.3174-8.7227-18.862 8.7124-17.89 16.282-31.292 32.016-43.95l6.0442 0.2688c-14.003 12.51-28.117 39.481-22.879 60.376l-6.4582 2.1667zm348.33-26.618c4.4211 1.3492 8.2317 6.6492 11.473 9.9634-10.332 2.6106-6.136 1.7112-18.547 3.8832l-1.3547-3.5055 8.4279-10.341zm-12.326-18.754-6.1377 10.253c-74.726 79.486-164.06 91.92-267.23 56.472-14.881-5.1136-43.815-13.867-51.069-28.583-1.1741-11.675 2.9626-21.442 7.2749-32.145 9.4775-23.5 29.932-34.823 52-44.12l6.0029 0.4858c-2.7878 18.467-12.88 53.488 31.742 89.28 22.895 18.376 44.849 30.935 75.278 27.042 31.943-4.0848 65.877-18.299 85.551-44.906 16.908-22.869 14.643-44.461 10.672-70.836 7.9365 0.7708 16.323 5.1139 23.521 8.6816 12.988 6.432 27.621 14.229 32.399 28.376z"/> <path d="m2353.8 1611.7-9.9739 10.341 1.0288 4.9376c3.9556-2.9937 6.3286-6.0908 9.2034-10.108 4.0349 1.0454 6.2405 1.5525 11.479 4.2552l0.915-4.2552c-5.4236-3.8573-5.7703-5.8792-12.652-5.1705z"/> <path d="m2353.5 1653.6 2.6682-0.574c7.8179-8.2677 19.084-17.662 23.883-27.952l-5.1912-0.486-22.249 25.878 0.8894 3.1334z"/> <path d="m2308.7 1657.2c2.2852-3.3348 4.3586-8.4796 8.3401-9.3173 1.1633 6.5304 0.6462 7.9109-1.5615 14.245 3.7952-0.7499 5.3721-2.0216 8.5105-4.1777 1.8152-8.2058 1.0703-8.8105-2.3625-16.613-6.541 3.1384-9.9741 1.1426-16.882-0.1035l-0.0256 13.112 3.9811 2.8541z"/> <path d="m3193.5 1666c-2.0012-5.7134-3.1538-6.2202-7.9988-10.01l-2.4097-0.3308c-0.8013 10.812-3.2571 10.956-10.936 18.097l3.8005 1.5822c8.2044-3.7044 4.2945-1.6553 17.544-9.338z"/> <path d="m3202.7 1697 0.4189-7.6886c-2.6733-1.1737-4.8088-2.301-7.7302-2.6525 0.1296 5.8582 1.3755 5.8375 4.907 10.207l2.4043 0.1344z"/> <polygon points="3191.8 1692.3 3186.1 1691.8 3187.7 1701 3192.2 1702.1"/> <path d="m3179.8 1698-4.0796-1.0391c0.3049 8.4227-0.0518 15.429 4.6172 22.818l4.6897 0.2689c-0.7705-8.3968-2.1147-14.214-5.2273-22.047z"/> <path d="m3215.5 1722.8 1.939-7.7557c-3.123-1.6392-4.209-2.8749-7.8076-2.5853l-2.7249 7.7559c4.1106 2.7196 3.283 3.1177 8.5935 2.5851z"/> <path d="m2887.8 1717.7c5.1238 2.9264 9.302 6.189 15.46 5.1705-6.9697-5.703-6.4995-5.6876-15.46-5.1705z"/> <polygon points="3190 1733.6 3185.2 1733.2 3178.5 1740.9 3180.5 1743.4 3183.6 1743.5 3191.6 1738.3"/> <path d="m3219.9 1750 6.4788 1.308c1.8252-7.6265 1.7839-7.9263-1.2876-15.144l-5.4238-0.3671-2.6265 9.0481 2.8591 5.1553z"/> <path d="m3209.5 1791.3 3.9502 4.7466c7.2803-4.0796 7.6885-4.9635 11.562-12.425-13.33-6.1807-11.684-23.601-27.073-27l-3.8572 3.6555 4.6533 3.5781c16.965 17.396 12.387 21.542 10.765 27.445z"/> <path d="m3235.2 1768.1-4.9946 2.771-2.73 9.8086c4.9738-3.3814 5.7597-7.0889 7.7246-12.58z"/> <path d="m2820.6 1779.7c6.9595 3.8986 7.4819 3.4952 15.486 2.4199l-3.9607-3.8364-11.525 1.4165z"/> <path d="m3178.9 1782.3 3.5884 2.4198 2.6008-0.853c-4.3484-2.6214-2.2234-2.4664-6.1892-1.5668z"/> <path d="m2801.9 1797.5-8.5105 9.3019c4.9739 0.0154 9.3276-0.5637 14.208-1.5046l-0.6875-6.9127-5.0105-0.8846z"/> <path d="m2479.3 1801.9-5.7651 0.5481c-1.3652 5.093-2.3784 4.5396 0.605 9.5394 4.1934 7.0321 11.97 11.401 18.598 15.889 1.3235 8.5419 2.1096 22.44 7.2439 29.358l4.6897-7.7301c-0.9102-3.454-1.991-5.8839-3.5728-9.0482l0.8789-14.219c8.6348 5.3513 6.9131 12.549 12.973 18.526 1.5203 1.4994 9.6636 3.4436 12.109 4.3175l8.1021 8.8572 2.2339-1.9702c-1.8411-12.161-5.1655-24.912 1.0442-36.194-2.2957-10.703-2.761-10.956-11.313-17.869l-4.4727 1.0651-1.2925 18.097-4.095-2.5852-0.4087-14.219-5.2429-4.4777-4.9792 3.1851-0.9565 14.219c-7.1353-8.0659-3.7329-12.554-14.85-17.471l-6.303 0.667c1.4944 5.1603 3.8674 8.5675 6.9546 12.926l-1.8928 2.5852-10.289-13.997zm42.176 28.624 3.6089 8.6401-6.158-1.4117-1.8977-8.9293 4.4468 1.7009z"/> <path d="m1540.8 1809.1c2.916 1.0703 4.5964 2.0992 7.7299 1.5874l0.0259-6.9285-7.7301-0.8273-0.0257 6.1684z"/> <path d="m2466.8 1803.5-3.0198-0.4965-12.952 5.1964-1.0029 3.8414c13.703 13.894 4.3054 17.278 30.811 53.634-1.0391-13.945-6.2046-26.856-12.295-39.373-3.1956-3.8676-8.666-8.2108-8.4644-13.237 12.513 5.6825 15.734 19.953 24.56 29.544l3.7485-3.4124c-4.0017-8.7695-7.3264-14.105-14.421-20.682-1.1581-5.7236-0.7184-12.502-6.9643-15.015z"/> <path d="m1503.1 1805.8-65.79 0.7858c-8.5363-0.1344-20.579-2.4664-27.119 2.8645l1.4219 4.5552c9.4362 4.2604 20.02 4.5085 30.191 5.7081 23.51 3.0558 44.653 6.8615 68.049 1.0756 8.681-2.1456 18.934-2.8695 24.937-10.046l-0.8999-5.9772c-8.924-2.9315-21.509 0.0413-30.79 1.0343z"/> <path d="m2245.4 1805.6c2.8076 4.9276 1.0342 3.7488 3.7847 5.1447l-2.5439-5.2997-1.2408 0.155z"/> <path d="m3196.1 1808.1 0.0986-3.7175c-7.3579-1.8046-15.057 0.0929-22.445 1.1322l-8.9194 5.8271-0.4343 3.0869c25.644-5.3173 18.691-3.939 31.7-6.3287z"/> <path d="m1616.5 1834c-0.1926 11.438-4.8385 14.682-6.7524 24.979l-2.4874-0.4191-4.3844-10.501-3.6144 2.7454c1.1094 9.8082 3.9554 12.466 12.73 25.248l4.4104-2.1664c3.1541-10.662 1.3652-27.006 7.1561-35.372 5.3462 1.1169 7.859 3.5834 11.897 7.1201 1.8845 19.562-9.012 23.1 1.4531 41.581 1.6182 2.8541 3.5883 4.8966 6.0391 7.0269l3.8779-2.2904-7.6678-45.501c75.865 17.168 83.112 29.4 159.63 14.607 8.3556-2.1044 54.197-17.818 60.03-15.315 1.8768 0.8064 2.2958 3.3763 3.4434 5.0618l-4.736 3.9557-7.7557-1.8667-2.9784 4.3741 1.7117 5.1705c6.6283 1.6444 9.1569 1.3392 15.486-1.1942 3.6606-5.5945 5.548-10.641 7.7299-16.902-24.002-17.601-34.721 5.2855-107.26 14.508-54.252 7.4347-113.37-12.728-149.23-39.885l-12.921-11.21-6.1842-1.1892-0.6357 9.3328c6.6439 6.8299 13.272 12.554 21.018 18.102z"/> <path d="m2425 1817.7-6.4634 2.5593-23.521-12.59-4.126 2.063c2.7471 13.015 22.767 27.313 35.982 37.812 81.04 64.391 130.21 70.133 181.03 78.592-32.864-22.594-67.495-26.579-109.46-54.538-12.611-2.7892-31.493-8.976-36.54-20.78-5.8013-13.572-13.051-25.315-20.801-37.895l-3.1748 2.5699c1.3186 12.052 4.731 19.834 11.448 29.818-8.3967-5.0413-17.761-19.757-24.374-27.61z"/> <path d="m3235.4 1807.2c-4.6792 1.2563-3.1436 0.2479-6.5977 3.4072-20.108 18.402-44.017 33.593-65.557 50.537 25.696-4.8892 65.566-36.846 72.155-53.944z"/> <path d="m2660.2 1837.7c-6.5715-1.2617-9.8289-1.5975-16.158 0.7188l-1.939 10.227c-3.7485-3.4952-5.2947-6.3909-7.7559-10.817-13.921-7.1027-35.579-6.0679-81.379-25.796-4.2139-1.8146-2.4712-1.3596-7.0938-1.2821-0.8997 5.8842-2.2388 10.01 0.5737 15.537l-4.855 3.8522c2.5813 17.685 9.5012 20.873 20.367 24.808l3.2732-1.5511c-1.8203-10.191-9.488-20.403-12.802-30.764 14.493 17.052 24.793 29.038 44.42 40.532-10.165-18.417-20.537-27.652-35.408-42.145 11.845 4.6224 29.777 9.3949 38.696 18.169 0.7568 8.5533 2.584 14.085 10.941 19.379l2.8591-3.1022-0.2739-4.9016-3.8779-11.597 10.341-0.6104c6.7837 6.0961 10.098 11.789 14.219 19.87 6.1733 0.2739 8.5881 1.9958 13.407-2.2338l1.4734-12.926 3.9814-2.0581c4.3071 5.1552 8.4795 10.196 13.453 14.741l3.2109-2.3424c-2.3676-7.218-3.9914-10.263-9.6738-15.708z"/> <path d="m2769.7 1810.7 0.9824 5.1705 8.5107 2.3164-0.9307-6.6079c-3.4848-0.9825-4.9118-1.5252-8.5624-0.879z"/> <path d="m1884.7 1829.9 7.7301-3.6813c-7.8024-1.6857-12.575-1.2513-20.279 0l-5.2584 3.9604c5.7496 3.8834 11.184 0.9772 17.807-0.2791z"/> <path d="m2731.7 1826.2c3.9192 2.7557 9.1101 8.066 13.847 7.7299v-8.7898c-6.3394-1.2926-7.6321-0.9309-13.847 1.0599z"/> <path d="m1878.3 1847.4c3.6918-0.2635 5.6099-0.0673 8.8002-2.094 10.566-9.3508 19.582-11.113 33.738-14.653l0.7755-2.7247c-5.9821-0.5535-10.388-0.4189-16.261 0.8687-10.145 3.8053-18.583 10.754-28.319 15.512l1.2667 3.0917z"/> <polygon points="2709.4 1831.4 2709.8 1835.3 2714.5 1838 2714.2 1832.1"/> <path d="m2679.6 1836.6c5.3779 5.946 10.781 10.754 17.114 15.661l3.5366-0.15c-2.6987-5.8528-5.2529-10.806-9.0225-16.085l-11.629 0.5739z"/> <path d="m1839 1875.4 5.4651-6.4633c-2.1663-6.525-3.7898-7.166-9.2605-11.525l-3.4692-0.1088c-4.9379 5.6309-5.6514 5.5532-5.8015 12.926l5.6774 5.7289 7.3887-0.5583z"/> <path d="m1809.7 1887.6c6.37-3.2628 8.2623-3.5367 11.686-9.6794-1.1582-6.551 0.1344-6.587-5.4601-10.93l-4.845 0.5894-11.029 3.0145-2.6885 4.7413c4.0124 7.6626 4.7051 8.1072 12.337 12.265z"/> <path d="m1654.4 1869.5-5.8998 0.6774c1.4788 6.3236 1.5253 7.4716 6.1014 11.949l5.5426 0.9772c2.8645 6.1892 5.2637 12.539 9.974 17.585l2.58 0.1396c0.9756-11.213 3.7337-12.43-18.298-31.328z"/> <path d="m3251.6 1870.2c-3.3716 24.449-16.864 30.987-21.784 42.207 6.0291-2.9214 11.416-8.526 16.572-12.838 2.2749 14.121 2.135 32.124 13.629 41.442l1.7786-3.5934c-13.89-27.505-10.487-38.482 4.6433-61.028l-9.0071 2.6475-5.8321-8.8367z"/> <path d="m1681.8 1875.4c-3.4952 7.9214-4.3741 8.2626-2.1406 16.484 1.8201 0.4653 4.0745 1.2823 5.9307 1.3755 4.0848-6.8718 6.2357-8.3348 5.1705-16.458-4.1416-1.5873-4.3276-2.125-8.9606-1.4011z"/> <path d="m1789 1896 4.2347-18.097-2.9164-4.6121-13.64 2.0269c-1.7579 9.1002 3.1643 15.434 7.3887 23.51l4.9329-2.8283z"/> <path d="m1699.9 1877.9c-3.366 10.274-0.6825 15.491 1.8146 25.853l3.3041 2.0787 9.0485-5.4551c5.6771-6.9956 5.6515-6.9854 5.6515-16.003-4.9632-5.8161-10.529-8.8859-19.819-6.4737z"/> <path d="m1758 1907.3c7.7505-8.5363 7.854-16.778 9.0793-28.112-5.8375-2.3267-2.8179-1.9026-9.0537-1.2926l-7.7815 2.6112c0.4497 8.1385 0.8014 16.685 2.7197 24.627l5.0362 2.1663z"/> <path d="m1731.2 1880.5c-0.5066 8.3815-3.0247 20.331 0.9412 27.538l8.0919-1.6854c0.6204-8.3143 2.0267-16.789-0.3362-24.906-3.2575-0.7552-5.3412-1.3964-8.6969-0.9465z"/> <path d="m3150.5 1969.9c21.512-5.1044 72.119-36.639 79.316-57.538-18.495 6.5667-36.84 23.304-52.698 34.896-8.3967 6.1375-20.977 13.826-26.618 22.642z"/> <path d="m3266.5 1927.1 3.04-7.7559-2.1921-4.5242-2.9163-0.6464-3.1436 9.0485c2.6988 4.1107 0.8585 2.9681 5.212 3.878z"/> <path d="m3240.1 1944.3-8.1382 0.9049c-46.22 45.978-71.496 47.77-89.419 73.375 19.643-5.3878 43.665-23.836 60.376-35.491 12.864-8.9706 34.456-23.117 37.181-38.789z"/> <path d="m3244.7 1976.1-1.9441-2.5286c-14.364 11.153-25.522 25.362-39.653 36.468-26.667 20.954-72.426 42.094-79.988 57.972l2.4297 1.551c41.975-29.497 93.782-49.423 119.15-93.462z"/> <path d="m3210.3 2051c9.9377-8.8467 21.396-17.802 24.596-31.271-13.314 7.8593-25.294 24.813-38.478 34.581-93.395 65.276-92.622 63.715-100.43 73.158 14.866-1.8613 36.323-17.74 49.41-25.723 23.588-14.389 44.322-32.424 64.901-50.743z"/> <path d="m3076.5 2176.4c44.244-12.823 96.637-45.744 123.08-83.928l0.2327-2.6318-2.3318 0.0466-62.817 42.373c-20.661 13.438-45.785 23.148-63.592 40.356 3.3816 3.4225 1.5049 2.2697 5.4241 3.7846z"/> <path d="m2265.7 2113.2 15.62 59.461c1.7268 7.6162 2.0007 21.091 8.4536 25.852-1.7063-25.858-6.8765-63.618-22.248-85.179l-1.8252-0.1345z"/> <path d="m3196.4 2122.5c-13.531 4.488-26.592 16.602-38.805 24.136-90.992 55.723-101.17 60.799-108.01 70.588l6.5095-0.7136c17.54-3.8174 105.76-45.366 140.31-94.01z"/> <path d="m2360 2353.7c63.204-28.446 66.733-52.6 64.518-104.5-0.114-2.6575-1.5874-12.388-0.7292-14.544 0.2585-0.6565 4.7571-5.9822 4.8809-6.4631 0.3672-1.4531-4.0535-7.6213-3.6604-9.4312 1.3289-6.0752 8.7073-2.4714 4.8599-12.544-3.5999-6.7495-4.4727-7.9119-4.8599-15.486l-2.7561 1.2773 3.583 18.086-2.1196 2.7043c-6.6699-4.4568-8.9141-8.738-12.415-15.631 1.3494-6.4888 2.7561-7.2903-0.3152-13.464-5.4343 0.7549-3.2163-0.5068-6.6597 3.7798-5.967-6.5513-5.4187-14.819-13.868-17.994l-2.125 0.5327 1.272 55.004c2.0632 34.746 8.6558 64.306-18.552 91.735-24.089 24.291-52.052 35.159-84.817 42.45 26.22 1.2049 48.5 3.7124 73.763-5.5171z"/> <path d="m2441.2 2188.2 2.1973 10.176c4.0435-1.4944 2.5647-0.4756 4.8037-2.4199l-0.7292-6.344-6.2718-1.4116z"/> <path d="m3154.7 2188.4-4.9639-0.2432c-38.81 23.324-85.65 44.415-121.18 72.108l5.4961 0.2793c39.906-17.363 91.653-38.831 120.64-72.144z"/> <path d="m2453.8 2226.9c1.7012 0.0776 3.428 0.2688 5.1138 0.0051-2.7871-9.8083-2.668-11.406-10.843-18.185l-3.1746 0.0879c2.5025 6.7683 4.8447 12.027 8.9036 18.092z"/> <polygon points="2486.1 2229.5 2484.1 2222.4 2480.9 2221.8 2483.7 2228.7"/> <path d="m2505.2 2224.4c-0.5791 7.2852-2.3787 8.2212 2.5593 14.059l2.1973-8.8879c-1.5511-2.146-2.3164-4.0384-4.7566-5.1707z"/> <path d="m2434.8 2232.1-3.7903 9.0483 3.7231 4.0796 4.7825-0.2017c1.7581-6.3494 3.092-7.3372 0.8586-13.795l-5.5739 0.8687z"/> <path d="m3131.9 2233.5c-10.408 1.7166-21.618 10.093-30.842 15.124-33.686 18.371-66.08 36.98-97.925 58.37 46.137-12.192 97.18-36.659 128.77-73.493z"/> <path d="m2465 2237.6-4.4309-1.4629c2.9106 7.2747 3.335 10.517 9.7412 15.253-1.2876-5.2221-2.2334-9.3222-5.3103-13.79z"/> <path d="m2493.5 2264.4c-0.6204-7.1509-0.8894-10.393-5.3101-16.385l-4.1729-1.0137c1.7425 6.9905 2.8543 13.268 9.483 17.399z"/> <path d="m2476.7 2301.6 2.5852-0.8892c-1.9182-14.4-22.29-35.904-29.726-50.165l-6.0388-0.3513c11.294 23.108 14.59 32.817 33.179 51.405z"/> <path d="m2518.1 2273.4 2.5852-1.0342c-1.7271-7.5334-3.1023-12.616-7.9316-18.935l-4.3535-0.615c2.2438 6.8199 3.7948 16.086 9.6999 20.584z"/> <path d="m2472.5 2254.4 4.3896 11.127 5.4087 1.3909c-3.1181-6.8201-3.7744-8.1697-9.7983-12.518z"/> <path d="m2229.1 2283.8c-44.859 23.143-103.93 19.772-153.03 19.472 40.437 17.432 34.257 13.371 85.215 12.838l8.0659-1.2876c-5.6038 9.9604-37.463 9.1667-55.883 9.9429 5.2119 5.4705 14.508 5.3154 21.964 5.5427 27.657 0.8481 75.283-22.916 95.655-41.39l-0.3723-4.0898-1.6184-1.0289z"/> <path d="m2504.8 2301.9c-3.4795-7.1301-5.4807-10.729-11.938-15.734l-3.9297 0.2224c4.5291 8.9656 6.2461 10.186 14.183 15.625l1.6853-0.1137z"/> <polygon points="2445.6 2290.3 2441.3 2289 2440.1 2295.4 2445.6 2296.8"/> <path d="m2534.9 2309.7c-4.6226-8.376-8.1541-14.069-15.713-20.036l-3.583-0.6465c4.1982 8.092 8.8569 14.131 14.886 20.946l4.4102-0.2639z"/> <path d="m2993.5 2353.9c34.622-15.847 75.433-33.112 99.636-63.535-6.9543 1.1892-16.468 7.4558-22.843 10.967-27.482 15.16-52.119 33.251-76.793 52.568z"/> <polygon points="2544.3 2298.9 2537.6 2299.3 2540.1 2306.8 2545 2307.1"/> <path d="m2521 2338.1c-3.0972-11.572-8.7329-20.325-14.974-30.372l-2.4355-0.6516c2.9424 10.993 5.0984 20.879 11.856 30.279l5.5529 0.7444z"/> <path d="m2488.1 2314.9c1.396 8.8674 3.3918 11.391 9.5811 17.89l3.4487 0.207c-2.0684-7.7559-3.4231-12.425-9.3018-18.34l-3.728 0.2429z"/> <path d="m2561.5 2320.8-3.4128-0.8015c-0.8892 6.7788-0.2429 7.7922 2.6216 14.09l3.7639 1.4219c0.4033-7.2698 0.4704-8.366-2.9727-14.71z"/> <path d="m2543.9 2348c1.1216-11.97 0.2224-12.357-6.6184-22.414l-5.1755-0.3621c0.8689 9.312 1.0186 15.744 6.9646 23.231l4.8293-0.455z"/> <path d="m2529.7 2376.9c-4.9688-9.5344-9.405-20.403-17.362-27.792l-3.3196-0.6465c4.302 10.765 7.9009 19.312 15.615 28.174l5.0669 0.2639z"/> <path d="m2027.1 2379.9c-36.768 6.9285-65.769 18.748-99.274 34.291 30.077 0.5012 64.761-14.049 93.84-21.546 22.909-5.8987 62.901-10.515 68.804-23.484-2.2542-1.1428-4.3123-2.7971-6.7578-3.428-12.171-3.1128-36.814 4.0793-50.413 4.4465-47.247 1.2864-52.237-11.642-122.27 16.132 38.562 0.3158 78.23-11.044 116.07-6.411z"/> <path d="m2550.9 2385.1 4.2039-0.46c-2.1665-7.2131-3.2729-10.931-8.7744-16.412l-5.8374 0.8999c2.5334 7.6627 4.8134 10.527 10.408 15.972z"/> <path d="m2565.9 2378.2 6.4114 9.8911 4.002-4.7878c-1.3445-4.9277-1.0601-8.3298-5.1704-11.567l-5.243 6.4634z"/> <path d="m2588.8 2373.2-6.127-1.4272 14.705 30.537 4.3123 0.4858c-3.2055-11.06-6.6181-19.912-12.89-29.596z"/> <path d="m2156 2486.9c0.5742 22.621-6.8557 61.451 3.4746 80.624l3.123 1.2458c3.8325-6.5 1.907-3.8079 4.4312-75.495-0.1345-16.034-5.3049-41.188 0.6829-56.007l1.4993 0.4238c1.3796 61.123 5.3518 45.366 4.9121 57.786l3.4797 78.044 12.166-50.594c5.2913 15.423-0.4739 32.241-8.3403 46.612l3.1697 2.6113c42.321-45.713 17.638-166.31-9.6638-190.29l-4.2759 0.2483c-24.349 26-18.923 21.142-17.988 50.242l3.3295 54.549z"/> <path d="m2083.8 2387.8c-4.3586-3.8052-1.8201-2.7556-7.637-3.1123-17.941 3.7949-35.382 13.376-52.341 20.439l-85.831 33.851 1.246 2.8955c33.668-1.6145 78.605-17.614 107.86-28.148 10.93-3.9346 24.332-6.9644 33.179-14.679l3.521-11.246z"/> <path d="m2564.2 2415.7c-3.5886-7.4817-5.7239-11.189-13.133-15.692l-4.5037 0.1807c4.1316 5.2793 10.532 14.441 17.637 15.512z"/> <path d="m1803.8 2427.4c23.391-4.0281 61.555-7.3372 80.846-21.261l-2.585-2.2544-5.6671 0.5842-84.791 21.587c5.0671 2.4353 6.7374 1.6753 12.198 1.3445z"/> <path d="m2580.6 2410.5c5.0259 12.001 10.563 25.118 18.36 35.547l2.6372 0.6465c-3.9761-12.916-9.2502-23.262-16.365-34.756l-4.6329-1.4378z"/> <path d="m2077.4 2414.5c-5.3203-1.3806-3.1179-1.0652-6.5303-1.4119l-113.78 49.353-2.0009 2.6267 4.5862 1.1633c37.634-2.4678 92.449-19.799 117.72-51.731z"/> <path d="m1764.6 2470.1c34.642-5.8892 79.15-10.682 109.69-29.203l-9.6381-0.0054-111.15 26.478c4.4468 3.6089 5.5688 2.6111 11.091 2.73z"/> <path d="m1987.3 2482.3 0.3931 2.7507 4.1052 0.3882c21.851-5.5171 48.458-15.6 65.066-31.023l-0.8479-2.2646-3.8367-0.3206c-22.755 8.1591-43.934 18.438-64.88 30.47z"/> <path d="m1752.8 2506c43.727-6.0291 94.641-17.559 135.07-35.594-1.6907-2.7251-0.7651-1.8875-2.2335-3.0093l-135.24 36.101 2.3993 2.5025z"/> <path d="m1882.6 2506.2-107.19 30.826c-6.9235 1.939-28.753 5.8069-33.019 10.729l5.243 0.8843c45.79-7.6782 98.643-21.582 140.65-41.571l-5.6875-0.8685z"/> <path d="m1878.2 2538.5c-10.303-0.1145-120.56 35.208-125.8 40.614 17.227 4.0193 112.31-23.166 125.8-40.614z"/> <path d="m1896.3 2559.2c-20.444 2.2751-47.031 18.562-66.963 25.708l-48.422 15.005c-8.464 2.3318-20.584 3.6917-26.69 10.165 46.73 2.3098 118.46-26.986 142.08-50.878z"/> <path d="m1613.2 2592.1c36.38 5.915 72.734 2.7146 108.56-5.0154-23.81-3.0352-48.148-2.5027-72.051-5.0359-21.334-2.2651-50.144-11.882-70.836-8.9763l-0.7289 6.5044c11.821 8.633 17.082 9.6037 35.061 12.523z"/> <path d="m2494.5 2615.6 12.026 35.584c-73.087 10.674-99.415-10.155-171.24-41.059-67.641-29.107-71.477-29.321-134.9-6.8616-31.518 11.173-29.517 11.784-51.917 0.8789-19.198-9.3481-37.812-22.321-59.658-23.645-69.07-4.1814-134.75 69.173-181.66 69.714-10.367 0.1189-19.405-0.3516-27.156-7.9988-5.8906-37.825 15.961-37.812 34.487-69.745-13.102 9.5708-26.437 21.168-41.07 28.06l4.7412 3.8933c-23.869 23.977-60.533 43.242-69 53.458 2.4042 8.1023 4.462 21.401 10.904 27.062l11.768-2.0786c6.8303-7.7092 13.433-16.08 21.116-22.926 6.1737 9.8237 12.72 15.868 11.065 27.781 2.5853-1.2769 4.8861-3.521 7.7559-3.8367 3.9811-0.4395 14.664 3.5366 19.1 4.4932 12.368 2.6631 25.274 3.8523 37.776 6.0444l0.9049 4.3486-7.0114 5.1343 8.8158 1.3289 3.6505 6.4631c-9.5708 12.166-85.065 22.507-107.18 30.894 36.504 0.207 72.977-3.7278 108.5-12.197 41.989 47.402 60.223 63.705 159.35 81.55 5.9102 1.0649 9.8601 1.7834 15.238 4.5449-23.278-5.0569-49.761-5.2173-73.68-6.9392l-2.5853 2.2805c4.8295 2.5906 9.9275 5.7029 15.253 7.0991 22.285 5.832 46.049 7.0059 68.928 8.438 158.94 9.9404 207.76-27.125 248.21-53.54 2.7778-17.131 6.3157-30.703-1.479-41.054-10.243 17.088-5.8635 33.262-23.268 46.576l-3.5725-1.7268c1.5459-8.0298 8.49-18.784 7.0059-25.853l-5.0566 2.5854c-4.8604 8.9397-9.5913 16.473-16.473 23.996l-4.876-0.7288 5.6255-11.634-3.3347-2.3008c-8.5886 6.6907-10.083 7.2698-13.64 18.071-2.9834 2.1299-7.5491 6.1064-11.122 6.9802-7.5439 1.8406-4.7053-3.4592-11.432-7.0581l-15.486 14.038-5.1965-2.1716c-3.9294 2.0474-7.4197 3.3557-11.597 4.7568 0.4587-6.1528-0.291-3.7578 2.947-12.926l-4.2759-3.604-12.042 14.229c-5.7754 4.3484-17.471 4.9485-24.152 3.4851-0.4548-4.824-0.667-8.1541-2.585-12.658l-7.7559 12.792-8.7952-0.7292c-5.3254-9.3123 5.4758-53.525 6.8147-67.806l-3.1899-1.3647c-11.556 18.521-3.7642 48.603-15.45 68.582l-6.5251 0.4395c-1.634-1.0083-4.0588-1.3027-4.907-3.0247-5.2791-10.677 16.768-58.468 8.7849-73.84-16.954 15.537-4.6948 58.846-20.656 76.426-6.5872-0.8789-7.218-0.4446-11.737-5.1707 2.425-19.25 7.2231-37.047 8.521-56.627-16.162 25.569-10.243 48.176-19.56 59.538l-6.9802-1.4836c-5.6255-5.915-5.2327-16.783-6.0186-24.695l-2.373 0.3362c-2.782 5.7908-3.759 10.502-4.5554 16.768-0.4241 3.3401-1.7891 4.1675-3.8574 6.7375l-7.7556-5.0774-4.4209-22.642-3.3347-2.0579c-6.5068 10.296-6.2952 11.616-6.396 21.448l-2.9111 2.4871-5.7239-3.7644c0.8481-13.164 1.8823-24.002-4.8962-35.78l-3.3401-0.1035c-4.085 9.8032-4.876 21.514-6.4944 31.99l-3.8467 1.7322-6.5356-4.3174c1.4185-19.17 5.4119-41.223-7.6833-55.728-5.0515 5.3828-2.4456 46.24-5.6205 57.554-10.362-26.799-10.072-52.378-10.754-80.66l-3.8313-1.3081c-10.724 18.769-7.2545 41.447-7.6938 62.046l-9.5863-10.093c-4.1362-15.393 1.1117-39.467 2.5959-55.718-10.703 14.472-11.592 28.164-19.653 43.055l-3.6244-1.6956-2.0115-6.5718c3.9561-12.318 5.9318-23.248 6.9586-35.632 11.076-1.105 22.238-1.1692 33.387-2.4648 18.159-2.1147 34.162-6.8044 52.92-4.6328 32.931 3.8074 42.122 31.227 87.129 30.754 39.006-0.4087 71.11-26.266 108.84-32.073 50.149-7.7202 59.932 15.262 191.93-5.3877-2.1196 3.3242-3.2883 5.7441-4.6587 9.3638 3.7539 5.2998 5.2949 5.1963 11.536 7.3833l3.6553-3.5054-6.9077-12.492 1.2512-3.0195 38.004-11.008c23.554 17.67 74.022 47.635 101.6 37.683-1.2463-4.8135-0.4705-4.2192-2.8955-7.3315-64.355-82.472-90.962-77.794-119.5-80.536zm-545.24 81.704-4.0227-2.4146c3.4642-0.6619 1.2101-0.5327 6.6648 1.2512l-2.6421 1.1634zm19.038 10.305-3.4692-0.8738-6.2408-11.846c6.5664-1.7012 12.678-2.7095 19.069 0l-5.1393 7.7559-4.2194 4.9636zm12.042 12.709-3.8936-0.843c-3.4901-9.3481 1.1995-15 4.9482-23.816 4.2373-1.0786 8.4966-1.8149 12.77-2.3562-6.6491 8.781-3.9842 8.2595-13.825 27.015zm399.25-50.289c-17.839-7.8513-13.754-3.0911-27.471-3.5781-1.2358-4.9326-1.7581-6.313-4.9587-10.553l-5.946 7.9678-3.4902-0.4294-8.3711-13.469-3.3037-0.3208 1.6233 12.714c-7.2593-0.5791-9.2188-5.0518-13.831-10.264l-6.4631 3.0044c-6.8823-4.3535-5.1655-10.45-7.7559-17.926l-2.8645 0.8374c-1.4065 5.5376-2.125 8.459-5.4343 13.237-8.8003-6.1992-3.2161-15.842-11.091-22.523l-9.8496 17.042-3.0767-1.1013c-2.3577-7.0474-4.2705-12.523-9.0483-18.423l-3.8779 0.9517c-1.0083 6.3337-2.9885 11.908-5.1707 17.895l-5.1704 2.1665-4.1985-2.782-2.6421-14.219c-8.8674 4.0278-19.513 38.288-24.012 49.203l-0.7754-0.5686c2.7939-21.592 4.0325-24.945 0.1189-48.231-8.2007 18.784-11.422 28.648-11.892 47.409-5.6565 3.4485-6.0649 3.769-12.632 3.3401-4.6121-11.153 3.4695-22.564-2.1353-32.171l-7.7559 0.1501c-5.1653 8.9141-2.3733 20.935-2.2544 31.282l-4.7258 3.7537-5.1912-1.644c-3.2188-16.644-2.8257-24.433-9.8035-38.06-10.847 11.287-2.8694 22.456-7.7556 35.129-15.17-8.7383-7.2129-27.564-15.486-41.835-5.915 4.3745-8.1641 24.508-9.8499 32.218-5.853-52.047-5.0603-44.502-5.2791-48.148l-5.9614-2.7351 4.8291 8.3242c-1.5769 8.8933-8.5986 18.304-13.097 26.106-2.2131-11.406-3.5417-24.327-8.6606-34.798l-3.821 0.1245c-0.1138 8.1331 0.4138 14.912-4.0071 22.109l-4.519-0.6152c-4.5337-7.9534-4.9521-14.066-5.708-23.267l-4.7053-1.1584c-8.3816 8.5317-4.9172 17.839-10.341 28.066l-4.7622-1.0547-1.665-20.682c-7.9055 2.4202-15.32 18.536-20.092 25.852l-3.9089-1.2925-0.9358-7.7559-3.5367-2.6418c-7.4713 7.0007-0.45 9.9221-5.1705 17.967l-5.5892-3.8157c-6.5408 6.6182-4.9984 5.1348-32.512 15.547 8.5002-10.144 17.435-21.323 27.797-29.673 16.577-13.361 63.318-39.492 84.61-33.65 20.268 5.5581 40.485 18.221 57.388 30.547 12.202-1.6904 24.968-3.1279 36.69-7.0266 22.869-7.6057 43.562-20.015 67.181-25.61 57.339 5.4683 72.06 37.71 153.9 68.168-9.0642 0.739-22.999 3.5723-31.582 0.9099z"/> <path d="m1768.9 2638.9c-4.8137 0.8274-2.3577-0.4292-6.2202 4.5396l13.392 0.822c23.738-0.7549 45.072-16.427 65.717-26.323 10.134-4.8604 23.976-9.0483 31.587-17.456-19.094 3.1548-64.519 31.559-104.48 38.417z"/> <path d="m1847.2 2695.4 8.2313-1.0913-0.7495-3.8933-22.869-7.575c4.5449 9.5242 6.0029 8.7591 15.388 12.56z"/> <path d="m2441 2692.3c3.1021 6.0183 5.7236 12.864 11.05 17.223l6.1426-4.2966c0.6926-7.3682 1.9285-8.9658-2.2185-14.964-4.9637 0.4965-10.191 0.6152-14.974 2.0373z"/> <path d="m2444.2 2713c-3.9399-6.1377-6.3289-10.455-13.8-12.797l-1.5046-0.1294 7.3523 12.926c6.1271 0.8994 3.4952 1.2202 7.9523 0z"/> <path d="m1814.5 2715.9c33.221 2.1926 77.191 1.4944 108.03-11.995-24.315-0.0591-84.863 3.9468-108.03 11.995z"/> <path d="m2417.5 2707.8c-1.0291 8.7639 4.9536 18.578 10.093 25.46l2.5803-0.4861 2.8848-10.739-8.4326-14.617-7.1253 0.3824z"/> <path d="m2403 2751.1 6.4631-6.1479c2.9626-6.5715 5.5117-9.7668 2.5852-17.062l-8.5574-11.51-5.4907-0.853c1.918 11.556 4.0222 21.876 2.1455 33.608l2.8543 1.9647z"/> <path d="m2390.4 2756.9c-0.522-8.6658 0.6875-21.189-4.7-27.792l-3.5264-0.6462c-1.6648 13.521-2.792 26.184-8.376 38.779 4.6121 1.0083 2.1663 1.1687 7.2126-1.4993l9.3898-8.8418z"/> <path d="m2221.5 2792 2.3992 1.0859c5.4807-16.628 5.8582-43.686-0.7188-59.957l-3.8677-2.0891c-0.7934 59.727-1.5981 54.654 2.1873 60.96z"/> <path d="m1935.9 2749.2-91.337 19.99c4.4001 1.6958 6.3544 1.675 10.946 0.6824 16.753-1.3032 83.97-3.3711 94.595-10.331-4.2141-3.9244-8.4177-9.9271-14.204-10.341z"/> <path d="m1961.2 2785c3.5417 1.4734 1.8251 0.9717 6.7733 0.3774-3.8882-6.3135-7.1455-7.4197-13.5-11.024l-18.826-0.1135c-19.064 4.4722-38.924 8.2366-56.99 15.899 63.767-7.7732 69.777-10.455 82.542-5.1394z"/> <path d="m1980.3 2825.5c17.166-1.6646 34.901-1.5923 51.891-4.3896-17.383-9.2446-53.95-32.812-72.625-28.355-20.558 2.3374-43.763 4.1572-63.132 11.489 22.812 0.1858 47.528-3.5159 69.9-1.8718 10.346 0.76 21.292 5.1394 31.292 7.823-35.749 4.9739-71.7 16.432-107.81 15.382l-11.065 1.1169c24.395 13.071 74.533 1.432 101.55-1.1949z"/> <path d="m2045.4 2844.2 103.67 2.8489c28.712-0.2585 57.982-4.5911 86.891-5.6514 36.292-1.3289 78.132 0.3518 112.97-10.605-272.02 3.8899-199.25 4.6921-228.83 5.0518-50.816 0.5996-101.34-6.5203-151.36 5.7651 25.424 4.3017 50.966 3.9709 76.658 2.5903z"/> <path d="m2339.5 2880.5c23.283-2.053 45.154-4.4729 67.858-10.45-25.078-0.124-50.454 4.938-74.921 4.4827-24.932-0.46-51.659-6.8867-76.886-9.105-4.3538-0.3879-2.9268-0.2844-7.6526-2.5852 48.267 0.4807 94.465 3.1023 141.17-11.132-196.51-1.3093-145.81-1.9602-232.94 2.2595-28.639 0.2429-58.685-6.0388-87.201-1.6392l-167.6 10.564c6.0853 4.1201 5.3999 3.2122 138.68 2.9004 26.55-1.0959 55.356-5.5479 81.663-3.0503-60.873 15.517-123.34 17.668-185.08 26.954 32.187 6.8042 71.126 4.4207 104.05 2.9678 12.43-0.5483 41.509-9.0847 50.852-3.8262-4.5837 0.8416 2.2539-0.9958-41.157 11.597-16.484 5.729-33.453 4.9895-50.258 8.5623l-50.278 10.527c28.153 2.094 54.182 1.5874 82.175-1.6648-21.137 9.9634-44.963 17.595-64.906 29.389 22.399-1.4683 46.049-1.7734 67.936-6.9231 65.567-15.436 116.59-52.088 237.59-38.784 95.849 10.524 109.09 28.199 145.67 13.056-4.4619-3.1541-5.1602-2.8542-10.357-3.6245-13.511-2.0063-26.054-7.7612-37.745-14.638 20.127-0.7976 39.301-2.7622 58.039-10.176 7.1921-2.8435 27.445-8.6399 30.739-14.87-104.52 19.573-92.241 21.654-119.43 9.2088z"/> <path d="m1845.6 2998.7c3.4438 5.5376 5.5999 6.0444 11.51 9.0483 42.264 7.2439 81.316 1.696 122.1-10.341l-0.1498-2.7095c-48.743 0.7422-124.97-2.5456-133.46 4.0023z"/> <path d="m2202.9 3278.5c46.81-4.3223 160.75-17.1 202.74-36.799-29.575-0.5686-62.372 9.6843-92.599 11.773-71.312 4.9226-147.12 12.332-218.09 2.5647-55.376-7.6245-158.79-46.512-206.37-68.97l-2.5074 1.6338 10.496 6.7271c199.8 95.57 178.24 94.877 306.33 83.069z"/> <path d="m2137.9 3328.5c27.032 2.1167 189.46-20.495 261.98-44.865-33.738 0.8582-184.11 32.496-297.89 13.707-75.892-12.529-194.59-74.221-211.2-69.921 102.87 65.246 239.45 100.48 247.11 101.08z"/> <path d="m2380.6 3326.2c-236.88 44.901-227.78 28.557-419.82-37.476-17.699-6.5977-38.505-18.531-56.814-20.935 32.706 28.163 148.63 74.641 194 90.386 19.565 6.7839 43.003 18.211 64.058 17.017 26.577-1.5105 155.8-23.942 244.7-52.042-8.79-1.7219-17.425 1.303-26.132 3.0508z"/> <path d="m2163.1 3396.9c-30.758-1.0176-42.704-10.602-193.4-65.893-23.433-9.7466-50.904-25.46-75.846-29.679 10.403 10.393 26.437 15.558 39.404 22.249 128.38 66.273 62.042 37.208 206.09 90.882 17.596 6.5613 40.584 0.8066 58.892-1.665 65.798-8.8735 151.23-28.604 200.9-43.132-11.501-5.1269-159.13 29.77-236.04 27.238z"/> <path d="m2210.3 3433.2c-70.947 3.4138-37.824 11.532-221.21-55.806-26.452-10.952-52.074-25.436-79.895-32.088 17.168 21.804 201.48 106.69 243.01 110.59 27.181 2.5593 218.69-30.858 235.26-43.582-45.371-0.2565-35.494 14.064-177.17 20.884z"/> <path d="m2147.1 3492.8c25.276 8.4255 186.71-17.988 201.39-30.19-222.29 10.878-148.94 36.72-394.57-63.355-11.251-4.9531-24.653-13.138-36.582-15.346 32.863 36.125 180.06 92.702 229.76 108.89z"/> <path d="m2074.6 3485c-126.55-43.628-133.3-61.772-144.48-58.442 45.204 38.837 167.52 94.106 220.33 105.72 12.709 2.7922 29.937-1.5405 42.926-2.9314 30.786-3.2964 133.87-15.209 160.42-31.509-229 21.834-187.58 18.736-279.19-12.833z"/> <path d="m2166.7 3549.6c-24.617-0.3926-48.127-11.127-71.265-19.079-151.34-52.018-147.94-64.195-163.97-65.226 24.808 28.725 129.73 73.237 165.09 87.661 60.551 24.695 32.761 25.985 238.66-7.6003l9.9172-2.9319c-59.492-3.4796-118.99 8.1334-178.42 7.1766z"/> <path d="m2155.5 3587.7c-21.359 1.3494-54.921-18.03-75.619-25.93-140.94-50.993-133.21-49.89-141.81-49.958 10.082 11.918 26.959 18.433 40.785 25.408 194.12 89.002 159.49 76.374 191.51 71.327 37.534-5.9158 90.007-15.447 126.23-26.933-6.3546-4.1316-125.2 5.0774-141.1 6.0857z"/> </svg>