<?xml version='1.0' encoding='utf-8'?>
<svg xmlns="http://www.w3.org/2000/svg" enable-background="new 0 0 5000 5422.3125" version="1.1" viewBox="0 0 5e3 5422.3"> <path d="m4705.2 4260c-152.35-106.32-454.01-228.74-631.55-285.82-26.231-7.4668-15.776 3.0122-35.702-35.906-132.06-246.86-69.731-137.31-280.38-489.34-84.644-134.85-169.2-267.13-282.31-380.3l96.296-334.13c107.13-18.486 101.78-27.164 187-177.96 2.4829-4.7893 18.271-40.159 20.583-41.266 10.475-4.999 31.082 10.535 77.117-11.37 25.909-12.337 57.358-40.292 67.351-68.247-9.241 4.9661-17.94 9.9763-28.707 10.032-16.579 0.0825-30.443-7.8032-41.808-19.234 1.6482-4.8167 21.296-3.8213 27.573-4.1421 68.164-3.4839 138.59-24.985 190.59-70.907 55.367-48.897 70.481-114.22 74.811-185.18-6.0166 9.6719-9.3848 21.606-13.87 32.091-11.956 27.921-40.779 68.982-70.105 79.202-9.0471 3.1467-19.527 1.5928-28.115-2.1289 51.143-70.962 55.997-116.21 58.42-118.05 7.6699-5.8455 39.535-8.7266 50.678-11.591 144.35-37.144 202.28-145.42 234.04-286.86-33.726 50.812-99.034 170.15-268.29 189.63 13.396-10.74 37.898-12.723 73.782-41.94 52.339-42.585 51.706-70.549 64.559-87.071 7.4019-9.5248 161.32-117.76 144.19-261.2l22.502-23.381c78.134-83.333 109.32-206.76 105.81-319.04-29.095 104.09-83.542 200.98-179.14 251.74-0.519-16.37 33.332-60.783 11.309-163.35-16.864 26.263-43.65 113.8-132.75 157.06-20.29 9.8489-70.907 27.506-92.939 17.48-8.6543-3.9373-15.219-22.507-18.879-30.957 43.549-11.856 86.695-22.789 126.15-45.43 157.88-90.606 272.9-338.66 215.15-559.17-5.6353-21.512-11.093-43.085-22.203-62.507 5.793 64.788 19.887 164.28-55.556 242.61-44.323 46.027-99.287 63.486-159.49 78.522-19.018 4.7437-36.503 10.718-55.655 10.236 2.3667-2.6487 1.0674-1.5316 4.5732-3.7382 150.12-94.505 183.46-287.59 128.27-415.19-1.9629 8.2456 2.0684 22.734 2.8257 31.533 12.363 143.98-140.3 258.67-302.06 180.94 47.758 4.9328 84.638 6.5531 131.59-6.8294-46.217-8.3205-103.35-26.327-136.58-60.24 19.319 2.8932 102.75 47.519 175.55 25.179 43.29-13.289 73.224-39.391 94.1-79.351 59.294-113.49-16.3-285.36-76.034-316.25 4.1475 10.817 13.234 21.125 17.901 32.539 33.739 82.563 26.605 203.59-32.976 266.64-12.205 12.913-29.066 23.547-43.527 33.855 2.9482-27.198 12.791-31.154 11.309-101.54-1.7314-81.58-38.169-150.03-96.146-205.43 18.183 34.298 35.271 68.496 41.747 107.2 15.969 95.404-27.924 166.56-61.367 167.58-8.0964 0.2488-8.5164-13.692-9.2964-19.566-8.0464-60.372-17.912-119.67-37.975-177.4-57.25-164.74-229.58-252.72-254.24-272.36 28.104 7.5212 54.544 26.921 79.888 40.961 81.24 45 180.64 11.301 239.48-53.537-52.453 32.628-100.93 37.842-160.57 24.637-249.8-55.332-380.48-434.61-858.15-410.7-186.84 9.3537-352.47 103.68-362.62 104.73-29.893 3.0762-211.71-162.97-546.61 44.406-57.27 35.459-108.42 72.654-172.5 96.099-58.94 21.564-118.59 29.843-179.35 43.426-152.23 34.037-306.07 154.44-384.37 352.85-44.299 112.23-49.57 254.84-170 228.06-59.254-13.182-98.237-68.941-84.201-130.6 4.1974-18.437 12.935-34.292 21.827-50.772-31.405 29.205-89.72 108.24-91.805 151.08-6.4034 131.43 104 231.23 65.869 271.46-11.525 12.153-54.144 3.776-99.365-67.843-32.921-52.121-34.713-114.41-21.656-173.03l10.834-35.896c-59.985 71.006-104.63 138.24-95.886 235.19 7.355 81.541 49.848 176.6 100.1 241.22 14.859 19.101 34.303 34.364 48.593 52.829-46.22-1.1304-91.897-29.047-122.23-62.816-30.41-33.85-48.161-82.188-65.836-123.62-0.5532 22.74 3.1687 46.154 2.2507 68.319-1.5862 38.207-51.124 279.82 118.22 458.24 14.461 15.241 29.393 29.016 46.663 41-44.319-11.547-94.943-19.627-181.84-118.8 38.309 133.91 111.4 182.46 238.49 187.78-12.117 7.1173-25.262 12.559-37.085 20.014-81.925 51.644-114.42 138.47-66.306 217.84 17.582 29.023 30.476 31.578 32.771 39.529 4.6727 16.114 4.0259 34.889 8.5163 51.668 14.798 55.334 63.298 102.41 119.12 115.31l32.627 6.697c-20.334 56.59-26.677 114.4 0.1552 170.31 16.336 34.043 48.416 73.373 85.174 86.148l32.965 8.7322c-40.32-35.558-61.721-68.379-65.548-123.1-1.1558-16.535 1.4878-32.998 3.1633-49.417 48.957 93.442 35.408 86.226 56.883 156.14 4.1864 13.632 12.033 26.152 19.195 38.434 30.216 51.767 71.504 89.958 124.69 117.52 104.99 54.412 172.03 33.481 222.51 21.8-66.19 40.748-245.01 133.27-408.74 386.92-67.861 105.12-87.909 158.74-230.84 425.06-62.603 134.26-46.416 98.129-74.358 164.95-9.2183 22.274-1.5351 14.937-22.817 29.105-115.8 69.952-228.42 131.02-461.69 226.73-172.26 70.67-425.68 155.26-454.87 277.92-11.81 49.615 1.8751 98.747 47.359 335.9l21.428 88.691c7.3777-28.134-10.126-32.329 3.3052-158.16 14.532 80.867 31.446 165.51 60.617 242.63-4.714-93.564-35.298-187.43-15.016-281.85 30.267 193.57 60.576 320.37 183.51 506.29 16.574 25.051 36.93 62.13 61.29 80.037-58.702-123.19-116.23-316.39-132.73-413.39-10.383-61.052-13.847-122.84-13.291-184.68l1.2676-0.8018c18.3 112.32 32.402 181.14 122.35 364.64 34.071 69.497 71.222 137.59 118.33 199.26-55.689-142.82-163.8-547.23-125.67-688.88l1.521 0.144c-6.2786 113.41 48.22 383.47 161.27 598.77 13.283 25.294 25.383 50.628 42.167 73.915-17.364-52.801-28.375-106-41.924-159.72-117.81-467.21-65.833-602.33-59.255-680.61l2.8868-3.7935c-3.5557 71.123-9.0306 138.94-2.129 210.48 23.899 247.91 156.91 626.5 185.43 668.43-56.908-308.33-124.32-617.28-72.538-802.94 6.6861 400.52 173.16 924.35 257.59 1062.7-21.17-101.26-6.9875-33.024-73.484-353.89-12.718-53.736-95.12-376.58-88.515-484.89l209.22 774.41 271.09-287.86c-6.5634-1.8105-5.4454-1.6787-10.762-3.0474-92.147-25.603-218.78-481.26-168.1-917.22 10.634-91.523 32.478-184.42 58.901-272.69 11.553-38.586 59.261-158.24 75.447-187.34-3.5594 20.688-9.6558 35.632-14.174 55.074l-20.008 110.14c-28.701 211.14-31.936 425.25-12.979 637.43 12.725 142.45 29.955 273.18 108.13 387.48l40.06 49.273c118.47-84.936 217.28-201.95 292.18-326.49 18.388-30.576 30.858-64.801 49.472-94.73-2.3804 32.32-13.634 58.716-25.145 91.667-84.515 241.86-390.99 647.3-566.18 796.52 654.44-66.143 582.78-63.187 598.94-61.511 52.503 5.4546-125.57-18.316 813.23 162.16 16.507 3.2075 36.465 10.286 52.873 9.6777-432.59-787.79-313.1-573.12-543.16-977.89-75.819-138.15-154.12-263.32-254.69-591.28-74.222-242.04-85.293-334.93-105.22-456.16-14.516-108.87 0.236-130.71 53.382-198.43l1.9078-0.7075c-21.584 120.68-19.77 200.84 69.259 395.51 104.51 228.5 112.01 223.11 329.13 544.56 120.52 177.79 74.863 112.56 199.81 284.1 182.64 257.62 130.79 189.01 234.71 313.62 121.34 133.2 48.395 33.295 473.02 690.38 8.6104 12.498 19.671 33.568 31.511 42.637-1.7285-10.819-134.61-288.25-135.33-290.14 16.568 12.432 29.874 31.179 44.18 46.353 40.392 42.825 81.619 84.174 119.18 129.64 13.742 16.634 27.639 42.869 43.926 56.081-4.9626-24.086-47.329-118.21-64.901-152-157.86-303.7-343.43-390.04-482.5-585.81-9.998-14.074-21.683-26.81-30.094-41.952 18.492 6.2642 90.932 72.594 240 136.29 98.819 42.224 220.86 54.732 282.23 87.785 83.538 44.982 101.74 124.98 117.11 207.99 32.852 223.62 44.663 327.16 78.096 437.83 4.8779-40.808-11.515-98.785 25.112-292.89 13.161 185.61 14.642 233.32 26.611 276.63 6.3384-114.35 122.18-590.16 146.65-833.58 154.93-18.924 282.52-117.6 409.43-199.97 46.851-30.416 97.097-57.916 142.46-90.168-10.081-1.1836-23.89 2.3945-34.037 3.9209-63.541 9.5889-128.33 39.54-186.26 66.19-83.608 38.474-88.351 41.002-153.05 42.062-40.436 0.6577-78.688-1.272-118.66-8.29l95.206-24.183c-63.801-0.2324-125.49 17.243-185.65 36.465 13.373-11.3 154.87-111.34 331.24-179.94l-2.1013-0.5747c-10.629-0.8296-23.453 1.2383-34.281 1.9517-48.566 3.2075-96.129 14.998-143.56 25.367-76.369 16.7-102.59 19.093-148.15 45.535-2.7649-16.546-24.283-78.079-22.397-85.639 78.66-47.46 156.84-91.391 248.2-108.62 157.23-29.646 219.94 26.567 452.89 173.5-58.179 69.565-190.94 138.69-394.56 456.56-162.88 254.25-255.6 488.44-337.38 682.3 83.762-60.54 237.89-320.39 282.41-413.73-2.7556 74.848-28.11 204.56-56.413 367.11 10.198 2.7227 175.97-37.521 1036.6-239.04-3.2627-10.424-19.096-25.428-26.34-34.226-182.25-221.31-491.66-451.95-619.1-632.23l21.374-21.672c11.563 6.5366 21.849 18.233 32.085 26.871 78.666 60.443 103.8 83.688 260.12 153.37l-56.014-250.56c-94.732-348.8-243.91-590.27-263.82-652.89 28.441 34.005 49.693 79.855 73.384 117.8 129.72 207.78 213.34 437 262.7 676.42l29.774 176.69-62.832-18.703c-12.819-4.3687-29.918-14.007-43.135-15.009 9.4595 16.413 39.662 41.556 552.55 490.83-32.656-61.276-64.756-93.272-66.998-108.77-1.4097-9.7773 1.1562-23.481 1.377-33.584l-0.7632-68.269c-9.2974-282.23-103.49-512.99-112.84-559.16 13.526 19.646 20.452 38.132 30.891 59.299 102.81 208.44 132.54 399.13 160.97 541.61 20.407-190.05 29.175-283.3-17.99-504.37-1.8252-7.6924-5.5635-15.733-3.7603-23.503 87.807 248.91 81.639 431.35 84.405 593.52 98.756-303.97 18.943-534.08 18.985-547.58 12.447 13.981 23.312 52.124 30.166 70.885 64.985 177.75 64.395 268 56.59 356.58 37.339-62.069 53.747-147.57 48.532-219.02-2.041-27.988-9.6562-56.136-10.17-83.947 13.64 30.558 33.134 137.69 25.627 238.22 9.1245-16.391 14.185-33.944 20.267-51.59 30.325-87.946 25.234-95.985 29.277-184.42 7.7153 52.563 7.2021 39.762 8.7207 119.04 22.53-51.767 39.259-109.8 52.093-164.71-17.14-21.013-104.05-177.01-294.84-310.15zm-3881.5 432.04c5.7944 11.664-3.265-23.464 74.49 341.33 4.6509 26.583 12.631 54.831 13.333 81.724-14.108-13.489-84.505-333.41-87.823-423.05zm140.42 228.14c8.1016 36.709 18.083 77.239 18.951 114.72-7.0674-10.192-9.6553-27.943-12.94-40.093-14.926-55.207-26.744-107.59-27.927-165.01 9.7162 29.415 15.241 60.151 21.916 90.378zm2589-2216.2-3.0364-4.2358c8.1184-70.262 4.0706-75.145 31.007-143.3-0.7243 47.443-16.933 101.27-27.971 147.53zm118.24-56.932c-22.9 34.502-45.059 42.615-84.102 50.495l-6.52-3.3403 27.346-108.95c2.6714 9.4729 7.4324 18.133 11.79 26.92 53.742-25.134 80.811-69.486 100.41-123.2l26.196 12.725c-16.745 53.26-44.468 99.177-75.121 145.35zm-60.156-66.416c-0.9243-13.082 17.341-55.297 27.86-96.472l15.435-72.649c6.9458 13.831 14.605 29.464 16.225 44.998 4.4407 42.626-27.634 81.298-51.922 112.75-2.4114 3.976-4.5625 7.8361-7.5984 11.375zm187.46-252.7c11.265-0.9841 33.695 15.567 44.777 21.357 24.443 12.775 48.632 18.344 75.591 22.884-33.228 14.556-90.845-17.855-120.37-44.241zm86.872-68.927c-22.817 0.9788-41.232-11.088-57.651-25.571l-9.4951-11.956 2.3391-1.8137c51.819 25.324 94.762 15.736 151.85 2.0684-18.327 18.824-60.582 36.144-87.044 37.273zm-9.6777-118.89c-36.288-15.218-69.535-49.295-83.592-85.926 5.0374 0.8296 26.765 29.05 33.313 34.779 20.467 17.918 51.424 30.587 77.93 35.796 74.047 14.568 101.76-3.6379 126.12 1.3162-51.858 17.332-105.87 34.13-153.78 14.035zm175.92-167.62c-43.569 16.545-113.05 15.649-158.02-5.9171-52.099-24.99-70.492-74.723-88.128-125.79 14.025 23.249 26.517 42.062 47.084 59.802 57.679 49.754 130.33 73.694 205.97 68.07l1.9631 2.5825-8.8758 1.2554zm236.13-270.62c-12.474 12.656-25.572 17.701-43.522 26.235-56.153 26.705-107.64 37.726-169.52 37.245 63.764 48 160.67 22.58 171.5 22.236-9.0415 7.0562-23.696 10.629-34.64 13.997-97.149 29.889-182.82 30.472-275.07-46.873-5.4912 0.9896-6.4595 1.8582-10.684 5.1984 43.29 52.893 74.625 103.62 210.17 123.64l-1.2441 1.4598c-89.156-0.2987-180.27-30.327-247.21-91.307-57.69-54.997-81.265-128.3-83.256-206.8-0.387-15.252-0.7466-31.76 1.4712-46.834 4.103 20.024 5.4856 40.591 10.303 60.399 12.796 52.652 46.325 118.42 92.059 149.57 5.4031 3.6776 11.552 7.6206 17.713 9.877-55.462-60.496-93.791-188.7-62.772-302.97h2.5996c-4.5349 54.72-10.165 103.39 4.2302 157.57 0.6379-11.719 5.3391-136.5 25.693-148.83 13.388 11.453 11.928 21.999 15.672 38.617 15.916 70.553 65.045 149.87 127.17 188.6 111.06 69.245 223.88 13.763 249.35 8.9639zm-67.589-469.55c-165.7 73.762-322.98-1.4994-338.3-3.3955 10.434 14.101 20.094 21.27 36.167 32.86 94.406 68.07 226.69 74.383 311.33 34.193 33.601-15.954 63.093-38.921 92.828-60.975-53.907 65.2-130.91 109.83-215.35 117.9-160.25 15.316-191.22-34.243-230.43-49.107 6.885 18.974 30.244 40.585 45.297 53.802 66.118 58.077 139.33 70.603 225.17 64.785-61.46 17.071-97.21 16.352-142.54 10.734-86.806-11.027-172.47-58.934-232.08-122.35-41.973-44.656-76.625-97.413-114.21-145.76 77.312 32.632 118.14 106.61 181.23 154.26-43.516-76.747-85.927-138.17-157.34-191.92-68.063-51.206-141.37-75.768-241.45-46.679 12.675-9.3015 28.768-15.7 44.296-17.912 128.24-19.131 267.51 47.712 384.2 106.75 89.186 45.112 148.23 94.284 351.17 62.828zm-789.27-307.79c8.6719-32.869 96.146-59.25 132.25-60.322 12.592-0.3705 26.367 3.1908 38.849 4.9883-24.73-19.914-74.413-24.919-104.76-21.473-37.389 4.2469-80.955 29.658-111.89 50.102 16.966-18.974 33.711-29.807 53.504-45.258-64.243 18.227-107.57 75.657-151.87 122.77 10.248-20.412 20.804-41.453 27.828-63.225-38.508 44.409-31.858 37.212-35.968 40.082 4.6179-16.485 15.556-31.477 25.217-45.419 65.222-94.119 137.86-134.71 248.46-114.67 78.295 14.179 152.97 69.546 197.72 134.1 20.683 29.84 37.516 62.634 56.899 93.359 12.902 20.456 36.355 45.878 43.887 68.031-35.458-9.8167-146.28-90.283-315.08-76.266-32.97 2.7373-66.228 9.6168-98.961 14.533l58.398-45.131c32.616-24.36 83.93-49.279 125.54-48.278 14.677 0.3538 28.64 5.0378 43.074 7.1835-79.818-58.313-143.46-47.145-233.1-15.103zm742.77 125.94 7.6035-1.1448-0.3647 3.0249c-69.835 64.598-176.13 43.504-264.68 7.9635 88.266 8.4002 170.71 14.765 257.44-9.8436zm-671.12-821.81c-66.842-16.166-125.91-22.807-192.47-1.9436 110.88 4.8918 160.59 32.077 212.13 57.144 14.55 7.0751 32.13 13.28 44.152 23.996-34.707-6.308-67.865-20.411-103.05-26.991-109.2-20.422-238.93-6.9285-339.03 43.052 26.284-25.272 62.097-46.968 94.399-63.256-96.804 11.196-73.8 12.294-145.36 31.261l74.767-52.482c-111.85 7.7549-142.02 48.88-160.69 66.832 13.782-38.64 102.51-99.648 147.63-121.29l15.888-7.8377-65.902 11.752c80.434-44.441 102.96-45.664 164.65-39.327 84.859 8.7154 178.96 36.015 252.9 79.093zm-142.22 87.693c-12.336 6.833-14.274-0.3167-77.305 13.566-49.299 10.852-112.35 34.309-153.55 53.553l-1.9468-2.14c62.225-52.468 135.32-64.511 214.2-66.505 6.907-0.313 12.382-1.7663 18.598 1.5264zm-329.88-261.59c81.89-19.048 180.42-4.78 257.84 26.292-28.005 1.421-55.025 2.5182-82.327 9.6528 56.036 3.4162 37.412 0.1414 122.8 21.305-28.585 6.5243-76.911-27.122-274.04 75.512-15.169 7.9011-31.787 23.083-46.956 28.932 3.0581-10.897 12.653-20.793 19.825-29.317 27.458-32.61 42.5-44.327 62.33-57.286-112.45 38.224-89.352 37.312-143.01 69.882 6.9736-11.695 17.044-20.843 26.672-30.353 36.886-36.443 77.648-59.291 123.94-81.59-93.315 14.663-171.02 36.284-242.27 101.97 41.542-67.067 97.274-116.87 175.2-135zm-108.88 358.62c69.906 107.08 61.074 250.4 35.348 369.63-1.3384 5.2589-2.4775 8.4995-5.7847 12.824 3.7827-108.52 7.6536-210.25-35.713-312.73-45.761-108.13-134.14-175.3-240.26-217.79 124.08 23.896 200.96 78.459 246.41 148.06zm-791.68-206.66c63.259-38.509 135.29-72.28 210.54-75.815 112.42-5.2824 221.13 49.396 257.78 83.04-39.15-11.379-186.94-89.568-422.13-8.4735-38.351 13.224-73.738 30.482-110.7 46.848 18.492-17.95 42.56-32.237 64.509-45.6zm103.67 28.435-92.502 9.7785 45.33-16.998c125.48-42.498 274.93-38.19 394.59 20.887-49.878-9.6191-110.86-28.897-225.52 24.808 15.13 0.4694 30.283-2.5414 45.43-3.0623 84.218-2.8992 181.74 36.972 251.66 81.797 17.132 10.989 35.569 22.198 50.606 35.99-20.579-6.505-61.348-34.56-141.89-44.901-35.918-4.8523-91.318-5.2609-123.25 10.952 112.31 15.548 138.1 26.5 217.69 72.925 24.349 14.202 48.604 28.386 69.474 47.52-75.624-38.12-144.5-51.159-228.19-34.077 66.928 21.22 36.725 0.9848 146.23 57.353 62.44 32.135 119.49 66.106 169.07 116.71 14.305 14.605 29.89 27.933 35.448 43.865-29.33-26.588-73.858-83.353-219.48-117.45 8.2791 11.26 76.528 39.854 116.31 79.24-38.068-9.633-44.785-26.751-134.07-36.061 27.848 18.184 154.63 87.143 170.19 116.29-21.756-10.925-82.415-56.842-172.19-61.693-11.801-0.6357-25.372-2.5991-36.958-0.5588l2.1733 3.0912c54.025 8.2832 161.66 79.157 192.69 119.11-131.21-67.386-256.14-93.722-423.78-39.507-129.1 41.745-239.57 132.89-289.29 207.47-3.1465 4.7284-8.5272 15.429-13.156 18.144 3.0028-20.063 13.305-39.584 22.74-57.325 28.137-52.901 65.454-95.908 106.54-138.99l-0.8237-2.4166c-75.422 57.225-105.97 117.22-124.5 138.09 65.86-155.99 169.82-257.17 335.93-287.99 31.671-5.8777 64.464-7.0338 96.561-9.329-101.73-35.52-197.39-33.8-301.79-13.61 96.821-53.88 195.02-94.708 307.31-96.5-22.976-22.127-202.87-69.124-392.33 85.008l25.571-34.358c21.302-31.339 50.307-53.747 75.303-81.524-57.092 34.254-68.824 56.648-92.17 75.701 16.393-37.799 108.21-142.49 207.99-176.24 15.152-5.1259 36.698-6.3765 50.042-13.321-32.08-2.0619-62.9 0.6267-94.775 3.9777-249.66 26.247-355.21 177.56-373.9 188.19l0.4091-2.0902c51.545-141.84 205.74-231.11 345.29-288.89zm333.23 765.96v5.4141l-22.12-20.566-4.2471 0.9069 5.5579 12.183c-8.0857-1.8198-10.126-6.2177-17.708-7.0839-4.2803-0.4923-2.4387 0.2819-6.8572-2.743-4.6785-3.2075-1.283-2.234-7.1614-2.6323l2.7651 9.274c-31.018 5.5963-79.456-22.209-107.72-32.937-68.599-26.052-98.497-21.436-136.47-19.366 53.587-23.851 133.79-25.953 189.86-10.441 13.947 3.86 24.565 12.658 36.72 20.013 23.829 14.417 48.548 26.976 67.378 47.979zm-59.432-76.448c11.077-0.1879 22.06 3.9155 30.399 11.049l-3.821 0.1826c-8.7432-0.9401-20.351-5.0325-26.578-11.232zm-430.32 212.05c-97.128 174.52-287.47 272.76-329.74 264.91 51.408-16.269 84.019-36.559 124.04-72.77 7.5433-6.83 19.615-16.22 24.57-25.112-25.926 12.66-39.367 24.984-60.466 35.459-76.644 38.058-159.74 43.093-175.06 38.705 104.91-17.932 137.82-41.173 169.53-54.659 8.0074-3.4122 20.798-6.1605 27.424-11.348-30.305-0.3759-67.456 17.757-97.042 25.997-47.686 13.278-94.797 16.817-143.84 19.842-20.843 1.2886-42.361 4.2085-62.921-0.3539 48.062-13.366 102.8-18.753 152.47-23.426-30.31-6.3872-62.324-6.0444-93.121-8.5717l-90.782-11.846c-16.867-2.0681-33.839-1.3605-50.744-3.3457 42.311-9.9984 83.532-13.56 126.89-15.014-48.145-10.54-120.99-25.449-152.39-66.422 11.923 1.4598 28.463 10.911 40.464 14.915 149.84 49.986 327.21-16.178 429.85-119.42 18.923-19.037 29.889-39.408 51.806-63.967-4.1309 14.848-14.671 29.57-22.281 42.941-34.878 61.34-72.477 108.12-122.82 156.95 31.466-8.251 61.965-28.364 87.945-47.404 129.92-95.231 170.13-207.71 259.72-306.3 12.21-13.438 25.416-29.923 40.751-39.678-15.932 30.946-36.709 58.906-52.06 90.511-28.828 59.332-49.914 121.41-82.188 179.4zm57.026-7.4491c-10.485 8.4059-36.836 27.358-49.091 30.404 11.764-17.358 36.725-30.614 49.091-30.404zm-55.412 140.88c-2.5991 2.2896-4.6619 4.7339-7.9907 5.8289 2.0349-2.7819 5.0766-4.0591 7.9907-5.8289zm-174.12 284.82c-2.6321 2.2728-4.7393 4.7004-8.0795 5.801 2.0516-2.7874 5.1377-4.0482 8.0795-5.801zm-311.04-95.648c-14.058 2.411-28.32-0.4922-42.427-1.764-56.827-5.1376-126.94-15.103-177.7-41.697-78.257-41-127.08-107.03-152.76-190.42 21.108 27.114 47.984 55.013 75.652 75.519l2.7871-1.6423c-47.714-45.203-74.579-94.664-86.905-158.79 14.649 26.179 26.323 53.47 43.732 78.14 83.444 118.24 238.91 185.91 377.72 209.93-62.158 6.4094-120.93 5.6298-182.81-4.0977 47.154 21.623 108.56 27.58 142.72 34.812zm-507.57-643.09c16.618 45.086 25.737 88.643 111.09 101.44 60.77 9.1025 126.57-14.345 183.15-34.082 150-52.31 145.43-73.182 217.14-127.29-13.798 2.1015-19.433 4.9218-29.774 13.963-24.045 21.031-51.911 47.459-82.996 57.325 12.802-14.793 36.991-26.279 52.658-38.893 13.582-10.933 24.498-24.731 36.72-37.079 12.343-12.465 25.864-23.414 37.146-36.913-35.768 12.435-81.741 69.653-110.02 74.446 18.07-17.659 81.567-56.444 162.66-182.48 11.021-17.137 23.404-33.087 29.132-52.912-43.251 53.824-97.783 86.026-154.14 123.95-20.257 13.626-38.816 29.193-60.206 41.144l137.61-139.89c-27.651 11.138-52.58 31.162-77.239 47.68-141.4 94.731-104.31 77.915-149.4 117.72 22.79-39.512 44.501-80.618 71.205-117.62 60.293-83.531 178.43-177.26 219.65-204.05-69.718 20.389-128.6 56.716-187.58 97.922 2.2561-8.705 9.3402-17.238 14.572-24.482 35.157-48.636 88.619-124.48 279.74-164.55 19.394-4.066 39.391-8.9417 59.205-9.7049-24.757 13.051-55.144 15.872-106.19 97.551 106.66-11.252 140.36-52.561 169.61-61.202-19.028 18.954-35.341 26.64-49.76 43.826-112.45 133.98-82.822 159.91-221.49 315.59-10.452 11.735-26.301 23.083-34.9 35.382 13.532-0.2598 36.466-14.843 48.598-21.18 133.52-69.739 205.02-212.12 238.61-238.26-4.1034 18.525-21.318 39.219-30.454 56.291-35.155 65.731-77.891 139.46-93.138 212.67 7.4491-12.288 14.378-25.792 23.962-36.537-1.1136 15.282-13.647 15.614-18.913 83.886 19.82-55.384 53.553-100.62 93.122-143.66 11.01-11.973 22.247-25.903 35.918-34.707-29.924 35.133-61.346 68.518-86.225 107.66-13.742 21.628-23.348 45.02-36.305 66.826-9.8092 16.51-12.23 28.177-48.831 156.69l100.3-152.46c97.347-125.36 254.22-195.63 336.91-203.42-54.791 29.662-279.34 105.08-360.37 363.14-5.9783 19.046-13.262 40.419-14.257 60.405 39.164-56.473 79.716-113.93 128.56-162.46 8.7098-8.6544 19.212-21.661 30.482-26.08-12.647 23.845-30.214 37.458-45.347 58.105-13.04 17.779-22.535 37.256-33.695 56.175-17.298 29.315-35.89 57.319-48.162 89.267 19.013-15.456 38.003-38.357 57.85-51.192-18.531 41.426-59.664 67.921-82.952 104.93 32.119-18.692 61.334-39.197 87.846-65.316-5.5027 14.992-80.279 93.646-177.46 138.05-10.59 4.8387-22.978 10.867-34.508 12.498 12.112-12.999 63.319-27.205 112.62-101.44-15.048 8.4443-28.668 22.917-42.195 33.872-32.017 25.933-80.924 56.548-122.97 64.829 23.61-19.18 31.044-7.7708 101.75-78.82-17.354 9.174-143.88 80.334-181.75 77.897 43.677-14.494 73.29-32.534 107.17-63.895-42.078 17.065-49.108 45.096-178.35 60.256 69.056-28.222 105.07-40.858 183.15-172.4-36.918 19.461-162.05 95.214-205.54 99.409l45.706-27.695c86.922-53.846 168.13-135.22 214.95-226.26 7.7146-14.998 16.701-30.023 20.594-46.519-142.75 173.62-313.45 223.52-513.98 255 14.622-10.513 37.732-14.34 54.809-20.467 42.958-15.412 110.96-47.482 135.36-88.642-27.252 4.1198-52.619 15.473-81.115 18.476-65.985 6.9512-140.46-2.1844-193.44-46.309-35.929-29.928-41.448-60.991-45.922-105.4zm-144.71 115.41c13.272 38.318 1.4525 67.618 37.417 139.57 7.4553 14.919 11.584 18.029 18.852 36.034-4.6121-2.7153-2.8922-1.1392-6.3595-5.6572-26.705-34.801-49.876-77.864-53.399-122.16-1.2552-15.75 1.5484-32.158 3.4894-47.786zm9.4125 170.3c9.544 9.6974 37.777 96.256 111.69 154.25 31.178 24.465 68.64 41.885 105.46 56.047 10.74 4.1312 35.664 6.8353 42.764 13.372-14.11 4.8699-28.41 2.9871-44.241 0.2599-38.528-6.6472-76.824-20.046-108.73-43.079-50.91-36.748-98.021-118.8-106.94-180.85zm68.142 419.24c-71.482-45.114-100.18-114.86-118.31-194.14 21.54 35.741 40.126 67.771 70.956 96.959 62.258 58.929 145.73 74.629 227.18 48.079l39.136-14.268c14.738-5.5781 6.8503-6.3328 21.28 2.5493 51.272 31.76 154.52 65.407 255.23 62.772l-6.4648 3.8379c-56.506 10.413-113.55 24.399-170.44 31.947-29.21 3.877-59.631 3.4399-89.095 5.0217-82.592 4.4239-157.15 2.8977-229.48-42.753zm135.08 661.12c-18.7-36.235-35.691-76.376-26.229-115.94 7.1781-29.99 27.147-54.051 52.702-70.249l4.2141 0.5144c-40.965 97.255-32.421 99.149-30.687 185.67zm127.19 68.169c-12.113-23.335-23.277-42.863-31.549-77.946-8.9863-38.114-11.829-90.207 11.143-124.32 3.5447-5.2646 6.1993-4.048 12.138-5.082 3.5837 0.6248 1.3274 0.0277 6.4427 2.765-14.417 38.578-18.874 76.182-15.717 117.36 1.3496 17.547 20.229 80.28 17.542 87.226zm-1.3327-329.74c-73.727-6.1053-125.35 1.1002-188.97 39.911 15.152-28.364 56.07-59.178 83.852-74.153 7.8307 0.6804 3.744 5.7073 9.6777 11.536 207.48-8.1412 313.14 63.716 502.73-29.099l4.8833 0.5198c-9.3177 19.482-35.245 46.054-53.155 66.533-22.264 25.449-58.918 77.559-92.773 84.007-18.145 3.0011-24.309 2.6545-45.208 1.6206 31.08-11.355 31.505-10.327 55.516-28.79-35.058 11.383-52.772 35.313-131.27 12.343 29.907-5.1874 54.538-20.274 79.943-35.974l-225.22-48.454zm205.97 144.51 1.3715-3.1799c89.952-11.071 164.63-15.778 235.34-78.223 18.011-15.899 33.396-42.504 52.193-55.467-7.9745 34.132-47.465 77.914-76.42 95.836-44.561 27.59-95.648 49.207-148.29 52.287 20.511-9.5393 44.379-14.135 65.725-22.767-79.15 9.4219-95.672 13.792-129.92 11.514zm-135.51 161.52c-10.175-36.969-1.7698-84.168 9.8712-120.04l4.3467-1.366c7.4103 1.3716 14.533 1.897 20.5 6.896-28.03 46.271-28.307 105.39-34.718 114.51zm40.347 286.22c32.893 45.789 66.129 88.929 115.17 118.06-98.366-20.704-101.31-64.489-115.17-118.06zm238.1 86.325c-49.168-18.752-55.091-49.389-72.428-93.033l-26.915-60.859c22.297 12.039 37.61 16.579 62.573 18.537-63-58.561-163.37-121.28-141.11-276.48l72.195 3.8267c-33.111 140.52 65.659 147.4 100.79 179.35 22.442 20.42 30.366 63.285 55.483 60.604 9.0028-0.9568 9.8767-2.5994 15.047-9.3127 1.1835-10.983 4.2968-25.239-1.4377-35.21-15.893-27.628-43.848-67.688-46.038-99.326-3.3748-48.839 6.244-45.364 36.62-79.512 4.0701 49.284 21.13 89.676 35.498 136.36 17.696 57.502 31.488 112.91 56.003 168.23 0.0167-43.195-10.59-83.67-14.804-126.48 5.5547 9.22 11.238 44.014 41.58 88.15-13.432-103.34-54.422-200.1-56.02-306.1-0.2378-15.634-1.3326-36.3 3.5449-51.253 5.4692-16.784 20.45-34.469 29.398-50.025 69.876-121.54 62.136-244.38 66.975-257.48 12.638-34.224 26.958-6.2476 170.87-276.23-82.865 67.584-78.798 65.357-92.308 71.714-4.3301 5.5742-4.6288 6.2932-11.287 8.3834-4.3192 4.9827-5.0546 6.4537-11.259 8.345-6.8547 9.6064-15.075 13.395-25.676 21.65-102.53 81.141-98.414 85.067-133.33 107.82-51.265 33.4-197.56 97.676-332.39 100.57-132.75 2.8462-263.24-35.44-356.07 80.905-11.58 14.517-18.979 31.765-31.549 45.479 19.252-67.226 89.726-113.62 154.59-128.42 87.989-20.071 161.9-2.4497 354.32-102.32-96.334 1.7531-193.14 11.829-288.94-1.908 15.766-4.1362 31.831-5.3864 48.001-7.001l-212.76-39.833c47.404-4.4517 81.951-15.235 122.41-40.662-47.089-3.5229-94.88-11.182-139.39-27.33 19.437-3.0151 46.579 10.112 115.77-12.813 20.964-6.9457 42.139-16.717 60.228-29.486 4.6232-3.2571 21.584-19.278 25.654-19.93 11.392-1.8245 58.909 13.837 119.86 10.961 25.145-1.1836 49.655-6.1053 74.717-7.6869-16.684 8.5383-35.276 11.27-52.348 19.007 37.782 0.4314 74.684-15.877 112.55-16.054-53.511 35.336-154.13 52.441-165.74 60.151 22.784 1.1223 44.418-0.3706 67.091-2.7209l-249.3 66.792c96.622 14.76 212.51-11.427 252.21-11.608-19.527 10.375-46.248 13.864-63.978 25.223 27.282-1.3257 43.257-10.684 68.684-18.919 23.215-7.5153 47.559-12.808 71.244-18.758-60.571 35.772-89.963 42.479-153.94 62.706 21.048 0.8846 43.157-3.7606 64.111-6.1661 41-4.7118 79.102-12.078 117.56-27.888 142.17-58.443 277.96-226.6 315.78-244.76-17.329 34.87-70.479 97.083-77.311 123.87 19.318-14.578 35.35-32.814 52.641-50.053-30.46 49.398-30.476 57.088-129.26 151.98-14.124 13.565-37.184 28.59-47.609 44.594 22.375-5.5244 48.814-26.572 68.639-38.782 22.569-13.908 46.907-26.13 68.452-41.514 21.844-15.595 42.31-38.374 66.908-49.052-10.896 15.57-19.019 19.456-32.456 31.687-9.9209 9.0363-18.404 19.466-28.176 28.624-13.023 12.211-26.788 21.916-38.495 35.642 17.276-10.048 45.17-31.643 63.486-35.172-17.154 25.35-55.749 36.189-74.192 60.4 25.033-8.1896 43.95-24.437 68.302-33.59-17.082 12.498-34.176 25.516-52.176 36.664-14.09 8.7266-34.668 16.347-46.497 27.429 78.046-12.791 127.06-100.55 198.38-129.74 3.2185-5.9006 5.3586-5.5909 11.259-8.345 3.3346-5.6405 5.5632-5.5907 11.287-8.3834 2.3835-3.4286 1.4214-2.627 4.2306-4.8666 48.394-38.567 81.209-89.322 121.73-135.34-154.37 95.386-137.67 85.241-142.43 87.608 9.4807-14.628 29.54-20.862 83.46-75.889l106.86-118.67c-62.208 32.932-116.4 73.921-169.37 119.9 79.798-105.61 124.16-168.34 199.56-230.73 14.71-12.172 30.498-22.507 41.763-38.191-27.335 12.597-43.76 33.665-74.568 47.868-4.1311 5.4803-4.5071 6.2271-10.922 8.4557 3.4399-5.5247 5.3145-5.5688 10.922-8.4557 12.874-22.985 99.154-82.882 128.45-105.01-49.113 15.257-94.498 32.423-140.71 55.378 41.574-43.739 138.89-89.694 196.27-113.02-20.893-0.5782-36.911 3.6976-61.915 7.4547 51.198-31.013 120.77-25.886 178.15-24.747-72.416-35.542-142.87-42.775-221.05-22.812 30.77-17.902 38.077-25.188 102.89-21.949 62.108 3.1135 119.47 14.594 178.44 34.22-11.569-11.093-29.763-19.897-43.771-27.988-37.273-21.545-68.982-42.969-112.18-50.761l-1.7036-3.2683c112.38 3.9653 94.135 47.44 153.16 71.36 17.769 7.2021 23.924 7.5195 143.92 30.056-94.924-59.789-84.411-53.06-87.47-55.34 13.676 1.5099 29.995 8.3892 43.428 12.222 108.67 31.024 93.325 26.536 186.41 70.464-16.413-33.8-55.096-63.624-80.568-91.119 18.946 7.2722 39.496 28.966 56.623 40.796 17.884 12.349 38.108 21.031 56.136 33.308 30.194 20.561 58.58 45.214 87.513 67.605-52.98-99.196-161.02-205.91-220.56-238.52l66.312 68.955c-74.162-52.993-95.303-53.092-145.63-63.839l18.559 24.869c-10.22-3.4563-21.523-11.403-29.033-18.941-27.506-27.584-60.41-37.964-96.196-50.672l1.3826-0.4368 79.506 17.707c-29.129-23.487-30.42-25.732-64.21-41.426 27.526 4.8057 45.596 18.872 75.397 21.977-10.429-17.199-46.607-30.454-63.186-43.909l43.322 13.494c-33.313-21.49-64.619-29.404-102.36-39.441 52.132-0.3702 101.34 8.1018 151.6 21.767 54.405 14.794 57.977 19.411 91.96 45.087l-4.7449-1.1116-72.732-26.34c96.027 76.394 64.66 57.806 115.47 109.48 20.933 21.281 143.95 122.68 150.62 125.63-2.7373-8.2233-13.234-18.249-18.847-24.935 28.632 18.201 42.042 36.844 66.267 53.697-18.826-27.853-15.984-23.084-16.878-25.781 10.286 4.3575 20.561 18.852 29.564 26.434 18.382 15.479 39.308 28.629 59.15 42.184-25.572-73.915-63.762-163.98-125.46-214.91 17.801 30.587 45.573 65.836 56.114 98.955-21.671-14.724-18.326-45.914-85.418-103.76 16.609 27.648 37.834 50.573 49.196 81.519-24.975-16.771-58.593-110.84-341.73-219.41 26.279 4.1697 53 5.2094 79.257 10.059 12.747 2.3501 25.206 6.7963 37.87 9.7717-35.885-23.498-75.37-36.123-117.15-44.412 48.112-6.6473 114.9 0.4312 161.77 14.113 145.79 42.574 216.26 208.91 313.87 387.78-1.7861-51.728-14.367-97.424-29.027-146.66l47.592 71.864c-9.8601-76.332-49.262-149.71-97.407-208.52 11.126 5.0435 21.606 20.423 29.122 30.001 42.511 54.195 59.98 96.419 132.76 251.45 6.2156-33.562 5.3145-64.542 1.1721-98.314 8.7708 9.5339 23.763 42.128 27.507 55.063 1.261 4.3467 2.1455 7.0177 4.4683 10.822l4.5676-13.991c2.9365-5.7899 1.9744-1.4708 4.4463-7.7863 18.985-48.51-43.876-218.69-65.592-271.13l10.756 78.981c3.6001 19.765 11.171 39.706 11.326 59.786-22.485-31.416-33.96-76.968-43.539-114.05-6.177-23.906-12.482-47.409-15.225-72.007-9.2463-83.062 10.38-184.66 63.856-251.06-13.444 55.201-18.974 100.61-10.253 157.49 16.38-88.592 28.839-163.58 98.38-228.18 82.609-76.735 202.07-114.46 313.61-110.96l-48.201 9.0142c-102.55 20.378-199.63 85.489-257.78 172.17 16.59-7.2885 31.433-24.526 48.04-33.972 182.01-103.58 390.31-89.398 524.39 10.662 66.671 49.754 114.91 122.4 149.75 197.03 6.6523 14.256 15.445 29.647 17.724 45.319-11.774-11.984-21.673-32.318-31.367-46.37-23.94-34.674-67.722-86.098-109.32-99.497 21.371 27.291 89.289 90.66 95.638 242.25-17.06-66.284-36.714-112.91-81.829-165.14-35.928-41.606-49.062-46.042-70.205-57.153 50.985 80.23 68.969 113.22 95.09 229.28-51.042-90.024-117.29-152.28-218.63-180.38-126.52-35.09-202.81 8.9341-226.31 14.074 13.809-14.329 26.477-20.794 45.436-32.285 64.47-39.092 121.15-52.923 195.84-54.499-50.805-19.09-88.968-15.838-141.92-10.75 87.806-49.851 155.8-25.753 171.75-29.852-80.07-27.672-138.08-22.092-213.9 15.003-50.374 24.648-97.645 61.976-134.29 104.28-12.282 14.184-24.935 35.431-39.402 46.696 4.9141-24.113 117.32-191.97 309.12-226.97-23.674-3.9709-54.001-4.3083-77.725-1.0236-85.033 12.829-101.33 36.006-131.57 50.938 4.9607-8.0296 15.932-15.042 23.569-20.638 32.6-23.901 65.808-39.474 102.92-55.013-153.65 10.781-291.87 118.81-339.85 315-7.5208 30.753-8.6765 64.083-17.525 93.995-3.0828-15.45 1.9219-203.57 105.36-333.44 19.028-23.894 40.959-37.675 64.199-63.049-80.795 29.483-183.9 155.41-192.75 287.45-1.6091 24.05-1.7751 49.201 0.5808 73.202 5.2202 53.139 41.641 224.73 23.149 262.47-3.1421 6.4078-4.0168 18.268 0.8845 26.362l-2.1953 10.469c25.246-12.211 119.07-274.76 128.81-286.54-2.4941 24.31-11.929 49.235-18.244 72.887-17.226 64.542-30.045 129.61-61.539 189.17 24.072-13.93 23.955-15.687 143.85-120.88-35.315 49.494-80.07 88.941-107.25 144.37 63.023-37.649 118.46-97.741 163.19-143.38 8.8315-9.3182 15.031-20.351 27.91-22.319-12.899 15.748-26.559 35.097-34.618 53.786 21.545-23.088 41.503-40.43 67.628-58.47-12.46 23.37-47.708 47.138-65.98 67.224-23.199 25.499-43.389 55.113-64.061 82.724l79.269-33.96c40.436-18.564 17.858-15.188 77.277-23.625 11.63-1.6477 27.446-4.2747 38.838-1.4985-21.529 9.3181-51.065 8.6379-74.413 15.644-24.52 7.3605-47.066 22.447-71.537 31.079 54.061 6.0719 175.09-6.6735 249.31 88.15 53.31 68.092 59.941 179.05 49.528 261.89-4.165 29.111-6.9688 56.61-14.511 81.618-16.961 56.241-50.114 107.61-70.791 162.64-9.6274 25.632-12.819 54.333-20.284 80.789-3.0859 10.944-2.4998 19.98-1.3384 31.195 0.9014-11.491 0.708-25.383 8.3838-34.563 1.1338 27.601-5.4858 54.643-3.7329 82.199 4.7671-23.708 8.3284-49.66 17.21-72.134-0.4924 26.561-5.2371 57.082-11.923 82.752l-6.2048 3.9596 1.4709 4.2747c11.819-5.0918 13.419-13.187 17.691-25.339l1.8694-1.0565-0.6362 20.578 4.5791 2.9142c19.366-8.9661 19.432-18.021 84.893-193.89 1.7107 40.024 0.4204 96.305-13.422 133.84 1.1228-16.352 4.2195-35.874 1.5427-51.933-4.092 19.576-6.8352 41.238-6.3264 61.218 0.8594 34.039-19.154 63.448-20.019 69.143-1.1394 7.4932 4.0923 24.084 5.4749 32.229 71.19-159.46 60.66-237.16 69.43-341.72 3.7107-44.263 11.989-92.64 5.4417-136.73-18.123-122-36.633-129.16-41.194-163.47 86.19 82.688 57.143 241.31 45.568 443.95-7.1169 124.6-4.0698 251.91-24.67 375.35-7.7307 46.304-25.399 91.391-35.829 137.31-21.332 93.972-6.718 104.87-72.892 224-63.204 113.76-169.68 205.58-217.58 327.98-29.56 75.517 34.363 171.04-88.327 384.32-5.4915 9.5503-14.616 18.719-21.728 27.18-35.503 42.261-72.821 68.678-120.69 95.599-24.542 13.804-50.567 27.827-78.35 33.756-14.368 3.0598-41.582-0.3071-58.896-12.675 6.4758-3.4006 11.508 3.7053 15.556-2.1011-8.5164-7.6262-19.261-12.194-29.381-17.354l1.3826-1.626c21.982 4.5125 41.072 20.954 62.595 29.182-12.509-9.9983-42.825-30.62-47.387-45.286 7.0066-1.6755 11.182-0.2434 17.973 1.5264l2.4001-3.7717-8.9368-9.5061c2.9087-9.6335 13.554-16.502 19.035-25.25 8.5161-13.599 22.469-22.895 31.538-36.106 8.1184-11.829 9.7273-26.87 12.094-40.663-66.973 64.11-104.65 66.956-219.8 64.558-139.78-2.9143-151.49-40.542-220.43-65.128l98.988 99.652c-3.0083 3.3179-4.5012 3.6772-8.5991 5.176l0.6194 2.5552 16.33 1.3879 1.6423 4.0371c-5.3862 3.7769-14.644 8.2009-17.149 14.174 6.813 3.2458 11.243 1.3767 18.531 0.415v2.3884c-136.96 77.147-154.47 12.857-366.86 42.278 92.098 10.419 189.94 14.008 278.87 42.388l-19.891 15.158 1.106 4.3687c30.78 0.5088 61.024-12.553 90.887-19.101 68.993-15.118 208.18-25.845 266.41 13.554 64.441 43.607 54.035 76.515 162.75 112.95l0.929 2.417-26.6 35.254c-30.161-20.771-60.842-33.938-95.56-45.098 25.433 23.713 58.658 33.905 87.818 51.884-0.2991 6.1382-1.7864 6.824-5.1931 11.702-35.381-21.429-63.026-28.143-103.5-34.729 14.611 15.329 45.093 20.058 64.437 26.041 10.977 3.3904 22.397 9.3074 32.434 14.804l-0.2876 2.8206c-9.5669 4.3687-18.41 6.1055-28.497 2.4221-23.641-8.6323-65.155-29.99-90.4-23.956l-2.6267 1.3716c78.569 26.981 83.227 33.362 107.7 31.975l0.8516 2.3613c-20.318 18.73-40.01 33.646-65.46 44.894-36.649-19.317-103.68-42.716-144.99-38.23l2.2229 3.4011c36.628 3.8821 65.178 17.788 99.542 28.358 9.075 2.7927 27.125 4.8499 33.496 11.099-5.2039 3.3127-9.5007 4.1252-15.523 5.2095-37.146-11.442-81.099-32.097-120.04-32.633 15.728 11.242 108.69 35.287 110.36 37.809-9.6553 3.7993-16.596 6.0056-27.02 5.9338-8.4277 9.4287-21.965 6.8296-34.015 9.9487-17.287-19.986-54.322-11.298-71.112-29.459l-2.4941-7.8362 4.3298-1.9854c20.064 8.1182 40.22 12.908 60.809 19.295 14.273 4.4297 27.175 10.723 42.482 10.037-5.699-4.52-1.198-1.8784-109.69-37.361-6.52-42.007-8.7925-79.324-25.903-119.08-87.982 161.15-66.534 134.67-103.67 141.5 4.0845 4.5496 2.458 3.2451 8.7932 8.2952-10.839 4.3467-33.607-2.4221-45.878-4.2803 11.48 6.7083 24.443 10.706 35.509 18.062l-97.131-11.42-3.5669 3.1687c-74.109-14.196-133.47-47.935-185.28-102.93-41.192-43.726-100.39-130.65-137.03-149.44l-1.7805 5.4583c-11.409-17.304-28.309-32.146-43.234-46.381-5.4084-5.1541-11.005-12.055-18.399-14.107l-3.3733-0.4148c-58.97-61.883-84.115-88.055-159.69-228.07-39.413-73.03-70.956-140.5-90.638-221.11-0.9401 64.459 12.863 126.51 31.007 187.92l25.665 69.724c-24.354-24.609-36.941-61.39-63.198-85.357 5.7014 13.974 12.52 29.282 15.971 43.931-10.928-8.6714-22.596-34.939-31.45-47.327-5.3699-7.5042-11.564-12.022-14.251-21.291-1.532-5.2812-1.0066-5.1096-5.1042-9.5232 2.5369 25.953 5.129 28.927 14.959 56.623-9.5891-14.322-17.331-30.376-29.343-42.831-14.19-14.721-24.99-31.372-35.813-48.637 5.3583 22.043 10.838 41.118 12.586 63.204-12.249-11.862-22.032-29.144-30.427-43.904-80.277-141.15-65.132-349.53-116.73-520.62-11.823 29.564-24.858 57.8-55.268 72.571-21.567 10.479-51.518 7.3052-73.235-0.9788zm2042.3-1109.2 2.3281 1.3826c4.8225 46.221-8.9697 94.636-23.635 138 2.129-46.868 15.943-92.657 21.307-139.38zm-35.404 125.81c-2.5439 16.967-14.561 58.016-27.634 69.115 1.5596-13.394 17.752-59.504 27.634-69.115zm-41.476 88.482c-8.6089 71.782-7.5786 77.063-15.855 85.279l-0.7354 0.437c-1.178-9.2408 1.9077-18.581 3.6389-27.64 3.6387-19.045 5.3145-40.259 12.952-58.077zm-321.3 1657.6-6.918 11.06h-3.8269c-8.7874-14.909-6.9236-32.494-11.967-48.808-4.0427-13.084-11.121-25.765-14.229-39.01-1.9189-8.1567 2.1567-10.772 6.614-17.254l5.5359 0.52 15.401 57.546c2.5715-7.1506-3.8765-20.401-4.8608-29.033l2.3669-2.5271c18.698 36.187 21.421 29.92 24.277 41.238-1.51 6.5364-2.6272 10.081-7.0181 15.208l-3.4341-2.7927-7.4045-11.829-1.6702 2.179c6.72 22.494 5.6709 19.121 7.1336 23.503zm-195.93 98.159c3.8713-5.8013 4.4133-4.551 10.828-6.1162l1.7808-6.2986c18.648 26.577 45.983 55.699 71.946 75.098-14.732-30.454-45.064-56.932-65.006-84.76l1.8413-6.9568 2.1069-0.4592c11.299 0.7231 11.985 6.3596 24.211 20.948 18.854 22.505 29.579 37.086 50.401 57.425l-19.178 26.489c-10.153-2.345-19.444-10.148-28.994-14.533-12.332-5.6606-52.921-14.689-62.789-47.011l2.7705-4.3413c25.735 13.477 43.272 34.665 61.506 41.83-13.504-19.942-40.469-31.886-51.425-51.314zm38.031-35.227-4.1255-7.6316 4.9717-6.9514c15.596 6.1177 47.116 63.843 71.924 71.985-5.9832-26.213-59.924-66.168-60.681-80.242-0.116-2.1404 1.1724-4.1309 1.7585-6.1936 2.6768-1.7422 3.7549-3.2849 7.0286-3.0691 20.854 24.349 46.336 47.487 63.596 74.242-2.5662 7.2886-4.9109 11.27-11.702 15.263-1.2329 8.6987-3.4451 11.469-8.9087 17.917-7.447-3.8457-5.26-2.4241-63.862-75.32zm27.678-40.812 3.7991-8.2952 4.9221 1.5264c12.675 19.764 25.742 39.175 35.299 60.698-16.74-15.783-33.131-33.512-44.02-53.929zm30.189 13.422c-4.7612-9.1577-12.327-19.018-15.02-28.928-1.0671-3.9207 1.9524-6.188 4.0264-9.3789l4.988 0.3706c15.66 31.275 27.243 60.39 48.814 86.728l-7.2002 11.657-3.8376 0.2822c-11.94-19.792-21.136-40.292-31.771-60.731zm12.559-22.203c-4.0483-8.1899-9.4841-17.558-10.214-26.721-0.3875-4.9219 3.8435-7.8694 6.7522-11.503 5.79 3.1245 14.207 27.042 17.403 33.65 9.3845 19.383 21.595 35.304 32.749 53.448l-8.2068 12.443-3.9429 0.3596c-13.809-17.718-24.543-41.443-34.541-61.677zm8.1455-47.902 5.2871-9.6777 4.927-0.6912c18.052 23.969 21.364 53.936 42.328 80.877 0.4312 7.7754-2.5715 10.192-6.52 16.59l-3.4285-0.5474c-15.595-28.546-31.278-55.909-42.593-86.551zm21.568-17.359c-1.8857-7.958 1.9631-10.728 6.1108-17.204l5.0103 0.5198 19.842 53.399c3.9209 9.5779 10.844 19.665 13.051 29.702 1.5925 7.2446-1.3882 9.7883-4.8779 15.921l-2.2727-0.3372c-14.605-16.612-31.781-60.538-36.864-82zm43.632-41.869c-5.093-12.354-0.26-19.178 4.5735-30.636l3.0854-0.9514c6.8882 8.0527 3.7217 21.349 15.374 46.575 4.8606 10.513 17.077 26.926 17.077 38.257 0.0054 4.5955-3.8767 6.9678-6.7581 10.131-13.255-11.254-26.494-46.724-33.352-63.375zm20.18-50.058c1.1333-4.8997-1.7976-7.5869-0.4756-13.759l4.1641 0.5034c11.331 10.468 13.742 38.561 18.94 53.415 3.136 8.959 7.759 17.365 10.928 26.268 4.1587 11.713 1.2329 14.296-4.0481 24.886-12.816-15.049-35.664-64.722-29.508-91.313zm-346.79 479.31-55.655-1.4763-19.864-26.716 75.519 28.193zm-934.36 326.44c-13.985-16.312-41.793-47.939-48.847-68.38 24.176 11.993 18.404 20.302 108.11 72.439 86.513 50.269 180.57 80.031 275.55 109.36-28.491-28.685-77.626-49.859-111.97-71.99-148.94-95.94-305.82-203-414.1-342.09-83.31-107.01-180.37-317.14-201.18-482.19 60.409 154.5 248.7 422.15 456.74 564.01 28.734 19.593 59.537 35.52 89.776 52.547 16.928 9.5339 31.245 20.135 49.218 28.398-22.955-27.75-54.71-49.838-81.906-73.296-174.29-160.78-179.37-160.27-309.15-332.34-57.668-77.217-112.42-155.19-158.11-240.24-11.74-21.855-26.102-45.22-32.462-69.237-7.6921-29.044-3.1741-67.854-3.1078-98.015 12.386 16.619 12.672 49.068 56.407 105.91 205.03 266.38 292.14 329.94 721.29 706.47 124.64 101.84 79.718 66.926 195.24 150.6 29.232 20.146 73.091 40.419 94.493 68.274-36.46-9.2793-68.081-27.904-99.951-47.398-503.2-341.13-482.29-335.53-578.63-434.28-13.548-13.88-28.568-33.308-45.009-43.361 8.9259 25.101 27.452 47.791 42.726 69.347 93.822 132.44 147.16 166.1 255.16 250.66 202.47 164.17 146.71 120.53 234.89 185.72 9.4175 6.6526 23.547 13.709 31.112 22.209-13.975-2.9092-31.052-13.98-43.876-20.495-102.24-49.594-48.546-25.643-244.23-108.01-29.138-12.012-57.889-26.473-87.542-36.919 8.5154 11.493 2.229 5.8154 90.024 59.636 60.876 38.573 236.45 158.34 303.65 180.45 11.624 3.8271 23.176 5.4971 34.397 10.74-48.294 5.082-91.092-4.396-138.78-7.1948 47.797 38.717 92.552 59.797 151.08 77.991l-16.247 77.449c-148.93-47.094-214.77-73.415-351.01-148.38-82.769-45.535-161.64-95.953-223.75-168.39zm444.51 512.67c-97.591-52.694-131.22-93.602-175.86-135.16 70.409 39.048 142.34 73.279 219.56 96.771-37.326 32.475-34.558 33.119-43.699 38.39zm491.18 101.81c38.987-35.785 77.847-78.113 100.6-126.4-43.163 29.854-116.18 60.812-139.15 64.984 21.775-18.373 88.824-50.691 127.87-111.75-27.348 15.538-102.81 81.165-234.14 114.96 80.982-62.047 176.21-160.5 190.33-266.12 4.1418-30.969 2.0186-76.31-11.901-104.93-11.06 19.958-18.974 41.337-29.287 61.677-69.16 136.44-145.56 287.74-304.37 332.88-73.063 20.77-115.18-17.263-172.43-55.306 37.617-1.6533 66.682-17.574 98.568-39.12 19.516-16.153 47.172-37.317 58.182-60.593 22.093-46.712 12.332-104.91 32.169-153.7 12.144-29.862 36.781-53.515 52.973-81.326 18.554-31.859 30.134-68.225 74.385-64.144 38.174 3.5171 72.948 23.193 96.722 53.084 19.797 24.896 29.901 53.094 40.84 82.564 7.9797-33.612 9.4509-64.37 1.3936-97.821 25.411-15.479 52.309-34.558 80.198-44.977 10.833 5.1099 22.297 10.076 30.919 18.631 29.578 29.336 98.396 269.57 55.257 356.63-29.061 58.647-91.982 94.338-149.11 120.78zm139.5 473.11c-6.448-9.0474-4.1362-29.691-4.3796-40.702-1.8809-85.266 3.3655-208.82 55.904-276.49 17.552-22.601 41.011-41.442 64.132-58.066 6.4878 16.172-91.207 78.617-115.66 375.26zm-4.0315-479.3c-21.49 12.785-43.372 22.978-66.566 32.268 68.511-57.592 92.066-82.367 112.42-168.13 14.019-59.062 18.493-119.44 8.8262-179.64-11.436-71.244-32.65-112.87-92.331-155.6 18.089 0.8545 112.21-6.9146 152.33 52.093 66.824 98.264 18.425 331.84-114.68 419.01zm155.32-547.01c-27.094 38.52-24.675 38.069-59.106 59.366 52.165-84.041 90.317-178.5 128.64-269.49 9.7607-23.171 23.824-47.443 29.248-71.852-13.602 15.463-76.939 133.22-163.85 228.56-12.332 13.532-26.672 31.377-42.969 39.523 4.0093-10.441 15.153-21.374 22.198-30.216 53.858-69.824 28.042-34.252 116.15-161.06 62.004-97.573 101.55-209.09 168.25-302.9-82.057 252.46-125.11 403.68-198.55 508.07zm219.48-586.82c-31.302 80.225-201.52 201.28-278.51 247.89-60.776 36.792-132.27 69.684-182.39 120.54-73.527 74.604-104.82 221.07-133.4 256.65 3.5945-32.965 15.921-62.678 26.605-93.785 7.4504-21.685 13.183-42.492 22.372-62.649-20.138-2.9026-38.475-25.26-54.95-36.793-9.1743-6.4204-19.372-10.446-29.746-14.494l63.624 65.659c-13.024-2.8726-48.261-50.307-82.265-67.301l-15.219-7.6096 63.684 69.381-0.2043 2.7649c-34.701-34.469-78.422-65.354-124.56-82.487 25.371 45.622 55.386 55.25 64.929 72.51-22.58-5.175-47.048-36.04-98.756-70.503-12.321-8.2126-25.975-14.047-39.463-20.047l46.84 42.073c-35.055-15.34-61.488-46.679-96.245-61.506 37.52 44.663 118.62 97.28 132.25 115.74-20.931-0.8792-60.14-31.394-79.451-42.692-121.29-70.939-233.66-153.52-363.86-246.34-347.07-292.96-409.08-344.23-470.2-406.1-127.19-128.76-150.71-200.19-196.36-238.61-9.5507-46.386-9.8104-113.65 1.3605-159.62l20.107 90.787c35.785 129.5 146.4 220.63 242.57 306.59 27.778 24.837 53.242 54.666 85.49 70.813-14.698-20.077-26.763-28.805-44.235-46.077l-63.203-66.98c-133.41-152.2-232.15-332.18-237.25-351.54-5.8107-22.076 7.0426-84.297 35.526-133.92 0.5859 27.683 1.6698 52.121 12.68 77.98 23.823 55.937 65.399 105.35 101.03 154.24 221.79 304.29 361.86 445.08 536.86 603.73 112.09 104.23 182.3 184.09 431.84 223.91 91.581 14.614 152.77 30.151 239.21-3.9761 48.294-19.068 92.911-49.207 136.44-77.123 75.608-48.493 148.19-96.594 210.27-162.28 21.263-22.496 46.685-49.362 55.389-79.716-24.238-93.703-36.919-107.51-20.755-182.74 8.312 19.178 16.778 38.312 26.838 56.65 71.011 129.43 62.784 117.3 55.108 136.97zm5.1543-476.46c-15.987 82.625-67.839 148.83-98.834 224.86l-6.2271-0.8958c-1.3269 8.5339-2.8958 17.899-9.0305 23.962l-3.3845 2.0791-7.5981 12.669h-3.0142c-12.288-24.841-27.927-74.009-22.85-100.92l4.5125-13.433 3.1301 0.0718c19.653 89.81 19.853 94.488 25.82 101.62 1.5652-46.944-26.507-89.985-13.388-135.26l7.001-24.565c2.1841 45.496 8.2617 83.538 20.517 127.36-0.8181-54.25-19.073-107.74-2.0959-160.83 1.1624 13.614 8.9075 116.17 17.342 126.87 0.0552-7.1448-0.293-12.785-1.4934-19.825-2.7927-16.391-2.5493-34.104-3.4504-50.76-5.0447-93.542-1.7332-92.231 8.2007-158.63l2.2954-2.7485 2.2783 214.1c14.212-45.623 5.1707-97.805 4.4961-144.99 3.1379-157.24 1.446-166.29 10.192-188.16l7.3381 289.08c10.894-12.249 3.6501-195.77 3.1414-225.43-0.3208-18.448-5.9395-58.354 5.4524-73.169 3.2083 13.65-1.6187 23.491 0.1553 30.388 7.7751-10.402 4.0867-39.098 11.22-42.842 0.2651 12.747-0.863 23.962-2.8206 36.51-7.8308 50.147 0.0222 108.06 1.0454 158.92 0.564 28.005-2.9424 59.659 2.0125 87.11 20.231-110.34-11.823-237.42 10.851-271.48 0.2156 6.8076 0.2209 13.084-0.8186 19.831-5.1487 33.441 2.2229 72.273 4.6121 105.96 1.8638 26.273 1.7087 53.172 6.896 79.08 9.9885-69.265-12.317-155.16 4.2639-239.56 3.9482 19.522 0.7688 39.435 1.6812 59.238 2.2114 47.946 4.0588 99.354 11.076 146.87 15.263-35.896-15.164-201.18 3.7275-220.66 5.7236 12.886 2.9695 39.015 3.4287 53.67l3.5005 113.1 3.0303-0.0278c12.915-77.866-4.9841-170.19 10.795-210.06 5.0046 8.2014 1.3772 29.956 1.7808 40.503l3.3953 142.7c18.788-50.444-8.6335-155.32 11.95-218.36l4.0647-13.278 1.991 93.536c-0.1604 21.086-3.9153 46.392-0.6526 66.793 13.419-36.109 5.1001-164.53 16.181-189.07l3.0361 1.0618 2.6934 120.26c4.7722-12.072 3.9482-25.56 4.728-38.39l5.2979-48.969c5.2537-36.714 17.868-70.381 24.548-106.19l1.4319-1.3716c0.4314 20.102-3.9373 40.646-5.834 60.715-6.5906 70.016 2.2983 85.274-73.097 296.67-6.1821 17.348-12.393 47.404-23.635 61.71l-2.8867 2.5656zm102.43 1032.6-48.786 6.5139-34.552-191.33 87.419 180.52-4.081 4.2969zm730.82 539.86c19.013 30.898 57.059 125.9 80.64 253.47-41.962-76.52-58.879-169.34-80.64-253.47zm102.31 89.306 2.7817 2.1621c28.928 75.696 51.292 156.2 58.663 236.96-19.527-43.972-36.875-131.5-61.445-239.12zm135.23 298.62-2.6709-0.9565c-21.092-54.219-53.706-374.72-145.53-668.19l2.9033 1.2886c69.012 146.62 142.75 427.53 145.3 667.85z"/> <path d="m2898.4 3967c-0.0176 0.0383-0.0374 0.0762-0.0547 0.1145 0.0732 0.0105 0.1455 0.033 0.2188 0.043l-0.1641-0.1575z"/> <path d="m2908.8 3942.7c-25.178 2.6113-0.1797 0.448-57.181-20.671l46.764 44.896c3.054-6.6892 6.4871-13.307 10.494-19.861l-0.0774-4.3633z"/> <path d="m1806.5 452.24c14.041-14.489 40.746-34.513 48.394-52.708-25.693 11.154-43.373 33.816-60.372 55.057-6.177 7.7149-14.671 16.773-18.719 25.792l-1.2444 4.3304c12.023-8.5384 21.639-21.843 31.942-32.472z"/> <path d="m1567 827.8c8.2618-7.4434 17.149-14.417 22.38-24.366-8.4447 3.0912-16.972 11.469-24.587 16.712-91.909 58.413-50.544 31.421-138.2 76.818 19.702 0.4666 86.726-20.823 140.41-69.165z"/> <path d="m3608.9 1561.1c6.4758-22.391 13.262-45.474 15.761-68.695 5.7791-53.769-2.9973-134.96-37.997-177.86-28.496-34.921-0.4961-16.451-60.892-74.358 38.357 147.46 25.22 84.73 26.063 189.03 6.8076-18.15 13.997-47.625 8.8867-66.82-1.5645-5.8785-1.4543-9.9429-1.3931-16.07 5.1318 6.8572 3.1628 15.777 4.6343 24.161 8.7578 50.032-12.912 90.198-19.472 142.65 22.32-31.494 34.536-52.481 37.362-92.159 9.5229 31.433 5.696 71.438-9.4177 100.08-33.971 64.398-94.648 122.36-151.48 166.41-15.866 12.293-45.319 28.668-56.357 44.368 11.216-0.4617 80.366-27.009 122.5-54.267 54.24-35.083 107.18-112.85 114.78-177.79 2.9749-25.405-3.1138-53.437 2.2229-78.118 8.1624 26.069 9.0417 51.778 4.2361 78.682-36.648 205.21-213.46 263.84-264 298.41 49.361-10.01 108.48-20.87 149.01-52.768 60.953-47.974 94.41-111.82 115.55-184.89zm-39.369-216.08c-3.2241-15.871-9.0417-31.068-11.409-47.083-8.9143-7.5541-17.773-27.684-21.506-38.699l2.7981 0.9675c9.1746 9.1412 17.636 24.786 18.708 37.732l2.9253 2.7708c8.3884 10.504 18.669 73.995 19.178 102.29-9.3903-12.293-7.582-42.609-10.695-57.977z"/> <path d="m3591.8 1637.9c-7.9463 19.405-21.02 35.879-23.862 57.131 44.164-66.616 75.204-137.88 83.925-218.03 2.8147-25.881 0.9124-53.504-0.553-79.473-15.816 76.262-9.8679 119.06-59.51 240.37z"/> <path d="m2105.9 1741.9c7.9299-13.078 17.762-26.362 24.133-40.209-16.779 16.474-34.585 32.909-49.378 51.192-46.845 57.884-82.182 136.1-88.531 210.89 59.92-135.57 35.791-91.755 113.78-221.87z"/> <path d="m2294.2 1851.8c19.516 23.99 42.311 41.332 66.842 59.753 7.282 5.4664-4.437-0.1539 144.95 58.978l-59.183-2.8038c-14.046-0.0442-47.149 4.6672-58.237-2.754-93.768 15.074-82.273 36.014-181.85 86.247-32.198 16.231-57.47 22.178-64.625 29.298 4.4133 7.2832 15.003 10.275 22.889 12.05 63.137 14.185 112.31-30.283 164.34-56.473 52.074-26.213 152.62-35.693 213.25-17.873 75.026 22.048 144.61 89.914 198.26 144.36-4.6287-12.802-9.3291-24.537-15.982-36.438 7.2578 1.0991 9.5662 5.8374 19.029 20.566 2.7488-3.2185 3.4788-4.9492 7.5266-6.459 6.1272 5.2261 7.7253 7.8306 15.888 8.7266-0.3376-6.3984-2.2288-6.9626-6.1443-11.774 8.6106 3.0969 16.436 13.394 24.023 19.029 45.214 33.606 70.559 120.52 77.792 173.83 9.304 68.6-0.4556 102.97 1.6538 132.36 30.721-109.73 3.6558-233.77-51.95-328.31l-2.9424 1.3879c-26.107-38.512-50.5-70.415-83.288-103.37l2.2339-1.6093c34.419 20.207 49.882 61.489 77.101 88.144-6.7859-35.666-52.773-68.891-59.371-86.685 23.702 5.9451 38.97 36.41 54.162 54.018l2.605-1.3325c-9.6941-17.116-23.193-33.042-34.934-48.87l1.9136-1.4985 12.443 8.6877 2.2339-6.1163c8.5056 2.3724 13.51 14.03 19.886 20.799 0.7688-6.9458 0.033-13.134-0.8237-20.008l3.5886-0.5916c17.903 22.977 10.09 33.155 16.253 42.31 1.2495-1.4653 4.0864-2.4995 3.7493-4.3909-0.1548-0.8848-5.353-5.7622-5.7568-6.9124-0.9951-2.8259 1.2004-13.753 1.5151-17.337 5.6804 8.9666 9.0667 14.797 17.42 19.554l5.5303 0.1548v-3.3015l-3.1465-2.4607c-7.7085-6.6116-11.002-40.571-24.067-68.335-14.436-30.66-75.894-73.772-108.82-84.384-40.581-13.073-124.83-10.367-201.31-25.533-72.277-14.326-88.265-50.636-197.76-49.5 32.611 26.517 73.329 44.689 103.74 72.444-119.93-58.763-110.45-54.738-120.64-57.579z"/> <path d="m2236.7 1908.6-7.178-10.8 1.3823-2.8149c28.292 23.672 45.02 19.622 53.294 24.731l-39.468-4.9937 5.53 6.1716c41.669 13.416 72.92 1.4932 114.32-2.7207-7.6648-4.7893-15.871-10.585-24.382-13.593-36.793-13.01-125.35-18.049-143.59-52.248-6.0005 4.087-8.7542 19.234-11.088 26.583 16.115 12.228 32.65 21.57 51.176 29.685z"/> <path d="m2923.6 2040c31.594-24.305 47.553-59.531 53.034-98.264 3.6772-25.98 4.8164-62.628-3.0637-87.956-2.5112 68.877-22.248 123.8-53.631 183.85 2.461 2.4719 1.1114 1.9302 3.6607 2.3723z"/> <path d="m2151.1 1906.3c-3.6001-4.4464-6.2434-8.5663-11.237-11.608l-22.557 8.7317c-0.8938 5.9838 2.7754 16.526 12.21 23.608-12.741 2.6489-33.728-5.0602-46.524-7.9136l-2.0405 3.766c5.1316 10.236 7.0894 17.364 18.631 21.805 18.78 7.228 42.941 4.4242 62.678 9.9044l-99.851-1.2607c13.018 12.47 22.468 19.659 41.387 20.704-11.796 8.146-56.23 0.0277-72.726 0.9457 8.157 3.9373 16.966 7.5487 24.272 12.907-8.6217 0.7133-17.055-1.4214-25.499-2.9644l0.6136 3.3348c61.286 18.738 159.59-20.276 188.4-28.049 27.855-7.5206 54.875-11.038 81.801-22.159-51.097-10.952-120.87-35.056-156.84-72.953-3.2627 5.4916-3.3125 5.2538-1.7861 11.564 6.7781 28.015 24.306 33.149 65.156 57.524-30.59-3.3368-30.684 3.4995-56.092-27.888z"/> <path d="m2912.9 2045.9c6.7747-44.446 30.261-100.89 2.4775-143.04l-0.8735-0.7411c5.3533 47.946-20.784 110.58-6.5425 143.26l4.9385 0.52z"/> <path d="m3018.9 2432.7c-16.644 124.46-6.2942 164.21 12.608 266.73 8.3469 45.245 20.755 99.154-9.2351 134.84-32.923 39.185-57.774 24.929-130.17 20.34 12.714 16.352 18.498 36.067 25.588 55.273-9.2021-3.4951-17.121-9.9763-25.212-15.54-4.6729-10.651-9.1467-20.572-16.916-29.392-40.162-45.626-118.42-114.33-162.62-73.13 1.7834 7.1387 0.6162 4.6665 25.914 33.291-55.93-32.484-92.27-71.734-93.254-136.33-0.4863-31.577 62.429-47.476 81.663-67.119l-5.1428-3.5559c-48.732-6.6799-101.16 36.968-137.79 72.383-50.794 49.118-89.477 97.551-118.94 162.09 22.998-22.754 46.32-66.923 154.22-149.08 14.572 49.373 17.906 121.61 75.746 139.94 20.992 6.6526 44.678 6.343 65.084 13.604 14.461 5.1484 27.933 20.129 40.082 29.415 11.877 9.0759 67.379 43.456 74.319 57.613 0.1216 0.2427-3.4839 8.9146-3.6941 9.373-13.756 30.551-40.188 55.586-34.746 86.474 1.5759 8.97 6.0608 12.769 13.643 17.293 7.2166 4.3079 12.824 8.4888 20.97 6.2102 5.9226-9.8545 6.6638-12.034 6.8574-23.503-4.7671-3.4727-7.7422-6.0776-10.933-11.06 4.7947-25.262 25.909-45.852 34.712-76.37 111.15 46.479 140.37 101.11 183.42 142.14-6.1824-50.277-15.672-153.76 2.5217-201.26 19.593-51.148 64.438-96.583 62.844-145.5-0.7021-21.551-11.348-40.834-19.709-60.267-7.8416-18.222-13.04-37.677-21.263-55.605-12.813-27.922-29.94-50.562-38.755-80.673 8.9092 8.1995 5.0769 5.1382 56.252 90.849-5.939-35.68-23.807-78.085-41.028-109.88-2.6709-4.9275-4.468-8.4001-5.353-14.058 16.662 11.973 24.742 46.835 35.005 65.029l29.199 47.111 2.9641 0.3096c-16.032-30.134-25.289-60.422-37.936-91.844-7.0178-17.431-19.853-38.241-20.672-57.037 5.4919 5.2974-0.0286-4.3459 58.143 132.78-3.6355-22.039-12.168-40.156-17.564-63.684 7.1338 5.823 13.61 18.857 18.575 26.666-15.907-54.296-55.742-113.28-57.203-140.06 8.0017 7.499 10.546 20.699 15.418 30.487 14.943 30.006 32.633 63.9 56.247 88.028l4.3909-0.8184c-11.956-22.453-27.158-45.446-40.845-67.003-5.4365-8.5659-18.188-23.094-18.299-33.219 31.287 32.899 45.435 75.551 108.63 109.61-66.769-85.45-119.81-160.49-139.35-290.49 11.165 6.3154 25.455 31.411 33.678 42.09 32.772 42.576 82.277 88.105 134.97 104.15 57.596 17.536 128.96 4.6672 181.27-23.829 77.04-41.962 103.83-113.15 126.44-193.03l9.9099-5.5303c-44.85-19.826-44.304-39.244-75.214-61.417-57.873-41.514-124.04-52.591-194.07-40.751-58.685 9.9209-135.82 45.126-171 95.079-0.1655 6.1494 0.5259 7.178 3.5562 12.62 11.038-3.3013 22.01-9.6443 33.352-7.2666l65.775-45.004c2.5271 25.294 6.2932 50.7 26.754 68.275 30.129 25.874 101.87 25.544 133.52-18.874 14.064-19.746 16.525-40.898 19.964-61.6 20.854 11.591 44.606 25.654 58.906 45.115-0.6689 10.734-7.1501 16.114-15.208 23.083-24.227 20.953-56.086 25.466-79.788 43.654 42.963-9.8438 77.549-22.347 113.88-47.951 6.0225-4.2417 5.5078-6.708 12.531-3.1631-0.5906 20.654-82.392 82.438-183.07 73.898-45.172-8.7051-86.022-20.143-131.07-40.945 15.472 30.709 13.261 32.473 77.93 53.648 51.436 16.834 103.71 24.46 157.87 21.457-26.909 8.3503-60.411 14.948-85.573 27.38 66.602-3.5823 77.077-18.724 102.36-20.235-31.743 18.548-66.549 28.181-99.393 43.638 26.948-1.3716 53.714-14.506 80.75-18.272-30.52 15.805-61.5 24.531-94.659 32.766 30.194 0.5859 56.562 2.0903 85.429-8.7375 4.5847-1.72 2.605-1.5652 6.5479-1.0398-38.418 29.11-78.207 50.562-128.28 42.715-62.438-9.7864-144.94-99.714-152.86-148.1 12.061 12.503 18.747 31.859 30.592 45.646-2.6101-10.734-4.8335-23.287-10.413-32.899-9.158-15.783-21.33-23.956-32.484-37.035-8.4609-9.9265-13.881-21.96-19.51-33.606 26.213-46.619 162.95-151.3 293.95-132.05 102.71 16.306 119.98 91.656 145.47 107.65 18.399 11.542 35.841 19.156 56.772 24.869l-27.507-25.604 5.0159-4.6121c-12.078-17.746-25.77-36.04-32.782-56.446 23.308 13.01 27.688 59.545 64.935 65.869l2.0903-3.8765c-33.365-27.054-24.674-30.206-43.002-48.565-23.402-23.444-47.823-40.003-73.45-65.985 11.525 2.6379 22.071 11.054 32.036 17.315 12.388 7.7751 26.75 14.472 38.086 23.619 29.968 24.183 48.93 51.17 86.341 65.88-157.1-126.57-121.68-100.36-170.68-118.63-26.395-9.827-46.989-18.702-75.115-23.785 33.324-2.6379 64.276-0.7355 97.236 4.391 20.588 3.2019 36.238 13.593 55.815 18.996 5.7791 1.5925 7.4438 1.5706 11.928 5.9226-32.462-2.5217-62.324-16.48-95.394-16.032 24.52 10.237 46.221 11.768 67.804 23.503 21.805 11.862 61.517 21.18 73.136 45.502-19.635-8.6802-30.211-26.768-49.677-29.309 6.05 6.3762 14.141 9.8047 20.721 15.678 18.214 16.254 42.381 48.99 74.656 47.089 20.912-34.079 7.1682-164.75-52.536-201.14-23-14.013-50.092-16.126-76.039-20.412-57.349-9.4709-103.26-21.262-157.46-10.994-21.413 4.496-44.191 17.204-64.254 26.074-117.12 46.112-152.82 63.05-194.34 63.286-48.102 54.263-101.25 83.955-132.4 154.91-4.9106 18.592 27.999 91.18 34.541 112.32 22.298 72.047 8.7461 119.05 2.3012 167.21zm302.85-241.22c-13.278 3.3845-33.07 0.603-44.329-7.3438-7.9468-5.6077-9.9434-10.109-12.432-19.355 2.1123-7.1672 2.71-7.8196 8.3726-12.742 8.7983-2.5439 10.894-4.1255 19.782-1.084l2.0845 8.2952c-4.4292 3.7053-7.1338 4.5293-12.791 5.5303l-0.0771 5.53c7.2949 5.4531 21.985 9.385 32.058 5.53l4.5955 5.5303c5.5972-1.2898 7.6624-1.8916 17.929-1.1448-4.3139 6.9236-7.0898 9.1963-15.192 11.254zm-183.88 99.11-0.835-0.437c-12.609-11.231-23.033-32.849-26.318-49.323 9.2463 6.9295 24.061 38.003 27.153 49.76zm413.85-332.26c-44.363 22-47.911 27.319-76.498 24.294l-1.3711-3.1025c33.27-4.3927 24.549-2.4948 48.869-11.397-19.172 0.2489-35.608 0.47-54.427 4.4905v-3.2627l8.2952-5.5138c13.477 0.7247 25.3-1.7142 38.368-4.4683 10.673-2.3888 25.588-0.7963 36.764-1.0397zm-55.776-2.9695-51.286 16.153-21.988 3.1687-0.8682-2.2949c15.169-10.231 32.473-17.99 50.456-21.435 7.0066 0.4589 19.107-0.6083 23.686 4.4075zm-47.006-8.6603c-2.5825 2.7375-13.61 6.3762-17.364 8.146-15.362 7.2333-33.086 18.869-49.494 22.894l-3.6497 0.3981c14.185-14.317 53.559-36.653 73.6-37.5-1.0287 2.0186-1.5373 4.4075-3.0915 6.0609zm-49.5-14.185 5.3254-1.6537c6.2986-1.3491 13.715 0.6415 18.664 4.4188-29.189 10.518-77.795 50.12-101.61 44.24l77.621-47.006zm-36.189-5.53c5.6411-1.2609 5.8013-1.8969 11.641 0-26.19 15.385-51.048 30.205-80.795 37.422-5.0872 1.1448-5.6072 2.1956-10.535-0.094 23.84-14.76 54.256-24.272 79.688-37.328zm-278.58 763.87c5.2974 9.4285 12.912 20.074 15.473 30.57l3.2183 7.134 2.8982-10.767c10.319 17.182 12.94 50.014 8.4111 69.734-6.2129 27.053-24.262 24.102-52.315 35.68-5.8508 2.4167-12.714 8.1455-18.476 9.3237 17.564-48.206 36.875-89.577 40.79-141.68z"/> <path d="m3037.9 1920.4-3.0527 1.8855c-14.904 28.74-30.764 68.408-37.842 100.04 20.813-13.482 44.551-68.138 40.895-101.93z"/> <path d="m2858.6 2071.4c1.637-1.8469 3.9873-3.9541 5.0876-6.1494 1.4543-6.3984 1.908-9.2356 5.9727-14.561 1.1777 4.5129 0.9233 8.1404 0.8125 12.769l4.3579-0.9734 15.374-28.624c13.173-21.756 13.488-81.348 10.977-108.02-6.603 27.086-13.195 56.164-25.134 81.503-5.0437 10.706-16.193 22.258-19.505 33.026-1.6257 5.3088-0.575 8.5935 0.0608 13.792 0.7024 5.7073-0.8074 9.1523-2.5825 14.522l4.579 2.7206z"/> <path d="m2893.2 2034.9c-2.5935 6.8186-4.8887 12.758-5.4414 20.13l2.6489 2.7815c4.6396-8.5164 6.4812-10.812 6.2766-20.749l-3.4841-2.1621z"/> <path d="m2345.5 2113.7c1.7087 54.204 59.564 83.133 116.6 76.946 17.497-1.8967 34.602-9.5117 50.008-17.669 25.59-20.33 40.094-39.033 32.307-78.975 50.219 13.389 87.702 47.034 128.65 77.305-23.453-5.6406-33.33-11.115-56.047-0.188l-0.979 1.9966c84.915 22.437 90.545 25.029 100.27 22.43-13.499-10.673-30.681-10.717-46.21-16.911 12.144 0.083 23.531-0.5859 35.548-2.3613l-15.479-13.15 0.116-1.8303c12.033 6.7021 23.713 13.349 36.582 18.36-40.995-59.908-120.11-112.72-191.56-126.17-26.406-4.9717-54.294-6.465-81.082-4.9827-66.312 4.0835-86.317 6.2554-159.45 35.216-27.988 11.077-73.987 34.286-104.93 25.223l-1.106 4.7559c19.208 29.13 60.933 8.2205 85.048 10.928-28.602 14.036-61.002 21.412-92.873 18.078-9.3347-0.979-18.614-4.1807-24.46 4.1753 2.6379 5.5081 3.5283 6.6414 9.6445 8.9031 50.822 18.786 112.58-15.882 157.04-36.222 22.313-10.228 16.306-9.6492 22.369-5.8511zm133.98 35.863-3.8767 5.0269c-5.3806 0.7852-14.113 2.4717-19.356 1.2109-7.3438-1.7695-8.3945-4.2415-11.408-10.314l3.9758-11.06 4.1919 0.061c8.2232 7.073 16.751 10.518 26.473 15.075zm-88.227-42.786c13.676-14.987 29.641-16.463 48.654-20.091 5.3142-0.4646 8.9639-0.0608 14.179 0.7354-0.011 8.3174-0.9568 10.021-5.0156 17.381l-6.6472-0.9512c-4.7615 2.0791-10.441 3.3955-13.482 7.7751-7.5703 10.91-3.8174 21.092-0.177 39.595l-8.7595-0.2043c-10.352-4.3301-20.008-8.9033-25.45-19.355-4.3798-8.4001-5.5302-15.81-3.3014-24.886z"/> <path d="m3179.3 2195.6-2.4995-3.1082c-7.0508 6.0225-10.02 9.3569-13.632 17.884l2.1179 4.2358c6.3542-6.1991 10.319-10.9 14.013-19.012z"/> <path d="m3113.1 2198c-0.3374 8.3838-1.1946 12.675 4.3853 19.356 6.8188 8.1733 27.435 24.51 37.765 24.886-21-20.525-35.843-20.671-39.126-42.858l-3.0249-1.3826z"/> <path d="m3133.2 2214.9 12.343-0.0168c7.156-6.0276 11.248-9.8381 14.649-18.653-4.0259 0.603-8.8923 1.0232-12.631 2.8867-7.2889 3.6333-12.598 8.0408-14.362 15.783z"/> <path d="m2413.4 2375.3c71.725 19.953 168.08-14.544 230.34-49.489 31.986-17.95 50.572-45.496 76.785-69.768 19.814-18.349 38.241-22.679 54.217-47.161-14.024 5.1096-26.013 12.321-38.688 20.03-73.749-41.846-202.66-0.7412-269.12-1.9353-51.463-0.9236-93.973-14.837-142.9-27.65 74.378 61.729 117.08 52.72 212.42 50.672 33.934-0.7266 31.784 3.3284 63.563-5.7512-13.189 9.4219-6.9658 6.8445-139.61 22.856l-0.0164 3.0747c44.03 1.4543 90.185-5.0767 132.85-16.165 13.698-3.5559 28.27-4.0481 42.344-5.2039-62.713 28.042-163.72 30.884-186.07 41.26 168.47-1.155 191.47-27.748 200.26-19.599-19.361 15.665-89.346 23.218-135.39 49.312 19.051-3.1519 86.114-23.536 99.448-19.106-26.082 15.653-74.325 27.203-111.01 40.58 18.719-1.2388 39.49-5.6682 57.928-4.7114-106.9 38.877-134.78 27.924-147.37 38.755z"/> <path d="m1821.9 2476.8 2.3226 1.814c-3.13-9.1301-8.4664-20.793-6.3375-30.416 14.218 34.659 19.32 51.96 35.868 58.492 21.412 33.833 51.546 70.077 86.198 90.915l-86.822-249.93c-1.941 22.684 5.0656 45.148 9.0306 67.346l-36.244-108.94c-1.847 7.9246 0.9458 19.206 2.0627 27.424l5.5134 49.782c-8.6156-24.752-11.353-54.748-23.425-77.482l-4.0038-0.6582 17.973 120.58-60.178-216.7c3.3125 78.079 20.732 146.02 42.477 220.6 4.1752 14.328 4.7337 35.774 15.567 47.182z"/> <path d="m2074.2 2748.4c-127.09-290.21-126.61-293.05-141.86-308.27 10.957 61.218 20.469 75.03 21.805 90.793-27.401-48.858-39.756-104.06-72.101-151.04 33.647 147.45 69.304 245.3 192.15 368.53z"/> <path d="m2004.4 2547.8c4.3859 25.993 46.707 146.21 78.466 203.87 13.82 25.096 31.671 48.554 46.956 72.859 16.314 25.936 31.228 52.547 49.832 76.973-38.401-101.41-89.09-195.07-139.55-290.71-9.0031-17.071-20.445-52.093-35.708-62.993z"/> <path d="m2853.8 2748.2 3.5945-0.6362c-7.6702-16.026-25.079-48.858-43.035-54.77-3.8044-1.2551-8.2783-0.4976-12.116 0.105l-5.8564 3.4509c24.152 13.014 37.901 30.631 57.413 51.85z"/> <path d="m3191.8 3098.4c-46.723-14.892-48.596 42.804-91.711 32.81-10.502-2.4387-21.993-9.3296-31.748-13.98-42.842-20.434-84.965-50.385-132.09-25.278-27.07 14.423-47.277 24.332-77.338 30.438-22.862-12.454-45.407-30.493-69.497-39.656-61.612-23.439-139.77 22.014-224.43 9.915-9.5286-1.3655-30.355-5.834-37.201-12.033-7.7424-7.0071 1.1775-24.206-14.97-22.723-32.876 15.488-85.366 61.624-93.713 103.69l2.0627 6.061c29.716 10.137 64.641-59.186 94.116-55.168 6.4648 7.6812 13.593 17.116 22.015 22.663 38.376 25.268 148.65 13.131 200.63 22.435 42.456 6.9839 72.623 25.742 111.66 29.884 47.288 5.0105 98.773-8.5549 146.13-13.737 72.473-7.9353 90.107 0.9973 164.3-25.206l35.022 27.844c13.553-29.793 21.909-55.844-3.2244-77.958zm-363.01 61.699c-24.609-7.5874-46.856-24.642-72.616-29.017-15.385-2.6157-34.945-0.3093-50.666 0.1938 21.268-10.673 40.071-17.547 63.524-21.717 27.827-1.532 38.561 8.6765 60.903 21.783 20.874 12.238 11.552 10.318 35.066 10.01 26.213-0.3259 53.105-10.59 79.119-6.6414l0.3264 3.3677c-15.846 7.3986-83.858 31.819-115.66 22.021z"/> <path d="m3128.2 3557.2c-5.1648-18.966-52.199-34.646-86.828-60.693l14.942 20.561c13.599 18.51 49.605 34.657 71.886 40.132z"/> <path d="m3069.8 3631.7 3.0911-1.3716c-11.143-7.5593-25.488-10.817-38.262-15.031-28.359-9.3567-52.989-17.834-83.333-18.15 10.164 5.6851 21.601 7.6702 32.533 11.464 22.408 7.7752 63.087 30.194 85.971 23.088z"/> <path d="m3045.2 3648.7-1.5098-5.5967c-37.931-12.653-91.158-36.006-131.18-32.218 10.419 7.6873 29.901 9.8162 42.775 13.682 77.492 25.099 79.465 28.053 89.919 24.134z"/> <path d="m2907 3875.1c-102.77-15.751-240.23-30.686-339.81-65.062-10.612-3.6611-31.997-15.319-42.67-13.825 24.255 16.485 48.256 33.938 74.833 46.536 81.147 38.457 249.03 74.278 338.06 50.496l6.9351-3.0195c-6.8854-9.6502-26.042-13.394-37.35-15.125z"/> <path d="m2742.5 4449.3c-8.9702 7.1777-17.58 14.206-27.59 19.919 2.251-31.953 3.4563-51.48-6.1772-82.349-12.412 67.677-78.009 124.29-135.24 162.52-21.951 14.664-35.27 22.848-56.639 29.641 18.339 20.197 129.41 23.006 208.89-49.76 13.953-12.774 26.76-26.052 27.861-46.01 0.6472-11.691-0.8904-21.319-6.0281-31.798l-5.0708-2.1621z"/> </svg>