<?xml version='1.0' encoding='utf-8'?>
<svg xmlns="http://www.w3.org/2000/svg" enable-background="new 0 0 4319.2344 5000" version="1.1" viewBox="0 0 4319.2 5e3"> <path d="m3649.6 3552c-13.217-11.41-28.331-64.232-91.446-141.46-68.218-83.465-157.28-143.34-230.91-221.49-40.198-42.668-73.734-92.533-110.88-137.96-44.693-54.673-65.918-81.128-168.14-117.3l-19.925-92.156c-2.9417-12.143-9.9304-28.492-10.774-40.525-0.1636-2.3352-1.3523 4.624 22.202-69.389 16.071 10.526 32.42 21.785 49.93 29.806 99.396 45.55 235.52 27.042 310.44-74.19-72.641 48.417-147.13 61.051-225.23 22.857 57.405 1.4636 102.1-4.7769 152.51-33.883-85.965 2.5801-73.324 2.0032-79.79 2.8772 93.902-38.433 134.49-140.57 123.6-231.11 18.135 26.369 41.884 52.643 42.068 86.303 0.1638 30.902-24.97 56.651-45.044 77.012 106.11-17.212 221.88-125.41 228.46-239.14 2.3359-40.475-4.053-57.943-1.8008-70.554 37.355 4.7317 74.224 7.8022 110.9-3.1794 60.743-18.198 114.77-68.523 126.21-93.362-0.4236 0.1411-126.49 90.336-278.16 22.112 128.32 13.226 268.94-32.561 343.63-138.38 16.716-23.685 29.091-49.597 41.626-75.638-83.027 67.755-179.62 89.348-286.81 76.03 92.002-34.306 193.95-57.512 325.87-243.86 37.469-52.921 70.658-109.65 94.105-170.22-85.114 107.45-223.72 147.04-342.56 66.74 83.113-1.1161 158.32-12.048 228.25-59.691 80.866-55.073 130.82-133.09 163.97-224.23 6.126-16.845 14.459-33.918 17.817-51.507-13.705 5.5304-26.765 17.802-40.564 24.796-51.78 26.25-103.05 45.966-160.03 57.856 22.39-18.313 45.019-35.605 65.277-56.388 82.652-84.795 133.11-187.69 170.89-298.63-60.182 61.403-131.07 115.24-215.05 138.05 28.04-78.223 37.098-151.32 23.507-234.02-71.026 148.43-184.02 202.56-287.74 190.97-34.672-3.8738-69.051-14.34-102.59-23.566 14.504-3.4325 29.553-4.3553 44.181-7.6536 128.64-29.014 241.69-125.18 296.61-247.5 9.3601-20.848 15.674-42.965 22.356-64.785-3.6062 1.7905-7.3264 8.9382-9.7224 12.262-75.838 104.88-171.83 136.31-302.73 143.48 61.883-34.707 160.61-72.759 219.03-230.07-38.69 51.452-80.296 94.939-137.95 125.09-12.296 6.4284-27.455 14.528-41.304 15.937-55.377 5.6219-177.41-31.219-228.66-50.396-115.8-48.009-75.213-32.989-178.55-67.057 27.4-5.7815 152.51 47.726 213.76 61.586 121.23 27.434 231.42-2.8806 296.47-56.244 10.876-8.9203 14.887-11.392 20.327-21.622l-34.945 19.851c-83.912 37.013-188.91 16.91-273.51-7.351-26.195-7.5148-52.598-14.652-78.064-24.429 91.606 0.997 164.52-7.351 241.63-60.996 86.338-60.06 132.32-146.71 137.58-190.04-12.433 10.571-21.31 30.936-33.417 44.736-40.857 46.576-101.39 96.208-160.21 117.99 71.005-58.099 119.06-119.53 128.85-213.62l2.2371-61.943c-5.9897 18.226-22.059 120.9-121.45 171.31-59.071 29.955-153.47 8.7897-213.15-11.344-205.93-69.465-393.95-332.92-516.66-428.8-117.38-91.716-280.49-148.03-421.68-166.66-183.77-24.256-287.23 14.226-384.33 75.518-156.78 106.63-140.36 97.546-152.23 93.561-43.685-14.729-84.056-38.336-127.66-53.483-163.03-56.638-360.26-28.07-519.69 108.86-93.75 80.528-69.377 70.836-233.1 148.4-231.15 109.5-369.69 226.37-362.09 488.81 0.9721 33.531 9.6625 68.992 8.2289 102.05-4.4327 102.38-132.45 203.66-302.71 161.93 64.989 57.469 121.81 91.308 211.1 85.846 54.002-3.2985 101.59-20.084 148.87-45.773-38.58 51.15-79.83 91.109-143.99 106.93 21.016 2.0685 40.639 2.108 58.634 14.305 4.7719 8.8092 4.5784 12.638 1.7115 22.142-10.769 35.704-43.328 70.485-76.328 86.73-74.654 36.741-169.32 1.6677-205.7-76.988-9.9502-21.522-10.555-44.186-12.128-67.414-10.987 67.776-6.731 127.74 35.069 185.11 17.922 24.588 42.38 40.237 68.005 55.688-61.532 18.323-126.17 18.025-183.58-13.224-32.648-17.772-55.574-42.99-79.393-70.906 64.413 173.03 162.6 225.14 228.89 265.8 4.4941 2.6685 13.824 6.5624 17.028 10.233-39.676-0.467-163.17-36.02-237.98-118.59-25.56-28.219-44.483-59.344-64.056-91.734 5.5307 28.898 11.106 56.794 21.671 84.383 36.562 95.454 109.59 177.3 193.6 234.04l37.658 23.73c6.0763 3.6011 15.208 7.2769 19.434 12.916-29.672 79.636-34.984 173.07 0.873 251.81 55.574 122.03 172.62 171.31 203.68 191.37-84.584-110.61-105.45-229.35-36.964-348.68-18.115 107.06-13.497 250.15 51.269 341.85 56.948 80.64 172.98 88.242 195.19 161.58 1.3987 4.6182 1.0812 24.841 3.9334 25.094 16.024 1.4236 70.298-21.33 97.87-10.025 19.614 30.69 8.7914 100.35-32.901 125.29-19.062 11.399-41.512 11.369-62.99 10.7 18.998 18.268 40.332 36.998 68.754 35.837 47.296-1.9253 78.364-34.037 86.59-36.636-3.945 15.748-42.767 47.781-85.053 50.817-60.008 4.3154-124.54-51.318-167.84-87.667 5.0182 15.363 10.866 21.353 21.616 37.509 58.184 87.427 144.26 152.3 240.38 113.5l46.884-24.439c-25.584 112.06-0.3505 175.47 117.38 237.38-70.02-74.817-78.378-145.34-50.51-223.31 4.9443 59.365 1.8065 134.17 90.588 172.25 8.5413 3.6655 29.344 7.9363 35.495 13.66 2.2902 2.1311 34.367 63.945 43.749 158.08-78.897 39.126-145.05 100.77-205.43 163.96-129.53 135.54-191.42 238.11-229.79 299.04-12.956 22.266-22.797 46.353-43.213 62.975-38.01 30.947-85.132 52.157-128.06 75.485-188.51 105.42-518.04 299.39-690.89 429.03 14.856 36.482 31.114 70.961 53.498 103.51 108.04 157.13 398.46 402.09 568.78 489.8-143.76-196.26-164.98-313.86-186.85-428.37 132.37 239.68 342.9 419.18 572.74 561.54l132.8 75.882c-37.544-49.682-57.891-111.35-72.87-171.19-71.31-284.78-20.081-540.06 9.9253-722.2 119.16-484.5 109.16-449.95 113.18-457.31-40.158 434.12-85.228 746.22 167.74 1145.6-43.506-127.68-79.743-220.11-108.1-412.57-4.5632-30.981-11.785-66.804-10.545-98.064 25.362 35.049 56.698 62.916 90.226 93.842 253.2 233.58 382.28 252.87 422.5 272.93l-124.34 7.1777c-21.711 0.6846-45.996-1.3838-67.25 2.5151 107.11 17.237 82.982 13.841 235.1 18.308-50.609 16.156-105.9 13.199-157.76 21.612 66.876 17.883 115.77 13.48 165.84 10.883-89.305 32.37-216.1 102.69-277.96 173-46.48 52.843-88.652 137.72-104.35 250.38h18.571c60.545-130.2 65.019-143.94 153.55-220.36 71.325-61.544 189.38-145.18 271.68-171.07 24.712-7.7725 38.372 0.3276 60.044 11.676l-358.28 238.8c28.478-10.61 42.397-17.871 228.25-108.32 25.377-13.07 50.336-30.163 76.675-40.6-20.293 26.669-126.37 99.871-191.14 170.92 81.414-47.128 53.995-21.327 267.04-171.92 14.522-9.6924 18.652-13.978 33.06-19.092-49.568 57.41-113.44 65.882-190.18 254.45-7.3464 18.006-16.567 36.854-22.009 55.505h13.318c25.203-31.051 45.282-65.872 67.25-99.205 56.326-85.5 75.603-106.38 151.9-171.03 22.058-18.69 47.97-44.781 74.051-57.058 14.697-6.9194 34.062-9.8906 49.96-13.735-37.663 58.852-69.914 118.04-114.42 172.61-31.704 38.874-70.095 72.356-101.2 111.23 19.213-8.856 27.506-17.883 44.602-30.208 43.998-31.672 51.249-29.085 140.3-129.61-58.901 122.88-101 153.49-108.12 172.02 20.047-10.635 31.261-25.617 48.337-41.864 51.129-48.748 85.395-92.924 111.77-159.4 8.4622-21.339 29.697-101.02 43.084-111l4.4741 3.8394c8.5613 123.76-34.786 244.59-89.666 353.42h31.358c66.173-70.709 105.16-155.11 115.13-262.27 3.894-41.884 2.3015-83.198 0.4614-125.12 52.052-13.338 106.19-36.81 155.04-58.987 159.45-72.39 178.92-84.565 404.38-249.7-3.4263 11.221-0.7144 1.4282-49.776 97.468-146.99 314.36-109.42 235.91-169.32 356.43-8.5964 16.63-18.594 30.158-24.945 48.332 6.9441-5.5278 203.17-231.87 373.53-615.48 133.85-301.39 189.43-560.9 198.71-729.61 8.7749-159.77-13.211-216.2-16.815-258.84 11.691 20.386 17.361 45.624 23.521 68.143 60.962 222.92-2.5205 479.83-50.991 699.87-86.923 296.47-47.862 180.26-174.76 511.13-60.486 147.21-33.162 86.958-122.41 266.68-51.99 87.636-50.189 82.438-52.231 90.495 565.14-221.43 785.66-475.88 805.78-483.29-11.9 31.893-88.795 173.04-173.69 288.37l-39.092 48.298c-6.5325 7.564-16.111 16.141-20.282 24.945 11.88-4.876 24.494-16.076 35.56-23.104 232.77-142.61 357.67-222.02 544.66-419.78 68.62-72.568 129.64-161.9 211.06-220.27 64.389-46.16 134.11-69.532 209.15-91.725-203.48-157.49-649.75-392.78-669.64-409.95zm-381.82-930.66c-17.797 13.69-35.52 15.699-56.799 12.544-3.8047-0.9673-4.8608-0.5059-7.4158-3.6658 31.389-3.5261 70.421-30.534 91.278-71.923l0.9968 0.873c3.8121 16.448-16.502 53.284-28.06 62.172zm97.434-387.61c-70.838-46.758-116.84-134-123.2-165.1 18.617 21.846 27.378 42.932 43.913 63.109 72.293 88.198 159.63 138.9 174.06 150.02-28.03-1.2752-72.162-33.105-94.77-48.03zm108.64 34.379c-1.7808 1.7957-0.6995 0.9624-3.3633 2.3167-0.1089-38.526 2.5349-73.094-15.495-108.67-6.3208-12.474-12.263-17.05-19.568-33.635 7.5491 3.1648 14.876 14.593 19.523 21.334 24.509 35.545 26.552 77.34 18.904 118.66zm24.816 219.09-2.9365 0.2627c19.434-45.708 37.891-86.377 49.875-135.02l1.8945 1.012c12.995 52.427-17.271 98.014-48.833 133.75zm187.88-489.33-47.157 13.001c-94.353 20.565-191.69 21.398-275.15-32.579-71.232-46.07-126.09-130.39-132.08-157.52 16.834 14.684 89.599 184.43 353.31 182.62 36.7-0.2528 72.876-5.942 109.12-11.031l1.3589 1.7112-9.4092 3.8047zm-426.7-498.83c20.239 37.658 48.5 64.584 73.535 95.787-72.4-35.519-124.12-183.18-135-192.61 17.332 168.02 122.84 347.48 292.47 329.69 24.861-2.6093 46.998-12.376 70.857-15.615-24.862 27.609-152.25 62.724-246.84-7.5795-109.77-81.589-120.57-232.06-150.63-415.96 17.778 20.589 59.763 139.57 95.604 206.29zm-0.511-147.32c20.91 6.2765 48.356 46.518 116.78 79.299 56.914 27.266 86.61 19.027 103.94 29.017-73.414 5.9281-136.86-33.76-193.34-81.263-9.5086-8.0008-21.364-16.14-27.375-27.053zm396.97 493.94c12.202-11.334 21.081-25.56 33.769-36.363l-3.864 9.9153c-71.748 116.94-207.53 126.97-304.09 62.737-45.371-30.178-76.71-73.758-104.12-120.06-7.9065-13.358-17.892-27.504-21.016-42.841 7.1177 5.8284 13.294 17.728 18.695 25.486l30.103 38.952c118.37 141.22 266.11 140.58 350.51 62.176zm86.794-29.608c119.5 12.836 150.62-11.906 180.91-12.956-21.642 16.145-64.11 22.418-89.096 25.977-38.52 5.1705-78.005-0.8765-105.33-12.396 5.7388-1.7064 7.619-1.2599 13.512-0.6252zm359.45-359.83c-8.4976 18.383-68.99 76.006-131.42 98.505-28.705 10.347-57.722 11.934-87.905 13.299 192.51-70.411 197-100.4 219.33-111.8zm-214.39-7.1129c55.402-33.726 53.713-44.978 67.687-50.44-26.123 44.11-105.93 118.05-173.66 135.66-37.192 9.6725-73.754 8.2936-111.15 0.5157l-4.2708-1.9542c20.415-5.6617 106.9-14.128 221.39-83.783zm-177.71-121c73.887-7.481 113.3-40.774 121.78-43.283-9.8013 20.163-51.874 40.168-72.588 47.975-91.362 34.444-172.23 14.727-257.61-23.759 19.672 20.744 44.002 36.705 67.975 52.038 73.827 47.215 163.46 63.729 255.47 41.676-93.881 49.449-203.46 53.856-297.36 20.709-116.87-41.259-233.69-96.913-322.09-185.32-11.528-11.533-28.988-25.411-35.982-40.128 14.122 4.0131 35.812 29.92 48.109 39.751 77.444 61.938 172.82 96.724 272 95.772-55.564-42.93-127.91-92.323-219.86-223.23-13.621-19.391-27.818-33.948-35.763-56.016 38.05 28.634 233.96 298.3 475.91 273.81zm-310.6-601.08c119.85-38.182 135.96-71.786 168.68-85.866 2.7231-0.332 5.2581-0.1339 7.9907 0-53.6 58.665-132.5 96.055-211.77 100.27l-8.5808-0.5258c7.2415-6.0068 33.977-10.788 43.685-13.878zm-1078-542.02c163.05-13.197 309.9 51.456 451.85 109.9-37.584-39.411-75.678-71.169-124.85-96.048-14.98-7.5779-110.07-42.012-113.74-46.488 174.47 24.498 331.92 112.66 460.87 230.74 51.725 47.374 98.545 99.962 152.82 144.53 115.11 94.51 160.41 104.47 189.74 126.96-25.982-4.2879-51.955-18.257-76.079-29.697-189.05-89.674-360.68-278.24-474.32-297.8 94.909 78.126 186.06 191.94 194.82 210.38-66.244-64.135-130.43-126.3-217.55-161.96 10.476 12.905 24.895 21.042 36.542 32.75l118.86 122.04c102.47 112.57 58.343 107.19 140.45 166.91 76.859 55.922 163.32 69.493 255.35 80.098-60.49 5.7984-121.5 0.5059-180.07-16.349-20.262-5.8281-44.419-18.764-64.805-20.992 39.804 45.662 96.334 142.98 294.4 189.35 27.658 6.4779 56.958 7.7875 84.14 15.079-68.902 5.3967-142.88-17.544-206.01-42.975-15.918-6.4087-35.436-19.836-51.591-23.382 8.0205 12.606 29.728 28.523 45.674 42.519 68.079 59.736 147.92 99.963 238.28 112.26 28.333 3.859 57.96 3.0654 86.492 2.5297l-2.2173 2.5991-77.707 3.626c-158.07-8.1597-285.67-107.72-388.21-220.22 2.0237 11.721 8.0901 24.732 12.202 36.031 18.338 50.376 48.784 96.213 66.209 146.24-188.84-202.73-174.66-187.63-176.9-189.69 18.243 40.857 28.74 87.885 26.527 132.63-12.009-51.298-29.131-90.172-60.485-132.74-102.8-139.52-271.37-231-406.34-240.81-18.452-1.3391-36.914 0.3967-55.282-2.4108 27.535-4.385 14.677-2.6224 56.582-7.619 111.53-5.5555 224.96 24.603 320.35 82.89 20.823 12.723 40.728 24.171 58.883 40.664-9.4143-28.19-73.203-80.311-97.805-98.912-136.62-103.29-297.26-133.58-464.7-110.29-171.79 23.898-203.24 81.578-258.05 154.64 3.76-18.527 14.613-36.394 23.804-52.728 33.625-59.77 69.825-100.66 125.89-140.51-188.77 32.087-236.83 210.21-248.51 228.23 19.419-93.396 75.832-186.35 156.53-239.38 75.381-49.535 171.49-54.619 258.44-43.574-58.823 10.871-124.66 22.525-166.52 70.216 80.852-20.993 97.596-25.594 196.16-15.625 108.2 10.947 212.17 41.745 306.1 97.215 86.408 51.023 199.53 148.46 250.26 213.48-16.037-75.4-56.576-156.49-112.03-210.65-48.637-47.492-287.11-211.17-518.74-250.84-51.849-8.88-103.76-10.654-156.19-8.9637 80.699-23.969 223.57-13.05 296.31-0.3654 39.865 6.9517 78.808 16.781 119.08 21.833-99.646-59.98-210.14-98.675-324.9-115.33zm823.2 1447.5c-57.428-177.66-16.034-235.75-21.185-316.79-4.614-72.341-21.958-102.17-23.249-132.6 11.941 12.935 52.216 101.92 52.36 208.12 0.1194 81.214-15.322 159.45-7.926 241.27zm-125.85-569.13c-51.46-75.296-85.071-206.53-190.2-297.1-71.492-61.59-155.35-84.154-197.71-99.175 287.52 44.993 299.76 141.85 387.92 396.27zm-1033.2-691.97c43.556-93.35 126.46-137.96 219.48-171.7h7.2812c-88.966 49.247-151.68 126.34-184.81 222.34 56.556-60.262 126.58-81.83 205.73-98.907-31.358 19.389-102.05 33.419-179.77 127.34-49.776 65.629-62.628 138.34-53.739 218.94l-14.583-35.401c-32.916-88.957-40.45-175.04 0.4169-262.62zm-377.41 218.65c-18.898-7.5399-35.783-17.986-54.26-25.937-33.61-14.459-73.367-12.599-109.28-13.824 34.543-13.12 72.96-13.14 109.28-16.334l-43.203-9.2208c30.118-13.001 61.66-19.276 93.51-26.498-27.886-8.7994-52.648-10.724-81.685-12.168-71.075-3.5415-131.08 8.358-197.74 32.589 20.065-16.455 157.72-89.611 275.37-127.13-102.92-42.538-104.34-30.682-157.71-36.728 60.227-17.305 116.88-3.1063 176.96 2.1629-23.7-20.092-55.867-28.918-85.678-34.63 43.744-6.9768 91.853-1.236 135.92 1.9904-24.702-19.849-53.712-32.253-83.49-42.585 23.09-4.5865 49.924-4.0609 73.52-5.3996-44.523-29.975-103.33-37.882-155.32-45.492 95.186-9.4267 197.18-29.898 319.16 95.347 2.5743 2.6423 4.4692 5.379 6.5573 8.4001l-102.64-41.546c18.774 16.815 41.77 33.608 58.416 52.358l-34.756-12.445 43.462 32.535c-39.473-14.405-76.918-30.929-117.89-40.97 16.636 13.212 35.763 25.708 50.892 40.423-12.961-1.7631-27.038-4.893-40.039-4.6163 8.8884 7.9423 21.87 17.024 28.377 26.707-21.882-0.9304-43.958-7.4129-65.654-12.167 60.503 61.2 142.83 120.2 153.01 145.6-57.814-48.482-112.01-99.962-229.45-82.36 39.716 11.275 80.951 25.436 115.12 49.285-8.5911 4.509-19.747-0.0493-29.31 2.4062 49.403 36.148 71.413 39.366 125.36 96.883-47.648-28.601-90.331-50.713-145.88-58.898 37.821 26.68 19.253 13.636 145.07 154.77 10.928 12.331 35.808 34.176 41.17 49.126-15.694-6.0052-118.63-115.19-234.75-166.47l173.16 193.53-0.3818 2.1526c-21.284-16.041-40.188-34.91-62.687-49.389-40.148-25.843-85.524-42.554-128.25-63.625 43.243 58.392 99.805 111.9 150.12 164.34l-81.412-56.819c-69.758-50.861-150.4-116-290.71-112.64-28.268 0.6796-55.659 6.017-83.545 10.074 105.42-53.61 224.88-65.207 341.31-62.786zm-359.21 186.21c116.85-37.118 186.9-6.9459 250.88 14.226 8.4968 3.259 18.437 6.0216 25.659 11.637-156.38-29.737-318.13-4.9851-450.95 85.316l-72.702 57.132c15.792-30.582 112.66-125.61 247.11-168.31zm-235.36 1472c3.1152 6.5623 7.8719 12.738 8.0208 20.168l-4.2709-2.8176c-16.22-18.74-29.052-38.01-34.22-62.702-7.7627-37.078 6.9891-59.542 25.813-89.552 4.2065 14.786 5.8284 31.249 8.4224 46.457-5.2725 7.0784-14.3 18.695-16.23 27.167-3.8838 17.029 5.0595 45.669 12.465 61.279zm35.327-1539c-2.396 2.0685-4.246 4.236-7.3115 5.1884-35.272 41.845-41.981 25.775-141.16 163.29-119.43 172.38-133.75 195.5-148.36 205.22 9.8211-19.29 23.244-37.336 33.839-56.447 62.594-112.92 103.67-188.36 208.53-278.02 13.422-11.478 30.858-28.11 47.147-34.042 2.2717-3.0357 3.9684-3.5713 7.3115-5.1884zm-259.26-52.385c40.257-95.936 126.28-158.47 220.29-196.75 5.8083-1.1605 3.1199-1.3345 8.0901 0l-62.633 36.021c-91.099 58.566-164.56 143.78-187.97 251.67l-2.3312 5.0297-2.4652-0.0695c5.8975-32.539 14.206-65.366 27.018-95.906zm-143.71 476.05c-2.5496 1.2251-5.4562 2.495-8.1994 3.0801 6.4037-9.9451 21.488-20.679 30.307-29.548 64.073-64.403 95.681-161.78 143.43-265.66 9.568-20.821 39.062-84.006 56.353-99.125-10.258 30.609-25.386 59.776-35.892 90.569-10.68 31.309-17.758 63.863-29.002 94.934-27.366 75.618-81.412 169.54-157 205.76zm88.079 259.23c55.138-49.87 95.509-117.55 132.16-181.68 9.9948-17.495 22.465-48.446 36.537-62.077-3.4474 17.757-10.436 35.069-16.646 52.043-38.425 105.01-123.91 211.01-213.59 235.83 21.359-13.74 42.638-27.018 61.546-44.116zm173.02-66.546c30.153-31.329 51.537-66.457 72.677-104.09l1.4779 1.7162c-14.503 41.75-34.736 80.757-63.843 114.22-69.359 79.76-175.56 117.54-278.75 125.35l-2.6238-1.6715c12.998-7.0844 175.35-36.081 271.06-135.53zm-424.5 538.11c-20.01 51.467-26.071 97.761-29.092 152.65-8.7943-46.616-8.4322-120.61 16.508-162.95l10.798-1.9542 2.4652 0.62c4.1321 4.8114 1.508 6.012-0.6795 11.632zm-20.838-309.86c7.3561-0.7688 13.556 3.6606 20.272 6.6217 85.974 37.938 182.29 37.257 259.68 9.9504 21.443-7.5695 42.732-21.245 64.036-27.41-36.393 39.493-102.58 67.27-156.03 69.413-67.015 2.6862-136.53-17.222-187.96-58.575zm53.769 138.05-9.5534-3.8344c4.5832-0.9375 5.7342-1.0912 10.025-0.6547 120.84 12.182 249.69-23.814 343.55-101.78 57.793-57.501 51.332-51.271 53.283-52.519-4.226 12.639-14.142 23.373-22.276 33.834-37.316 47.97-83.937 85.088-138.38 112.05-78.49 38.874-154.07 34.399-236.66 12.902zm216.34 335.65c-19.022 64.066-18.819 142.2-2.3364 206.72 5.4712 21.418 16.483 41.592 21.651 62.454-9.7567-4.5581-22.688-24.498-28.997-33.491-33.502-47.723-40.436-113.8-30.367-169.96 6.8352-38.129 29.295-101.04 62.122-123.85-6.7212 23.492-16.028 37.77-22.073 58.129zm-98.173-200.03c-17.559-1.642-35.356-5.7588-52.697-9.0972l-4.345-1.4186c44.046 0.0553 117.86 8.7167 221.75-55.569 31.388-19.424 58.208-44.344 82.667-71.859 89.088-100.21 96.035-207.75 112.81-280.53 2.9018 58.379-22.309 176.27-33.219 207.76-41.998 121.25-177.62 224.68-326.97 210.71zm343.61 469.91c-31.091-38.834-69.889-82.722-74.383-134.34-4.9106-56.393 15.118-111.66 50.46-155.38 1.9966 8.6759-35.094 76.687-27.871 141.37 5.5456 49.731 46.07 105.02 81.293 138.41 26.711 25.317 57.003 48.987 74.18 82.32l-2.1132 3.6853-13.115 0.1638c-38.228-13.811-47.369-24.891-88.451-76.224zm162.71 212.42c-1.0071 4.072-3.4227 4.499-6.6766 6.6914-11.949 1.1257-21.106 0.2129-32.747-2.6538l-17.435-9.8562c-34.553-23.094-39.36-73.396-47.737-110.9 21.098 2.9573 32.554 2.2144 50.163-8.4473l8.1793-1.2402c11.789 11.341 19.177 28.522 19.632 32.202 0.4912 3.968-5.2776 17.157-6.4481 21.87-1.7905 7.2222-3.4276 8.7695 0.4463 15.114 7.0734-0.511 15.044-2.3213 21.364 1.498 8.1052 14.846 15.446 38.784 11.26 55.723zm121.58 284.95c-64.444-183.99-15.695-51.85-98.639-352.75-31.19-101.61-77.285-198.11-94.527-303.62-17.435-106.72 3.1991-214.21 0.8433-321.5-3.9722-181.13-44.376-197.54-24.374-494.97 7.4543-110.76 7.9612-144.21 50.505-260.12 30.23-82.352 49.97-104.02 110.42-139.65 30.396-17.911 60.554-37.063 93.927-48.952 147.8-52.673 318.46 1.5277 463.81 38.972-46.579-37.494-84.601-46.376-106.66-61.199 61.783 8.4123 130.51 54.161 179.33 92.86 5.4761-15.947 2.108-49.94-4.9155-64.914-4.8612-10.372-13.209-19.925-20.258-28.928l85.46 73.014c-12.852-60.967-17.079-52.645-19.027-64.557 12.242 7.1924 20.312 24.419 33.467 29.474 4.5386-2.0882 5.2579-2.2866 6.9691-6.9096 10.55-28.491 0.6896-66.794-10.853-93.128 21.532 23.169 39.007 56.75 53.511 84.8 35.877-32.023 51.403-76.189 56.164-122.85 10.918 32.048 19.697 61.338 22.395 95.196 66.341-66.154 59.143-59.049 61.318-60.976-2.6536 7.9115-9.2559 15.912-13.824 22.981 35.604-21.478 66.323-60.416 95.122-90.415-10.428 18.729-17.817 33.442-31.899 48.094 28.02-12.376 51.72-34.563 79.691-45.292l-4.8462 6.0365 2.4656 1.364 60.093-32.38c-6.6172 6.6717-13.105 13.145-18.794 20.64 43.963-21.964 96.223-52.543 146.79-54.513-21.288 12.207-73.598 25.074-118.15 103.55 37.732-25.526 74.349-43.844 117.77-57.931-16.926 16.218-31.178 33.593-44.384 59.324 37.112-32.48 75.192-49.27 124.23-55.798-27.013 14.494-48.942 29.677-64.944 56.596 74.319-20.801 70.363-13.707 167.62-4.4146-21.17 7.5381-36.597 15.193-58.824 33.675 39.776-10.134 77.023-12.376 118.01-8.7994-14.598 5.4116-30.158 7.7878-44.592 13.403-15.486 6.0216-30.659 16.766-44.846 25.471 54.319-3.7202 102.27 7.1429 154.54 19.305-22.42 2.2371-50.257 2.6438-71.16 11.041 43.045 8.5764 85.757 16.007 126.04 34.226l-81.481-4.623c38.377 18.779 77.032 36.373 112.45 60.554l-63.972-6.9393c49.464 31.21 105.62 56.477 149.36 96.193l-87.359-20.461c25.168 14.707 53.571 29.632 75.822 48.422 40.545 34.235 63.024 87.235 94.686 129 15.828 20.878 39.816 41.185 52.192 63.833-4.3452 27.092-23.183 77.091-15.595 140.12 8.009 66.529 43.611 157.32 70.162 231.42 28.922 69.91 34.189 67.548 37.177 87.285 16.444 108.41 17.72 232.81 11.523 291.11-3.9417 37.064-28.611 166.02 12.465 215 7.281-13.683-1.9651-19.204 16.508-60.604 8.8838 14.028 30.63 38.754 33.025 53.511-16.116 27.415-37.668 59.83-47.975 89.795 19.755 12.802 62.87-32.679 77.533-45.307l39.037 52.529c-15.565 48.164-44.057 120.06-92.518 144.24-26.448 13.194-51.834 10.918-79.552 4.7668 1.8601-85.732 20.545-173.67 14.29-259.34-8.5903 30.594-56.403 409.29-121 585.46-57.582 157.05-208.56 356.97-371.84 448.14-16.116 9.0027-36.463 16.185-50.872 27.42-22.425 17.48-40.932 46.487-62.151 66.552-56.165 53.104-132.63 87.052-207.03 104.99-26.001 6.2651-62.434 16.438-88.649 12.644-34.161-4.9504-67.151 5.0396-92.106-26.582-3.5122-4.4441-5.7542-7.594-6.533-13.318 9.9509 7.3662 11.773 16.586 26.22 19.012-31.72-25.852-22.648-46.636-30.605-58.258-0.2678 14.097-1.6863 24.757-9.231 37.187-7.9761 13.135-32.251 26.324-46.586 30.005-11.389 3.2324-7.365 1.8828-17.678 5.8181-12.882 5.0696-31.125-0.4067-45.208-1.002-27.38-1.1558-56.864 2.3909-83.599-2.0586l-0.0547-2.9861 40.103-5.0293c-42.881-2.2522-82.85 5.2378-125.5-5.0845l115.39-7.0583c-42.059-16.236-124.83-2.5286-180.11-42.256 35.604 11.047 67.236 13.7 104.16 16.25-14.461-9.3005-88.087-19.925-135.9-64.418 38.506 20.302 70.549 24.513 113.42 27.822-39.456-16.941-65.553-20.547-135.17-69.736 20.822 2.4185 68.475 29.709 126.83 40.862-77.949-59.621-126.96-57.503-138.19-78.203 3.8594 0.0398-13.927-3.8772 121.01 32.792-65.006-48.591-124.28-58.824-161.13-77.394 28.865 1.366 109.69 28.523 146.5 42.965l3.0703-1.9592c-6.0853-12.251-19.417-19.196-33.308-27.802-44.676-27.668-86.154-35.689-136.91-45.698-28.204-5.5603-56.348-11.736-84.889-15.367 11.086 8.3184 22.827 17.038 35.203 23.328 11.572 5.8779 24.925 9.7766 34.211 19.236 66.616 67.851 55.811 167.06 173.65 247.38 131.65 89.744 270.01 51.716 293.46 51.567 29.402-0.1912 63.164 25.188 196.94-1.1909 95.921-18.908 191.24-80.832 263.05-145.55 20.233-18.234 37.36-41.051 58.431-57.811 18.726-14.893 41.234-15.912 117.96-71.69 107.01-77.791 181.54-191.57 253.71-299.99-1.8701 21.845-18.318 52.802-26.874 73.357-65.356 156.97-174.52 287.85-303.96 396.84-1.1389 0.9587-193.49 164.58-219.14 171.47 5.1438-8.447 15.228-15.858 22.49-22.703 11.384-10.738 21.959-21.755 32.082-33.7l-2.4055-5.6201c1.5374-15.61 1.2847-27.97 12.063-40.098 3.0652 9.0425-6.9844 35.148-9.6577 45.718 6.7212-2.5837 49.577-40.091 67.027-66.953 9.1868-14.137 25.352-24.389 31.825-39.841-18.888 15.203-32.722 35.178-50.817 51.17 6.3044-9.97 12.262-19.508 16.766-30.476-1.4336-3.4026-2.5693-6.2944-2.3662-10.069 0.4812-8.8936 2.3857-16.587 9.0674-22.708 11.13-10.198 20.302-22.976 30.684-34.037 20.555-21.894 43.625-41.458 59.756-66.983-131.42 95.812-83.69 93.589-232.2 184.17-98.59 60.127-191.82 59.081-281.18 60.921-135.22 2.7747-305.5 12.337-419.35-131.74-47.743-60.413-65.112-134.43-109.77-181.75-22.088-23.398-53.635-39.215-79.646-58.169-67.831-49.438-127.17-112.92-170.22-185.02-34.131-57.166-54.126-116.36-75.966-178.71zm917.2 660.71c-28.206 2.1729-50.587 3.333-77.861-16.776l3.7798-1.0315c24.702 9.6724 44.8 13.353 71.293 14.419l2.7876 3.3879zm-144.17-8.7746c-23.025 10.238-44.885 4.9504-69.121 5.1687-31.79 0.2825-62.399 1.468-94.244-0.7939l0.3174-1.3145c9.092-5.4265 25.649-0.8381 36.244-1.1309 23.308-0.6448 45.966-5.248 69.617-4.9255 11.775 0.1638 28.724 4.3057 39.518 3.0508 6.9573-0.8035 15.842-9.0032 29.161-11.329 17.683-3.0903 32.375-12.619 45.897-24.008l3.1348 2.7876c-9.1767 17.867-43.635 24.98-60.525 32.494zm48.674-8.5515c-3.3191 6.5972-14.814 15.026-24.791 16.671 5.476-7.2469 15.838-14.712 24.791-16.671zm332.57 90.386 3.8738-7.9912 2.5498 1.9294-3.2888 7.991-3.1348-1.9292zm14.384-1.8702c0.1836-10.417 1.6619-12.346 6.8105-21.002l2.4155 1.2351-5.8433 23.566-3.3827-3.7993zm18.427-20.461c0.4614-9.2759 2.3215-14.821 6.9397-22.862l1.8005 1.24c1.6367 7.8025-3.3682 16.389-6.3838 23.561l-2.3564-1.9395zm34.394-23.169c3.8049-16.378 6.4387-33.56 12.307-49.295l2.4153 1.9395c-1.8203 17.316-4.4294 34.077-11.562 50.143l-3.1599-2.7876zm27.445-59.929c-0.7837-12.292 5.6147-19.539 12.172-29.047l1.905 3.7996c-3.5317 8.2639-7.4998 16.934-9.2114 25.788-3.1348 16.215-1.22 30.525-11.696 44.384-4.1715-14.325 7.7675-30.168 6.8303-44.925zm-1149.3-314.26-5.4614-2.8174-3.4274 1.5774c2.3213 21.116 18.134 32.584 25.902 50.927l-26.522-19.409c9.1564 22.252 25.372 39.002 33.645 62.082-9.6427-12.752-18.73-26.016-31.235-36.16 8.8192 19.722 29.9 43.288 32.261 63.947-14.23-14.345-18.848-26.113-30.029-39.538 4.8114 12.688 9.8114 26.304 16.741 38.01 6.0168 10.164 17.916 19.33 21.413 30.188-4.5437 0-2.4354 0.7341-6.1804-2.9663-13.522-13.368-22.847-28.506-34.87-42.901 4.9688 31.622 33.545 57.596 37.881 71.695-14.211-7.7625-29.439-32.028-40.351-44.984 7.7734 27.828 29.793 62.509 47.568 85.916-20.648-12.478-47.1-49.082-53.878-72.136-5.4882-18.674 0.861-13.959-18.898-222.82 9.6227 9.9849 17.713 27.926 22.455 40.946-3.1099 1.6123-1.3193 0.5852-5.2528 3.2788 6.0268 9.4343 17.038 24.067 18.239 35.163zm-125.5 448.86-17.837-121.48c-10.66-123.07-4.0576-276.32 78.962-375.07 4.0232 65.258 4.8395 58.085 4.2311 62.261-0.7556 5.1509-24.4 32.555-29.766 62.439-5.2728 29.365 7.1179 59.369 19.781 85.276 36.378 74.433 93.907 135.46 153.3 192.08 216.45 206.37 335.59 204.27 389.59 253.92 58.632 53.898 141.02 220.73 171.6 263.25 21.281-20.228 106.14-131.46 180.75-192.75 36.319-29.833 25.787-16.653 199.54-139.21 167.76-124.37 456.15-378.11 544.22-570.28 43.138-94.152 47.094-130.59 75.128-246.86 11.689 86.976-9.325 157.32 78.019 399.65-43.622 198.19-342.58 597.27-465.62 742.63-21.126-17.678-46.071-32.256-69.126-47.37-142.27-87.003-243.56-160.29-316.62-136.47-38.201 12.462-70.264 50.648-105.99 87.017-34.263 34.868-73.427 68.686-95.211 111.9l-46.17-5.1143c-18.993-43.213-50.624-84.691-76.675-124.22-68.966-104.69-89.649-144.83-138.72-132.89-78.416 19.067-144.68 89.839-196.86 147.99-33.253 37.058-63.674 72.752-88.927 115.95-89.145-105.2-215.11-300.92-247.59-432.66zm577.29 217.04c24.245 10.863 47.846 54.032 63.496 75.306 30.322 41.23 65.524 81.03 88.272 127.19-32.674-26.166-63.64-36.611-90.643-61.005-6.364-5.7488-14.841-12.391-18.789-20.02 5.0098 1.5476 10.218 6.5571 14.697 9.5879 11.101 7.5098 22.737 13.854 33.595 21.795 5.2084 3.8093 10.595 9.3203 17.217 9.9304-6.9095-7.594-14.955-15.53-23.154-21.736-9.5095-7.1973-71.574-48.698-74.8-63.263 27.838 16.403 13.662 19.044 82.741 54.215-27.664-28.87-85.08-62.476-102.3-87.533 16.557 6.6714 34.459 29.121 49.419 39.994 9.1466 6.6465 21.16 10.054 31.775 13.695-34.644-27.618-65.83-52.102-86.616-90.42 17.356 9.7251 22.216 33.31 59.696 58.05l1.5624-2.5449c-19.643-21.092-35.935-38.51-46.164-63.243zm-10.714 189.99c226.11 87.127 413.99 15.25 476.92 21.637-3.8589 3.5664-8.9531 5.238-13.72 7.3909-34.126 10.918-67.96 23.521-103.57 28.735-126.6 18.541-261.57-0.1638-377.76-53.828-28.928-13.363-59.166-28.263-84.731-47.464 12.177 1.0911 27.971 10.987 39.24 16.22l63.615 27.311zm273.05 24.539-13.125-0.5161-5.2378-2.3015c4.856-10.987 13.854-20.803 21.165-30.312-0.9475 10.084 1.3392 24.276-2.8027 33.13zm50.614-33.73c0.9771-15.967 11.671-45.158 23.621-56.378l0.6843-0.3965c-2.2173 12.053-15.233 49.086-24.305 56.774zm-164.34 146.82c20.004 0.6895 44.29 2.5547 63.689-1.8652l1.3938-0.7539c-74.264-10.372-140.94-29.384-207.21-65.063-9.226-4.9702-24.434-11.284-31.145-19.33 9.6376-0.134 20.357 4.1616 29.736 6.5476l45.222 10.54c131.05 27.563 267.78 8.2852 395.45 9.2405l-109.37 34.057 73.818 4.9106c-39.637 10.03-75.544 22.797-116.24 29.24 74.185 11.299 138.16 2.0088 205.48-30.431l-83.624 2.3413c36.586-7.8521 73.292-17.262 101.98-42.727l-44.017 3.9285c2.2073-1.885 1.1606-1.3591 4.0081-2.262 37.215-11.553 50.418-21.379 94.834-51.606l-77.449 9.9851 167.05-70.425c15.114 7.2222 27.891 16.344 41.324 26.269-10.787 23.489-138.78 138.45-188.19 165.76-4.6082 2.5444-16.538 10.208-21.394 10.679-5.9177 0.5806-21.13-5.9126-27.861-7.0781-31.453-5.4448-55.19-0.2646-156.24 11.15-234.09 12-272.44 26.015-388.34-90.584-22.606-22.742-84.838-88.104-99.745-116.45 20.942 13.658 29.632 25.455 46.78 38.62 85.058 65.297 168.19 131.43 280.06 135.3zm-173.27 197.79c-150.02-116.79-117.87-90.347-161.36-129.87-4.2755-4.0225-9.7418-10.65-14.806-13.378 12.122 28.382 40.43 57.381 144.38 174.79-42.102-25.016-88.513-68.642-97.325-73.024 6.3417 23.801 98.634 117.03 115.29 133.8 2.5844 7.5742 2.2769 12.039 1.0217 19.662l-3.5018 2.3218c-104.33-58.413-152.93-120.08-322.54-269.58 13.383 24.171 33.928 46.819 50.837 68.852 90.479 117.88 114.43 148.36 198.2 213.59-145.1-52.886-277.53-140.89-377.14-259.21-15.297-18.174-35.976-39.548-46.373-60.663 17.812 11.051 34.612 31.23 51.14 45.033 39.394 32.906 89.631 61.819 137.83 79.899-6.7872-14.265-157.07-111.71-200.43-241.09-7.6536-22.837-10.982-47.256-15.164-70.931 48.258 78.714 114.85 151.39 202.13 186.91-21.39-21.39-50.774-22.704-124.01-140.24-11.633-18.675-17.969-26.008-21.731-42.936 21.309 27.723 117.21 135.9 145.8 143.36-3.4966-9.3804-41.278-57.986-53.913-86.437 38.363 34.297 6.2898 15.734 97.156 88.034 19.191 15.263 36.482 29.796 59.508 39.012-17.247-18.566-43.075-49.032-49.131-73.867 6.1456-9.2808 12.693-22.564 21.15-29.588 75.484 89.155 233.87 219 280.06 246.68l-17.088 48.878zm-206.42-330.72c16.28 6.2476 119.77 154.96 262.41 226.93-18.602 25.311-12.047 15.956-28.829 40.907-47.874-43.005-152.32-122.21-233.58-267.84zm670.96 585.99c-60.837 34.954-147.78-15.461-164.4-51.065 12.879 11.514 24.83 16.213 41.656 23.621-19.096-19.22-92.426-79.282-135.99-187.44-1.1555 68.054 15.149 135.98 56.115 191.38-16.25-12.798-32.727-25.615-45.946-41.661-23.362-28.348-41.348-74.146-45.733-110.42-0.3324-2.7529-0.0745-9.3652-2.1329-11.121-9.5385 55.807-17.559 114.44 17.782 163.7l14.499 18.402-1.8749-0.377c-21.904-7.2817-49.235-34.965-61.77-54.096-46.081-70.296-39.364-165.21-22.966-243.43-59.618 88.912-63.416 237.7 18.313 306.48 56.874 47.861 119.15 35.783 187.66 29.578 16.894-1.5278 30.897 2.2866 47.147 6.4185-41.453 15.159-84.026 20.238-128.03 17.292-65.321-4.375-116.01-31.969-158.14-81.486-67.565-79.418-55.82-264.56 23.105-328.98 13.71-11.19 49.681-6.2896 67.082-4.2808l0.5259 1.9048c-11.146 30.118-13.135 57.905-14.429 89.611 18.908-31.592 36.125-61.914 65.882-84.691 62.357 44.606 74.336 53.924 130.44 125.99-7.0396-51.491-36.9-105.79-84.805-139.06 40.2 2.0747 71.451-3.5669 138.34 56.19-12.742-27.559-24.136-44.98-45.897-66.214l9.6228-1.7363c112.25-11.282 108.72 15.853 126.82 20.868-5.7344-18.298-13.83-25.152-29.047-35.679 46.262-7.2266 51.467-12.721 81.447 35.947 68.16 110.67 9.8872 299.67-85.281 354.35zm755.58-778.82c-37.098 67.106-64.327 145.93-187.33 249.68 61.071-93.668 107.2-194.02 133.97-302.86-185.64 273.1-139.17 281.6-255.05 388.36-43.866 37.228-57.632 47.761-61.755 55.803 201.77-111.4 225.09-136.24 331.66-250.85 11.319-13.254 24.365-35.228 38.218-45.034-1.5537 14.908-3.8301 19.89-43.253 136.8-6.8848 20.054-13.149 49.196-25.222 66.492-9.896 14.171-31.017 27.623-44.682 38.72-163.51 132.81-268.3 190.35-423.39 254.28-22.926 9.4541-53.6 26.661-77.945 28.328 3.4026-16.463 7.2024-32.742 7.8521-49.592 62.282-22.52 218.68-103.59 263.55-131.24 23.869-14.703 46.06-31.934 68.893-48.159 12.396-8.814 28.372-16.909 38.541-27.961-20.023 2.249 13.312-1.3608-215.49 103.21 27.47-26.265 59.949-48.422 85.147-76.626l-238.1 126.93c-6.1233-43.562-8.7251-39.093-7.8469-42.093 1.2834-4.3569 108.91-68.115 224.37-176.4 13.973-13.1 31.696-26.631 41.532-43.144l-278.63 183.63-30.292-54.498c196.47-158.87 194.32-158.27 215.33-168.84l-112.36 109.75c39.24-17.847 81.372-41.22 113.73-69.815 2.9907-2.6443 27.291-25.59 29.25-25.506 7.5989 0.3274 14.191 10.694 24.801 9.7222 16.552-1.5129 37.351-26.79 48.278-38.258 121.64-127.62 213.72-301.32 239.14-336.24-3.7671 30.487-22.179 64.155-71.248 169.49 47.138-51.493 60.225-93.918 143.49-241.05l69.989-146.46c-15.559 187.47-78.107 295.04-79.869 328.87 16.106-17.492 22.95-32.197 35.699-52.176 27.147-42.529 52.524-84.612 74.741-129.97-26.823 124.05-11.572 90.699-75.708 206.7z"/> <path d="m1429 884.78c-21.438-8.4523-80.67-11.82-95.474 0.1488 26.824 7.0742 67.588 3.2389 95.474-0.1488z"/> <path d="m1399.6 911.4c-34.736-9.1813-68.878-16.428-105.14-14.94-13.338 0.6796-26.636 0.3621-39.071 5.6945 88.46 8.5181 123.62 13.447 144.21 9.2457z"/> <path d="m1375.7 940.61 5.9075-1.7659c-43.412-10.491-91.258-24.211-136.28-17.381l-8.2885 2.4801c6.5277 5.8381 23.601 5.9821 32.613 7.2319 35.927 4.9903 69.657 9.4395 106.05 9.4346z"/> <path d="m1210.6 944.31c47.519 21.131 103.6 34.92 155.7 36.185-51.398-24.201-98.43-35.604-155.7-36.185z"/> <path d="m1227 987.56c78.918 27.685 64.414 21.738 128.75 21.041-32.668-10.446-126.18-45.793-156.82-35.064 6.2646 8.4273 18.516 10.669 28.07 14.022z"/> <path d="m1342.1 1046.5c-55.688-21.403-115.21-37.559-174.64-43.531 49.738 28.797 76.76 45.296 174.64 43.531z"/> <path d="m1329.8 1081.6c-59.205-14.861-117.1-41.185-178.4-45.381 57.786 34.26 109.82 54.622 178.4 45.381z"/> <path d="m1318.8 1120.9 12.882-1.2203-192.87-50.907c52.127 41.949 113.46 59.414 179.99 52.127z"/> <path d="m1297.6 1162.9 16.121-2.3658-1.3542-4.2858-188.49-54.766c10.987 9.5234 22.584 21.512 34.95 29.032 36.904 22.43 95.832 35.312 138.77 32.385z"/> <path d="m1203.7 1189.7c36.304 9.598 74.299 19.756 111.55 9.5682l-0.4514-3.6211c-30.694-12.39-64.086-18.492-96.03-26.959-38.328-10.164-74.91-23.184-114.62-27.073 18.809 10.243 36.378 24.365 55.158 33.754 13.457 6.7261 29.836 10.481 44.389 14.33z"/> <path d="m1106.6 1178.2c47.836 54.05 169.94 76.798 210.75 61.398l-1.2401-3.7649c-209.31-58.114-198.83-58.057-209.51-57.633z"/> <path d="m3007.1 1296.2c-13.104-30.783-32.252-53.114-54.403-77.97-7.7729-8.7151-18.135-21.959-28.402-27.37 10.463 22.766 61.11 85.488 82.806 105.34z"/> <path d="m1317.4 1284.6 1.0863-3.879c-40.218-19.826-88.803-25.322-131.95-37.871-28.224-8.2092-60.639-23.02-89.591-27.207 47.916 54.162 161.63 81.304 220.45 68.957z"/> <path d="m3010.2 1342.6c-24.042-44.756-55.158-83.922-94.914-115.74 11.25 22.083 26.527 40.703 41.924 59.969 16.264 20.342 31.755 40.307 52.99 55.773z"/> <path d="m1344.6 1336.1c-20.653-27.899-155.55-37.843-243.6-75.053-2.6287-1.111-1.4681-0.8035-4.0972-1.0812 39.526 59.33 176.62 76.265 247.7 76.134z"/> <path d="m3012.7 1402.6c-25.312-53.07-59.026-102.35-109.52-134.33 26.805 45.277 66.566 103.64 109.52 134.33z"/> <path d="m1117 1324.4c82.876 56.147 218.07 69.147 251.22 59.364l-1.354-4.2261-276.85-80.376c8.348 8.4423 17.158 18.581 26.983 25.238z"/> <path d="m2906.3 1333.7 57.529 69.349c13.467 16.701 25.669 34.831 41.661 49.26-49.145-95.617-61.826-98.324-99.19-118.61z"/> <path d="m1097.9 1376.1-2.4801 1.9193c7.9911 7.485 18.68 11.845 28.422 16.662 57.529 28.472 132.85 34.042 196.25 36.899 22.217 2.0536 55.669 6.4531 77.533 1.498-15.004-6.6122-30.302-13.968-46.135-18.398-44.92-12.564-92.081-16.592-137.12-29.409-41.725-11.875-81.218-31.934-122.82-45.198 22.485 16.805 50.793 28.472 71.581 46.348-20.724-3.7696-44.29-11.339-65.237-10.322z"/> <path d="m2894.3 1387.5 117.41 116.47c-26.919-46.566-67.662-94.73-117.41-116.47z"/> <path d="m1441.4 1493.5c-62.016-31.66-98.966-34.451-361.13-87.96 102.3 61.344 143.93 59.456 361.13 87.96z"/> <path d="m3008.6 1545.3c-36.785-51.79-72.697-90.479-129.21-120.37 25.405 28.78 106.25 104.07 129.21 120.37z"/> <path d="m1316.1 1524.2c63.674 11.805 127.37 24.677 191.89 30.833-82.26-41.373-180.27-54.825-269.37-74.398-54.478-11.964-109.29-27.217-164.74-33.328 110.59 55.901 142.65 58.436 242.23 76.893z"/> <path d="m3001.3 1584.9c-16.894-41.547-65.554-92.87-106.64-110.71l-27.41-9.077c84.159 69.535 117.98 111.49 134.05 119.79z"/> <path d="m1324.5 1566.2c81.1 14.459 164.44 26.344 244.46 45.788-98.619-53.689-215.69-63.456-323.89-88.212-57.608-13.185-116.83-32.142-175.13-40.386 87.192 54.266 138.24 62.081 254.56 82.811z"/> <path d="m2872.7 1513.2c20.663 24.123 81.413 66.886 137.69 133.04-37.748-83.388-115.63-132.51-137.69-133.04z"/> <path d="m1075 1517.4c106.84 76.439 242.11 85.767 467.56 112.95-126.41-48.468-235.24-34.681-467.56-112.95z"/> <path d="m2971.9 1657.4c9.2905 10.104 20.862 26.875 32.167 33.888-4.0916-20.577-39.758-80.469-102.6-122.22l-47.772-25.808c72.332 64.75 45.292 38.878 118.2 114.14z"/> <path d="m1442.6 1634-368.63-79.007c84.701 62.33 182.25 70.842 283.63 77.935 32.239 2.2616 57.396 7.4652 84.998 1.0715z"/> <path d="m3006.2 1591.9c-1.0916-1.7312-3.1597-6.0961-4.9307-6.9989 1.4732 2.485 2.6043 5.2379 4.9307 6.9989z"/> <path d="m1235.6 1649.7c23.854 2.8173 47.628 1.6814 71.561 0.4316-39.716-15.635-83.456-24.36-124.61-35.976-35.714-10.084-70.43-23.556-107.11-29.657 12.772 9.6625 26.696 21.954 40.832 29.3 33.357 17.336 81.928 31.482 119.32 35.902z"/> <path d="m3000.2 1737.7c-24.563-62.394-67.295-114.73-130.02-141.89l-24.98-9.4839c63.099 42.906 105.54 95.206 155 151.38z"/> <path d="m1266.6 1671.1-0.4663-4.2758c-25.342-11.721-55.609-14.137-82.612-21.473-35.237-9.5732-69.007-24.984-105.19-30.312 13.819 11.026 27.678 23.11 43.184 31.721 36.823 20.443 107.3 35.311 145.09 24.34z"/> <path d="m2851 1635-2.4456 0.3224c8.8271 7.5405 65.325 44.053 133.41 133.72 2.1729 2.8623 1.2896 1.8206 4.5288 4.2858-3.1335-58.472-98.325-138.8-135.49-138.33z"/> <path d="m1411 1732.2c-47.282-6.6107-98.222-42.074-145.3-16.612-20.58 11.136-77.206 75.688-96.556 70.068 5.5457-9.6577 21.954-20.714 30.208-29.449-54.591 17.983-56.531 7.9786-95.658 0.4463l48.322 42.737c-12.554 4.7965-28.437-1.8154-40.931-5.8184 12.549 10.282 42.792 29.25 44.552 45.932l-0.0249 2.7031c-12.951-1.9095-26.334-8.8094-39.042-12.52 16.215 12.852 38.114 24.186 52.097 38.714 7.2769 7.5597 12.59 17.629 17.758 26.721-22.822-12.867-44.478-22.703-69.022-31.78 14.077 11.637 28.12 23.75 43.204 34.057 23.01 15.714 50.902 28.63 69.761 49.488-26.071-1.7853-62.279-31.499-118.15-56.418 59.926 65.353 78.893 66.133 127.71 101.62-59.122-16.029-107.64-56.096-132.29-65.39 53.802 72.21 114.86 84.146 140.21 97.022-58.764-1.9989-99.77-36.18-149.47-62.88 92.295 128.08 149.18 66.48 206.1 91.526l2.118 3.72-3.0011 1.2402c-36.176-15.533-74.864-1.6282-110.34-8.1943-36.934-6.8352-70.723-30.362-102.55-48.977 11.28 13.888 22.638 30.183 35.753 42.276 28.403 26.19 81.849 43.358 103.03 39.86 0.0693-5.3469 0.0247-6.6365-3.9286-10.793-5.4611-5.7488-13.784-10.034-20.506-14.216 28.055 4.6741 95.589 11.464 111.25 24.632-8.5513 3.8591-35.188-4.7021-46.085-5.8481-12.465-1.3145-25.337-1.012-37.836-0.7986 58.132 29.56 77.92 20.407 93.991 28.764 5.332 2.7729 13.12 13.011 17.723 17.574-33.541-11.547-54.736-16.77-90.301-12.083 118.01 35.337 84.478 19.591 124.4 42.236-33.318-4.6726-67.88-18.745-101.33-15.56 16.418 6.1655 32.39 15.466 48.888 20.679 15.376 4.856 31.452 3.1646 47.152 5.967 43.714 7.7925 86.898 30.704 132.5 16.007 36.154-11.11 103.95-28.891 118.41-47.306-146.5 58.878-199.89-2.2942-234.16-6.9043 7.1575-1.8999 13.864-4.1567 21.354-3.4824 35.257 30.418 75.703 29.717 122.81 24.152 52.429-6.1904 102.43-19.916 142.87-55.218-18.13 8.4126-36.72 18.11-55.802 24.097-22.772 7.1477-102.85 23.422-121.91 15.972l-1.8153-0.9917c21.076-6.4832 46.075-5.0842 68.173-8.4326 70.64-10.708 130.73-43.748 140.01-60.931-9.4143-3.4771-20.143 0.7144-28.784 4.7024-62.762 28.953-132.68 52.008-201.28 27.45-25.094-8.978-53.59-24.732-64.894-49.979-4.6182-10.322-5.3077-20.625-5.4514-31.775l3.3431-2.4801c5.7368 25.256 12.799 42.647 36.338 56.785 31.964 19.191 78.163 26.116 114.96 22.261-7.8866-4.4792-19.082-2.842-28.134-4.3896-42.197-7.2073-89.835-31.482-101.66-76.134-1.354-5.1289-0.843-9.3898-0.1635-14.563 4.2806-5.2181 5.0345-7.6187 11.741-9.2308l6.2002 1.8254c12.872-13.225 2.1981-22.485 57.043-47.063l1.7161 2.3066c-24.866 82.484 73.142 139.11 126.1 105.43 20.843-13.259 39.632-37.49 43.61-62.033 2.5299-15.615 0.8779-32.722 0.124-48.441 34.83 14.783 51.028 23.223 69.939 53.193-7.1975 9.9255-14.226 20.019-23.606 28.045-5.8928 5.0494-15.922 9.8955-20.481 15.565 28.931-4.2577 56.335-16.553 80.212-11.036 6.4581 1.493 13.715-1.3887 19.994-3.0802l7.6785 2.9562c0.3424 5.4365-1.7163 8.4972-4.2211 13.19-6.7808 3.1001-11.453 4.9304-18.928 3.958-8.4968-1.111-18.492 4.8414-27.792 4.777-11.8-0.0796-40.753 11.126-50.183 17.757l2.9215 2.7925c22.336-3.2043 37.708-21.87 60.763-19.374l1.597 2.9415c-11.721 10.595-26.25 19.984-37.147 31.001-11.121 11.245-20.952 26.552-31.086 38.938 25.699-17.034 44.374-41.592 68.654-60.182 13.424-10.283 22.387-6.9485 37.663-24.409 12.817 0.2133 24.384 1.25 36.413-3.9484 1.5775 1.0469 3.4969 2.0636 4.8263 3.403l10.843-9.9702 0.8381 2.8472c-19.325 31.78-42.385 57.965-63.679 88.044-16.805 23.744-31.438 49.964-50.57 71.923-15.893 18.233-37.46 32.812-51.705 51.958 130.29-72.78 155.32-152.95 173.49-169.43-5.5356 26.061-26.225 47.896-31.661 74.066 8.1339-5.3872 8.5078-5.0728 9.9304-10.823 5.099-20.615 25.724-42.817 35.858-62.206-0.7688 22.807-2.7134 44.27 1.7113 66.829 0.6598 3.3682 1.8302 7.7183 1.751 11.081 6.7905 9.1367 8.6703 20.922 10.887 31.884l-3.9182 0.8679c-5.8695-18.752-4.9679-20.056-13.065-26.473l6.0963-6.2795c-6.6866-7.8271-6.8203-24.791-14.791-29.116-2.1875 3.9832-2.4952 3.4077-2.8771 7.0981-1.0525 10.031 1.6381 20.391 9.9602 27.976l-2.3164 5.4861c-1.8105 3.7747 8.6804 34.047 9.6328 42.474 0.8728 7.7083 7.6685 9.4744 8.1544 18.085l-2.7231 2.3213c-6.1804-5.2427-6.3639-5.5552-8.3036-13.482-4.9719-20.383-13.511-48.546-28.928-62.777 22.619 90.321 20.342 68.044 26.681 91.61 4.4707 16.629 27.356 56.893 27.693 81.09l2.2076 3.1296c1.994 3.8293 4.5188 12.014 3.3033 16.066l-3.0309 3.5962-2.2021-1.2698-0.278-21.522c-7.3707-13.06-11.84-31.017-18.134-45.143-4.5684-10.268-11.84-19.33-15.615-29.945-10.074-28.328-9.2509-48.704-30.714-72.752 8.5762 26.845 12.118 55.852 21.195 82.003 9.469 27.281 27.747 49.274 34.424 78.589 1.4781 6.5029 5.6644 10.421 10.218 14.97l-2.1973 8.9136-3.3383-0.2332-40.227-89.944c-12.773-31.478-18.874-60.371-38.556-89.14l18.154 59.612c2.8818 10.773 4.1318 21.453 8.1002 31.988 15.738 41.74 41.775 83.773 51.353 127.16h-3.5764l-83.872-202.44c-2.5496 8.0056 7.2717 29.677 9.8512 38.372 10.416 35.069 17.351 72.623 34.315 105.27 8.1794 15.734 20.138 33.313 21.145 51.363-6.443-4.4988-7.8221-16.518-11.393-23.636-24.819-49.44-11.512-14.334-39.548-84.294-9.0278-20.049-19.409-40.391-24.29-61.948-3.6703 10.233 1.7611 22.871 4.7618 32.832 8.9581 29.736 18.73 62.29 32.028 90.236 18.705 39.295 50.649 66.492 58.511 111.75 1.0168 5.863 2.9266 13.784 1.1854 19.38-5.2528-6.9346-3.5613-17.42-5.6945-25.689-11.515-44.569-46.388-76.84-64.825-110.28-12.311-22.321-18.546-53.183-34.002-72.583-0.8481 9.9949 5.6346 19.647 9.3451 28.74 19.412 47.522 13.791 54.662 19.925 70.683 3.5663 9.3203 10.917 17.594 15.282 26.755 43.004 97.194 42.469 97.38 48.794 105.93-3.7996-16.805-11.904-33.119-17.882-49.31-7.7429-20.992-12.321-42.072-24.34-61.378-3.4276-5.501-5.5803-9.2659-7.0187-15.57 14.022 7.52 19.667 26.577 25.942 40.352 8.318 18.254 17.634 36.101 23.372 55.391 17.966 70.787 20.289 71.345 21.691 121.46-12.326-12.212-26.597-28.223-44.999-29.989-17.678-1.6963-33.204 13.983-44.622 25.416 1.8896-13.904 3.3082-28.378 7.0236-41.924 8.5066-31.021 22.465-56.968 19.022-90.331-1.2103-11.761-5.4067-23.685-7.2021-35.594 9.0684 14.627 1.6118 15.71 14.618 46.924-1.771-13.174-2.0438-27.881-5.1984-40.609-6.0018-24.176-22.425-43.302-33.462-64.81-5.3721-10.466-9.0525-22.41-13.298-33.397 1.8899 10.337 3.4425 21.101 6.8303 31.061 3.1746 9.3301 10.481 20.277 9.7618 30.133l-4.9802-6.0315c-1.8501 7.103 0.4563 14.27 2.0583 21.324 4.8165 21.21 7.2568 55.713 1.5973 76.854-5.2378 19.578-16.785 36.756-25.654 54.751-7.3759 14.965-12.073 31.869-21.294 45.837-9.355 14.176-20.972 26.79-30.089 41.18-19.578 30.907-30.074 71.844-23.616 108.21l6.0168 28.05c15.664-47.152 33.774-93.019 63.987-132.93 12.083 24.196 26.612 52.767 54.399 61.358 34.088 10.53 68.297-14.25 85.757-10.139 26.134 5.9143 32.278 18.092 51.353 34.037 21.626 18.085 53.526 28.68 81.606 21.711 10.853-2.6985 22.192-10.104 31.77-15.838 82.273-49.25 71.775-61.806 93.575-77.335 27.021-19.231 101.58-11.082 129.46-121.97 174.56 222.27 179.73 231.19 196.23 241.15-11.28-28.194-34.598-56.715-51.096-82.657-45.272-71.194-89.517-149.13-143.69-213.97-19.842-23.748-53.752-52.52-83.718-44.354-6.2205 1.6965-12.658 3.9187-15.952 9.7817 7.2419 2.0781 14.896 2.366 21.765 5.6099 38.914 18.365 59.592 74.987 34.355 118.75-26.3 45.588-64.489 17.905-84.766 25.426-53.074 28.416-50.338 63.18-70.881 77.697-23.416-17.166-41.688 8.0083-131.45-8.3528-36.738-10.376-66.673-41.992-67.856-45.734-0.5557-1.7556 23.169-102.94 24.662-117.61 3.229-31.725-0.5604-64.428-2.3312-96.179l-3.7004-120.04c-0.5902-130.73 45.746-251.72-25.114-374.46 56.332-58.961 53.931-168.61 17.604-242.35 3.5316 52.881 13.576 141.8-24.156 185.48-11.152 12.909-32.504 18.01-47.494 7.2468 1.9403-13.454 19.42-14.111 16.483-65.272l-1.9841-0.8977c-7.2362 17.053-21.215 47.132-38.635 53.754l-2.4852 0.6249c-17.857-17.144-15.284-36.811-49.468-98.768-3.7998-6.8746-8.1448-17.584-14.181-22.554 0.0544 13.819 2.4604 34.181-3.3134 46.685-10.373 1.2275-12.532-1.558-21.081-9.3748-118.05 38.913-139.75-13.484-200.28-15.55-46.154-1.5726-91.372 15.118-137.62 8.6503zm427.19 621.51 3.4623 2.1331 1.6271 7.6633c-3.3335-2.5694-3.646-5.9175-5.0894-9.7964zm-2.004 243.77c9.6676 9.8311 14.851 21.795 23.462 32.366 10.565 12.961 26.636 21.949 39.692 32.405-30.016-9.4524-48.026-10.976-63.154-64.77zm60.277-365.48-1.3096-8.4968 5.4116 1.3542 1.8652 8.5662c-1.9545-0.1538-4.0624-0.9226-5.9672-1.4236zm7.0236 169.49 5.4165 0.5454c2.9169 8.8442 5.4465 16.761 6.1608 26.076-7.1081-6.0964-10.198-17.708-11.577-26.622zm22.738 17.916c-3.3134-10.486-3.348-21.681-6.2449-32.217-2.3462-8.5264-6.3145-15.748-6.1307-24.801l4.3104 0.7986c7.5988 16.418 11.146 38.452 8.0652 56.219zm0.263-52.762-2.7183-6.7361 1.5326 0.3174 3.3778 7.1228-2.1921-0.7041zm-0.263-49.181c-3.7548-7.8621-8.616-18.254-6.9244-26.998l4.2855 1.7905c2.4305 9.1069 4.3453 15.828 2.6389 25.208zm-10.481-91.536 7.9758 29.816-2.2766-0.2231c-6.6516-8.5066-8.1597-21.577-10.074-32.018l4.3749 2.4255zm4.0525 52.137-4.9553-0.2974c-4.0128-10.312-13.09-21.379-14.196-31.944l4.2065 1.3691c5.9424 10.174 11.562 19.479 14.945 30.872zm-11.16-74.403-4.0725-0.9126c-4.092-6.7261-6.3042-10.749-6.4779-18.928l3.1499 0.5901c1.7656 6.6716 4.702 12.916 7.4005 19.251zm-199.42-298.81c67.03 47.826 83.303 76.656 114.09 94.919l1.642-3.1945-7.1229-12.401 1.7607-3.5911c10.64 5.4412 19.087 15.342 27.604 23.616l5.6198 9.7369-3.1694 3.8938c-24.011-6.3851-45.074-6.4275-46.904-8.0107-3.6558-3.1548-8.7052-15.763-11.999-20.585-24.333-35.592-77.957-73.304-108.66-99.304 9.2109 0.5903 19.736 9.6327 27.147 14.92zm-327.93-33.824 10.466-0.0398c-5.5481 4.85-8.3339 4.5009-103.56 22.599-0.6993 0.2184-8.3978 0.0643-9.246 0.0643 7.6202-4.9195 6.9154-3.8545 102.34-22.623zm-104.82 163.99c8.4176-2.0979 25.019 1.0863 34.389 1.5328l2.7877 3.4027c-13.333 3.8937-24.861 0.2281-37.177-4.9355zm37.152-17.361-5.0096-0.3074 0.0743-2.1478c15.635-5.6471 22.74-9.4954 31.299-14.906 2.8671 0.4265 1.3542-0.1437 4.1664 2.4801-7.2119 10.491-18.422 12.302-30.53 14.881zm42.187 62.692c-5.4661-2.0737-3.3976-0.2434-6.0712-5.6499l9.3301-7.4402c2.3413 0.3967 4.0872 1.4385 6.2003 2.48-2.3164 7.2371-2.7827 6.7508-9.4592 10.61zm5.8581 6.7508 10.263-1.2451c6.1456 3.8491 8.5911 4.1914 11.136 11.166-8.1545-0.5803-13.829-1.4832-21.264-4.9602l-0.1339-4.9602zm7.0584 14.881c18.018 1.3867 22.727 0.8962 30.203 9.9204-12.015 3.0183-21.68-1.1885-30.203-9.9204zm189.02-157.49c7.2419-11.498 16.518-15.699 29.345-19.117 10.138-0.3818 19.166 0.7639 29.132 2.5793 0.9673 5.5803 1.0466 5.5159-2.0736 10.362-7.2568 11.27-14.662 16.547-27.688 19.434-12.2 1.3206-23.53-2.0257-28.715-13.259zm78.788 36.061c-2.505 7.8772-11.329 15.878-18.432 19.712-9.7123 5.243-19.008 5.1735-29.161 1.6964l-7.4403-5.5901v-3.9534c34.784-5.2632 39.804-6.1699 50.287-31.805l4.3898 2.113c0.8782 5.6894 2.1429 12.217 0.3572 17.827zm37.797-80.703c-12.589-0.9226-28.02-8.1892-40.723-11.16-105.08-24.57-223.38 1.7577-286.28 97.518-22.286 10.957-52.048 25.476-77.067 24.523l-0.4714-2.996c32.693-6.7112 57.365-16.284 81.387-39.85-27.207 8.9631-52.068 16.517-80.916 17.896l-1.1808-2.847 44.34-8.4274c13.209-6.8402 22.698-15.029 33.541-24.994-23.293 6.1556-43.372 8.6357-67.434 8.7943 37.45-9.2408 58.079-21.111 88.218-44.89-32.42 8.4919-60.237 14.643-93.902 15.03 11.528-6.1359 25.669-8.2638 38.11-12.257 71.589-23.007 162.91-62.227 299.08-36.661 21.165 3.9728 44.964 8.7097 63.302 20.322z"/> <path d="m2112.7 1844.4c29.008 23.214 67.33 10.913 100.85 7.2717-119.81 84.841-77.895 197.21-67.945 281.43 19.668 166.52-47.096 269.93-23.69 326.62 6.2002-9.3105 8.2537-32.638 11.423-44.245 7.6538-28.02 14.886-54.969 18.179-83.902 3.5249-30.949 6.2097-169.59 5.0793-197.38-1.8264-44.924-10.229-90.889-0.9971-135.17 1.5676-8.2041 2.7925-16.354 6.7559-23.844 13.313-25.153 32.162-43.327 54.081-61.03 10.307-8.3282 20.545-17.415 33.268-21.641 4.5981-6.1359 11.726-8.3036 18.993-10.005l0.9373-0.0347c-3.988 5.4761-5.7141 8.1843-12.291 10.684l-7.6389-0.645c-44.213 49.77-63.117 53.878-69.329 76.511 11.129-7.5344 21.589-30.758 30.208-30.758l-5.1189 15.768 47.697-53.476c-12.738 23.685-37.44 48.918-45.212 73.674 20.079-17.514 31.562-45.644 55.609-59.036 0.5308 5.8083-11.647 16.81-15.58 22.148-8.3879 11.388-15.387 24.285-23.66 35.952 23.76-15.357 42.45-37.986 65.445-54.905-13.462 16.984-26.691 33.342-36.869 52.588 19.355-13.412 33.025-31.254 49.206-48.079 61.645-64.091 166.87-106.1 253.18-87.697 72.132 15.387 127.72 71.369 201.56 93.609 49.213 14.813 111.6 13.993 139.14-30.074l-2.4802-1.9991c-85.397 38.136-172.27-25.299-281.38-87.017 103.35 1.5624 211.77 62.393 277.66 47.767l1.7017-3.5464c-14.886-17.078-38.62-30.6-56.274-45.267-57.54-47.814-110.77-111.18-183.52-132.83-67.095-20.259-116.14 25.49-160.16 40.877-99.016 34.608-221.29-51.774-322.22 59.696-9.489 10.481-17.698 25.188-28.521 34.052-5.6101 4.5934-9.5037 3.5515-16.121 2.3612-33.852-28.264-52.451-125.89-58.893-169.69-5.4569 64.973-12.142 154.01 46.923 201.27zm157.06 20.699c-2.0137 2.8273-2.5444 4.8459-5.8828 6.0167-27.628 9.6871-56.348 38.992-80.921 55.986-1.5129 3.3827-1.969 5.1188-4.9602 7.4403 1.0564-3.745 2.3213-4.7074 4.9602-7.4403 6.1077-16.492 58.154-56.082 71.303-58.248 5.4909-0.9026 10.183-2.1032 15.5-3.7548z"/> <path d="m1214.4 1701.1c9.236-0.2281 16.542-1.1857 24.925-5.1488l2.7778-4.5039c-9.5386-10.218-52.34-11.488-68.134-14.97-29.781-6.5673-57.737-19.523-87.438-26.428 33.159 31.499 52.402 52.896 127.87 51.051z"/> <path d="m2978.4 1801.9c-20.6-56.18-69.264-103.14-123.12-127.73-12.594-5.7539-26.468-8.8143-39.866-12.172 28.799 25.064 62.335 44.066 91.957 68.173 27.247 22.172 47.033 46.834 71.026 71.73z"/> <path d="m1225.4 1715.1c-13.54-13.55-32.137 7.1223-136.64-32.673 37.717 38.317 43.735 45.979 90.474 46.05 28.013 0.0475 34.573-4.4982 46.17-13.378z"/> <path d="m1095.4 1719.7c17.247 17.549 36.339 37.852 62.033 40.773 13.997-4.5387 22.41-9.4983 44.617-20.58-16.477-5.2744-44.32 2.8743-106.65-20.193z"/> <path d="m2892 1956.1c-161.27 48.95-198.29-59.733-306.04-88.942-78.371-21.245-194.58-13.001-255.43 48.293-13.348 13.442-24.751 28.839-38.02 42.45-10.967 11.245-23.437 20.783-35.143 31.21-10.566 9.4093-14.218 16.153-28.521 23.005l2.4802 4.087c8.22-1.3073 10.086-1.3901 16.215-6.0167 26.825 1.632 41.194-29.186 63.148-30.54 3.0754 6.3245 3.2043 10.06 3.2341 16.9-21.23 10.263-47.142 12.078-69.508 19.995 31.798 1.7188 67.204-7.3732 78.139-4.6974 14.426 3.5283 22.966 11.66 43.411 16.716-19.551-12.472-50.49-20.123-39.081-65.495 29.067-29.93 62.97-49.171 101.93-63.228-9.0129 24.667-14.102 46.601-2.0735 71.745 35.423 74.039 148.71 59.922 171.23-20.848 2.7085-9.7223 2.7278-21.026 3.2686-31.091 18.824 9.9751 40.148 20.059 55.525 35.024-4.1714 20.778-6.865 33.491-25.153 46.075-96.332 66.279-197.24 28.591-203.1 39.439 69.463 11.096 145.38 11.468 205.5-31.527 16.508-11.805 26.909-27.306 41.314-40.629l6.3938 6.2002c-1.1929 21.677-70.02 99.64-204.86 90.955-92.07-5.9329-112.71-25.835-154.69-27.812 48.808 25.989 40.421 24.245 86.179 35.163-6.7458-0.0049-10.639-0.7092-17.053-2.4009l-6.6367-0.9521c9.2939 20.908 88.906 42.677 172.8 29.99-24.476 16.766-116.98 15.329-182.33-21.81-16.423-9.3298-36.304-27.192-54.518-31.081l-1.2996 3.5913c9.7019 9.092 21.994 15.456 33.328 22.321-6.7854 1.3193-26.929-11.731-33.045-15.913-8.574-5.8635-8.6787-10.239-18.824-17.058-23.537 4.1914-39.417-0.4385-64.354-4.1615 17.594 12.415 38.506 11.939 57.3 20.535 33.939 15.526 136.89 92.885 232.58 75.401 5.0298-0.9177 8.3533-1.4238 12.564-4.3801-21.674 1.4753-66.869 0.021-82.905-13.388 14.067-1.0815 29.231 2.1577 43.591 1.9097 40.53-0.7046 93.649-15.675 128.87-36.19 40.582-23.649 66.451-52.335 77.543-96.764 16.186 6.0514 31.066 12.688 48.675 11.523l1.8896-3.358-6.0962-8.6804 2.9663-2.9709c54.716 11.803 88.862 11.769 138.61-22.594zm-380.42 8.482-8.6804 3.1846c-9.821-1.5377-10.064-2.7976-16.666-9.6625-1.0466-8.9929-1.3245-11.101 2.1824-19.841 7.6475-1.2034 13.873-1.7198 24.891 7.4403 2.1824 8.3231 1.1902 11.18-1.7263 18.878zm-16.27-52.102c-2.5789-2.3167-1.7109-3.988-1.8501-7.2917l9.2212-6.6071c5.228-1.2993 10.957-1.6863 16.339-1.3145 7.9563 0.5557 11.974 4.1221 17.068 9.6776-1.3938 7.0631-4.3599 8.2388-9.6277 12.931-9.3438 3.8895-19.482 3.0948-31.15-7.3956zm41.79 53.064c-5.8381 2.1132-9.613 1.2449-15.6 0.3669-1.7112-3.3829-1.9294-5.119-1.533-8.9285 0.9526-9.1863 0.5708-10.223 7.6189-16.24 4.0972-0.6747 8.3633-0.5308 12.515-0.6349l4.4443 5.5951c-0.0841 11.567 0.6005 11.696-7.4452 19.841zm78.878 103.24c-63.15 26.484-153.27 20.574-180.04 9.6082-6.1404 0.6843-6.8994-0.2332-12.386-2.47 5.4265-0.2036 7.4353 0.5801 12.386 2.47 12.779-1.4561 108.32 17.673 187.71-19.132 22.5-10.431 54.78-36.646 63.238-60.445 1.7559-4.9502 2.1479-7.0781 6.6716-10.342l2.0583 5.0295c-14.543 31.478-47.692 61.889-79.636 75.281z"/> <path d="m2733.3 2012.2c-21.577 62.221-55.822 99.249-101.19 145.33 34.429-11.964 82.96-50.718 99.74-83.49 9.0129-17.599 12.386-48.486 6.1956-67.578-4.6874 1.7957-2.8026 0.1391-4.7419 5.739z"/> <path d="m1741.3 2106.4c10.625-12.634 20.729-26.517 34.474-35.912 22.162-15.144 56.18-16.131 74.756-36.607-52.617 16.818-63.701 18.932-75.093 28.363-21.726 17.99-38.124 41.611-58.114 61.373-16.572 16.379-36.101 29.533-52.415 45.976 24.263-3.6839 60.672-44.51 76.392-63.193z"/> <path d="m1193 2113.3c11.111 1.0481 10.594-4.302 26.468-5.1936l1.5575-2.7874-132.74-66.378c28.997 35.024 55.54 69.736 104.71 74.359z"/> <path d="m2225.1 2076.3c8.4619 16.185 23.298 31.572 35.907 44.845 89.054 93.727 203.05 128.61 226.71 128.23-11.342-9.8828-111.24-43.609-262.61-173.08z"/> <path d="m2785.8 2686.6c8.5862-14.544 13.581-30.882 19.628-46.576 82.1-203.25 83.244-186.58 140.14-256.38l53.58-67.613c-24.401 88.508-21.714 78.474-22.475 82.156 11.75-11.737 22.654-68.986 31.373-90.405 3.4253-8.4192 77.887-121.78 92.592-230.78-4.6064 9.1206-36.12 95.613-88.991 171.96-98.008 141.54-150.05 128.08-225.85 437.65z"/> <path d="m1173.6 2148c11.979 2.7429 22.123 2.2866 33.481-2.6787l1.2053-2.6338-117.92-60.758c21.507 34.682 42.216 56.676 83.238 66.07z"/> <path d="m1219.2 2195.7c-38.367-30.406-85.157-50.877-129.7-70.762 27.418 43.054 59.93 68.423 129.7 70.762z"/> <path d="m2538.4 2252.2c-94.704-43.146 6.6404 14.393-199.42-103.5-9.4592-5.4116-21.626-15.456-31.84-18.289 11.334 15.898 37.578 28.169 54.121 38.164 71.963 43.48 116.91 74.688 177.14 83.629z"/> <path d="m1837.9 2147.9h-1.746c-2.6487 4.5088-4.3601 7.1824-5.3274 12.391 4.4941-2.7234 4.8512-2.9517 10.064-2.634l-2.9909-9.7569z"/> <path d="m1353.4 2205c57.37 6.4382 168.74-3.8494 215.77-38.015l-4.9353-0.5505c-27.108 7.8521-57.29 18.913-85.048 22.772-42.568 5.9272-91.858-7.0288-131.69 11.949l0.8384 2.4009 5.0642 1.4432z"/> <path d="m1235.5 2237.4c-27.971-20.54-52.216-29.359-83.232-43.486-18.948-8.6257-36.949-19.513-55.579-28.814 35.12 58.573 78.215 72.355 138.81 72.3z"/> <path d="m1398 2180.4c-24.236-7.1331-41.85-10.898-67.132-9.8611l-10.853 3.3782c13.269 11.381 61.16 11.584 78.991 10.49l-1.0067-4.0076z"/> <path d="m1249.2 2281.7c-8.2531-15.254-86.95-47.191-104.26-54.895-14.286-6.3538-27.822-14.027-41.234-22.033 5.3522 10.764 10.67 22.406 19.037 31.18 20.328 21.318 83.466 47.033 126.46 45.748z"/> <path d="m1632.9 2204c-24.416 33.158-15.19 23.368-49.339 44.528-17.634 10.927-33.352 22.187-52.727 30.089-20.635 8.4126-42.34 14.335-61.993 25.079 54.661 0.8828 93.837-14.548 133.15-52.653 13.755-13.333 25.039-28.606 30.907-47.043z"/> <path d="m1456 2230.9c13.288-3.4773 27.762-6.0911 40.133-12.118-68.973-0.5059-98.559-2.5752-129.27 4.9849 29.454 9.871 58.272 16.443 89.135 7.133z"/> <path d="m1517.4 2245.2c-33.214 11.041-65.49 21.145-97.88 34.801 46.755-1.5972 98.396-13.65 133.27-47.593-12.009 2.1477-23.72 8.9184-35.386 12.792z"/> <path d="m1600.2 2232.3c-19.771 8.9829-39.186 19.672-59.661 26.904-20.628 7.2849-67.139 14.139-75.876 31.567 29.034 0.8177 124.53-39.553 135.54-58.471z"/> <path d="m1521.3 2234.8-49.141 0.7341c-29.31 3.7649-54.582 12.753-82.93 19.841 50.212 4.6661 69.036 4.4305 132.07-20.575z"/> <path d="m1213.7 2318.7c26.805 8.8835 54.905 11.136 82.32 17.366-49.359-36.919-108.65-56.824-165.74-78.887l-6.2498 1.0515c13.502 26.978 61.774 51.229 89.666 60.47z"/> <path d="m1341.3 2393c-34.677-29.483-77.677-44.24-118.31-62.881-28.214-12.941-59.493-31.567-90.162-37.202 5.2478 17.247 59.79 51.378 76.392 60.078 41.349 21.676 88.615 24.955 132.08 40.004z"/> <path d="m1387.8 2428.7c-42.172-25.58-91.784-35.917-137.5-53.54-100.32-43.652-98.975-44.077-106.41-42.534 20.914 41.044 134.01 94.22 243.91 96.074z"/> <path d="m2953.7 2418.2c-2.5649 7.9114-6.1211 13.457-7.6189 21.929-1.4587 8.2102-5.3755 10.344-3.7749 18.829l2.366-2.3164c11.47-24.562 27.011-54.451 30.248-97.26l-2.9167 0.5356c-7.4701 19.38-11.994 38.824-18.303 58.283z"/> <path d="m1439.2 2473.2c-56.462-27.604-115.31-39.87-174.2-60.029-37.643-12.882-74.19-31.234-111.54-45.51 25.565 26.224 57.767 52.067 92.002 65.862 89.393 36.033 125.23 29.261 193.74 39.677z"/> <path d="m2940.1 2399.1c-6.8948 10.888-8.2441 21.026-11.86 33.03-6.6021 21.934-12.921 42.747-16.141 65.475 9.4968-10.003 28.32-74.898 33.908-101.17l-5.9077 2.6636z"/> <path d="m2878.7 2534.1 46.085-119.28c-25.302 34.518-39.994 77.032-46.085 119.28z"/> <path d="m1188.2 2442c101.89 107.89 170.92 92.305 307.47 125.38-60.742-43.071-124.54-46.258-190.27-72.434-12.207-4.8662-27.877-10.55-37.395-19.672l205.8 48.6c-61.993-36.309-132.37-49.533-199.48-72.711-14.712-5.0793-27.217-13.68-41.224-20.054-22.782-10.367-44.667-19.156-66.824-31.334 2.2964 4.8313 9.5583 10.352 13.591 14.166 22.414 21.194 46.927 34.441 72.786 53.565-29.464-6.948-40.857-19.215-64.453-25.51z"/> <path d="m1258.7 2535.8c28.898 23.51 21.14 21.492 64.671 35.842 56.958 18.764 120 25.198 179.41 32.752-54.94-29.637-120.14-40.917-178.47-62.841-21.091-7.9214-37.058-18.472-56.482-29.151l-70.936-37.137c19.315 23.834 38.149 41.294 61.804 60.534z"/> <path d="m1902.2 2510c-1.4634-8.4971-1.4385-10.58-7.2271-17.346 0.62 5.3472 0.7588 11.666 4.9106 15.729l2.3165 1.6169z"/> <path d="m1515.8 2646.4c-46.135-23.908-98.133-31.512-146.96-48.392-52.608-18.184-106.25-47.757-155.37-74.15 87.284 107.38 174.18 109.25 302.33 122.54z"/> <path d="m1272.6 2615.4c18.978 17.053 34.24 32.405 60.187 38.243 51.195 11.52 29.143 24.891 190.21 32.718-52.737-22.569-109.6-30.322-163.1-50.907-47.464-18.264-88.684-48.04-135.26-67.861 14.707 17.831 30.853 32.435 47.955 47.806z"/> <path d="m1322 2686.5c23.818 14.001 100.2 38.1 197.19 39.603-66.713-33.973-130.44-30.558-221.94-84.111-16.319-9.5483-37.122-30.763-55.584-34.012 3.0455 10.709 11.478 17.966 19.037 25.798 17.767 18.413 39.096 39.667 61.298 52.722z"/> <path d="m1293.9 2696.5c18.357 17.983 43.841 54.932 174.93 69.79l59.23 3.9631c-44.583-19.474-92.404-27.648-136.66-46.18-53.134-22.247-99.398-53.824-149.14-82.002 15.709 19.628 33.71 36.859 51.636 54.428z"/> <path d="m2188.8 2869.1c-5.7341-1.3391-18.849-6.1553-24.275-5.5256-17.51 2.0515-61.05 29.063-95.246 39.488-14.76 4.5024-17.981-13.112-82.746-30.252-3.6956-0.9771-11.334-3.8643-14.866-3.7798-4.98 0.124-23.63 13.338-29.176 16.086-105.52 52.238-162.39 52.374-219.65 59.999 31.101-14.797 60.971-20.302 93.332-30.391 27.44-8.5564 45.659-24.459 70.41-37.063 18.02-9.1716 39.444-12.976 58.248-20.709 16.875-6.9397 31.155-19.429 45.316-30.679 14.057-11.17 31.254-22.718 39.389-39.181 5.1439-10.421 6.7014-21.78 3.0803-32.867-10.456-9.6045-3.5441-5.8911-13.968-17.866l-5.0894 0.5059c2.2571 4.7371 2.3762 7.2617 2.7183 12.4l-3.2438 1.1758c-0.6747-4.8066-0.8534-8.9182-3.4374-13.14-2.3215-3.8047-1.265-5.8977-0.9624-10.357l-3.6309-2.9019-3.869 6.4385-2.981-0.853c-0.0447-3.7402-0.4763-6.5476-1.5773-10.124l-4.0082 1.4336-3.7697 14.687c-1.8501-6.5576-3.626-19.171-6.9344-24.861-4.092-7.0288-17.822-17.301-24.007-23.462-25.153 21.314-40.123 47.554-62.385 70.534-1.6169 3.3032-2.2568 5.2083-5.2032 7.5247 0.8877-3.1448 3.12-5.0645 5.2032-7.5247 7.8998-18.152 26.412-47.965 41.78-57.98 5.3871-3.5122 9.712-10.213 13.68-15.248l-0.1489-4.4348c-18.155-7.7717-56.88 21.532-106.27 41.909-16.939 6.9836-41.869 11.032-55.961 22.221-14.414 11.448-23.412 25.797-75.083 99.08-5.1635 7.8474-20.391 36.235-28 39.627 14.058-36.276 24.73-35.858 36.75-87.989-36.583 35.65-25.525 30.633-45.455 63.367-10.744 17.644-18.903 26.607-22.167 48.079-1.3044 8.5911-4.3699 20.421-9.6874 27.262 0.8286-30.502 14.049-53.443 14.638-71.621-4.335-5.7637-4.1466-6.0759-11.091-7.7275-18.408 17.231-22.033 47.935-33.472 69.73-6.587 12.559-17.227 23.64-26.388 34.389-12.807 15.034-24.851 30.456-40.451 42.732-30.654 0.3474-60.599-2.2568-89.949-11.448 33.665-2.5596 60.55-0.5605 92.072-14.727-122.29-14.128-149.44-26.499-210.71-58.749 39.784 50.298 83.834 57.913 104.01 71.507-29.091-6.2847-52.921-14.474-79.939-26.631 27.529 32.511 88.667 57.403 120.53 60.331 26.284 2.4158 50.743-2.0535 76.303-7.7974 13.973 9.2209 35.128 15.297 52.117 13.864 49.929-4.2156 73.198-76.72 97.88-78.282 12.976-0.8184 34.85 9.9155 48.476 12.614 113.28 22.482 192.2-22.082 247.61-21.259 19.657 0.2927 38.953 8.5566 58.625 8.1794 35.386-0.6758 49.271-10.649 137-4.4045 54.89 3.9036 105.9 18.318 161.64 14.682 21.344-1.3889 58.114-6.2896 72.385-22.599l-1.5527-2.6094c-63.709 10.161-161.28-45.034-245.85-64.805zm-173.93-109.17 3.7898-1.6667 0.4414 9.6082-4.8065 4.9602 0.5753-12.902zm-82.826-26.78c6.3589-7.5046 16.944-25.391 25.188-29.761-4.5537 19.079-45.067 67.041-61.864 71.507 6.9889-14.613 25.858-28.968 36.676-41.745zm-135.79 87.27c2.9811-10.61 13.249-28.606 22.093-35.188-3.4772 12.003-12.123 28.392-21.577 36.81l-0.7439 0.3918 0.2281-2.0137z"/> <path d="m2595.4 2967.7c27.843-12.959 50.071-22.514 65.872-46.215-20.584 4.8372-25.752 11.417-41.919 16.795-26.624 8.8582-94.378 15.225-108.76-8.9036l43.337 12.376c-62.599-50.023-60.825-105.15-124.23-120.86l-1.8252 4.0723c-6.0154-3.6763-17.665-21.183-43.452-32.802-4.8064-5.0842-9.5432-8.1943-15.476-11.706 8.7793 26.81 26.264 50.565 34.503 76.636 5.3821 4.3748 5.3918 5.7688 7.5 12.5-5.0793-4.271-5.3074-6.1165-7.5-12.5-3.9365-2.7454-2.6006-1.9424-42.45-63.064-6.1406-9.2458-16.141-27.529-27.49-29.826 5.5803 7.2219 5.0796 8.5911 5.4814 17.361l-3.5369 1.741c-4.2461-5.8184-8.1099-11.24-13.641-15.957l-6.2002 3.5171c-9.5684-13.809-28.67-25.238-41.735-35.862-10.992-8.9382-20.972-19.36-31.343-29.017 10.614 25.342 32.98 46.621 53.932 63.883-28.782-8.114-70.121-68.098-96.273-94.904 3.4275 15.256 9.9011 25.877 12.356 43.075-7.7131-5.4363-11.404-16.309-17.519-23.278-5.4067-6.1606-12.986-11.587-19.345-16.77l-7.7231 40.366c-2.4106-10.962-2.5247-22.336-3.1445-33.516l-4.2114-1.4136-10.833 11.334c-3.5317 5.4265 1.1604 12.946 3.0652 18.407l-13.313-14.211-3.5962 4.4839c0.8184 5.218 1.5027 8.9731 1.116 14.256l-9.9204-8.0305c-4.0823 4.8909-2.7778 2.1179-3.9731 8.2786l-6.3342 0.8384 1.3096 30.495-8.3628-28.085-3.4031-1.6321c-12.131 19.654 4.832 84.384 57.544 112.86 12.733 6.8748 27.43 11.101 41.229 15.401-4.9404-6.7854-12.212-14.548-14.642-22.559 14.805 7.5369 18.792 12.501 30.342 19.429 64.191 38.551 94.017 37.103 131.98 52.202 31.651 12.594 44.186 37.494 82.359 26.492 0.2976-4.4595-0.2378-6.905-1.2944-11.17 54.549 91.726 145.06 99.624 219.68 43.62 5.6001-4.2065 11.671-8.0752 15.366-14.152-11.373 1.7753-38.434 19.747-73.525 26.007zm-158.58-84.636c-16.716-5.8479-26.612-34.652-33.71-49.062-6.3789-12.956-13.695-25.322-19.295-38.655l2.3906 1.0764c10.56 6.6021 16.037 26.577 22.376 37.227 9.7222 16.339 26.274 31.557 31.448 49.979l-3.2094-0.5655zm53.903 40.942c10.813 5.2725 29.34 15.852 34.364 27.321-10.868-2.6985-28.452-18.085-34.364-27.321z"/> <path d="m1311.5 2750.1c60.236 52.894 135.32 50.772 214.87 57.786-58.629-26.533-133.81-35.596-209.2-81.472-19.642-11.944-37.37-26.84-57.32-38.437 15.57 21.567 31.587 44.504 51.651 62.122z"/> <path d="m2071.4 2735.8-4.2808-1.4087c-4.4097 25.109 3.1497 61.1 18.085 81.938 18.936 26.418 43.655 29.656 79.443 25.441l-21.671-16.121c-54.894-54.812-39.167-73.825-49.325-92.196-5.541 5.822-2.3926 20.509-0.8032 34.95-5.9342-13.532-10.104-21.433-21.448-32.604z"/> <path d="m1398.7 2831.4c44.359 9.9255 86.715 12.827 132.08 10.317-40.844-15.505-70.441-19.924-109.6-31.651-28.626-8.5686-109.4-46.198-146.13-72.598 28.472 44.984 70.47 82.037 123.65 93.931z"/> <path d="m1369.5 2857.3c11.175 6.0964 23.388 13.651 36.026 15.982 47.122 8.6804 95.003 9.186 142.39 2.1428-52.757-10.178-108.49-18.437-158.35-38.903-35.986-14.772-69.274-35.044-104.68-50.827 23.144 33.159 49.374 52.38 84.611 71.606z"/> <path d="m1551.8 2912.4 4.9602-2.2717c-62.95-12.39-124.91-17.123-184.56-43.749-25.471-11.369-49.28-26.339-73.957-39.265 92.375 118.61 192.05 91.715 253.56 85.286z"/> <path d="m1440.8 2953.6c38.724 5.4365 84.746 3.3877 122.72-5.9275l6.2847-2.4802-2.0089-2.7627c-113.4-7.2583-112.4-13.471-152.45-26.116-37.117-11.721-69.795-25.292-104.11-43.669 23.457 29.835 45.907 42.544 79.002 60.321 15.788 8.487 32.549 18.105 50.564 20.635z"/> <path d="m2080.2 3031.4c-105.39-0.0901-119.42-10.766-212.56-38.725 34.374 23.646 66.636 39.474 105.75 54.136-21.443-0.7886-49.582-7.3408-68.54-17.524-8.8837-4.7717-16.398-12.073-24.568-17.986l1.3047 3.5217c3.5662 6.8601 13.343 13.799 19.652 17.926 47.878 31.338 122.48 30.422 144.08 36.334-10.589 1.9131-1.4624 0.072-109.97-0.491 46.107 16.872 96.982 10.674 191.36 5.5305 13.115-1.2251 29.117 0.5107 41.364-4.4045-27.99-3.5815-57.454-1.7363-85.549-0.4365 32.381-14.028 85.119-3.946 105.22-14.906-5.8433-0.3721-11.557-0.625-17.4-0.0793-18.338 1.7109-36.453 0.6992-54.821-0.0249 42.687-8.4075 87.771-14.31 126.59-35.009 10.466-5.5803 21.914-11.815 29.786-20.798-29.044 7.2014-62.931 33.034-191.71 32.936z"/> <path d="m1538.7 3091.6c65.088 0.1055 47.493-7.2969 143.88-1.885-26.646-11.988-48.273-16.388-76.923-21.507-82.527-4.0056-93.374-3.5554-108.44-9.6924v-2.3159c51.586 0.6394 124.48-2.0242 169.77-27.197-34.503 7.2668-62.191 4.4443-96.873 2.4207-40.955-2.3975-31.085 5.7773-117.19-13.591-62.151-15.777-52.194-15.342-59.85-15.61 40.219 38.989 66.307 34.814 99.939 53.422l-69.156-16.547c23.591 23.66 46.507 33.481 77.776 43.66 12.232 3.978 23.993 8.8239 37.068 8.8437z"/> <path d="m1695.1 3128.4c-55.956-25.148-108.98-25.01-168.14-34.111-24.841-3.8193-49.225-11.87-74.388-15.704 19.211 12.435 38.204 24.9 59.776 32.886 52.218 19.328 100.62 10.775 182.75 16.929z"/> <path d="m2183.7 3093.9c-53.918-13.393-112.9-10.595-168.08-7.1279-24.9 1.0417-49.047 2.5244-72.994 9.9204-4.6479 1.4385-12.287 2.9958-15.833 6.0911 40.421-0.7244 79.185-5.5105 119.75-1.9343-88.216 10.087-183.75 38.658-236.93 108.95 50.654-35.654 101.11-56.755 160.84-71.838 74.165-13.586 153.01-14.573 226.93 1.7458 20.466 4.5188 39.742 14.201 59.895 18.243-44.806-41.487-97.89-49.964-155.27-59.636 6.6521-3.7216 5.4053-2.51 81.685-4.4145z"/> <path d="m1597 3133.9c-35.099-5.4399-62.891-11.076-97.766-11.795 15.203 8.7346 31.984 20.312 48.412 26.185 57.231 20.446 118.73 10.823 176.17 28.323 31.343 9.5483 55.53 30.867 84.606 45.034-56.266-60.408-87.99-68.612-211.42-87.746z"/> <path d="m2544.4 3387.3c-5.9521 5.0642-8.333 16.711-9.6821 24.161 2.321 5.1387 0.6743 3.3877 4.1365 5.9075l44.265-53.426c6.344-7.4053 17.728-16.676 20.729-25.956l-1.3347-0.9277-58.114 50.242z"/> <path d="m1344.8 3487c-1.0616-2.9463-3.2787-4.7668-5.3621-7.0486 1.6371 2.5891 2.8225 5.2727 5.3621 7.0486z"/> <path d="m1525.8 3686.5 4.0276 0.5259c-1.2698-9.3154-4.1368-10.208-11.691-15.858-38.739-28.978-76.095-57.057-109.74-92.161-48.76-50.863-61.486-79.547-73.585-84.388 16.581 41.645 158.07 182.68 190.99 191.88z"/> <path d="m1530.4 3662.3c-12.854-21.66-29.935-17.782-152.03-141.33-7.837-8.4919-16.488-20.515-26.388-26.185 14.851 30.694 145.6 153.36 178.41 167.52z"/> <path d="m1514.6 3712 3.7102-1.627 1.1757-7.1824c-78.032-60.946-138.86-125.25-167.45-163.95-7.073-9.5684-12.931-22.326-22.232-29.761 9.2904 30.302 37.415 59.329 58.426 82.513 22.953 25.325 93.009 103.18 126.37 120z"/> <path d="m1503.4 3740.5c5.2279-0.1042 3.229 0.7686 6.3789-1.4785l2.3015-8.333c-16.845-8.7163-23.187-15.672-38.774-28.114-109.52-87.387-135.24-163.5-151.11-175.57 2.2322 14.896 12.659 27.678 20.61 40.148 41.641 65.291 99.046 126.51 160.6 173.35z"/> <path d="m1360.3 3616.6c-6.483-10.158-27.881-51.319-36.621-53.804 4.0723 16.77 17.058 32.475 26.294 46.973 3.9401 6.1831 53.466 100.62 144.42 161.06l2.8672-0.9624 1.9095-8.6604c-60.714-53.259-67.92-33.347-138.87-144.61z"/> <path d="m1371.5 3678.2 2.4503 1.7312c-5.0692-16.28-16.046-31.582-24.93-46.13-5.0444-8.2539-9.851-18.298-16.959-24.821 2.9215 17.103 17.093 35.069 26.294 49.652 3.7355 5.9172 8.2094 14.851 13.145 19.568z"/> <path d="m1352 3668.3c5.3816 14.722 38.07 54.23 52.28 61.804-3.0305-10.714-16.577-22.256-24.012-30.624-9.2361-10.402-17.148-22.743-28.268-31.18z"/> <path d="m1447 3781c-12.029-13.442-23.254-34.994-36.656-46.2l-3.6852-2.1526c9.4492 22.346 46.046 71.467 68.496 80.752-1.7632-12.22-17.623-20.624-28.154-32.4z"/> <path d="m1482.9 3793.7 2.7775 0.7043 0.4565-8.3533c-12.847-11.8-43.437-41.572-59.547-45.926 5.9324 14.37 41.611 48.054 56.313 53.575z"/> <path d="m2297.5 4300.4c-1.0369 73.074-24.092 152.74-67.449 212.23 5.1887 0 7.0239-0.5059 11.706-2.2817 34.325-18.566 54.032-43.268 65.658-80.41 12.126-38.74 10.01-95.788-9.9153-129.54z"/> <path d="m2211.2 4316.7c-7.2507 95.087-24.178 104.93-30.788 136.41l2.5247 1.7856 8.6802-5.0938c35.261-34.089 40.341-84.108 23.001-130.62l-3.4178-2.4799z"/> <path d="m2069.2 4403.5c-8.7498-13.666-14.667-29.012-22.971-42.94 13.447 53.55 33.789 118.63 83.351 150.18 20.49 13.04 44.483 12.961 67.96 13.244-52.643-21.899-97.895-72.925-128.34-120.48z"/> </svg>