<?xml version='1.0' encoding='utf-8'?>
<svg xmlns="http://www.w3.org/2000/svg" enable-background="new 0 0 3850.9849 5000" version="1.1" viewBox="0 0 3851 5e3"> <path d="m3716.1 3794.4c-11.341-11.17-35.699-29.928-50.681-35.063-18.599-6.3718-1.7188-6.2253-144.98-87.18-125.5-66.592-354.32-128.51-466.33-298.59-61.338-93.142-93.544-205.24-126.31-246.99-49.515-63.1-88.74-55.335-119.85-92.024-26.164-30.862-38.614-75.476-61.668-105.45-16.465-21.412-37.096-36.153-58.898-51.538 0.0862-13.495 2.2185-26.695 4.1335-40.026 21.362 12.214 36.862 17.653 61.611 21.358l-45.861-32.146c25.199 2.9524 27.856 14.616 94.166 0.2585-12.039-4.6831-28.188-9.0254-37.795-17.743-22.176-20.122-22.123-44.882-22.928-72.551 11.953 17.719 23.512 32.644 41.904 44.192 23.265 14.609 54.03 17.164 80.45 11.014 8.3826-1.9556 12.533-3.2498 17.007-10.451-18.096-1.4336-32.835-5.616-49.842-11.647 32.294 0.0972 58.199 3.2849 73.194-11.938-20.743 1.26-27.8 2.4077-51.802-5.9326 13.013-1.0557 27.818-1.3926 40.392-4.9011 54.165-15.11 105.1-65.176 119.51-119.6 1.627-6.1458 5.8591-40.236 7.4043-41.653 7.4558-6.8647 31.194 2.3555 78.511-36.822 19.349-16.026 26.869-34.76 38.209-56.303 7.6104-14.452 17.837-27.771 24.814-42.413 15.043-31.555 16.075-68.931 19.037-103.1-13.276 24.587-20.101 51.94-41.378 71.474-11.197 10.283-20.55 17.497-36.151 16.749-6.6401-7.6167-9.3892-11.659-8.1853-22.488 3.8586-34.755 44.505-63.032 66.155-87.118 9.5286-10.599 19.234-26.625 31.146-34.143 6.4226-4.051 15.211-5.6245 22.254-8.533 149.46-61.709 131.76-236.42 140.99-259.1 2.7158-6.6635 22.751-20.356 28.866-27.813 16.723-20.389 27.826-42.618 39.578-65.895 17.582-34.83 33.308-64.668 36.18-104.53 7.176-99.583-30.592-133.93-67.232-176.4 1.0068-5.09 25.784-14.711 32.059-18.696 74.692-47.434 81.134-107.77 90.628-170.15 2.9873-19.613 7.5278-39.328 4.4995-59.129-12.413 40.876-12.927 73.446-47.364 103.8-70.841 62.435-200 30.605-213.33 29.858 33.77 27.291 93.506 33.837 132.73 27.295 23.5-3.9192 46.662-13.738 68.863-22.147-35.14 29.624-66.816 56.685-115.27 52.421-119.05-10.474-195.64-129.72-285.39-161.92 17.488 19.428 38.3 36.008 57.46 53.776 106.04 98.347 75.064 71.362 197.17 145.64 73.339 44.611 76.112 62.382 87.382 95.089 30.313 88.001 21.261 134.32 16.28 181.97-3.6321-24.013-5.0537-49.862-10.388-73.373-12.396-54.699-57.199-102.99-71.772-106.33 2.3955 13.496 12.352 28.059 16.818 41.378 16.124 48.058 0.5259 112.99-20.771 156.65 0.1726-74.834 10.501-140.01-101.93-212.14 29.474 52.544 52.16 99.517 59.075 160.27-20.247-19.578-17.883-56.379-96.04-112.78-54.518-39.336-121.58-65.444-186.81-80.891-79.361-18.791-93.51-12.976-164.98-90.664 8.5347 29.542 30.715 57.022 51.634 78.845 95.492 99.597 198.29 110.07 277.7 157.39-19.029-2.3909-71.624-8.8574-87.271 1.6968 0.4023 1.4093 0.2383 3.1265 1.208 4.2274 4.7703 5.4062 57.658 15.66 71.46 23.737 15.626 9.1448 26.063 23.018 30.542 40.45l-3.5132 3.455c-93.879-3.1593-194.59 15.34-280.85-32.907-74.361-41.592-133.17-130.39-157.82-210.79-12.882-42.01-10.842-143.01-111.46-196.9 28.576 66.727 59.95 130.71 79.711 269.55 10.541 74.169 8.8142 48.68 8.5752 154.19-0.8792 19.198-3.6487 41.678-0.6365 60.58 3.4636 21.716 18.614 47.064 26.347 68.208 7.9468 21.732 10.786 44.134 14.04 66.914l3.3818 2.1279 7.7043-17.439 6.6565 38.239c20.919-41.936 23.006-93.548 38.321-138.06 2.0381 9.8761 4.4705 20.393 3.7925 30.512-0.7024 10.492-7.1414 30.163-5.239 39.361 10.494 50.725 81.224 54.469 18.462 148.69-13.35 20.052-31.344 38.387-25.817 64.519 1.8328 8.6643 5.1733 12.358 12.631 16.84 27.87-4.0029 61.241-61.759 91.529-81.264 18.131-11.686 41.428-20.638 35.678-74.005-2.9871-27.722-22.698-47.894-43.202-64.45 17.514-10.099 27.651-16.248 41.049-28.474 26.774 6.7009 36.624 12.489 55.291 32.681 1.7988 41.28-3.5637 117.24-30.082 149.2-15.13 18.237-36.558 31.765-50.619 50.634-17.845 23.951-21.149 51.636-48.236 69.195-15.647 10.139-36.13 15.841-54.646 10.747-11.004-3.032-19.719-9.0056-31.352-11.446 17.548 15.629 34.566 28.078 59.704 24.723 27.153-3.6233 56.121-28.211 70.696-50.691 8.814-13.594 14.431-29.214 24.186-42.183l55.065-67.309c22.32-29.99 25.39-69.938 19.731-105.98-1.208-7.7112 11.485-32.069 14.583-41.427 18.851 19.433 24.95 21.656 26.096 59.918 1.5654 52.614-26.779 87.616-54.539 128.98-58.125 86.628-58.119 118.92-83.779 173.37-23.342 49.535-81.032 93.257-123.92 70.016-53.269-28.871-29.485-153.5-51.675-163.65-37.965 80.119-13.946 456.86-255.19 618.17 7.3267-15.418 11.842-30.902 15.849-47.441-31.502 46.843-90.222 189.8-245.71 249.34-19.74 7.5593-41.296 12.645-61.508 19.28 27.083-35.265 58.262-67.374 81.897-105.13-43.954 29.933-89.564 57.055-125.53 96.917-28.742 31.863-52.209 70.291-84.917 98.268-54.001 46.188-120.88 67.494-191.6 57.137-20.545-3.0073-40.404-11.281-61.29-10.948-48.141 0.7766-93.517 14.231-142.14 9.6995-143.59-13.379-184.84-121.98-258.66-202.48-39.244-42.799-59.963-46.542-132.06-134.54-154.97-189.12-131.43-441.61-184.87-666.76-12.117-51.044-32.017-100.99-48.355-150.81-90.03-274.62-8.106-314.6 18.433-474.85 13.163-79.472 3.6307-151.3 7.688-188.21 1.4956-13.623 4.417-41.949 10.223-53.362 24.046-47.269 80.861-81.778 121.1-114.79-86.796 16.07-80.179 32.71-119.92 63.541l0.3864-4.0547c10.096-11.976 20.237-27.291 32.186-37.294 25.39-21.244 61.853-30.039 89.199-50.358-6.9812-3.4674-20.204-2.198-28.212-2.5225l-2.5681-4.7163c-24.44 2.3572-41.647-0.0599-77.722 39.024-7.5856 8.2162-13.264 17.197-21.762 24.649 5.0294-18.68 11.818-31.3 25.028-45.519 22.012-23.688 60.004-42.499 92.395-43.563 35.358-1.1626 90.48 32.623 112.25 59.487 18.569 22.92 29.359 49.767 51.819 70.16 36.044 32.73 67.585 32.976 113.27 30.738-18.47-7.6497-40.346-9.4243-54.658-24.296l41.016 14.013c-5.5471-11.417-15.684-21.116-23.73-30.931-21.576-26.313-38.592-46.903-66.85-66.475 37.417-9.6708 79.509-10.386 118.04-13.68-9.9603-11.059-18.754-20.496-23.968-34.636l1.8696-3.8823c34.972-1.2782 91.142-10.433 116.1-38.309 11.715-12.92 17.648-30.027 24.379-45.922-37.757 30.561-56.353 52.646-105.89 38.264 31.368-2.1042 36.737-1.4858 41.563-8.2242-29.54-7.0951-53.458-12.394-79.279-29.362-65.391-42.972-109.3-120.39-125.7-195.41-5.7693-26.387-7.0554-53.505-12.483-80.044-4.0476 8.3687-11.209 54.15-7.9469 102.66 4.6719 69.503 45.499 136.19 96.989 180.88-28.954-6.6141-102.15-71.457-124.23-153.36-24.67-91.548 25.71-180.32 68.76-257.03l-15.331 12.592c-46.933 42.232-75.593 105.23-85.138 166.92-4.1993 27.159-3.8914 55.871-5.2062 83.368l-1.705-2.4527c-14.406-180.68 32.534-192.81 44.998-239.96-5.8716 4.6257-10.137 12.427-14.575 18.482l-27.806 36.904c7.2236-24.785 17.895-46.71 27.033-70.653-38.506 34.029-55.578 88.421-69.968 135.76-7.3508-24.136 23.2-113.29 33.945-136.77 6.2151-13.582 15.537-22.957 20.52-37.639-8.1071 3.4181-13.773 10.727-19.567 17.148-22.879 25.364-38.908 56.328-51.831 87.776-3.4641 8.4221-4.5487 19.929-9.4427 27.077 4.9913-45.19 14.795-86.144 44.936-141.22 6.1963-11.322 16.67-23.142 23.984-34.176 66.483-100.29 114.51-129.89 140.06-151.93-15.165 4.4965-21.134 8.8466-37.067 17.296-130.52 69.203-107.48 129.54-122.51 156.45-9.1243 16.344-20.118 16.265-52.682 73.442-0.526-30.4 3.8582-56.212 8.5548-86.075-14.098 30.688-24.005 65.284-25.874 99.049-9.5902-15.147-1.2408-62.375 2.5353-79.091 8.5221-37.734 24.465-74.355 43.21-108.11-49.423 44.746-84.136 109.41-87.226 176.58l-1.0848 65.863c-25.685-44.714-18.392-88.298-23.002-137.59-22.527 107.11-7.2253 132.79 2.8765 163.32-32.355-48.123-40.626-97.328-29.326-154.59l26.893-94.221c-45.133 60.982-69.306 131.58-58.471 207.9 9.3685 65.974 51.223 115.74 95.822 161.9-4.861 3.8782-16.013 2.9169-22.32 1.8076-25.336-4.4535-53.121-39.196-66.377-59.799-68.263-106.08-51.202-221.77-44.332-302.07-19.308 19.07-32.243 48.654-41.32 73.928-3.9531-60.898-11.176-84.324 52.92-173.14-72.716 52.999-75.893 110.27-89.696 132.76-14.574-24.27 6.7194-78.576 19.736-105.26-32.795 26.092-56.574 65.648-61.241 110.83-7.2567-26.958 0.6573-66.261 9.3273-92.414l-3.5338 1.5363c-5.6951 3.4348-12.713 13.898-17.011 19.247-26.988 33.585-41.065 64.433-55.43 104.38-3.3716-91.204 23.126-146.6 83.36-212.28 20.496-22.344 40.807-42.939 69.208-54.836-31.335 27.681-57.838 52.018-63.661 95.82-1.4997 11.277 0.604 21.243-2.2313 32.791 14.604-10.451 26.988-34.23 40.581-47.671 14.817-14.654 30.678-25.216 47.685-37.003 13.346-9.2473 26.01-19.559 40.153-27.611 62.506-35.59 153.81-64.179 225.66-63.522-57.978 18.068-120.4 35.166-169.83 71.869-16.944 12.585-43.846 34.156-45.639 55.099l2.2229 0.6288c-1.3313 12.928-19.386 35.914-26.01 48.001l34.787-24.502c-17.155 27.34-27.078 47.134-34.561 78.964 56.389-90.957 105.03-112.69 217.18-150.04l-28.57 47.556c17.64-7.1807 32.498-26.169 49.793-35.618 75.269-41.119 178.89-74.667 264.78-71.056-135.26-51.441-198.41-16.537-248.11-14.838 27.839-13.623 58.866-18.643 85.472-35.068l0.6945-3.9686-7.1168-1.8363-0.8176-2.2429c17.04-11.873 36.78-21.207 54.9-31.395 28.724-16.154 52.44-37.616 87.202-35.947l0.9121-2.4565c-19.936-5.6663-28.417-8.6469-57.366-7.4938 26.384-14.798 46.687-20.496 76.613-23.971-30.317-14.231-25.838-12.19-28.262-13.118 19.625-12.016 46.765-13.486 69.167-16.64-77.389-40.105-159.75 3.6267-234.37 30.747-7.0552 2.5676-19.46 8.8988-26.746 6.9059-3.9979-1.0929-3.4391-1.9308-5.2224-5.2585 14.56-33.798 90.078-68.373 125.56-78.46 21.827-6.2049 46.424-7.715 68.876-11.797-34.725-11.722-68.966-17.31-105.59-14.509 22.842-11.332 41.686-12.849 66.698-12.56l-27.794-13.064c22.93-12.363 54.872-20.156 78.774-13.188 14.201 4.1403 26.232 12.157 41.226 14.384 28.073 4.1686 57.506 4.9489 85.85 7.3509-31.664-24.752-63.78-42.072-101.13-56.746 52.642-7.1282 118.56 26.991 169.86 50.644 57.314 26.419 69.627 30.35 99.783 66.895l-28.303-14.747c11.612 19.313 27.991 41.255 31.754 63.823-17.036-13.954-24.424-37.044-48.096-43.478 28.681 36.839 43.543 93.922 52.008 139-34.598-57.174-65.559-84.079-130.32-102.15 56.274 47.222 96.182 102.9 102.3 175.21-10.679-15.928-19.658-32.874-32.046-47.602-49.334-58.643-133.35-67.88-158.42-59.926 64.942 14.867 123.23 70.019 157.16 126.01 19.329 31.904 31.845 57.938 27.925 95.438-8.5415-42.958-41.805-79.487-57.152-84.296 40.714 47.866 38.928 70.433 44.451 123.42-30.123-49.738-70.457-107.08-130.36-121.97-45.244-11.248-100.21-1.7586-143.48 13.047-10.973 3.7573-30.793 7.8622-40.568 18.664 15.24-0.0985 38.9-13.462 53.224-5.3448-22.382 16.778-57.978 21.486-77.286 41.148 47.377-10.188 99.606-23.902 148.11-12.756 66.858 15.357 133.05 50.371 156.24 118.92 19.541 57.765 3.2784 57.77 57.995 146.31 5.1484-30.094-8.9529-67.822 18.158-193.12 12.943-59.811 27.822-122.14 73.572-166.09 46.181-44.364 112.35-99.184 173.79-118.01 36.75-11.259 147.35-15.055 190.48-13.607 20.381 0.6823 40.326 4.5398 60.784 4.9958-6.3975-8.6392-15.84-13.553-25.007-18.882-57.899-33.687-110.44-35.49-137.64-46.003 18.638-1.4131 38.46-4.5454 57.062-3.9373 32.523 1.0626 64.828 7.7019 97.162 11.103-24.403-11.02-49.419-23.875-74.669-32.673-56.408-19.654-123.94-22.508-180.09-0.7343-91.434 35.457-111.09 81.716-151.85 139.26 0.452-10.016 2.4244-19.695 4.2283-29.534 3.8541-5.012 5.847-12.624 8.103-18.602l-1.7628-3.8247c-3.7269 4.252-6.562 9.1079-9.6233 13.849-18.45 21.063-22.485 51.184-37.269 74.079l9.7094-39.262c2.8765-11.758 28.825-82.682 38.144-88.162 4.5948-2.7003 50.725-8.5335 76.128-23.955 18.84-11.438 32.391-32.619 49.666-46.744 61.61-50.361 64.217-41.153 88.82-56.262-44.755 1.352-72.832 13.19-112.16 32.292 5.9663-7.9458 18.643-15.514 26.602-21.988 21.42-17.413 38.892-34.727 63.332-48.571 14.098-7.9882 30.205-18.242 45.717-22.805 50.771-14.937 122.99 10.678 172.79 24.544-67.023 4.8005-55.322 2.4338-105.11 20.819-20.34 7.51-40.186 13.878-59.548 23.905 21.651 3.1575 49.883-2.4005 72.611-2.0005 64.988 1.1444 135.26 18.149 195.59 41.791-10.72 4.1429-27.029 3.5075-38.629 4.6353-19.686 1.9136-36.46 4.9736-55.447 10.47 67.819 3.8721 130.46 19.401 196.16 35.237-41.151-43.836-94.176-81.22-153.24-96.008 15.216-4.3878 31.849-1.4101 47.196 1.051 89.398 14.338 120.88 45.953 169.93 68.732 53.95 25.054 99.13 27.148 174.58 85.43 11.649 8.9973 24.958 19.646 31.29 33.178-18.156-6.1093-38.132-33.064-121.73-46.927-9.7056-1.6111-20.627-4.4332-30.415-4.3141 111.81 60.149 142.82 97.644 179.08 134.98 13.42 13.82 28.763 27.517 38.218 44.455-56.031-39.878-108.47-73.66-176.01-90.183 56.639 37.586 109.8 77.994 161.37 122.24 101.72 87.287 105.39 111.36 164.57 251.44l-223.03-149.6c39.893 53.884 127.88 152.48 189.31 179.04l5.9497 8.315c-12.109 4.4332-143.12-53.813-162.75-62.075 59.285 65.751 120.12 113.66 212.43 118.34 240.19 12.188 236.17-109.45 247.35-121.59-4.4419 49.791-15.52 75.488-54.749 108.21-23.339 19.468-51.712 32.134-80.027 42.557-2.5806 0.9485-1.5039-0.0167-2.0422 3.6969 38.811 11.374 91.88-26.028 122.37-52.86-22.673 51.069-58.966 81.464-114.57 83.721-9.27 0.3781-24.519-2.7893-31.294 3.2457 12.122 25.562 107.24 51.513 189.48 10.989 21.811-10.751 33.789-29.123 46.539-49.044-3.0037 43.202-37.98 81.901-64.623 113.19-15.088 17.727-30.608 36.362-48.297 51.554-46.132 39.624-97.684 57.178-151.02 83.462 85.163 28.082 170.18-29.517 221.01-34.866l-126.68 85.254c13.342-1.6968 28.553-2.7649 41.32-6.8893 52.32-16.918 104.02-60.534 137.09-103.42 17.283-22.406 26.499-47.569 35.831-73.89-36.025 44.883-39.531 55.504-137.58 79.872 60.633-59.286 112.64-122.09 111.1-212.08-0.304-17.694-7.7537-36.501-10.618-54.232-3.0857 32.488-5.0005 59.109-31.836 81.737-17.287 14.576-41.731 20.936-63.23 26.239 3.8171-10.455 6.8618-20.615 14.92-28.692-2.0752-6.7713-0.2898-9.4135 5.165-18.922 11.85-21.449 11.222-61.032 13.93-85.069 1.7463-15.504 5.3621-30.725 5.054-46.422-1.6797-85.361-40.651-115.94-108.34-151.89 32.63 35.939 64.478 76.45 62.346 127.92-2.3401 56.338-57.554 99.678-108.28 96.596-73.652-4.4654-126.77-134.77-157.61-197.09l-85.246-154.2c-42.336-78.995-62.921-163.95-168.52-222.49-95.422-52.886-157.45-48.803-200.09-67.405-48.123-20.99-180.17-105.04-313.5-114.4-47.398-3.3252-92.847 10.26-137.62 23.926-121.18 36.986-100.89 41.221-161.63 62.106-28.077 9.6534-57.173 12.09-85.702 19.432-13.531 3.4838-27.333 11-40.909 13.035-12.43 1.8641-41.267-21.112-53.705-27.013-27.374-12.987-56.556-21.821-85.324-31.106-172.13-55.543-198.4-26.74-301.77 31.942-219.12 124.4-223.5 203.95-260.08 233.36-62.252 50.038-289.67 101.24-308.78 375.9-1.6848 24.21 0.4313 48.629-0.6947 72.912-1.7958 38.544-17.826 107.78-42.31 128.86-16.144 13.905-39.134 12.114-48.297 1.0106-14.542-17.628-16.165-50.605-13.515-72.28 2.4573-20.114 14.682-39.677 24.564-56.935-39.303 36.337-69.816 71.031-71.604 127.17-2.3666 74.152 45.388 121.63 61.508 144.5-52.065-10.915-81.572-34.193-120.7-68.373-22.361-19.538-42.561-37.656-60.612-61.385 19.029 39.475 35.948 103.87 121.8 134.02 20.755 7.2837 58.878 3.5659 70.482 22.365-6.5622 6.1171-36.32 7.0825-46.198 6.6184-50.64-2.3788-109.05-46.981-142.13-84.038-18.297-20.488-18.219-49.455-17.644-75.353-6.0978 12.246-7.0016 25.105-8.3864 38.514-4.9391 47.882 5.2785 85.42 24.814 188.76 3.4845 14.905 11.994 32.705 13.272 47.553 0.904 10.505-5.2103 26.305-5.9911 37.754-1.9025 27.911 4.4994 54.347 9.8084 81.495-42.245-45.527-55.739-125.79-63.127-185.75-23.264 124.69-12.987 165.28 13.86 233.07 8.5551 21.605 15.91 42.59 29.281 61.845 27.235 39.225 76.538 78.446 124.66 86.543l29.153 2.2555c-56.577 16.248-106.09 38.843-135.91 93.384-25.542 46.731-41.986 118.1-26.269 170.13 2.8638 9.4817 15.573 38.835 12.187 46.295-40.599 89.432 36.359 213.6 128.32 254.24 23.688 10.472 49.76 14.046 75.129 18.233-30.364 79.73-22.559 143.28 55.122 205.8 11.462 9.2261 49.629 2.592 64.047 0.1807l33.324 48.884c13.954 22.492 26.166 46.242 50.056 59.737 10.305 47.475 25.361 89.563 69.175 116.7 13.169 8.1548 27.933 12.9 41.727 19.72 21.638 10.702 39.393 28.014 64.569 29.115 5.1279 0.2217 23.158-1.7087 26.651 0 0.3575 0.1768 3.2913 10.431 3.6693 11.91 18.066 70.373 6.2429 88.951 50.722 211.33 44.544 122.49 100.58 169.53 108.19 194.38 8.522 27.808 6.6895 62.708 7.766 91.65-55.234 50.206-88.878 123.18-100.49 196.17-4.0492 25.458-101.09 99.793-219.16 273.87-11.161 16.449-16.597 28.616-31.972 39.127-27.962 25.589-100.43 52.15-142.41 82.867-19.958 14.604-46.65 26.371-68.9 37.532-29.626 14.868-59.355 31.169-90.756 42.109-27.079 9.4326-52.858 23.224-80.434 32.208-145.17 44.489-281.43 77.272-415.78 185.09-74.793 60.004-91.222 96.642-111.63 139.31-9.8309 20.582-14.528 40.836-18.169 63.102 15.076-24.361 32.317-47.368 57.167-62.362l-20.366 71.688c32.635-41.072 71.226-109.11 87.433-118.89-4.5445 19.298-16.003 35.56-23.379 53.735-31.332 77.113-40.077 153.39-38.621 162.97 50.037-103.13 120.94-200.73 145.89-213.91l0.8654-0.2871c-10.38 27.55-42.482 63.294-79.885 168.19-6.5572 18.405-14.318 40.425-14.98 60.103 17.718-22.133 81.498-174.84 198.17-282.27-29.456 65.921-78.654 95.116-126.89 302.32 54.837-93.607 125.04-230.8 192.63-279.07-64.871 109.2-113.41 235.77-112.35 276.85 18.292-19.309 32.214-52.389 45.877-75.919 114.79-184.55 124.52-202.27 146.68-225.5-34.195 102.09-81.839 200.89-97.634 308.07-1.8901 12.818-5.9044 28.059-4.1787 40.794 71.222-168.22 89.552-220.71 121.95-249.16-28.923 71.935-50.594 159.23-50.718 237.21 28.015-51.846 49.588-106.4 82.53-155.62l-16.604 156.77c-22.376 16.718-88.467 52.232-95.572 64.417-4.4716 7.6748-19.26 87.16 2.7901 199.66 20.43 104.23 60.85 202.49 125.51 287.33l40.322 45.067-129.67-526.14c31.952-15.921 243.59-157.02 256.17-179.08-50.697-48.272-117.36-88.778-156.52-147.81 27.771-74.881 37.215-117.82 176.98-280.29 43.482-50.544 88.155-100.27 142.39-139.54 12.972-9.3953 25.792-19.559 40.141-26.765-25.525 32.562-55.722 61.027-82.057 92.936l-91.536 115.88c-101.5 156.08-121.63 183.07-133.94 225.38l64.594-43.177-36.057 62.075 79.768 74.688c19.469-19.186 43.683-45.93 66.644-59.816-11.107 26.909-26.557 54.434-34.783 82.082l71.382-37.508c25.891-14.872 57.995-39.151 86.08-47.901-38.709 50.836-81.969 81.951-125.45 116.14-11.435 8.1348-29.416 15.94-36.652 27.812-16.169 26.622-11.67 58.501-25.106 85.123-9.2001-5.2173-14.234-31.798-17.599-42.766-16.629 12.037-28.069 16.268-31.512 37.836-2.4406 15.323-3.7762 31.304-8.4564 46.094l-12.27-45.067c-47.171 29.688-19.745 17.679-42.557 125.83-9.0029-19.432-15.068-50.367-29.72-65.444-12.668 5.8335-20.578 13.598-31.311 22.102-4.4583 23.252-3.4022 48.025-3.6158 71.648-0.8242 92.265-4.6738 105.08 41.152 245.75 0.8505-41.657-2.2437-84.218 6.0771-125.26l61.458 204.01c-0.4273-74.194-22.854-147.24-16.095-222.13 22.986 53.981 42.315 120.66 52.296 178.42 13.408-86.56 4.861-175.83 25.809-261.32l73.823 325.45c-3.5179-68.827-46.262-267.91 10.942-427.66 2.6176 30.319 6.4799 61.253 6.9031 91.695 1.8125 129.69-15.154 159.9 26.746 274.02 5.7979 15.816 10.901 35.002 19.214 49.422l13.1-223.86c26.96 131.89 25.579 144.14 74.057 267.53-2.834-29.968-8.3367-114.73-3.3242-134.75 24.354 68.977 53.475 138.57 109.19 188.65-6.6443-30.894-9.8-59.158-10.277-90.668 19.903 29.845 27.165 98.054 102.85 154.02l-21.153-100.4c20.872 29.396 51.032 96.982 75.704 114.17 2.8434-0.0405 4.9802 0.8223 7.0347-1.3555 16.992-17.754 3.8104-72.713-3.2256-115.85-21.333-135.94-61.397-444.69-54.974-582.22 9.7753-6.6143 18.342-1.2324 29.692-10.312 35.017-27.894 60.842-77.604 79.838-117.66 1.8944-4.0259 7.4908-22.677 9.792-24.649 5.0582-4.355 33.139-8.7915 41.127-10.887 14.439 12.16 28.997 24.936 45.096 34.878 21.764 13.465 38.987 18.817 40.778 20.993 5.431 6.502 9.7191 26.785 28.952 53.324 36.821 50.901 86.425 88.902 144.93 111.91 23.039 9.0381 47.734 14.831 71.604 21.363-35.358 66.759-104.51 161.73-108.54 295.34-2.1719 72.204 9.1384 69.952-25.205 280.67 12.818-26.951 59.343-157.86 71.74-259.06 6.5537-53.489 7.5441-105.99 22.731-158.33 15.906-54.804 46.239-104.97 73.198-154.88 15.742-29.127 27.551-62.034 47.447-88.532 67.429 2.958 139.69 6.3267 205.48-11.215 39.479-10.517 77.18-27.484 118.1-33.646 33.139-5.0117 68.366-0.082 101.88-3.5742-33.836 44.011-153.85 151.54-200.18 188.77l-86.881 65.854c162.78-60.922 178.64-98.633 202.15-107.84-5.5143 24.391-72.221 83.658-104.13 121.19 51.987-29.374 98.033-74.358 140.22-116.06 43.449-42.93 89.922-90.38 123.2-141.94 34.101 14.79 67.248 38.083 100.08 55.954 23.15 12.571 48.91 21.404 70.642 36.275-97.828 150.39-31.649 46.492-327.54 516.69-52.527 93.153-55.041 95.762-56.491 109.11l3.813 4.1494c21.42 0.4521 44.69-5.1353 64.828-12.119 87.703-30.413 111.91-83.119 163.3-123.53-5.3745 33.194-18.885 63.841-30.941 95.022 72.74-63.006 95.574-103.1 118.63-125.22-3.1145 35.659-14.09 68.197-24.868 102.13 22.208-16.78 28.642-26 132.16-149.7 0.8188 4.144 0.4932 3.2749-32.761 108.33 8.4834-8.3447 8.0454-8.3184 89.84-124.64 13.934-21.322 27.14-44.944 43.481-64.417-12.101 63.965-37.375 124.89-57.707 186.64 51.412-53.243 86.688-121.77 128.9-182.32l-33.151 125.79 171.95-239.67-63.497 161.04c5.2783-0.874 87.419-87.685 152.18-172.75l-43.136 112.98c70.98-74.07 99.525-108.15 149.31-199.7-4.6406-32.535-56.206-97.835-100.71-207.59 5.9006 3.4512 11.85 11.462 16.736 16.557l34.816 35.495-65.929-245.3c109.81 179.05 100.15 165.96 112.71 181.66l99.866-19.268c3.0322-20.829 1.7217-38.206-1.1794-58.789l59.897 23.705c7.8972-17.624 11.205-37.056 13.913-56.036 6.2703 6.7783 15.043 20.089 23.919 21.774 10.787-8.8486 6.1814 5.4878 18.544-83.52 14.021 50.074 13.577 55.407 22.558 59.076 6.3689-12.859 7.2932-28.223 8.9001-42.356 21.688-219.73 36.384-320.11-38.945-605.33 20.619 26.346 43.666 59.405 55.739 90.685 7.729 20.028 57.212 203.43 61.804 396.29-2.1074 187.95-0.3013 214.05-10.918 235.81-12.471 25.553-192.06 58.994-231.76 67.498-19.579 4.1484-60.55 7.1895-73.987 21.321 66.874 111.11 65.467 106.49 130.3 187.5 7.4785 8.627 17.817 17.213 23.939 26.663 4.5569 7.0244 4.7048 18.98 5.4731 27.196-8.1682 8.9399 4.8508-4.1758-107.2 83.561-132.79 100.31-73.953 53.25-262.95 211.7-58.705 48.449-59.751 41.357-77.566 59.446 139.05-35.289 255.93-145.84 361.03-237.87 83.164-72.877 111.1-85.075 111.56-116.71 1.0054-69.984-82.954-115.44-116.71-189.92 280.75-73.449 282.05-52.986 281.6-237.04-0.2959-123.16-10.802-243.74-26.955-365.81 69.434 77.694 100.38 179.54 149.6 269.31 1.1467-81.178-30.871-169.94-61.01-244.52 25.812 28.982 121.97 184.7 130.97 196.75-77.666-182.37-71.332-167.33-72.548-170.65 15.26 7.3843 21.239 17.977 91.877 111.94 10.108 12.698 21.848 24.201 33.341 35.663-23.306-41.3-46.161-83.569-74.09-121.98-18.321-25.198-40.073-42.929-56.281-71.873 16.296 8.0166 19.084 11.987 139.52 126.79 7.1252 6.6514 20.915 22.135 29.819 24.419-2.946-13.048-14.168-26.395-21.268-37.894-26.273-42.565-53.232-81.962-85.328-120.47 42.105 25.701 76.592 64.404 113.97 96.473 21.708 18.623 45.82 33.819 67.827 52.067-5.4392-12.244-12.832-21.406-101.44-141.02l72.701 51.353c93.575 74.518 82.014 67.576 94.54 71.335-4.6968-13.253-12.06-25.438-18.795-37.738 9.426 0.8013 19.653 6.5034 28.385 10.061 28.558 11.634 55.435 23.552 81.42 40.425 16.058 10.426 37.433 33.325 56.376 35.257 5.9871 0.6162 7.1909-1.9719 11.624-5.6694-5.8846-30.594-102.9-103.74-134.89-132.24zm-453.66-1781.6-4.4128 4.7574h-2.519l-3.2378-116.3c19.831 37.063 25.048 72.586 10.17 111.54zm-43.65 169.32c5.8059-33.564 8.4114-82.144 23.943-111.89-0.7974 14.231-4.2651 33.252-1.459 47.026 15.516-13.98 24.334-29.46 37.898-44.496l0.9163 1.1338c9.7227 20.665 2.9883 97.214-69.59 141.34l8.2919-33.112zm-417.67-372.96c18.717 20.044 38.793 41.271 61.015 57.47 73.156 53.328 180.17 73.51 216.24 88.096-129.19 6.5086-230.78-26.565-277.25-145.57zm282.29 391.8c8.6289-27.62 11.957-55.136 24.954-81.326 21.034 40.076 24.03 85.57 11.398 128.54 14.808-11.378 26.049-32.17 33.957-49.159 20.347-43.748 27.534-85.451 30.731-132.94 12.325 35.788 18.259 66.241 12.832 102.97-4.4871 32.217-26.133 66.36-51.235 86.884-18.367 15.012-39.776 26.062-58.443 41.55l-66.8 71.015c9.8649-21.4 14.908-35.958 62.605-167.53zm-150.43 226.85c23.851 39.166 36.107 71.497 105.57 86.096 31.586 6.6387 55.213-2.165 83.935-14.506-11.419 13.122-22.23 24.206-36.402 34.349-15.187 9.2107-29.285 17.411-46.826 21.096-29.433 6.1826-60.045 0.6863-84.999-15.968-31.91-21.297-39.376-46.862-46.181-82.694l24.901-28.371zm0.9121 163.26c12.298 4.6218 25.196 5.8418 37.704 9.4817l-2.3997 2.9087c-19.578 6.8408-46.572 6.8149-65.263-5.2832-27.313-17.681-34.775-49.878-41.127-79.518 22.686 22.735 40.01 60.727 71.086 72.411zm-112.4 39.542c34.413 17.518 64.52 35.343 104.25 22.722 9.1138-2.8921 20.097-11.269 29.104-11.844-19.78 37.624-98.562 47.916-131.53 3.1309l-5.3254-10.834 3.5006-3.1756zm-1331.9-1438.5c-5.3911 2.5345-9.8041 1.0969-15.36 0 5.6048-1.8282 9.6441-0.7601 15.36 0zm1723.7-327.09-2.6257-2.7401 6.1267-11.659c2.2065 0.7969 0.7437 0.0493 2.9624 3.9315l-6.4634 10.468zm-163.23-102.16 2.2847 5.5994c-2.3135 2.0954-2.741 3.3687-5.9951 3.5787-13.33 0.8505-38.678-2.408-48.77-11.286 15.372-2.999 35.814 2.6373 52.48 2.1075zm-1126.1-652.44 81.942-38.678 19.296-1.2257 2.3997 2.5767-43.638 32.287c-18.548 11.422-64.203 35.843-85.915 30.704 8.5016-3.1388 10.654-5.3918 14.595-13.39l-1.7505-2.5944c-6.9569 2.6863-10.165 5.0634-15.24 9.714l-1.2614-4.5519c7.5236-9.204 19.23-9.909 29.572-14.842zm-40.096 12.532 1.3108 3.5944-4.6062 3.2605-2.3625-5.8282 5.6579-1.0267zm-3.7719 21.568 5.9661 0.4768-5.9951 7.2009-4.5979-0.4576 4.6269-7.2201zm-570.72 41.082c3.1436-0.4283 4.7749-0.4096 7.8154 0-23.01 23.873-63.23 40.764-92.161 57.468-2.5433 0.8465-4.9471 1.1788-7.5892 1.5858 26.035-27.885 57.69-43.598 91.935-59.053zm-223.16 217.17 12.952 0.6945c-19.261 16.759-54.768 24.717-84.765 33.527-5.6088 0.896-7.7372 2.1081-12.849-0.6202 18.91-18.86 58.985-26.67 84.662-33.601zm-57.641 543.33 38.789 42.952c7.4989 7.5221 15.996 13.319 22.579 21.786-17.974-2.3907-75.624-58.165-87.103-97.315 9.0026 5.1764 18.363 23.836 25.735 32.578zm-28.398 216.48c-8.7685 32.96-19.962 56.196-41.92 82.637 64.899-33.863 60.025-56.284 75.458-94.189l3.6282 2.132 2.527 10.92 9.2041-9.3256 1.4218 2.6825c-1.5161 10.653-3.2747 20.767-7.5524 30.713-18.988 44.184-114.84 109.22-158.6 126.54 22.819-27.038 55.52-62.903 68.222-91.662 3.7515-8.4918 7.8769-27.628 13.531-33.946 3.0691-3.4265 11.419-7.1731 15.474-10.07 6.6976-4.7858 12.676-10.739 18.61-16.428zm-227.67 314.18c14.143-6.2322 30.131-9.2352 44.636-15.011 41.23-16.417 88.393-47.146 115.86-82.201 10.355-13.22 16.333-28.753 26.256-41.817 7.2317-9.5188 21.392-27.817 33.501-29.406 8.588 11.651 5.2885 33.819 5.013 47.91-5.4691 40.938-26.528 91.194-56.503 120.21-29.211 28.277-71.336 51.361-111.97 57.026-15.918 2.2184-32.814 1.2118-48.873 0.9202 34.409-15.467 66.369-22.981 98.526-44.775 29.141-19.756 62.381-55.713 67.281-90.668-10.31 5.3656-59.245 79.771-173.72 77.814zm68.727-70.296c10.926-22.291 28.726-39.599 38.514-62.864 3.131-7.4521 3.9651-13.253 11.809-16.297 0.0123 22.928-4.8732 43.218-21.486 59.774-6.7591 6.7375-19.119 18.109-28.837 19.386zm-36.784-556.98c1.8492-19.703-2.1942-55.547 8.3004-71.721l4.2446 5.3034c8.4069 15.964 9.085 46.432 3.6858 63.698-4.0681 13.011-12.8 40.219-23.237 48.736 2.1164-15.373 5.5555-30.561 7.0059-46.016zm-33.27 82.23c7.8809-8.0766 11.99-18.931 21.207-25.705-2.9677 16.503-26.856 47.742-46.424 48.596 4.2447-9.3339 17.948-15.443 25.217-22.891zm-102.06-2.576c3.6265 2.7401 10.819 17.09 22.887 25.611 69.765 49.266 181-8.8973 238.45-70.756 13.284-14.301 24.297-31.691 35.333-47.799l16.592 38.815c-5.8988 18.19-17.05 23.193-34.54 39.476-61.176 56.966-131.35 130.44-212.24 83.918-24.921-14.33-58.746-40.191-66.48-69.265zm-156.68 162.84 5.3499 3.7178c11.539 6.3326 48.361 38.642 97.417 64.228l-42.787-44.385c18.739-2.2781 123.66 31.533 200.45 22.258-9.0112 11.721-17.521 21.441-29.19 30.569-34.396 20.377-61.188 22.685-100.35 22.464 10.753 23.918 22.074 32.738 42.282 48.169-13.827 1.2611-25.262-0.0083-38.226-5.1353-41.928-16.577-116.29-100.18-134.94-141.89zm81.227 321.91c-19.978-23.437-24.974-54.035-34.368-82.156-4.857-14.539-11.008-28.532-15.076-43.346 32.527 32.726 59.166 57.462 103.92 72.288-45.606-31.752-113.15-88.396-123.76-145.83 25.468 33.219 64.844 79.161 108.26 88.713l-7.4865-11.31 3.9282-3.9398c59.512 10.02 63.611 22.797 149.24 10.981-19.21 18.618-35.025 29.661-59.001 41.246 44.198-7.0209 77.531-21.358 94.717-58.513 2.7699 25.098-16.1 39.402-40.86 62.765 67.57-13.529 79.11-77.268 100.61-105.71 14.406-19.05 34.351-30.487 47.743-51.472l8.9617-12.156c-6.6675 70.94-21.655 70.627-50.504 112.94-22.439 32.904-22.022 48.782-65.42 85.155-27.743 23.254-67.127 36.009-124.88 27.311-92.097-21.06-105.01-57.812-122.44-73.052 18.71 61.615 57.662 95.236 114.08 122.82-32.868-3.1263-65.181-10.357-87.67-36.744zm-35.925 550.34c-36.599-32.192-48.614-97.216-52.176-143.18l18.207 24.695c0 47.547 36.001 108.47 39.94 122.77-2.3092-1.1627-4.0186-2.5637-5.9703-4.2851zm39.241-111.15-13.724-0.9121c-32.244-16.494-50.865-48.978-61.454-83.918-14.604-48.156-1.3684-101.66 21.638-144.64-9.6938 104.86 4.577 152.14 54.822 226.57l-1.282 2.9005zm93.76-99.768c-30.366-2.7073-43.63-18.791-62.096-40.938 35.222-0.4132 84.404 2.1036 111.31-26.494-18.656-6.3451-27.421-9.5226-41.094-46.78-9.0521-24.678-14.624-49.87-3.205-74.683l2.1532 0.9408c8.3796 62.045 48.301 94.755 100.66 95.052 43.884 0.2507 77.837-20.196 107.67-50.145 0.901 31.612-69.542 87.484-94.77 106.32-39.89 27.221-71.328 41.123-120.63 36.732zm170.23-47.195c-5.3722 21.163-51.845 66.444-116.28 76.877l-5.0542-0.7148-0.522-2.1815c70.966-31 69.424-41.601 117.22-74.465l4.6431 0.4846zm-137.19 432.19c8.5779 58.14 2.6914 69.042 51.461 127.44-58.155-32.99-65.284-66.17-51.461-127.44zm96.969-81.507c-4.6883 15.816-5.7896 37.331-13.132 51.476-7.5625-8.7903 2.9704-53.963-5.1363-63.426-4.3105 2.4977-8.21 4.6012-11.559 8.389l-2.2187-2.2556c7.4905-16.959 31.853-36.116 48.823-43.144l0.9449-0.2671c-2.9258 17.029-12.792 32.599-17.722 49.229zm1.3232-110.12c-24.346 10.562-47.278 4.4083-70.819-4.7324-8.9496-4.0095-17.106-9.3667-25.431-14.514 70.695 5.7234 102.41-12.465 141.68-21.527l8.1852-0.5055c-8.7524 16.088-36.768 33.975-53.618 41.279zm69.389-113.35c-58.182 50.955-151.65 43.963-165.81 30.943 14.497-3.6395 29.416-4.0875 43.798-7.7889 38.699-9.9708 77.036-39.036 102.37-69.038l18.556-29.337-63.213 40.396c6.3938-19.884 17.356-57.803 32.116-72.658 1.6396 3.7919 1.0436 3.6971 4.8529 6.084 23.458-23.384 45.902-42.668 64.828-70.304 2.0629-3.0114 0.6081-2.2184 4.4007-2.2184 0.674 34.883-20.027 68.32-34.31 99.341 29.499-20.179 56.511-55.67 78.527-83.742 4.7789-6.0967 9.4632-17.246 14.887-21.831-2.2232 35.166-30.419 66.245-47.434 95.664-16.798 29.045-27.703 61.832-53.569 84.489zm54.469 625.3c-8.1357-17.755-13.132-43.863-5.9949-62.313 5.0047-1.249 5.0992-2.124 10.096 0.0042l13.174 92.258-17.274-29.949zm146.63 56.426c-107.63-56.381-93.629-183.57-110.2-230.7-10.318-29.332-36.139-48.46-49.584-75.595-8.366-16.884 12.455-78.586 19.021-98.137 3.1558 12.826 10.293 25.04 12.22 38.079 0.7028 4.7656-0.5586 2.8635 2.8805 5.5791 7.3016-9.7859 11.649-21.207 16.481-32.336-4.5254 36.344-9.9214 35.877-26.285 71.002 22.587 70.139 53.431 79.567 94.836 110.11l-0.5796-48.198c13.384 31.423 18.636 71.277 18.417 71.828-1.4723 3.7009-23.844 15.648-25.578 36.156-1.7793 21.1 8.5837 50.469 21.457 66.844 5.4896 4.0178 12.524 6.3389 18.778 9.0012 7.0961 25.882 9.0234 49.643 8.1398 76.359zm364.56 911.13 33.061 36.017c173.87 202.47 293.71 184.21 368.06 189.93-4.8979-5.9319-27.571-6.1372-35.942-7.1604-34.988-4.2632-85.655-13.864-116.91-30.52 18.673-0.0491 87.601 16.28 134.95 8.0894-40.207-8.8286-79.633-12.559-118.22-28.445 24.428 1.8201 47.245 4.4656 71.908 2.9783 117.14-7.064 240.69-54.162 289.93-109.48-68.744 36.478-92.478 47.754-182.3 59.31-77.82 10.01-88.204 0.7075-119.97-14.391 22.209-4.0181 43.087-8.5042 64.421-16.096-18.458-10.854-43.457-14.814-63.566-23.491 12.96-0.5588 29.494 4.2683 41.526 0.312-14.497-6.4702-28.628-2.8057-41.612-13.253 5.6211-6.4502 26.343-6.6431 35.251-7.7073-16.781-5.3079-27.551-9.5596-41.431-20.664 3.8009-7.2344 8.7563-4.4778 13.884-10.131l-13.469-2.3127c6.8549-4.937 12.909-4.6294 23.746-5.1396-8.2334-2.7839-17.402-6.2974-21.219-14.202 4.6884-0.4973 7.1251-1.3967 11.131-3.874l-10.807-5.6323 18.322-2.1279-10.272-2.2556-1.0068-3.1057c9.5208-1.4626 29.355-1.9268 36.78-7.707-10.807-4.4329-22.867-4.6794-34.401-5.8005 64.614-17.678 134.64-13.869 199.07-32.952 30.805-9.1243 57.004-30.393 83.45-47.865l98.793-62.075c41.612-23.868 87.383-42.351 127.99-67.169 23.795-14.543 41.986-35.064 61.126-54.931 56.462-58.594 25.809-22.902 151.77-176.69 56.133-63.139 125.02-90.856 176.71-310.09 1.1177 92.985-18.371 186.95-28.936 279.14-6.1101 53.32-6.2991 108.8-14.509 161.52-3.3406 21.428-21.326 42.844-33.299 60.341-75.684 110.61-173.46 209.21-270 301.74-43.958 42.142-87.329 84.752-136.55 120.84 46.448-162.61 91.639-242.17 98.099-267.1-16.14 13.602-26.314 35.606-36.036 54.023-70.482 133.52-77.096 223.48-78.893 225.95-9.3315 12.814-30.333 25.245-43.1 35.688-80.886 70.335-50.004 41.322-134.52 125.3-110.12 128.5-105.67 124.99-115.76 128.64l4.8812-10.18c-16.03 7.8352-7.4349 4.8596-131.13 29.526l-1.0764 2.958c32.933 21.574 92.748-5.0615 122.08-16.704-8.5098 14.214-39.783 19.23-55.114 23.848-17.098 5.1475-35.559 6.3142-53.261 8.2988 51.638 15.029 51.936 1.6318 67.955 4.7117-13.667 5.6121-34.245 10.254-49.091 9.2642 12.278 4.2725 22.489 4.8765 35.399 4.9338-7.4044 12.555-35.752 25.619-48.873 33.096-35.909-13.598-64.647-33.449-97.203-52.864-70.099-41.799-152.14-79.892-228.72-245.74l146.82 129.62c-15.302-19.781-30.452-38.56-40.618-61.619 9.0481 8.6274 20.056 21.848 31.089 27.324-14.653-25.676-43.239-44.2-57.575-71.257 7.2235 1.791 14.665 10.607 20.253 15.43l37.811 29.513c-10.182-17.78-28.093-33.626-42.269-48.251-62.846-69.514-74.322-80.437-80.097-96.666 9.4321 4.0012 7.7922 4.4861 85.78 81.815 5.9169 5.5994 13.313 14.95 21.145 16.872-102.1-121.77-105.22-123.15-112.16-142.47 30.329 21.782 51.695 57.778 82.176 79.054-4.2609-15.042-77.663-75.85-95.021-125.05 17.406 10.986 45.117 54.467 59.03 58.793-6.0848-16.769-49.798-61.414-61.557-97.422 14.862 9.3174 27.711 26.629 41.887 37.824-15.676-19.986-28.217-39.496-39.792-62.104zm735.05 686.84 0.1602 2.5059c-20.73 8.4214-49.283 11.01-71.46 14.214-10.131 3.7197-81.081 6.4111-123.6 14.502l-3.0405-88.819c17.998-5.7515 36.5-11.134 53.914-18.446 37.898-16.022 72.129-34.715 113.4-41.041l2.9338 0.3696 1.4915 2.2183c-51.322 54.524-98.25 81.597-111.77 93.256 47.825 13.064 88.192 21.158 137.97 21.24zm-199.32-68.443-0.2058-38.371 7.8075-2.917 54.617 1.52c-39.117 24.984-24.739 15.795-62.218 39.768zm12.722-99.213c-2.823 3.0808-8.5428 9.9827-12.233 11.79-4.7335 2.3828-20.997 1.2737-27.218 2.3008-42.101 6.9883-46.999 19.921-115.3 22.636-16.436 0.2463-31.126-3.4099-46.999-7.3538l242.46-149.62c14.805-0.9038 29.059 2.313 43.543 4.9792l-84.255 115.27zm28.623-138.19c-107.25 74.205-105.25 74.954-116.67 76.959 10.759-18.095 10.121-13.337 127.85-139.19 341.15-313.05 362.86-326.94 478.89-460.6 65.572-75.532 86.349-94.647 151.47-219.43-2.0928 57.821-2.9941 81.773-67.606 178.85-70.109 105.33-243.25 299.02-311.98 362.82-127.7 118.54-206.85 162.65-261.95 200.59zm-721.67-790.75c13.745 44.299 13.009 93.433 17.311 139.4 7.9224 84.658 19.555 171.56 16.547 256.57-25.899-93.342-32.141-194.68-35.21-291.07-1.1052-34.788-3.7842-70.357 1.352-104.9zm96.504 796.54c-121.21 10.538-140.8 198.7-173.25 290.64-17.488 49.544-42.208 101.02-76.798 140.87-9.3522 10.764-19.382 23.129-34.125 24.238-49.021-41.769-5.8075-4.4365 42.766-669.14 4.8529-78.45 8.9373-154.36 22.731-231.9 5.9951 17.062 5.9376 41.912 8.4893 60.206 19.028 136.26 15.882 113.67 20.015 293.94 2.5016 48.867 21.35 74.861 0.0288 201.1-23.98 141.98-54.98 182.26-67.166 227.96 52.839-44.927 99.292-232.7 119.5-302.04 18.217-73.413 16.095-62.648 12.035-128.93-3.8638-63.075 0.4952-79.243-33.312-195.97-20.069-69.322-37.425-134.46-37.17-207.38 0.2545-71.273 17.258-144.77 69.487-196.44l9.8125 49.742c-36.534 58.426-51.052 115.03-16.864 218.12 13.991 42.173 28.455 60.71 116.77 205.76 27.806 48.423 50.672 101.02 81.091 147.78 39.515 60.744 137.18 141.19 194.96 175.38 16.333 9.679 93.316 46.858 98.218 55.937-9.0767 9.1201-22.788 12.16-35.066 14.255-38.917 6.833-29.775 6.3821-41.715-5.71-23.469-23.262-37.519-38.495-73.268-64.068-20.59-14.502-34.988-33.638-53.816-49.758-38.539-33.009-102.04-59.06-153.36-54.598zm53.848 262.58 1.4587-0.8213c7.063-2.9202 56.86-0.8796 94.762 10.517 6.1058 30.565 13.822 59.322 24.534 88.614-12.616-6.4424-15.019-7.1777-19.518-10.27-29.305-20.089-61.125-43.67-87.177-67.744-6.7427-6.2446-12.29-10.969-14.061-20.295zm66.406-43.669 6.6444-1.1506c16.324 6.7349 29.189 28.054 28.188 39.644-0.76-0.0411-29.679-33.975-34.832-38.494zm43.81 163.75c-14.92-4.6831-26.376-8.0933-33.924-22.513 13.116-2.8755 30.333 0.2056 43.86 1.1094 6.188 7.8877 12.565 14.009 12.397 24.567-7.5318 2.4653-15.097-0.9039-22.333-3.1631zm14.283-160.38c-125.65-67.179-126.57-87.376-151.76-152.54 20.866 6.0388 41.374 12.891 58.755 26.296 27.872 21.482 45.187 51.8 78.77 66.385 17.04 7.4355 58.282 8.5862 68.493 23.129l-24.448 10.928c-14.087 8.9172-20.869 15.674-29.807 25.8zm52.32 58.255-2.527 7.7229c-1.5204-0.8218-2.334-1.0679-3.5421-2.5879-13.256-16.515-10.642-40.055-5.9167-59.076 3.4062-13.722 7.9097-18.651 19.855-25.636 6.6525-1.8486 12.574-0.9036 19.3-0.1641 0.7725 1.438 2.3752 2.6702 2.3176 4.3135-0.2222 6.7539-24.926 35.259-29.486 75.427zm260.47 142.88c2.2792-22.96 36.134-97.289 34.996-169.96-8.941 12.161-18.264 24.362-25.944 37.344-10.712 18.158-19.814 38.822-36.328 52.544l-2.3297-2.4648 5.3787-17.502c-21.005 15.571-36.772 44.944-62.124 54.722-3.8994-9.8604 9.8248-44.369 12.459-56.324 3.127-14.132 4.8075-28.716 6.6691-43.095-10.856 19.103-23.483 39.685-38 56.242 0.7888-5.834 1.1465-10.641 0.3616-16.557-17.759 18.651-30.324 41.699-45.668 62.362-0.3657-36.644 7.2319-74.769 12.126-111.04-24.617 31.181-52.172 57.35-74.25 90.915l5.6335-48.313c-10.696 11.914-19.214 25.676-28.052 38.987-8.8824-48.438-9.521-97.008 25.394-131.13 14.986-7.3127 33.192-16.597 49.431-19.966 25.98-5.4067 79.512 10.005 208.53-3.9438 10.972 67.499 68.323 157.78-48.281 227.18zm300.38-86.396c-45.46 35.023-56.33 40.431-116.17 44.123-96.294 3.1221-88.355 4.1465-95.078-0.4526 10.127-28.866-13.23 4.9556 206.49-46.217l6.0239-0.3281-1.2738 2.8754zm612.23-827.14c-48.311 209.03-147.06 412.62-328.19 804.05-30.48 61.623-61.29 122.84-100.31 179.57-8.6707-92.302-65.14-290.85-149.98-411.71-38.6-54.98-85.472-92.632-152.41-104.42 168.16-91.914 255.49-182.45 381.63-325.66 74.92-85.056 146.53-169.55 202.48-268.65 18.376-32.545 37.409-67.872 46.297-104.36 11.365-46.657 8.1272-95.179-17.928-136.52-8.4314-13.376-7.4414-31.156-8.2427-46.64 54.312 43.923 62.521 96.31 77.512 163.72 32.179 121.17 21.409 85.68 47.636 159.85 3.6897 9.0298 13.087 23.992 13.416 32.976 0.6043 16.384-8.1398 41.44-11.92 57.802z"/> <path d="m2386.6 315.98c32.838 35.619 51.329 72.318 79.78 109.01-26.663-2.6459-51.219-11.622-77.397-16.675 32.987 17.032 66.307 33.605 91.092 62.239 12.422 14.35 22.587 31.473 37.252 43.65 28.866 23.975 65.892 38.51 95.797 62.124 43.996 34.723 40.782 45.817 55.804 59.964-23.573-62.19-69.541-121.32-112.76-171.47l69.824 42.336c8.5632 5.5665 17.217 13.959 26.207 18.207-31.574-51.718-42.865-114.94-80.758-162.47-25.735-32.286-96.43-86.918-137.64-91.244 11.284 10.361 22.235 14.976 32.909 24.185 33.213 28.655 68.234 71.47 85.168 112.32-66.773-52.441-77.621-60.26-165.28-92.176z"/> <path d="m1980.8 357.53c-78.268 41.284-145.06 132.14-170.68 215.98-21.346 69.864-26.166 142.35-24.157 214.87 0.2261 8.171-1.5492 26.091 1.7505 33.129 20.894-58.912 46.308-126.68 90.936-171.67 59.988-60.473 174.15-90.636 255.65-60.949 82.329 29.98 108.89 97.374 121.96 108.72-4.9004-43.75-46.489-94.776-82.143-120.29-55.073-39.418-125.53-49.368-191.27-37.77-33.201 5.858-63.016 19.189-93.406 32.878 48.425-45.593 113.42-71.536 178.82-81.223-25.275-2.8222-55.455-9.0054-80.504-6.2236-13.683 1.5156-27.978 8.4544-41.497 8.5655 79.061-41.259 182.09-73.96 272.12-64.388 20.541 2.1853 40.548 8.7711 60.645 13.413-59.983-32.237-135.57-46.123-203-53.936l55.706-6.9312c-11.94-9.0705-40.227-5.0651-54.847-3.1383l-7.2563-3.4999c8.6289-5.9777 22.127-8.0564 32.301-10.156 56.141-11.584 96.415-6.5213 147.52 2.0707l-20.779-8.7423-73.851-20.278 77.512-10.842c-85.78-25.857-173.09-10.953-251.54 30.425zm91.857 24.949-0.748 2.4282c-8.7048 4.7614-18.68 5.851-42.923 9.5847v-3.5005c23.766-10.941 40.888-8.5334 43.671-8.5124z"/> <path d="m2229.2 454.87c23.192 10.065 44.661 19.403 65.638 33.922 42.776 29.612 86.29 87.848 113.09 112.14 25.583 23.186 57.144 39.369 82.97 62.584-16.255-38.461-41.953-69.285-67.367-101.92 35.761 18.471 70.696 38.917 99.964 66.68-11.526-34.131-43.03-61.142-67.227-86.823 38.484 13.73 115.56 76.139 156.24 114.72-51.452-102.07-113.86-120.83-212.72-172.73-13.766-7.2231-92.856-56.332-111.34-48.325 24.377 11.863 14.998-3.8054 95.913 61.249 11.123 9.4902 22.369 18.298 30.427 30.668-13.859-2.0707-27.304-13.758-39.804-20.336-59.087-31.081-124.53-51.332-145.78-51.842z"/> <path d="m961.72 664.4c5.806-7.9125 7.5933-18.614 7.6961-28.232l-1.1793 1.2081c-5.1774 8.22-7.6057 17.423-6.5168 27.024z"/> <path d="m1662.1 658.31c-29.762-22.131-64.651-26.888-100.67-21.404-27.789 4.2358-52.222 20.028-75.302 35.006-15.984 10.369-32.691 21.432-45.039 36.172l50.023-23.277c17.919-6.0969 36.196-12.321 55.303-9.0342-7.7988 9.215-31.081 13.097-42.738 19.871-16.112 9.3705-30.879 22.829-45.023 34.928 55.944-24.985 113.53-42.967 173.8-20.101 59.822 22.7 90.299 81.896 112.53 94.937-7.7249-56.808-36.184-112.38-82.887-147.1z"/> <path d="m2532.5 1195.2c-45.195 6.7416-82.867 16.536-123.32-12.789-17.48-12.67-47.948-37.389-54.995-58.217 37.748 13.988 75.968 47.231 183.42 33.001-28.948-15.81-30.329 2.8604-110.29-59.17-51.322-39.821-96.237-80.188-124.54-139.68-28.893 105.99 3.9631 146.01 70.038 217.49-80.652-31.26-117.54-132.82-120.73-213.21-1.9824-49.913 24.025-155.2-40.112-245.57-67.428-95.016-187.55-100.52-269.76-52.458-61.418 35.893-127.32 109.45-145.19 179.45 34.286-24.562 46.167-50.045 72.836-75.049l-27.711 43.354c28.975-11.099 26.796-14.915 35.235-18.664 19.38-8.6285 74.682-74.375 136.21-69.084-18.099 9.037-22.55 13.637-30.76 15.907-38.008 10.505-84.999 43.038-109.91 73.356 10.486-1.1868 22.965-3.0646 32.806-7.0534 8.5425-3.4676 16.292-0.6121 25.131 0.2626 12.738 1.2697 28.467 1.0767 40.622 4.7615 23.249 7.0453 44.669 27.866 70.367 26.071l1.5492-4.0549-9.2535-8.7706c-8.7849 1.3389-13.445 1.8565-21.601-1.9393l1.7957-2.6005c23.491-11.516 79.112 9.0521 97.786 41.328-15.416-7.9658-24.899-16.42-39.45-22.049l-4.0801 1.7338c4.491 19.732 20.2 33.86 32.576 49.15 36.264 44.814 45.715 102.69 59.252 148.18 21.519 72.296 79.674 135.63 142.58 175.32 53.643 33.839 110.48 64.778 176.26 49.397 8.7852-2.0541 16.502-4.9133 24.066-9.9377l1.9763-3.8494c-13.239-8.0438-48.49-8.6315-64.61-11.281 34.98-11.031 79.982-13.68 107.35-41.871-5.6414-4.1779-8.8219-2.4607-15.536-1.4582zm-611.39-391.18c-4.2037 0.3455-7.4292-0.1192-11.546-0.9939l-0.5588-3.8373c10.17-3.9929 19.386-6.0347 30.111-7.7069 5.8923-0.4474 6.4923-0.2667 11.69 2.5717-7.6959 6.5492-15.438 3.7927-29.696 9.9664z"/> <path d="m2694.3 936.38c-105.45 11.296-193.46-70.222-245.23-162.28-18.318-32.578-33.6-67.666-54.264-98.843 11.682 58.23 24.017 118.69 50.487 172.27 28.247 57.163 89.327 119.05 108.11 130.74 14.665 9.1367 31.483 12.583 46.678 20.381-65.962 12.74-128.27 0.304-184.25-37.874-45.261-30.869-67.54-68.907-83.183-120.3 7.354 155.85 79.323 198.72 218.85 185.56 20.648-4.8434 76.062-18.914 85.874-37.898l0.8792-2.5224c-12.901-8.2479-36.768-0.8265-83.98-53.575 17.081 7.485 34.631 16.096 52.567 21.21 51.934 14.81 117.9 16.844 168.69-3.3481 25.747-10.233 47.315-28.778 69.463-45.075-72.812 16.238-128.35 29.156-150.69 31.551z"/> <path d="m1508.4 884.14c38.337-15.993 87.641-43.128 130.19-37.167 19.37 2.7115 40.301 9.7695 59.614 14.21-22.534-25.508-43.728-43.469-73.732-60.074 82.281 14.978 90.714 57.934 106.81 70.045-11.801-39.496-36.928-97.077-75.109-117.82-22.978-12.481-50.602-11.174-74.809-3.2621-41.834 13.68-64.561 47.34-83.38 85.097-35.835 71.894-65.165 175.67-37.594 254.19 6.7472 19.214 18.388 36.386 24.149 55.859-19.662-23.458-34.569-48.469-44.295-77.604-21.034-82.086-13.601-178.99 28.812-253.48 6.3115-11.084 17.426-21.547 15.413-35.051-41.144 19.456-61.611 39.948-76.983 82.94-48.935 136.89 26.791 286.66 98.736 311.03 18.285 6.191 41.127 6.5199 60.312 8.2329-44.784-25.372-71.074-57.334-84.987-106.88-13.942-49.631-10.585-100.68 2.6832-149.95 3.9816-14.781 7.7002-30.384 15.17-43.826 10.83-19.495 41.804-44.513 78.63-51.64-5.1179 4.0475-66.085 52.338-69.623 55.14z"/> <path d="m2524 797.32-33.25-26.042c36.044 53.686 81.362 115.02 148.6 128.16 60.497 11.82 78.999-9.2099 126.69-51.307-96.431 18.67-153.31 9.5817-242.05-50.815z"/> <path d="m2439.4 951.44c22.749 12.537 72.06 36.656 96.533 27.508-22.137-17.823-52.527-25.557-76.752-41.082-72.784-46.658-107.62-126.56-124.1-149.72 18.46 62.442 25.254 119.72 104.32 163.29z"/> <path d="m3286.3 1112.6c-96.053 100.07-231.05 129.5-258.99 140.34 107.91 62.598 190.78 27.008 247.93 137.69-92.284-29.246-104.69-60.728-157.58-81.182 48.519 51.213 99.192 93.24 166.63 116.58 65.889 22.798 75.129 9.9657 115.9 13.824-9.5125 8.3149-18.799 17.098-29.351 24.078-48.827 26.062-86.162 22.529-137.96 9.6708 37.967 22.727 79.127 40.404 124.14 29.476 55.221-13.405 115.73-62.013 144.85-110.55 19.707-32.853 25.538-74.334 21.568-112.14-10.618 45.227-29.996 81.4-70.618 106.27-27.432 16.794-67.416 30.212-99.582 21.905-8.1069-2.0953-15.413-5.0859-22.809-8.9683-4.6392-11.511-10.667-24.386-12.113-36.772-2.0259-17.349-0.0083-35.236-1.3271-52.692-3.1726-41.883-29.86-86.231-60.501-113.9 17.352-14.042 35.576-27.878 51.087-43.97 49.756-51.615 81.819-117.64 89.05-189.23 5.4966-54.425-5.2678-106.24-10.346-114.95l-1.3972-0.1275c0.9533 47.874 24.756 136.15-98.588 264.65z"/> <path d="m2927.7 1027.1c-14.384 2.7756-27.172 25.827-71.205 52.268-109.9 65.973-200.15 41.541-221.24 43.112 27.978 24.193 52.193 36.797 89.038 43.658 54.465 14.904 111.4 17.106 165.84 1.6763 13.547-3.8412 26.166-6.6471 38.522-13.742 12.762-7.3252 23.972-14.892 33.616-26.202-6.6855-7.6051-8.4292-5.6514-73.781-3.9152 17.504-10.053 37.125-18.475 53.561-30.002 60.72-42.584 82.33-137.75 65.584-191.84-2.6255-2.0621-4.8816-4.4943-8.1565-5.3282 3.9778 36.633-8.3577 69.067-31.035 97.57-10.17 12.781-24.252 29.563-40.741 32.747zm-29.897 113.74c-10.889 5.9938-24.646 9.1488-36.542 12.957-27.937 3.7756-55.612 4.9916-80.458-9.9622l-0.5137-3.1305 42.783-19.025 18.383 0.9982-10.926 1.7583c13.366 9.8895 50.396 14.265 67.273 16.404z"/> <path d="m3252.4 919.4-7.1416 0.4932c-49.916 12.833-75.706 9.4833-91.105 20.541 3.3489 1.3679 6.78 3.0522 10.252 4.0342 26.428 0.3576 76.953-6.6539 87.995-25.068z"/> <path d="m2720.3 996.16c45.921-0.6218 115.27-18.068 129.43-28.762-10.186-0.5136-24.391 4.1451-34.524 6.1499-31.874 6.3143-64.692 10.32-94.902 22.612z"/> <path d="m2830.6 1027.7-71.694 8.3643c-7.9509 0.5997-18.659-3.7673-25.649-0.6573 9.3276 9.1479 18.648 13.725 30.818 18.335-55.23 18.33-89.24 8.6924-118.56 7.066l1.1421 2.8387c23.984 12.312 46.116 19.551 73.35 19.107 64.606-1.0475 132.87-23.976 178.35-71.692-12.004 0.9049-26.696 10.551-67.753 16.638z"/> <path d="m2822.7 1022.6-0.4561-3.2742-122.79-1.8611c4.7581 5.4226 7.4373 7.5797 14.102 10.32 23.978-4.073 40.893 4.2081 109.15-5.1845z"/> <path d="m2759.8 1210.6c-173.35-49.023-172.54-70.076-226.84-101.6 17.862 38.194 51.683 75.11 92.026 89.842 39.59 14.465 93.02 14.399 134.81 11.762z"/> <path d="m3071.9 1610.1 1.7214-0.415c-15.643-18.224-34.133-31.082-50.746-47.902-17.118-17.328-33.76-44.623-47.192-65.472-2.9998 8.3929-9.3933 9.2067-6.0527 16.692 4.6514 1.9884 8.4729 3.3606 13.511 4.2316 6.5083 9.2559 10.601 17.982 18.326 26.58l-2.7202 1.5077c-10.416-9.4528-24.662-24.682-38.518-28.482l-7.281-10.435 11.123-0.1316c-3.3159-16.038-40.47-43.276-53.393-54.717 27.818 7.6658 40.95 21.363 62.215 39.504-6.2539-18.664-19.267-28.157-34.512-39.258-9.2249-6.7168-18.589-7.9453-27.966-13.31-10.659-6.0967-22.242-20.964-31.113-29.916l2.5681-1.3599c12.73 3.8043 20.915 12.879 31.196 20.751l32.482 23.117c-56.314-84.022-151.77-120.75-172.43-139.46 39.204 9.9993 72.458 27.205 110.1 40.749-19.448-27.41-40.116-35.437-67.084-52.544 78.433 6.3726 136.72 54.791 148.78 60.571l-0.2546-2.7484 1.623-3.8411c-13.798-38.621-50.438-66.598-80.771-92.028 58.467-39.557 61.299-48.047 74.04-51.743 13.769-3.9891 33.057-0.0288 48.277-3.3318 31.142-6.7579 90.961-29.727 108.95-57.026-21.786 3.7014-42.94 17.546-64.306 24.296-22.887 7.2345-46.822 11.868-69.406 19.834-31.548 11.131-97.312 58.436-260.64 41.817-21.692-2.2061-41.826-7.5302-62.748-13.368-15.557-4.3431-20.733-4.6102-31.13-12.423-16.477 5.891-37.302-5.957-53.516-11.659 15.877 35.031 38.547 73.898 66.003 101.07 58.418 16.678 47.561 11.993 97.667 41.008 29.909 22.316 66.204 38.934 91.799 66.237 5.5762-3.6018 6.5691-4.1063 13.35-3.907 1.8574 3.0317 2.7202 5.0367 3.2419 8.5533l-9.9397-1.3434c4.0667 7.5494 10.052 9.457 17.899 8.9064l6.2993 4.4247-1.3232 1.8815c-15.577-0.1028-22.472-0.8214-35.962-9.5803l-0.3618-5.7473c-3.3979-2.921-3.7842-3.2826-5.0457-7.559-4.0476 1.3351-5.7856 2.9989-8.7073 6.043-6.5251-1.8611-12.187-3.5082-17.981-7.099l-1.6111 2.8059 74.883 61.163c10.671 7.8752 26.91 12.448 35.901 20.94l4.4131-1.2242 3.6284 3.8535-2.0383 5.123c5.3604 2.4733 6.1821 2.6676 13.585 9.494-11.419 0.8998-16.198-5.8872-25.743-10.164-94.565-42.351-174.68-123.16-220.26-152.63-18.195-11.758-36.377-19.933-56.782-27.007 8.218 23.786 13.166 36.144 36.599 47.532 90.897 44.172 108.75 80.591 138.68 114.56 26.433 30.007 54.161 53.074 90.896 69.482-22.074-22.131-53.467-43.921-64.544-73.734 42.289 34.627 65.762 70.686 252.33 138.84zm-326.15-269.13c24.698-4.4948 65.865 27.651 85.044 43.654-12.709 0.7969-68.707-34.661-85.044-43.654zm117.37 110.86c-6.1924-4.7903-13.149-13.323-13.848-20.993l4.9514-0.3901c9.7261 7.8177 19.838 8.6067 29.774 14.728 8.4561 5.213 16.099 15.849 22.682 23.326-13.322-3.8002-32.605-8.2001-43.56-16.671z"/> <path d="m2750.1 1360.2c-32.531-22.381-67.458-44.525-105.66-54.96-12.876-3.5173-22.589-6.5293-35.304-2.7814 10.84 9.3832 28.406 6.6884 42.039 11.864 34.734 13.179 61.701 36.645 98.92 45.876z"/> <path d="m1135 1368.2c-38.596 27.242-48.947 68.813-56.885 112.6 46.998-101.33 90.642-101.91 127.62-135.92-18.456 1.3635-40.032 1.6526-70.736 23.322z"/> <path d="m2751 1585.6c31.022 108.28 129.89 166.39 238.5 201.24-7.3882-13.652-34.06-28.885-46.736-39.04-11.571-9.2679-22.218-19.892-32.798-30.265-139.95-148.06-146.68-292.51-249.93-341.8-12.709-6.0677-28.816-12.23-42.73-7.3865-0.5264 4.9502 0.3284 4.4821 3.2417 8.3971 15.91 21.367 24.32 28.199 122.82 122.95 6.3074 5.505 15.82 9.7284 21.305 15.603 8.6208 9.2271 13.802 32.467 19.218 44.574 7.2898 16.291 16.475 28.881 21.786 46.447-9.73-7.3127-18.61-22.197-26.199-32.011l-3.7227 0.3738c22.283 49.668 65.095 92.496 95.683 137.51-56.174-31.818-83.594-76.199-120.44-126.59z"/> <path d="m1235 1366.8c-37.811 3.7014-73.72 8.6766-99.348 39.747-30.386 36.83-46.251 84.296-49.131 131.83 9.7261-11.536 19.699-25.019 31.545-34.353 5.1774-4.0835 12.997-6.8319 17.406-11.52 9.4917-10.094 14.604-18.051 26.051-26.859l-6.928-0.8506-1.964-3.1017c21.967-32.956 52.468-47.285 86.207-64.844-33.336 2.5841-64.043 9.4736-89.318 32.541 13.329-29.554 57.501-49.381 85.48-62.593z"/> <path d="m2762.6 1370.5c5.7935 5.6118 14.644 12.173 22.97 12.838l-2.0056-3.7959c-7.2029-5.2584-11.998-8.1221-20.964-9.0422z"/> <path d="m2565.9 1848.8 1.0889-2.8101c-21.78-14.546-109.32-2.0778-145.33-34.71 7.4248-6.0145 26.996-5.3737 36.973-6.6019 9.0154-1.105 17.685-3.5247 26.343-6.191-51.753-3.3735-69.48 1.9635-114.3-46.266l2.5681-4.5767c-1.9353-2.3993-3.4062-3.7507-6.2703-4.9585-20.076-8.4794-35.617-24.74-54.633-35.228-19.144-10.558-39.052-15.361-59.828-21.301-80.062-22.88-77.824-22.263-132.2-17.074l-0.0947-2.2103c119.68-48.83 95.884-41.928 119.12-37.438 15.672 3.0234 32.314 8.9888 48.408 7.6823 15.252-1.2363 32.663-9.3912 47.134-14.485 12.8 7.4933 29.848 15.27 40.675 25.216 8.2517 7.5802 39.728 57.408 86.006 56.644 7.0144-0.1152 14.813-0.4768 19.912-5.8585-21.721-7.9822-34.871-12.864-68.16-37.914 30.826 0.4109 53.306 0.5669 81.486-13.832 11.579-5.9199 20.96-11.712 25.2-24.629l-4.0925-1.7418c-17.381 2.6376-36.484 2.8304-54.042 1.3474-9.948-0.8379-15.622-5.6118-21.831-13.031 7.1252-10.036 19.859-14.013 27.826-25.191l-1.668-4.2148c-28.151 0.1437-51.868-18.088-76.777-30.01 9.0764-1.8979 19.514-5.16 28.738-5.2092 12.874-0.0657 22.181-10.172 31.66-18.031-10.794 0.3204-22.99 1.5201-33.645-0.1725-7.4492-1.183-18.885-6.8567-23.314-12.97l15.569-12.842c-7.8813-0.2628-22.25 3.7181-28.804 2.0912-9.0564-2.2512-19.296-12.448-28.208-13.845-3.9285-0.6161-11.571 1.0929-15.742 1.483 5.3323 6.9078 4.8889 7.9122 5.198 18.947l-2.9463 1.0969-3.813-2.0667 5.6416-7.7069c-4.8691-3.5823-9.8945-7.9369-15.91-9.3008-4.7581-1.0806-2.2639 0.3818-6.0771-3.5333l7.2524-2.1732-1.0027-5.5337h17.665c-16.892-12.514-36.825-12.016-54.395-21.371-6.7839-3.6135-6.5369-4.4445-9.0811-13.105-17.792 4.6256-33.39 20.689-50.968 28.026-18.926 7.896-37.889 7.6289-56.918 13.089-42.234 12.115-91.07 37.28-140.57 37.8-13.264 0.1354-47.985-6.269-57.867 0.8914l-0.3453 7.3085c4.0516 10.94 13.28 17.871 21.749 25.401-9.9971 0.5258-22.332 2.3334-31.574-2.0173-10.622-4.9996-23.799-12.957-35.399-14.399l2.7778 9.8024-2.8022 1.4131c-11.124-5.9136-16.933-10.501-24.404-17.349l-3.8542 0.5546c-12.976-7.3373-20.693-17.086-29.54-28.803-3.9775 3.0977-1.8407 1.705-6.4221 4.1454-20.853-25.664-0.2551-98.12 2.3706-130.2-31.31 24.732-57.995 108.91-33.287 180.58 16.612 48.189 52.328 78.056 96.969 99.431-14.448 22-35.071 28.901-43.531 56.701-6.9032 22.694-3.1721 54.232-2.8557 78.031 0.1151 8.7712-1.3806 20.747 2.6257 28.679l3.3981-1.3311c3.2742-28.223-1.4423-49.911 9.3397-77.526 15.119-40.726 46.597-48.451 89.86-47.75-6.9855 14.654-29.844 38.441-29.844 52.478l5.1362 2.2144c24.617-7.6495 43.769-19.321 65.263-33.178-13.317 18.59-30.394 34.829-46.555 50.962 79.731 11.106 74.022 17.283 109.43 23.881 22.004 4.1 44.854 3.4261 67.088 6.2406 20.348 2.5714 50.138 1.7211 69.611-4.8767 26.22-8.882 38.473-26.654 50.841-49.808 13.782 5.1271 25.788 13.602 38.078 21.527-38.612 22.452-34.408 19.179-36.209 23.445l34.775-3.0896c-9.5508 23.224-44.337 24.611-71.636 29.986 43.383 8.9064 71.357 1.5527 106.8-24.111 0.8093-0.5834 7.8357-6.1952 8.5505-6.2323 1.7314-0.0935 24.398 27.87 47.525 41.362 44.834 26.152 109.8 20.504 160.1 20.348zm-307.61-289.06c-1.8533 0.686-2.7161 0.6572-4.4912 0.7886 4.9185-5.5582 13.35-12.431 20.537-14.716-4.0803 7.9496-7.425 10.714-16.046 13.927zm-52.037 7.2057-3.2378-2.8018c13.412-22.566 51.375-32.27 75.211-40.844 2.1284 1.167 0.8589 0.2712 3.2092 3.3689-31.85 28.26-29.983 11.788-75.183 40.277zm132.79-15.513-1.7588 1.1379-4.2859 1.7626-3.8623-1.8447 0.8877-2.0703c5.5469-9.0055 23.253-13.504 32.97-16.848 3.8503-0.5956 7.3594-0.2092 11.25 0-6.5579 7.9865-25.534 11.811-35.202 17.862zm11.271-35.84 6.262-1.5076c6.0076 1.4872 11.522 2.3046 16.214 6.6428-47.172 17.941-51.332 34.27-66.332 36.575l-0.8547-4.4779c9.8326-16.618 28.677-27.328 44.71-37.233zm-65.535-14.161 4.3022 0.3658c-6.5869 9.5833-14.267 10.874-25.008 12.624-13.149 13.656-29.503 15.78-45.442 23.951-9.8208 5.0325-21.145 17.394-31.611 19.576 0.2219-6.791-0.4641-7.1239 4.5322-11.758 17.583-16.314 49.23-28.158 72.52-31.769 6.7388-5.994 12.216-9.8432 20.705-12.99zm-93.238-9.1077c15.82-2.3788 30.094 1.1173 45.56 3.9274l1.27 2.3293c-18.918 6.472-21.044 1.4084-32.096-2.0543-13.609 1.5121-38.703 7.7236-51.35 3.6605 11.916-7.7028 22.904-7.4235 36.616-7.8629zm43.712 15.032-0.571 3.2866c-11.879 9.7283-24.087 12.624-37.396 19.416-13.847 7.066-25.504 15.233-40.256 21.42l-2.5066 2.6333h-4.7336c19.163-24.27 53.968-47.103 85.463-46.755zm-153.55 50.617 33.858-15.422c-9.4053 10.747-29.433 34.817-44.114 35.951 3.135-6.606 9.2903-13.442 10.256-20.529zm25.837 114.12c-11.945 9.3708-27.859 23.791-43.831 24.485 10.807-14.494 27.465-18.762 43.831-24.485zm-50.007 82.431c10.658-15.381 24.888-28.642 40.666-38.658l7.8936-2.309 3.8586 2.309c0.4263 50.087 15.744 58.782 54.214 82.365-34.913-3.7657-64.825-2.2664-106.63-43.707zm136.58-41.222c5.5884-1.8444 9.5452-1.2446 15.191-0.431 5.0171 7.333 5.0662 7.0989 3.5625 15.837-5.6335 0.8958-8.937-0.3901-14.295-1.8691-4.9433-6.0266-4.7915-5.7433-4.4585-13.537zm47.336 46.033c-8.0249 13.175-28.726 19.44-42.902 23.29-4.5566 0.9077-7.2522 1.1254-11.776 0 22.074-11.076 32.654-21.84 48.154-41.078 3.1597-0.1437 6.7305 0.7356 9.8862 1.175 0.4973 7.7029 0.8134 9.7611-3.3611 16.614z"/> <path d="m1733.8 1421.2c0.2422-4.6631 1.6642-3.7593-3.0573-5.764-6.11 18.516-9.2944 38.239-13.457 57.273-38.845 177.6-9.5059 154.45 10.675 209.71l2.0917-43.374c7.158 8.6683 13.153 17.279 18.946 26.896l2.9255-2.8881-0.3573-4.1986-15.175-47.17c16.654 12.271 32.609 23.174 51.203 32.459-14.698-22.098-45.068-43.822-52.657-68.71-4.7384-15.538-3.559-17.846-1.138-154.23z"/> <path d="m2646.8 1419.6c2.5347 10.94 4.1338 10.858 64.121 72.769-16.716-29.189-35.449-54.048-64.121-72.769z"/> <path d="m2003.6 2848.4 1.7954-22.057 3.1064 0.3862c32.011 51.639 32.06 37.992 44.505 52.252 9.5659 10.952 9.9355 26.108 26.137 31.917 7.9531-4.1128 9.5593-12.182 11.559-20.032 17.924 11.685 31.28 62.627 56.351 88.294 0.7312-10.102 1.6846-18.865 5.0212-28.552 12.898 14.72 13.527 36.723 16.247 55.424 45.743-30.683 168.24-74.509 197-226.7 17.85-94.464-17.874-178.13-70.963-253.88-13.609-19.42-27.695-33.355-47.628-46.201 16.436 30.73 36.784 58.809 51.544 90.492 7.4495 16.002 11.986 32.985 17.245 49.775 21.248 67.834 29.203 140.11 8.2471 209.41-4.7747 15.792-11.817 30.294-19.296 44.948 2.7939-85.333 36.623-195.49-39.512-347.81-16.066-32.138-32.93-63.776-57.851-90.114-8.3701-8.845-20.636-22.784-32.922-25.393l-0.7932 2.5632c16.675 26.905 41.066 49.496 58.599 76.618 45.216 69.954 75.713 171.89 71.62 255-1.1191 22.666-17.326 113.86-35.35 125.29 1.3845-20.5 9.1714-47.552 3.1145-67.087-7.3879 23.606-14.069 47.868-25.426 69.934 5.5964-60.732 16.572-125.24 3.6777-185.83l-1.1919-1.1213c-3.8376 66.91-10.614 137-57.715 189.1 1.6641-18.372 10.096-53.386 5.3008-70.48l-1.2986-1.3723c2.1819-6.468 1.7456-9.5911 1.2986-18.211l-2.6875 1.5857c-3.5723 23.408-14.602 48.845-22.998 60.046l-3.0449 1.5774c-5.6665-12.805-1.2942-37.101-0.9983-51.352 0.8901-120.36 3.075-131.72-4.2815-162.5-0.5425-2.28-0.4893-5.3489-2.4573-6.6965 0.7527 44.025 6.2012 97.378-54.239 167.19 5.6089-23.647 17.833-65.066 9.6604-87.862l-1.4177-1.2695-12.5 50.071c-1.6929-44.952 3.3364-91.769-11.526-134.82-2.4775 17.004 0.1604 36.941-4.4128 53.156-5.8926-25.077-8.5264-51.164-18.795-74.975h-2.1572c5.0046 33.749 5.4197 60.119 0.3 94.012-8.2224-25.968-9.7468-52.983-14.468-79.728-3.0779 36.933-4.8693 74.235-24.379 106.88-0.9695-45.486 1.4178-100.49-16.387-142.89-2.905 18.816 5.0377 41.961-5.8676 58.809-19.72-15.88-22.154-79.028-33.817-80.73l-2.5598 11.055c-7.3387-21.835-6.9115-48.958-12.611-72.186-0.5508 24.428-2.2396 133.49-11.588 148.91-6.1306-46.879-13.005-92.508-23.717-138.63-6.0946-26.226-26.645-60.315-14.39-80.102l-7.6261-42.31c-3.4885-2.6499-3.949-6.2898-5.4323-10.324 3.8214 4.2808 4.8895 4.7119 5.4323 10.324 11.333 8.0767 23.392 27.899 33.299 38.831 0.9985-12.879-5.3499-26.062-5.3335-38.987 0.0125-11.216-4.9019-22.238-7.6058-33.17 23.597 10.087 39.466 62.206 49.357 88.536 0.8179-29.312-8.2137-59.446-20.048-86.075 7.848 3.0688 12.224 10.727 19.267 14.995-5.1115-14.034-22.702-26.576-30.588-40.224 9.6193 9.5146 17.673 18.014 30.649 22.661-1.9353-7.7561-9.7178-13.044-15.791-17.961l1.7261-1.3225c6.9567 4.6995 15.072 10.311 23.738 10.299-2.9421-5.5132-5.2432-8.3809-10.77-11.56-10.236-5.8828-23.602-11.326-35.099-8.1384-16.171-11.744-24.726-19.212-39.853-16.548-3.0449 5.5664-5.2146 11.121-7.3716 17.078l-26.848-26.436c-6.2374-1.3599-6.899-2.1855-12.479 0.6697-2.1492 25.693 7.4288 49.639 14.669 73.964 8.2715 27.796 14.18 53.953 30.333 78.52l-24.445-97.985c49.599 125.76 29.818 73.9 36.838 104.12 25.523 103.1 32.12 111.95 22.02 182.6-40.724-64.686-10.162-57.436-40.158-144.29-2.7283 40.384 8.1729 80.311 4.9637 121.69-37.95-147.54-47.14-171.31-46.033-209.5 6.1876 6.5452 3.3047 12.297 14.398 23.618l3.6202-2.1975c-1.2468-19.008-2.4274-18.877-8.8676-43.243-2.8802-10.916-5.3252-24.539-10.383-34.62-7.9385-15.812-36.924-34.028-51.194-45.585 12.734-10.139 39.722-27.451 55.624-31.263 20.716-4.9626 67.201 16.526 97.022 15.356 10.076-0.3945 12.763-3.5413 19.189-10.447 0.8529-21.466 0.5135-31.004-22.965-46.488-14.172-9.3459-27.468-9.4529-43.921-9.7036-12.82-0.2012-27.855-1.2202-40.354 2.0459-29.655 7.7522-50.298 36.049-81.297 41.715-47.527 8.676-61.861-22.23-81.186-42.023-15.729-16.108-41.937-36.025-52.842-55.448-2.223-3.9646-1.3929-18.351-1.4218-22.936-0.4468-75.039 32.352-98.98 38.69-133.16 6.9526-37.508 4.5693-78.541 8.2635-116.8 18.619-131.49 23.775-153 18.881-181.81-2.8186-16.593-13.782-46.02-28.41-55.403-6.9198-4.437-12.413-9.7119-18.412-15.295l-2.9338-3.3688-1.6724-2.5718-5.0171 0.5013c-4.9967-3.8535-6.8456-9.6748-9.3481-15.274l2.0175-3.4713c0.1316-5.8459 1.3684-14.403-0.949-19.637l-4.9554 9.8352c-2.0052-13.348 4.7703-22.18 3.8418-34.23-3.3365 0.5916-4.8527 0.5544-8.2385-0.3657-5.3622-1.4583-8.7235 6.269-15.023 8.0726-0.2424-3.7139-0.7644-5.1558-2.6791-8.5244-2.8928-5.0944 6.5251-23.959 8.748-30.655 7.2565-21.835 4.6104-40.166-1.4136-61.73-2.1613 15.836-6.4957 43.518-19.522 53.16-8.066-3.303-7.7125-3.8947-11.559-11.199l-5.1362 0.2301c-23.561 3.2496-35.399-11.758-56.536-13.935-12.992-1.3394-24.51 3.299-37.223 4.3176-15.964 1.2817-33.468-1.0806-49.559-1.5447-23.107-0.6648-58.521 5.2489-108.35-18.232-40.525-19.091-46.069-29.482-90.661-23.256-45.861 6.4069-78.679 44.24-95.185 48.386-5.2977 1.3358 1.59-2.4276-23.331 12.957-14.238 15.591-29.642 25.27-33.834 47.454l2.7572 3.4633c8.3373-0.6205 11.892-4.3671 17.981-9.7693l2.182 2.4565-19.16 45.088c25.338-23.714 28.46-24.652 49.694-35.61-9.085 15.143-21.256 26.596-31.602 40.589-17.11 23.15-30.785 67.526-23.162 95.886 3.4846 12.978 11.156 26.679 16.859 38.917l-2.5148 2.7153-20.553-2.6085c-2.7941 5.5994-0.678 9.2761 1.2738 14.958 4.5814 13.356 16.568 21.847 27.193 30.302l-40.667 4.2108c6.2733 12.81 30.834 12.136 48.318 13.771l-52.78 14.966c9.3561 6.7456 20.524 7.3044 31.718 7.1521-5.6705 8.1837-26.38 14.765-35.913 18.524-3.1473 5.4722-5.165 7.7109-5.1526 14.12 13.201 6.9863 18.178 2.8832 78.129-13.861l-86.495 38.736c-9.4672 68.196 9.8617 140.83 27.444 206.31 6.4387 23.98 11.706 48.81 20.483 72.037 26.662 70.543 38.428 59.768 66.344 207.74 30.029 159.16 9.7515 245.87 40.544 360.89 32.572 121.64 104.62 219.79 166.65 263.29 26.211 18.372 54.662 34.221 77.554 56.87 53.646 53.065 72.149 176.53 219.43 199.08 25.644 3.3328 49.36 6.4712 114.14-12.44 5.2511-1.5325 22.304-9.7527 26.618-9.3955 5.3744 0.4478 20.237 11.811 27.481 14.276 68.341 23.244 131.23 25.688 191.22-20.829 18.31-14.198 35.149-33.211 45.889-53.809-48.301 28.642-98.891 41.809-154.74 26.995-83.003-22.027-105.66-102.3-128.81-134.84-2.5803 33.724 6.2787 106.07-19.563 129.45-22.202 20.077-98.147 12.555-165.45-68.763-28.052-33.889-54.444-85.504-49.575-131.01 5.5143-51.57 42.138-84.686 78.12-118.5 17.436-16.383 28.818-19.664 44.756-71.163 3.2297-10.431 5.3744-23.552 10.996-32.808 0.9532 37.002-5.8964 64.269-17.788 98.691 9.8821-8.134 20.422-16.26 28.278-26.448 21.12-27.373 29.38-66.762 38.933-99.279-0.6409 36.764-4.2982 68.845-14.932 104.25 31.791-21.917 48.634-45.909 68.02-78.652l-0.8093 52.039c6.7799-18.536 11.785-33.696 14.258-53.345l2.4202 0.8545c-0.9329 20.972-6.2416 42.224-6.1143 62.897 23.196-26.375 35.062-52.256 45.364-85.295l5.9991 57.49c23.271-42.045 17.632-43.054 26.248-56.085 4.8323 5.5093 7.4128 10.394 10.277 17.115 0.2261-11.146-3.4966-28.297 0-38.227 15.401 11.265 13.942 28.552 23.471 43.674 1.9175-18.602 3.6062-23.689 7.3796-36.234 10.838 13.883 21.721 18.964 30.797 31.309l2.9587-0.4973c-1.7423-6.3472-3.8418-12.698-4.5117-19.255 26.673-3.0568 37.376 79.326 58.303 88.815zm337.77-217.84c14.82 19.059 18.05 85.204 17.385 114.9-2.8186-1.5854-2.1821-0.4312-2.5762-3.1877-5.5022-38.449-7.5771-74.556-18.367-112.36l3.5586 0.6448zm-554.65-206.06c2.8434 4.252 4.7255 8.9644 6.8456 13.611-0.9258-29.569-11.738-45.296 2.1245-102.93l2.6213-1.4297c1.9395 28.254-8.6219 23.107 9.8617 88.992-2.7698-19.233 0.134-39.26 2.6626-58.579l3.0284-1.2859c3.9005 60.669 1.9478 28.793 6.3772 63.086 3.2036 24.781 2.2806 66.211 22.102 78.898-11.502-44.879-5.9691-51.522-10.042-88.548-1.0929-9.9458-7.5359-29.123-3.6158-38.001 2.5638 4.2974 1.7382 2.1899 2.9338 7.1362 10.806 38.413 3.8348 33.205 6.5663 58.196 2.3502 21.441 7.7045 42.274 10.803 63.505 1.1709 8.0479-0.1068 17.032 0.3328 25.274l4.7047 50.843c-44.59-82.214-29.482-79.468-43.017-119.23-0.5383 14.88-5.1199 28.059-6.8787 42.631-1.2245 10.139-0.6449 21.129-0.4478 31.296-18.61-36.304-22.406-73.578-16.962-113.46zm-309.02-872.99c11.603-5.2118 20.334 0.4109 30.567 7.0785l-0.678 3.1676-5.1364-0.0988c-13.258-7.3314-14.595-1.4988-30.826-1.5651l-1.1997-3.447 7.2729-5.1352zm-57.366-24.785c10.047-0.6119 20.911-6.1416 30.768-8.5903 5.4484-0.5997 6.0155-0.7681 10.807 1.7748l-2.0341 4.1083-10.084 1.7914c7.355 0.9858 9.0233 2.8385 14.805 7.2344l-1.9601 2.0872c-63.902-3.0177-44.4-2.3173-87.337-3.2744l-0.9-3.451c14.427-7.7152 30.185-0.7148 45.935-1.6804zm-100.49-9.8513c8.0701-0.637 21.938 4.2847 28.455 8.9598-11.703 0.5588-23.479-1.0474-33.345-7.6989 1.319-0.4024 3.3939-1.1418 4.8895-1.2609zm42.097 32.073 5.0048 0.4807 1.3148 2.0828c-29.642 7.7524-52.731 23.984-84.157 20.977l-6.447-2.6459 1.3108-1.8036c54.966 0.2038 22.381-14.419 82.973-19.091zm-75.293-59.06c-4.9885 1.0641-10.293 0.6862-15.388 0.7233l-5.1117-5.8585c7.8441-1.3518 11.172-1.7617 20.5 5.1352zm-70.445 30.812 10.626-5.1353c4.861-1.3802 8.6289-1.1338 13.605-1.0024l1.3109 3.5741c-16.507 5.099-19.822 6.4137-25.698 6.2078l0.1561-3.6442zm-59.285 251.63c9.6243 1.4751 27.258-2.4694 32.141-8.7013l-16.695-1.1626c4.631-7.7397 25.924-15.665 34.282-22.036 16.456-12.546 30.731-29.862 46.773-43.494l-15.82-11.548 6.7511-8.0562-2.6177-6.421 2.5681-4.9954c17.398-13.225 47.468-11.121 68.621-12.694 94.361-6.7036 113.3-9.6703 144.58-4.9504 48.232 7.2839 119.72 28.018 150.27 68.578l-1.282 2.1035c-52.744-16.881-36.39-52.179-178.51-41.374-53.881 4.0962-100.49 7.2511-148.87 34.102-40.828 28.778-61.234 80.738-88.615 82.09-4.2035 0.2096-7.1908-3.5166-10.408-6.0347l2.2557-4.7535c-6.6372-4.4542-18.744-6.7987-26.671-7.9205l1.2536-2.7318zm310.24-25.676c-8.7037 3.0106-12.846 2.2662-21.223-2.0747-3.8379-6.187-4.3063-7.4524-4.6022-14.708l6.9279-6.3226c7.9181-1.5608 12.241-2.3085 19.805 0.8096 4.6471 5.6406 6.5128 9.9294 7.8317 17.131 2.1787 12.596 7.2496 26.963-14.554 44.759-1.052-13.368 7.0756-25.442 5.8142-39.595zm-36.809 66.758-20.788 1.3883-40.12-2.9741c-44.405-6.1387-58.163-29.575-54.863-52.331 6.9153-8.5326 12.512-12.805 22.11-17.977 6.1143-1.4996 8.0784-2.5348 14.201-0.5875l0.3573 6.7126c1.8737 28.754 22.267 55.227 51.704 60.633 8.6169 1.5857 20.566-0.7889 27.399 5.1353zm-306.6 7.7069c29.153-4.0303 54.042-8.2329 82.419-16.425 5.8551-0.3944 10.868 0.0903 16.649 1.0187-18.812 17.467-60.78 23.386-85.418 22.838-4.4336-0.6656-10.7-4.1574-13.65-7.4316zm139.8 651.68c-1.1836-9.3337-0.3247-17.973 0.5217-27.279l-0.9286-0.5625-16.177 32.266c-3.3859-44.849 11.842-104.43 30.251-145.16l-3.394-1.8938-10.273 8.2122-2.1614-2.4895c5.424-15.262 9.0153-30.154 12.06-46.057l-15.039 16.371c-2.6342-13.056 1.2489-27.003 5.132-39.5 1.0726-3.4631 0.9164-6.7375 0.8464-10.324l-19.345 35.248c-0.6082-20.845-1.4464-41.858-0.222-62.691 1.9806-33.663 9.8042-74.901 2.5558-107.9l-29.482 37.475c4.8362-16.951 12.249-35.852 13.026-53.444l-23.886 38.65-6.9855-1.3801c-9.3149 11.355-16.087 24.731-23.261 37.5 1.463-12.97 3.394-25.935 2.486-39.008l-4.1173-1.3352-5.7567 7.699c-5.0743-7.1238 1.656-36.649 2.6177-45.79 1.2902-12.28 0.9409-25.011 0.8833-37.348-8.2137 11.417-13.256 21.72-18.367 34.776-0.8629 2.2019-0.4232 1.3887-1.9313 3.1841-1.2944-15.369-3.4845-31.58-2.6874-46.978 1.0232-19.728 5.5883-39.114 6.5332-58.928-13.475 24.947-11.133 20.748-13.21 24.107l-2.334-2.785c-4.3927 4.9214-9.1301 11.663-14.657 15.213 1.0889-6.9429 2.9093-13.348 4.9802-20.056-7.3839 5.7021-13.28 12.789-19.485 19.707l20.196-65.226-32.81 46.973c7.3059-31.51 25.258-58.924 37.215-88.869-16.374 16.092-28.89 33.786-42.927 51.788-0.4684-30.372 25.768-48.448 35.633-74.03-49.712 27.062-37.271 38.024-50.089 51.694l-1.0601-2.5717c2.9615-31.39 18.693-41.529 46.933-63.09 20.874-15.94 43.962-36.92 70.067-43.124-5.8595 4.0095-13.638 7.6781-16.707 14.062 9.4669 2.5964 15.618 1.3762 24.991-1.1215l1.7751 3.4098c-4.2078 8.011-9.1632 12.271-16.108 17.969 6.3979 5.9323 14.345 5.2913 20.956 10.27 10.915 8.2302 82.613 113.76 219.24 45.1-30.308 0.0824-66.911 3.4757-96.459-2.3701 9.8-3.8906 20.516-3.7059 30.657-6.7827-21.802-10.965-48.671-5.7969-70.449-16.675l1.5737-1.9308 8.6576-0.8217-0.526-3.3235 7.2853-5.2584c-14.06-6.8141-21.492-10.364-39.66-25.906l1.13-7.1852c6.1664-3.4352 4.374-2.4714 8.0865-4.3712l-5.2061-7.7029c1.0066-1.2449 5.054-7.1566 6.11-7.551 4.5364-1.7048 26.544 10.258 32.198 12.226 26.943 9.3711 64.396 8.915 92.321 5.0737-18.544-3.6848-38.802-6.4417-56.445-13.294l4.0388-4.1576c-12.861-19.917-61.801-12.626-69.064-44.932l5.0007-2.2921c9.8533 5.5089 20.031 11.712 30.637 15.599 49.865 18.258 138.57 9.8818 165.53-2.8058-10.519-3.2045-28.056 0.7765-39.286 2.0295 49.573-34.731 46.497-52.793 52.534-80.205 23.816 10.631 43.931 21.177 51.083 56.118-9.4761 1.1027 1.4214 0.538-34.298 14.802l89.412-4.4984c8.1196-1.3599 10.503-4.1494 15.454-10.303-10.709-29.14-104.94-72.548-133.3-92.332 48.347-1.4091 111.69 53.826 148.06 83.409-23.236 101.22-96.716 151.48-110.46 307.82 9.4836-10.492 19.025-22.809 26.06-35.097l2.3585 0.6616 1.7341 3.8042c11.78-9.9626 21.531-33.001 31.245-46.168 0.674 8.5205-3.2914 13.499-7.6511 20.541 6.7368-1.8177 9.9684-0.4139 13.749-2.5717 6.0774-3.4674 6.3527-17.764 14.961-16.688 5.1527 13.376 3.1475 27.903-2.938 40.782-15.018 31.785-51.087 46.957-68.883 77.165-18.429 31.284-28.34 69.075-41.813 102.74-42.466 106.12-107.2 170.34-174.09 244.94-5.8307 6.8567-12.216 16.429-19.543 21.527 5.3704-19.72 11.588-37.109 20.13-55.674l-34.886 33.153-3.7186-2.4648c1.052-12.945 4.3679-23.885 11.423-34.834-14.981 0.4792-21.065 22.888-28.253 33.058zm336.57-307.11c-3.3654 29.743-16.124 48.296-30.563 73.944l-4.8446-5.1353c-7.8688-19.534-11.238-37.878-9.6233-58.957 2.5065-32.747 21.593-51.747 44.817-71.988 5.5019 11.265 1.7216 48.781 0.2136 62.136zm-109.35 203.61c-10.047 28.194-27.259 53.386-37.384 81.963-4.0187 11.339-7.7128 35.409-15.396 43.839 2.2311-44.911 12.253-89.727 46.662-122 1.9726-1.8527 3.7067-2.6538 6.1185-3.8zm-165.56 487.7-7.9181-7.4521c-17.673-22.986-28.155-44.106-31.742-73.278-9.5504-77.738 22.363-168.42 39.566-190 5.5366 17.584-24.121 97.632-19.218 187.43 2.5814 47.13 22.513 69.057 19.312 83.302zm-2.1163-94c-8.2097-71.606 11.152-130.49 38.148-195.64 8.3044-20.04 14.875-40.876 28.48-58.09-6.9554 55.741-17.032 57.535-13.642 131.36 8.4517-34.472 1.2399-78.988 37.741-159.69 5.4115-11.972 10.864-24.814 20.299-34.209-5.4814 23.778-12.044 48.674-15.228 72.814-7.3982 56.13-1.8274 131 11.481 184.21 2.4285 9.7036 7.3921 22.657 6.5251 32.516-8.4359-4.5723-17.348-14.567-24.617-21.112l-0.9657 0.5503c8.6989 32.841 21.199 66.709 24.954 100.44-30.579-16.646-44.739-56.036-58.085-85.636l2.186 17.509c2.1038 18.212 15.848 35.356 12.684 52.638l-2.527 0.6777c-24.868-27.315-37.425-54.581-47.393-89.493-6.6195 49.676 14.217 95.536 28.41 142.02-27.839-22.698-44.406-55.601-48.45-90.87zm53.746 167.33c7.3756-0.8958 14.706-2.3953 21.79 0.5051 23.91 9.7898 41.312 40.088 50.496 62.581-29.741-18.84-57.193-28.647-72.286-63.086zm25.102 56.488c3.9694-0.8669 5.8472-0.5505 9.5946 1.0598 25.505 10.985 38.259 42.097 47.143 66.183-16.921-14.395-53.89-45.092-56.737-67.243zm180.37-453.47c-29.228 63.332-13.268 78.215-25.143 114.89l-5.502-123.47c-9.3109 33.757-10.634 68.488-15.495 103.02l-8.0085-40.934c-10.786 37.159-5.8267 81.088-4.9801 119.5-16.863-23.557-24.325-48.92-30.579-76.754-7.4363 17.328-4.2032 23.422-3.0078 113.22-14.64-52.158-15.487-104.34-21.827-157.68-8.8712 32.64-6.3936 71.17-7.088 104.98-14.538-70.382-19.214-138.29-2.4202-208.84 30.335-127.41 67.039-136.79 105.93-160.9-6.1016 15.336-23.651 32.057-32.917 46.304-8.9332 13.742-14.846 30.158-21.272 45.219-15.429 36.173-27.407 99.53-12.422 137.12 1.0601-55.839 8.5797-110.23 35.062-160.04-0.074 11.663-5.6294 24.107-7.4167 35.836-2.5066 16.458-1.5614 34.378-1.6805 51.032 5.4938-11.273 5.313-24.83 7.6837-37.002 5.1747-26.615 19.153-41.924 19.9-46.336 4.2815-25.262 15.351-44.369 32.252-63.537l1.6189 1.8115c-9.1793 14.001-21.149 29.423-26.433 45.322-2.4325 7.3127-2.7161 15.049-4.4871 22.513-4.1046 17.287-5.4279 35.199-7.6096 52.831 5.4978-12.756 10.371-30.294 20.475-39.784l-3.5173 15.406 1.9724 3.1262 20.093-11.133c-3.3654 14.149-12.648 38.67-6.2087 52.018 6.0771-5.616 8.9781-15.316 12.59-22.681 7.7867-15.87 24.305-47.228 40.946-55.26 4.3597-2.1035 4.6967-0.8994 8.9744 0.5464l-0.9575 10.27c7.121-4.8271 13.769-8.3889 21.794-11.499l-1.9641 7.2961c42.218-31.797 48.352-89.641 106.38-86.893l2.8352 4.3215c-8.9865 20.788-24.592 38.445-36.948 57.322-12.13 18.532-22.292 39.242-33.106 58.628-11.703 20.973-16.109 85.16 5.5679 108.82l5.687-2.7568c0.2344 21.422 10.139 38.23 19.904 60.008-41.009-30.158-44.406-75.06-49.994-85.138-3.1842 8.0151 3.6121 15.899 1.0808 24.69-2.7737-5.2993-3.8254-9.4363-4.9349-15.221-6.2456 5.0081-1.4998 13.044-7.7661 16.507-2.3749-26.128-9.2001-51.361-15.302-76.848l-4.0681 112.47c-15.487-25.894-20.204-54.117-30.324-82.193l-2.4613 130.58c-9.7097-41.205-16.013-88.01 0.5095-128.53 1.5669-3.8391-0.3114 2.312 6.4429-40.873-11.328 16.386-9.0967 16.895-41.534 155.81-2.3696-24.789-3.5967-52.339-0.3212-77.119zm165.13 1.5366 2.075 23.133-3.0242-0.0244-7.7289-15.381-5.1118 7.4482c-9.7424-7.1809-13.782-28.384-19.07-39.644-10.216-21.727 1.9608-81.652 12.438-89.661l-2.1 16.589 2.3092 1.4297 24.925-44.463c-8.1943 31.839-19.211 46.368-4.713 140.57zm-45.433-56.459c-1.2164-1.1174-2.2189-3.6604-3.0121-5.1353 1.0397-20.212 2.6012-36.169 12.981-53.924l1.9641 2.8921-11.933 56.168zm-111.74 214.94c26.561-14.083 54.448-23.708 79.764-40.343 10.116-3.2986 26.125 10.069 39.812 10.521 41.929 1.3845 82.628-7.3538 124.57-6.7908l38.518 44.422c-66.913 14.552-149.4 40.641-282.67-7.8095z"/> <path d="m1162.1 1489.9c-7.9753-1.2775-15.606 2.9374-23.175 5.653-15.08 11.417-26.141 24.645-34.187 41.85l2.8188 1.2858c4.4502-3.385 8.4233-7.0044 13.708-8.9435 12.874-14.757 25.267-27.776 40.835-39.846z"/> <path d="m2420.7 1744.1 0.0452 2.7528 3.8542 0.8502c41.332 4.7739 90.082 2.4608 124.24-24.144 13.038-10.159 22.817-22.739 32.449-36.029l-0.6409-5.0532c-71.739 44.776-77.439 41.362-159.95 61.623z"/> <path d="m2154.3 1851.6c-48.671-21.58-101.65-33.996-152.51-49.66 42.795 34.661 98.025 47.499 152.51 49.66z"/> <path d="m2017.9 1843.9c-3.505-2.2184-4.0435-2.2843-8.1277-2.2472 22.065 53.772 77.948 108.09 131.27 130.25 21.733 9.0342 111.42 31.251 130.68 23.803-15.443-13.011-72.711-20.343-105.25-34.341-70.992-30.55-129.02-105.1-148.57-117.47z"/> <path d="m1493.6 1970.4-3.246-2.8882c-124.69 64.051-147.29 37.548-153.87 47.499 3.012 2.0785 6.0321 4.4861 9.2578 6.2075 24.776 14.099 128.8-15.954 147.85-50.818z"/> <path d="m1136.4 2004.7c-2.2434 2.699-4.5034 4.3997-5.1691 7.8959 2.9338-1.8036 3.6406-4.8722 5.1691-7.8959z"/> <polygon points="1140.9 2017.5 1144.7 2017.8 1143.4 2015"/> <path d="m1899.7 2127.9c1.9762 0.46 3.9611 1.2241 5.9867 0.9409 8.9094-14.542 4.9762-49.966-17.956-50.995-1.5204 9.8882 3.6404 16.626 6.406 25.676 2.4326 7.9495 3.1022 16.314 5.5635 24.378z"/> <path d="m1931.4 2303.2c1.8942 3.0813 3.2994 2.8469 6.5701 3.8945 26.119 8.3645 69.993-13.192 82.994-63.382 5.3335-19.863 4.1418-41.106 4.2817-61.549 35.425 21.619 103.74 186.26 235.22 246.95-8.2344-11.996-19.793-22.226-29.762-32.862-64.59-75.917-50.879-57.776-127.63-178.28-38.916-56.176-75.203-111.4-140.44-139.02 12.886 22.722 31.594 37.249 41.033 62.893 12.471 33.889 11.896 76.285-3.731 109.23-15.092 31.801-37.557 40.95-68.53 52.133z"/> <path d="m2147 2478.9c22.99 34.279 33.069 71.688 50.849 108.2 0.9409-11.684 2.1284-28.523-1.1709-39.681-5.4363-18.386-14.971-32.444-19.625-52.096 8.2385 7.8096 14.899 21.219 21.182 30.881-16.398-51.092-13.498-35.116-32.297-61.2-25.423-35.281-52.361-67.366-80.87-100.2-6.7878-7.8137-23.466-25.277-33.911-26.038 0.8423 3.1472 1.2324 5.7021 1.5325 8.9067l-8.218-6.4333c-7.236 0.0742-11.168-1.4873-16.506 3.6646 16.259 17.604 39.344 32.845 50.997 53.916l-1.0972 2.9126c-20.208-23.01-43.42-45.075-68.748-62.346l-13.453-2.7239-1.0433 3.106c30.575 31.07 65.305 59.388 93.102 92.891 17.307 20.857 28.073 45.909 45.343 66.401l-2.0996-42.302c6.1224 5.4721 11.374 15.192 16.033 22.139z"/> <path d="m2062.4 2505.6 3.2131-1.4585c-4.3679-50.453-27.88-104.37-59.724-143.76l-5.1362 4.0425-7.7087-9.0051-5.58 2.3665c-3.061-1.5078-4.627-3.1018-8.0784-2.5635 4.6062 15.311 16.37 26.814 23.306 41.16 15.376 31.802 27.202 65.218 43.288 96.683l-1.245-35.01c16.032 44.874 12.43 35.415 17.665 47.548z"/> <path d="m2239.4 2593.3c-13.778-85.198-18.943-88.29-41.18-127.17-21.466-37.52-42.746-69.084-78.416-94.875-6.2539-4.5193-14.661-9.5022-22.592-9.6584 10.339 14.253 23.954 23.085 35.231 36.037 28.003 32.179 53.047 72.202 72.282 110.32 13.962 27.669 18.984 58.431 34.676 85.344z"/> <path d="m1968.8 2369.5c2.9093 13.647 8.218 26.354 12.335 39.64 6.5044 21.001 11.086 41.21 21.21 61.015-3.3323-34.554-7.5112-65.222-25.583-95.676l-7.9631-4.979z"/> <path d="m2099.2 2517.8c5.8711-28.499-34.63-105.19-48.322-112.27 10.646 38.322 37.306 68.739 44.632 109.8l3.6902 2.4687z"/> <path d="m1897.1 2474.3c-2.2229-2.1648-1.8533-1.446-5.1118-0.9941 2.634 34.427 7.113 71.984 23.175 103.15-0.8509-24.67-0.3372-84.888-18.063-102.15z"/> <path d="m1836.4 3665.5 2.3997-1.9431c-30.731-2.2798-58.138-2.6416-88.681-8.7917-32.338-6.5154-63.496-17.87-96.385-21.605 47.47 26.654 132.63 49.05 182.67 32.34z"/> <path d="m1881.3 3697.8c-34.872-8.8633 2.2142-1.5422-209.35-38.847 49.613 31.568 86.239 48.025 209.35 38.847z"/> <path d="m1872.3 3717 5.7239-3.7634c-155.27-7.5-140.12-15.228-209.58-32.163 17.644 12.287 35.432 26.609 56.158 33.046 47.591 14.777 99.43 14.272 147.7 2.8801z"/> <path d="m1783.8 3731.7c-39.161-1.7571-73.27-14.892-87.337-14.317 6.9277 12.501 25.118 20.056 38.423 23.869 55.628 15.944 109.11 6.3267 162.84-10.809l8.1195-4.7776c-16.978-2.7472-76.219 8.0865-122.04 6.0348z"/> <path d="m1718.6 3754.6 12.446 6.6799c60.608 18.602 131.87 9.5486 185.48-19.929l-8.1565 0.415c-128.72 29.479-160.23-1.87-189.77 12.834z"/> <path d="m1913.4 3767.1c-6.2496-0.4929-12.726-1.5198-18.926-0.3203-122.89 25.776-126.85 5.5378-172.05 7.0659l29.618 16.174c45.905 12.633 112.5 4.856 161.36-22.92z"/> <path d="m1734.1 3800.8 13.404 10.304c46.909 15.558 123.14 11.874 171.08-24.62l-3.1764-1.0889c-58.553 21.996-120.67 14.432-181.31 15.406z"/> <path d="m1855.7 3821.9c-88.638 13.45-95.837 4.8896-113.2 7.136l7.8484 6.5198c29.571 15.368 48.066 11.179 84.769 5.0654 25.484-4.2478 63.435-13.881 79.366-35.91-6.2496 1.261-13.934 6.6018-20.224 8.9187-12.13 4.4658-25.833 6.3391-38.559 8.2698z"/> <path d="m1751.6 3853.3c2.2024 4.8027 3.3486 5.4478 7.7043 8.5698 45.639 20.624 131.39-4.7896 152.05-33.79l-2.1901-1.6025c-108.47 39.931-131.67 19.795-157.57 26.822z"/> <path d="m2939.4 4470.9c-21.556 23.252-36.624 57.844-51.063 86.026-5.917 11.503-15.142 24.896-16.235 37.795l3.5708-0.5752c30.016-36.563 56.626-75.673 68.978-121.85l-5.2513-1.397z"/> <path d="m1734 4531.9c-7.4784-2.4648-19.054-1.2324-26.832-0.3291-64.706 34.44-89 121.61-23.08 140.01 7.5112 2.0542 15.54 2.1772 23.29 2.3828 28.081-11.421 42.368-36.275 53.894-63.02 15.835-36.735-9.7521-73.204-27.272-79.042zm-15.795 119.26c-9.1027-0.0776-15.887-0.3735-21.539-7.5591-13.36-16.824-12.027-49.239-1.6685-63.677 6.2664-8.6685 12.865-12.037 23.183-14.009 3.6322 0.2461 6.6276 0.6982 10.059 2.0542 7.9224 3.1626 15.45 13.68 18.367 21.362 6.8008 17.871-5.465 52.099-28.401 61.829z"/> </svg>